<svg width="340" height="256" viewBox="0 0 340 256" fill="none" xmlns="http://www.w3.org/2000/svg">
<path d="M8.02112 256L21.27 236.067L34.5124 256L93.0162 256L106.265 236.067L119.514 256L178.011 256L191.26 236.067L204.509 256L263.006 256L276.255 236.067L289.504 256L340 256L340 255.303L320.107 255.303L333.363 235.358L340 235.358L340 233.969L334.322 233.969L334.283 233.969L339.993 225.38L339.993 222.591L332.423 233.969L305.031 233.969L291.775 214.025L319.174 214.025L333.389 192.692L339.987 192.692L339.987 191.297L333.389 191.297L320.133 171.358L339.987 171.358L339.987 169.964L319.174 169.964L305.462 149.328L318.71 129.395L339.987 161.38L339.987 158.631L334.27 150.025L339.987 150.025L339.987 148.636L333.349 148.636L320.107 128.697L339.993 128.697L339.993 127.303L320.101 127.303L333.356 107.358L339.993 107.358L339.993 105.969L334.283 105.969L339.993 97.3748L339.993 94.6309L332.462 105.969L305.07 105.969L277.6 64.6917L304.098 64.6917L318.312 86.025L339.993 86.025L339.993 84.636L320.14 84.636L333.382 64.6917L339.993 64.6917L339.993 63.3027L333.382 63.3027L320.14 43.364L339.993 43.364L339.993 41.9694L320.14 41.9694L332.925 22.7336L339.993 33.3748L339.993 30.5969L320.101 0.697331L339.993 0.69733L339.993 1.87256e-05L289.498 2.04769e-05L276.249 19.9331L263 2.1396e-05L204.503 2.34248e-05L191.254 19.9331L178.005 2.43438e-05L119.507 2.63727e-05L106.259 19.9331L93.0097 2.72917e-05L34.5058 2.93208e-05L21.2634 19.9331L8.01457 3.02396e-05L0.013026 3.05171e-05L0.013026 0.691681L6.61139 0.691681L20.8262 22.025L48.2246 22.025L34.9692 41.9694L7.5773 41.9694L0.00649476 30.5912L0.00649492 33.3748L5.71722 41.9694L0.00649539 41.9694L0.00649547 43.364L6.64401 43.364L19.8994 63.3027L0.00649656 63.3027L0.00649664 64.6917L19.8929 64.6917L6.64402 84.636L0.00649774 84.636L0.00649782 86.025L5.72375 86.025L0.00649829 94.6252L0.00649844 97.3691L7.08128 86.7223L19.8668 105.964L0.00649892 105.964L0.00649899 107.353L19.8603 107.353L6.61789 127.297L0.00650009 127.297L0.00650017 128.692L6.61789 128.692L19.8603 148.63L0.00650127 148.63L0.00650134 150.019L21.6877 150.019L35.9025 128.686L62.4002 128.686L34.93 169.958L7.53815 169.958L8.73835e-06 158.62L8.88982e-06 161.369L5.71722 169.958L9.36298e-06 169.958L9.43982e-06 171.353L6.63749 171.353L19.8929 191.291L1.05382e-05 191.291L1.06151e-05 192.686L19.8929 192.686L1.22622e-05 222.586L1.24159e-05 225.375L21.283 193.389L34.5319 213.322L20.8196 233.964L0.00650597 233.964L0.00650604 235.353L19.8603 235.353L6.60487 255.297L0.00650714 255.297L0.00650718 255.994L8.00805 255.994L8.02112 256ZM303.229 105.964L277.652 105.964L290.444 86.7223L303.229 105.964ZM104.921 63.2914L78.4229 63.2914L65.1675 43.3527L91.6587 43.3527L104.921 63.2914ZM93.447 43.3527L119.024 43.3527L106.239 62.5884L93.4535 43.3527L93.447 43.3527ZM120.878 43.3527L147.376 43.3527L134.12 63.2914L107.616 63.2914L120.878 43.3527ZM148.772 44.0557L162.021 63.9887L148.772 83.9217L135.524 63.9887L148.772 44.0557ZM163.411 64.686L189.909 64.686L176.667 84.6304L150.169 84.6304L163.411 64.686ZM220.519 63.9887L233.768 44.0557L247.016 63.9887L233.768 83.9217L220.519 63.9887ZM232.371 84.6304L205.873 84.6304L192.631 64.686L219.129 64.686L232.371 84.6304ZM235.158 43.3527L261.655 43.3527L274.911 63.2914L248.413 63.2914L235.158 43.3527ZM332.012 63.9887L318.763 83.9217L305.52 63.9887L318.763 44.0557L332.012 63.9887ZM317.372 43.3527L304.117 63.2914L277.619 63.2914L290.875 43.3527L317.366 43.3527L317.372 43.3527ZM289.021 43.3527L276.236 62.5884L263.45 43.3527L289.028 43.3527L289.021 43.3527ZM219.129 63.2914L192.618 63.2914L205.873 43.3527L232.371 43.3527L219.129 63.2914ZM191.299 62.5884L178.514 43.3527L204.091 43.3527L191.306 62.5884L191.299 62.5884ZM176.66 43.3527L189.916 63.2914L163.405 63.2914L150.163 43.3527L176.66 43.3527ZM261.629 0.686011L274.872 20.6304L248.374 20.6304L235.132 0.686012L261.629 0.686011ZM205.906 0.686013L232.41 0.686012L219.161 20.6304L192.663 20.6304L205.906 0.686013ZM91.6326 0.68034L104.875 20.6247L78.3772 20.6247L65.1348 0.680341L91.6326 0.68034ZM22.6667 20.6247L35.909 0.680342L62.4068 0.680341L49.1644 20.6247L22.6667 20.6247ZM36.8097 41.958L49.5886 22.7223L62.3806 41.958L36.8097 41.958ZM64.2081 41.9637L50.4893 21.322L63.7382 1.38899L90.7319 41.958L90.6928 41.958L64.2016 41.958L64.2081 41.9637ZM79.3039 22.0193L106.696 22.0193L120.911 0.686016L147.408 0.686015L119.938 41.9637L92.5463 41.9637L79.2974 22.025L79.3039 22.0193ZM121.837 41.9637L121.805 41.9637L148.792 1.39466L162.047 21.3277L148.329 41.9694L121.837 41.9694L121.837 41.9637ZM162.948 22.7223L175.734 41.958L150.163 41.958L162.948 22.7223ZM177.587 41.958L150.117 0.686015L176.615 0.686014L190.829 22.0193L218.221 22.0193L204.966 41.9637L177.574 41.9637L177.587 41.958ZM219.592 22.7223L232.377 41.958L206.806 41.958L219.592 22.7223ZM234.198 41.9637L220.486 21.322L233.728 1.38898L260.729 41.9637L234.198 41.9637ZM249.301 22.0193L276.699 22.0193L290.914 0.68601L317.412 0.686009L289.942 41.958L262.55 41.958L249.294 22.0193L249.301 22.0193ZM291.841 41.9637L291.802 41.9637L318.795 1.39466L332.044 21.3277L318.332 41.9694L291.841 41.9694L291.841 41.9637ZM8.51713 43.3527L34.0946 43.3527L21.3091 62.5884L8.52366 43.3527L8.51713 43.3527ZM22.6275 63.2914L35.8829 43.3527L62.3806 43.3527L49.1318 63.2914L22.621 63.2914L22.6275 63.2914ZM50.5219 63.9887L63.7708 44.0557L77.0197 63.9887L63.7708 83.9217L50.5219 63.9887ZM49.1318 64.686L62.3806 84.6304L35.8829 84.6304L22.634 64.686L49.1318 64.686ZM21.7072 105.964L7.98848 85.3277L21.2373 65.3947L48.2311 105.969L21.7007 105.969L21.7072 105.964ZM36.8031 86.0193L64.2081 86.0193L78.4229 64.686L104.921 64.686L77.4504 105.964L50.0585 105.964L36.8031 86.0193ZM79.3431 105.964L79.3105 105.964L106.304 65.389L119.547 85.322L105.834 105.958L79.3431 105.958L79.3431 105.964ZM120.447 86.7223L133.233 105.964L107.662 105.964L120.447 86.7223ZM135.086 105.964L107.616 64.686L134.12 64.686L148.335 86.0193L175.734 86.0193L162.478 105.964L135.08 105.964L135.086 105.964ZM177.091 86.7223L189.877 105.964L164.306 105.964L177.091 86.7223ZM191.704 105.964L177.985 85.3277L191.234 65.3946L218.228 105.969L191.704 105.969L191.704 105.964ZM206.8 86.0193L234.198 86.0193L248.413 64.686L274.911 64.686L247.441 105.964L220.049 105.964L206.793 86.0193L206.8 86.0193ZM249.34 105.964L249.301 105.964L276.294 65.389L289.543 85.322L275.831 105.958L249.34 105.958L249.34 105.964ZM91.6326 255.303L65.1218 255.303L78.3772 235.358L104.875 235.358L91.6326 255.303ZM63.8034 254.6L51.018 235.358L76.5955 235.358L63.81 254.6L63.8034 254.6ZM120.917 255.303L107.662 235.358L134.153 235.358L147.415 255.303L120.917 255.303ZM135.948 235.358L161.519 235.358L148.733 254.6L135.948 235.358ZM176.621 255.303L150.123 255.303L163.385 235.358L189.877 235.358L176.621 255.303ZM290.914 255.303L277.659 235.358L304.156 235.358L317.412 255.303L290.914 255.303ZM331.522 235.358L318.737 254.6L305.951 235.358L331.522 235.358ZM261.629 255.303L235.119 255.303L248.374 235.358L274.872 235.358L261.629 255.303ZM233.8 254.6L221.015 235.358L246.586 235.358L233.8 254.6ZM219.155 235.358L232.41 255.303L205.899 255.303L192.657 235.358L219.155 235.358ZM303.23 233.969L303.19 233.969L276.693 233.969L262.98 213.328L276.229 193.395L303.223 233.969L303.23 233.969ZM192.618 192.692L219.115 192.692L233.33 214.025L260.729 214.025L247.473 233.969L220.081 233.969L192.618 192.692ZM218.228 233.969L192.657 233.969L205.442 214.734L218.228 233.969ZM135.517 191.994L148.766 172.061L162.015 191.994L148.766 211.927L135.517 191.994ZM147.376 212.63L120.878 212.63L107.629 192.692L134.127 192.692L147.369 212.63L147.376 212.63ZM91.6652 212.63L65.1675 212.63L78.4098 192.686L104.908 192.686L91.6652 212.63ZM120.878 171.358L147.376 171.358L134.133 191.297L107.623 191.297L120.885 171.358L120.878 171.358ZM106.304 190.594L93.5188 171.358L119.09 171.358L106.304 190.594ZM233.768 211.927L220.519 191.994L233.768 172.061L247.016 191.994L233.768 211.927ZM248.407 192.692L274.904 192.692L261.655 212.636L235.158 212.636L248.4 192.692L248.407 192.692ZM219.122 191.297L192.624 191.297L205.886 171.358L232.377 171.358L219.122 191.297ZM191.234 190.594L178.449 171.358L204.026 171.358L191.241 190.594L191.234 190.594ZM189.916 191.297L163.418 191.297L150.163 171.358L176.654 171.358L189.909 191.297L189.916 191.297ZM262.093 214.728L274.878 233.964L249.307 233.964L262.093 214.728ZM290.875 212.63L277.626 192.686L304.124 192.686L317.366 212.63L290.868 212.63L290.875 212.63ZM332.012 191.994L318.763 211.927L305.52 191.994L318.763 172.061L332.012 191.994ZM304.124 191.297L277.619 191.297L290.875 171.358L317.373 171.358L304.13 191.297L304.124 191.297ZM276.294 190.594L263.509 171.358L289.08 171.358L276.294 190.594ZM261.655 171.358L274.911 191.297L248.4 191.297L235.158 171.358L261.655 171.358ZM317.373 169.964L291.802 169.964L304.587 150.728L317.373 169.964ZM275.831 150.025L303.236 150.025L289.981 169.969L262.589 169.969L235.119 128.697L261.616 128.697L275.831 150.031L275.831 150.025ZM260.729 169.964L235.158 169.964L247.943 150.728L260.729 169.964ZM178.018 127.994L191.267 108.061L204.516 127.994L191.267 147.927L178.018 127.994ZM189.87 148.63L163.372 148.63L150.13 128.692L176.628 128.692L189.87 148.63ZM134.16 148.63L107.662 148.63L120.904 128.692L147.402 128.692L134.16 148.63ZM163.379 107.358L189.877 107.358L176.634 127.297L150.123 127.297L163.379 107.358ZM148.799 126.594L136.013 107.353L161.584 107.353L148.799 126.594ZM233.735 126.594L220.949 107.353L246.52 107.353L233.735 126.594ZM248.374 107.353L274.872 107.353L261.616 127.297L235.119 127.297L248.374 107.353ZM232.41 127.297L205.912 127.297L192.657 107.358L219.155 107.358L232.41 127.297ZM317.405 128.692L304.163 148.63L277.665 148.63L290.907 128.692L317.405 128.692ZM276.262 147.927L263.013 127.994L276.262 108.061L289.511 127.994L276.262 147.927ZM331.581 107.353L318.795 126.594L306.01 107.353L331.581 107.353ZM304.156 107.353L317.412 127.297L290.901 127.297L277.659 107.353L304.156 107.353ZM134.16 107.353L147.415 127.297L120.904 127.297L107.662 107.353L134.16 107.353ZM78.3837 107.353L104.881 107.353L91.6261 127.297L65.1283 127.297L78.3837 107.353ZM63.7382 126.594L50.9527 107.353L76.5237 107.353L63.7382 126.594ZM49.1579 107.353L62.4133 127.297L35.9155 127.297L22.6601 107.353L49.1514 107.353L49.1579 107.353ZM21.27 147.927L8.02111 127.994L21.27 108.061L34.5188 127.994L21.27 147.927ZM93.0227 127.994L106.272 108.061L119.521 127.994L106.272 147.927L93.0227 127.994ZM36.8423 169.964L36.8031 169.964L63.8034 129.389L77.0458 149.322L63.3335 169.958L36.8358 169.958L36.8423 169.964ZM77.9465 150.728L90.7319 169.964L65.161 169.964L77.9465 150.728ZM92.592 169.964L65.1218 128.692L91.6196 128.692L105.834 150.025L133.233 150.025L119.977 169.969L92.5855 169.969L92.592 169.964ZM134.597 150.728L147.382 169.964L121.811 169.964L134.597 150.728ZM149.203 169.964L135.491 149.328L148.74 129.395L175.734 169.969L149.21 169.969L149.203 169.964ZM164.299 150.025L191.697 150.025L205.912 128.692L232.41 128.692L204.946 169.964L177.554 169.964L164.299 150.025ZM206.839 169.964L206.806 169.964L233.8 129.389L247.049 149.322L233.33 169.958L206.833 169.958L206.839 169.964ZM65.1675 171.358L91.6652 171.358L104.921 191.297L78.4098 191.297L65.1675 171.358ZM8.45185 171.358L34.0229 171.358L21.2374 190.594L8.45185 171.358ZM22.6275 191.297L35.8829 171.358L62.3806 171.358L49.1252 191.297L22.6275 191.297ZM50.5219 191.994L63.7708 172.061L77.0197 191.994L63.7708 211.927L50.5219 191.994ZM22.6601 233.969L35.4456 214.734L48.2311 233.969L22.6601 233.969ZM50.0912 233.969L22.621 192.692L49.1187 192.692L63.3335 214.025L90.7319 214.025L77.4765 233.969L50.0847 233.969L50.0912 233.969ZM92.096 214.728L104.881 233.964L79.3105 233.964L92.096 214.728ZM106.702 233.969L92.9836 213.328L106.232 193.395L133.226 233.969L133.194 233.969L106.702 233.969ZM121.805 214.025L149.203 214.025L163.418 192.692L189.916 192.692L162.446 233.964L135.054 233.964L121.798 214.019L121.805 214.025ZM164.338 233.969L164.306 233.969L191.299 193.395L204.548 213.328L190.829 233.969L164.338 233.969ZM22.6667 235.358L49.1579 235.358L62.4133 255.303L35.909 255.303L22.6667 235.358Z" fill="url(#paint0_linear_620_22)" fill-opacity="0.2"/>
<defs>
<linearGradient id="paint0_linear_620_22" x1="7.05152e-06" y1="128" x2="340" y2="128" gradientUnits="userSpaceOnUse">
<stop stop-color="#272963"/>
<stop offset="1" stop-color="white"/>
</linearGradient>
</defs>
</svg>
