<?xml version="1.0" encoding="UTF-8"?>
<svg id="Layer_1" data-name="Layer 1" xmlns="http://www.w3.org/2000/svg" viewBox="0 0 127 118">
  <defs>
    <style>
      .cls-1 {
        fill: #e35f27;
      }

      .cls-2 {
        fill: #272963;
      }
    </style>
  </defs>
  <path class="cls-2" d="m81.3,31.82v1.04c2.84,1.02,3.28,3.29,3.27,9.3l-.07,44.61c0,5.11,4.13,9.26,9.24,9.27h.6s.08-53.86.08-53.86c0-6.09.44-8.35,3.38-9.34v-.99s-16.5-.03-16.5-.03Z"/>
  <path class="cls-2" d="m47.68,45.81c-2.25.84-4.33,2.09-6.12,3.7-1.68,1.53-3.04,3.38-4,5.43-2.01,4.66-1.92,9.95.26,14.54,1.14,2.29,2.81,4.28,4.85,5.82,2.11,1.67,6,4.03,11.68,7.06,2.19,1.13,4.32,2.38,6.38,3.72,1.65,1.04,3.21,2.22,4.65,3.53.99.85,1.78,1.9,2.35,3.08.42.98.63,2.04.63,3.11,0,1.22-.29,2.42-.84,3.5-.58,1.13-1.36,2.15-2.3,3-.48.43-1.01.82-1.56,1.16,12.75.43,15.57-10.04,11.21-17.65-2.55-4.45-8.34-7.5-12.68-10.15-1.47-.89-1.75-1.09-3.33-2.04-1.58-.95-3.03-1.81-4.39-2.62-1.34-.81-2.48-1.5-3.43-2.06-.95-.58-1.53-.93-1.75-1.06-1.57-1.17-2.88-2.64-3.87-4.33-.8-1.4-1.22-2.98-1.24-4.59,0-1.31.29-2.6.84-3.78.57-1.22,1.4-2.31,2.41-3.2,1.14-.96,2.45-1.7,3.86-2.17,1.65-.56,3.38-.84,5.13-.81,3.12-.04,6.2.69,8.96,2.14,1.27.65,2.46,1.46,3.54,2.39,1,.87,1.86,1.89,2.55,3.02.76,1.31,1.36,2.7,1.78,4.16.57,1.9,1.02,3.84,1.33,5.8h2.06s.03-22.02.03-22.02h-2.06c-.06,1-.4,1.97-.99,2.79-.47.48-1.12.73-1.79.69-.67-.05-1.33-.17-1.98-.37-.91-.26-2.09-.62-3.54-1.05-3.91-1.16-7.49-2.13-11.19-2.14-2.38,0-4.83.39-7.45,1.4h0Z"/>
  <path class="cls-2" d="m37.42,12.31l-22.24-.03v1.08c.82.33,1.52.72,2.05,1.35.87,1.06,1.3,4.67,1.29,8.38l-.07,44.61c0,3.45-.36,7.23-1.05,8.23-.56.83-1.35,1.21-2.32,1.61v.96s16.01.02,16.01.02c-.32-.5-.61-1.01-.87-1.55-.59-1.18-1.02-2.43-1.29-3.72-.42-1.82-.6-3.68-.53-5.55l.04-23.75.04-27.68c2.65-.68,5.38-1.01,8.12-.98,2.52-.03,5.02.33,7.43,1.06,1.95.59,3.77,1.55,5.36,2.82,1.38,1.11,2.48,2.52,3.23,4.12,1.93,4.18,1.58,9.29-1.9,12.46,6.01,4.43,10,2.57,11.62-1.9,1.75-5.05.7-10.64-2.76-14.71-1.01-1.18-2.19-2.22-3.5-3.08-1.43-.91-2.97-1.62-4.6-2.11-2-.59-4.04-1.01-6.11-1.24-2.48-.28-4.97-.42-7.46-.42-.17,0-.33,0-.49,0h0Z"/>
  <path class="cls-1" d="m102.15,89.05c0,4.07,3.28,7.37,7.35,7.37,4.07,0,7.37-3.28,7.37-7.35,0-4.07-3.28-7.37-7.35-7.37-4.07,0-7.37,3.28-7.38,7.35h0Z"/>
</svg>