<svg width="135" height="40" viewBox="0 0 135 40" fill="none" xmlns="http://www.w3.org/2000/svg">
<g clip-path="url(#clip0_11_3426)">
<path fill-rule="evenodd" clip-rule="evenodd" d="M129.998 40H5.00184C2.24512 40 0 37.7456 0 35V5C0 2.24439 2.24512 0 5.00184 0H129.998C132.752 0 135 2.24439 135 5V35C135 37.7456 132.752 40 129.998 40Z" fill="black"/>
<path fill-rule="evenodd" clip-rule="evenodd" d="M129.998 0.800499C132.31 0.800499 134.203 2.68828 134.203 5V35C134.203 37.3117 132.323 39.1995 129.998 39.1995H5.00184C2.68967 39.1995 0.797215 37.3117 0.797215 35V5C0.797215 2.68828 2.67725 0.800499 5.00184 0.800499H129.998ZM129.998 0H5.00184C2.24512 0 0 2.25436 0 5V35C0 37.7556 2.24512 40 5.00184 40H129.998C132.752 40 135 37.7556 135 35V5C135 2.25436 132.752 0 129.998 0Z" fill="#A6A6A6"/>
<path d="M71.1184 13.2318C70.2169 13.2318 69.4569 12.9151 68.8559 12.2917C68.2599 11.6857 67.9271 10.8503 67.942 9.99742C67.942 9.0872 68.2499 8.31663 68.8559 7.70565C69.4545 7.08221 70.2144 6.7655 71.1159 6.7655C72.0075 6.7655 72.7675 7.08221 73.3784 7.70565C73.9844 8.33658 74.2923 9.10715 74.2923 9.99742C74.2824 10.9101 73.9745 11.6807 73.3784 12.2892C72.7799 12.9176 72.0199 13.2318 71.1184 13.2318ZM44.2939 13.2318C43.4123 13.2318 42.6473 12.9201 42.0215 12.3042C41.4006 11.6907 41.0852 10.9151 41.0852 9.99992C41.0852 9.08471 41.4006 8.30914 42.0215 7.69568C42.6349 7.07972 43.3998 6.768 44.2939 6.768C44.731 6.768 45.1557 6.85528 45.563 7.03234C45.9628 7.20441 46.2882 7.43882 46.5291 7.7256L46.5887 7.79792L45.9157 8.46126L45.8461 8.37897C45.4661 7.9251 44.957 7.70316 44.284 7.70316C43.683 7.70316 43.1589 7.91762 42.7268 8.34156C42.2922 8.768 42.0712 9.3266 42.0712 10.0024C42.0712 10.6782 42.2922 11.2368 42.7268 11.6633C43.1589 12.0872 43.683 12.3017 44.284 12.3017C44.9247 12.3017 45.4636 12.0872 45.8834 11.6633C46.1317 11.4139 46.2857 11.0648 46.3403 10.6234H44.1822V9.69069H47.2667L47.2791 9.77548C47.3015 9.93259 47.3238 10.0947 47.3238 10.2443C47.3238 11.1047 47.0655 11.8004 46.5539 12.3141C45.9728 12.9226 45.2128 13.2318 44.2939 13.2318ZM79.9597 13.0997H79.0086L76.0954 8.41887L76.1202 9.26176V13.0972H75.169V6.90017H76.2543L76.2841 6.94755L79.0235 11.3565L78.9986 10.5161V6.90017H79.9597V13.0997ZM63.9708 13.0997H63.0072V7.83284H61.3358V6.90017H65.6398V7.83284H63.9684V13.0997H63.9708ZM60.551 13.0997H59.5899V6.90017H60.551V13.0997ZM55.1494 13.0997H54.1883V7.83284H52.5168V6.90017H56.8208V7.83284H55.1494V13.0997ZM51.9084 13.0897H48.2228V6.90017H51.9084V7.83284H49.1864V9.53358H51.6426V10.4563H49.1864V12.157H51.9084V13.0897ZM69.5612 11.6508C69.9909 12.0822 70.5124 12.2992 71.1184 12.2992C71.7418 12.2992 72.2509 12.0872 72.6756 11.6508C73.0978 11.2269 73.3114 10.6707 73.3114 9.99992C73.3114 9.32909 73.0978 8.77049 72.6781 8.34904C72.2484 7.91762 71.7244 7.70066 71.1209 7.70066C70.4975 7.70066 69.9884 7.91264 69.5662 8.34904C69.144 8.77298 68.9304 9.32909 68.9304 9.99992C68.9304 10.6707 69.1415 11.2293 69.5612 11.6508Z" fill="white"/>
<path fill-rule="evenodd" clip-rule="evenodd" d="M67.8526 21.7557C65.5056 21.7557 63.6032 23.5437 63.6032 26.01C63.6032 28.4539 65.518 30.2644 67.8526 30.2644C70.1995 30.2644 72.1019 28.4639 72.1019 26.01C72.1019 23.5437 70.1995 21.7557 67.8526 21.7557ZM67.8526 28.5786C66.5686 28.5786 65.4634 27.5113 65.4634 26.0001C65.4634 24.4664 66.5711 23.4215 67.8526 23.4215C69.1366 23.4215 70.2417 24.4664 70.2417 26.0001C70.2442 27.5212 69.1366 28.5786 67.8526 28.5786ZM58.5815 21.7557C56.2346 21.7557 54.3322 23.5437 54.3322 26.01C54.3322 28.4539 56.247 30.2644 58.5815 30.2644C60.9285 30.2644 62.8309 28.4639 62.8309 26.01C62.8309 23.5437 60.926 21.7557 58.5815 21.7557ZM58.5815 28.5786C57.2975 28.5786 56.1924 27.5113 56.1924 26.0001C56.1924 24.4664 57.3 23.4215 58.5815 23.4215C59.8655 23.4215 60.9707 24.4664 60.9707 26.0001C60.9707 27.5212 59.8655 28.5786 58.5815 28.5786ZM47.5496 23.0549V24.8554H51.8536C51.722 25.8654 51.3892 26.611 50.8801 27.1222C50.2492 27.7557 49.2757 28.4439 47.5596 28.4439C44.9146 28.4439 42.8458 26.2993 42.8458 23.6434C42.8458 20.9876 44.9146 18.8429 47.5596 18.8429C48.9876 18.8429 50.0282 19.409 50.8006 20.1322L52.0722 18.8554C50.9993 17.823 49.5712 17.0325 47.5695 17.0325C43.9411 17.0325 40.8962 20.0001 40.8962 23.6335C40.8962 27.2769 43.9386 30.2345 47.5695 30.2345C49.529 30.2345 50.9993 29.5911 52.1616 28.3791C53.3462 27.1896 53.7212 25.5113 53.7212 24.1572C53.7212 23.7357 53.6889 23.3567 53.6219 23.035H47.5472C47.5496 23.0325 47.5496 23.0549 47.5496 23.0549ZM92.673 24.4564C92.3179 23.5013 91.245 21.7457 89.0446 21.7457C86.8641 21.7457 85.0511 23.4689 85.0511 26.0001C85.0511 28.3891 86.8442 30.2544 89.2557 30.2544C91.1929 30.2544 92.3204 29.0649 92.7848 28.3666L91.3468 27.3991C90.87 28.1098 90.2069 28.5761 89.2656 28.5761C88.3144 28.5761 87.6488 28.1422 87.2068 27.2868L92.8717 24.9302C92.8717 24.9327 92.673 24.4564 92.673 24.4564ZM86.8963 25.8779C86.8516 24.2345 88.1679 23.3991 89.1092 23.3991C89.8517 23.3991 90.4701 23.7656 90.6813 24.2993L86.8963 25.8779ZM82.2943 30.0001H84.1545V17.5013H82.2943V30.0001ZM79.2396 22.7008H79.1725C78.7528 22.1996 77.9556 21.7457 76.9373 21.7457C74.8239 21.7457 72.8768 23.6135 72.8768 26.0125C72.8768 28.4015 74.8139 30.2469 76.9373 30.2469C77.9432 30.2469 78.7528 29.7906 79.1725 29.2794H79.2396V29.8903C79.2396 31.5138 78.3753 32.3891 76.9821 32.3891C75.8421 32.3891 75.1343 31.5661 74.8462 30.8779L73.2294 31.5562C73.6939 32.6784 74.9331 34.0674 76.9796 34.0674C79.1601 34.0674 81.0079 32.7781 81.0079 29.6335V22.0001H79.2495V22.7008C79.252 22.7008 79.2396 22.7008 79.2396 22.7008ZM77.1037 28.5786C75.8198 28.5786 74.7469 27.5013 74.7469 26.0125C74.7469 24.5113 75.8198 23.424 77.1037 23.424C78.3753 23.424 79.3613 24.5237 79.3613 26.0125C79.3737 27.5013 78.3778 28.5786 77.1037 28.5786ZM101.383 17.5013H96.9348V30.0001H98.795V25.2669H101.385C103.444 25.2669 105.468 23.7681 105.468 21.3891C105.468 19.01 103.452 17.5013 101.383 17.5013ZM101.437 23.5212H98.7925V19.232H101.437C102.831 19.232 103.618 20.3866 103.618 21.3766C103.618 22.3567 102.821 23.5212 101.437 23.5212ZM112.924 21.7332C111.573 21.7332 110.18 22.3342 109.603 23.6434L111.252 24.3317C111.608 23.6434 112.258 23.409 112.946 23.409C113.91 23.409 114.883 23.9876 114.906 25.02V25.1522C114.573 24.9626 113.843 24.6734 112.969 24.6734C111.188 24.6734 109.382 25.6509 109.382 27.4838C109.382 29.1621 110.843 30.2395 112.469 30.2395C113.719 30.2395 114.406 29.6734 114.836 29.0175H114.903V29.9851H116.696V25.1971C116.696 22.9676 115.047 21.7332 112.924 21.7332ZM112.69 28.5786C112.082 28.5786 111.23 28.2794 111.23 27.5113C111.23 26.5437 112.293 26.1771 113.199 26.1771C114.019 26.1771 114.407 26.3542 114.893 26.5986C114.759 27.7207 113.815 28.5686 112.69 28.5786ZM123.238 22.0001L121.102 27.4215H121.035L118.822 22.0001H116.82L120.141 29.5786L118.249 33.7906H120.186L125.294 22.0001H123.238ZM106.494 30.0001H108.354V17.5013H106.494V30.0001Z" fill="white"/>
<path fill-rule="evenodd" clip-rule="evenodd" d="M10.3913 7.53364C10.1032 7.84536 9.93677 8.32167 9.93677 8.94511V31.0573C9.93677 31.6808 10.1032 32.1571 10.4012 32.4563L10.4782 32.5237L22.8164 20.1346V19.8578L10.4682 7.46631L10.3913 7.53364Z" fill="url(#paint0_linear_11_3426)"/>
<path fill-rule="evenodd" clip-rule="evenodd" d="M26.9214 24.2768L22.8062 20.1446V19.8553L26.9214 15.7231L27.0108 15.778L31.8786 18.5561C33.2718 19.3441 33.2718 20.6458 31.8786 21.4438L27.0108 24.2219L26.9214 24.2768Z" fill="url(#paint1_linear_11_3426)"/>
<path fill-rule="evenodd" clip-rule="evenodd" d="M27.0109 24.2219L22.8063 20L10.3911 32.4663C10.8456 32.9551 11.608 33.01 12.4599 32.5337L27.0109 24.2219Z" fill="url(#paint2_linear_11_3426)"/>
<path fill-rule="evenodd" clip-rule="evenodd" d="M27.0109 15.7781L12.4599 7.47882C11.608 6.99004 10.8431 7.05737 10.3911 7.54615L22.8063 20L27.0109 15.7781Z" fill="url(#paint3_linear_11_3426)"/>
<path opacity="0.2" fill-rule="evenodd" clip-rule="evenodd" d="M26.9214 24.1322L12.4697 32.3766C11.6625 32.8429 10.9423 32.8105 10.4779 32.3865L10.4009 32.4638L10.4779 32.5312C10.9423 32.9526 11.6625 32.9875 12.4697 32.5212L27.0208 24.222L26.9214 24.1322Z" fill="black"/>
<path opacity="0.12" fill-rule="evenodd" clip-rule="evenodd" d="M31.8787 21.2993L26.9092 24.1322L26.9986 24.2219L31.8663 21.4439C32.5642 21.0449 32.9069 20.5212 32.9069 20C32.8647 20.4788 32.5095 20.9327 31.8787 21.2993Z" fill="black"/>
<path opacity="0.25" fill-rule="evenodd" clip-rule="evenodd" d="M12.46 7.62342L31.8788 18.7007C32.5096 19.0573 32.8648 19.5237 32.9194 20C32.9194 19.4788 32.5767 18.9551 31.8788 18.5561L12.46 7.47878C11.0668 6.67828 9.93677 7.34661 9.93677 8.94511V9.08975C9.93677 7.48875 11.0668 6.83289 12.46 7.62342Z" fill="white"/>
</g>
<defs>
<linearGradient id="paint0_linear_11_3426" x1="21.7097" y1="8.70654" x2="1.93526" y2="13.9538" gradientUnits="userSpaceOnUse">
<stop stop-color="#00A0FF"/>
<stop offset="0.00657" stop-color="#00A1FF"/>
<stop offset="0.2601" stop-color="#00BEFF"/>
<stop offset="0.5122" stop-color="#00D2FF"/>
<stop offset="0.7604" stop-color="#00DFFF"/>
<stop offset="1" stop-color="#00E3FF"/>
</linearGradient>
<linearGradient id="paint1_linear_11_3426" x1="33.6955" y1="20" x2="9.59777" y2="20" gradientUnits="userSpaceOnUse">
<stop stop-color="#FFE000"/>
<stop offset="0.4087" stop-color="#FFBD00"/>
<stop offset="0.7754" stop-color="#FFA500"/>
<stop offset="1" stop-color="#FF9C00"/>
</linearGradient>
<linearGradient id="paint2_linear_11_3426" x1="24.7246" y1="22.2973" x2="8.76185" y2="49.0538" gradientUnits="userSpaceOnUse">
<stop stop-color="#FF3A44"/>
<stop offset="1" stop-color="#C31162"/>
</linearGradient>
<linearGradient id="paint3_linear_11_3426" x1="7.26483" y1="0.178805" x2="14.3865" y2="12.1287" gradientUnits="userSpaceOnUse">
<stop stop-color="#32A071"/>
<stop offset="0.0685" stop-color="#2DA771"/>
<stop offset="0.4762" stop-color="#15CF74"/>
<stop offset="0.8009" stop-color="#06E775"/>
<stop offset="1" stop-color="#00F076"/>
</linearGradient>
<clipPath id="clip0_11_3426">
<rect width="135" height="40" fill="white"/>
</clipPath>
</defs>
</svg>
