<svg width="72" height="64" viewBox="0 0 72 64" fill="none" xmlns="http://www.w3.org/2000/svg">
<path d="M45.7222 13.6543V14.3905C47.6908 15.085 47.9915 16.6963 47.9915 20.919V52.2418C47.9915 53.9659 48.6656 55.6194 49.8655 56.8385C51.0653 58.0576 52.6927 58.7425 54.3895 58.7425H54.7996V20.919C54.7996 16.6407 55.1004 15.0572 57.1237 14.3488V13.6543H45.7222Z" fill="white"/>
<path d="M22.5025 23.5168C20.9447 24.1053 19.5112 24.9891 18.2782 26.1213C17.1281 27.1992 16.199 28.4973 15.544 29.9411C14.8559 31.5575 14.5157 33.3046 14.5463 35.0654C14.577 36.8262 14.9778 38.56 15.7218 40.1506C16.5125 41.7587 17.6617 43.157 19.078 44.2344C21.6411 46.0927 24.3424 47.7459 27.1574 49.1793C28.6723 49.9725 30.1461 50.8442 31.5731 51.7907C32.7148 52.5185 33.792 53.3458 34.7926 54.2632C35.4762 54.861 36.0302 55.5965 36.4195 56.4232C36.7076 57.113 36.8564 57.8546 36.8569 58.604C36.8635 59.4608 36.6665 60.3065 36.2827 61.0695C35.8799 61.856 35.3403 62.5619 34.6901 63.1531C34.3611 63.4611 34.0015 63.7334 33.6169 63.9657C42.421 64.2782 44.3622 56.951 41.341 51.5824C39.5706 48.464 35.5445 46.3249 32.5643 44.4497C31.5458 43.8246 31.3544 43.6857 30.2607 43.0189L27.219 41.1924L24.8471 39.7478L23.6372 39.0046C22.553 38.1854 21.6418 37.1533 20.9577 35.9696C20.4057 34.9872 20.1092 33.8781 20.0964 32.747C20.0968 31.8279 20.2951 30.92 20.6774 30.087C21.0721 29.2283 21.6377 28.4621 22.3385 27.8368C23.1248 27.162 24.0292 26.6437 25.0043 26.3088C26.1437 25.9134 27.3411 25.7184 28.545 25.7324C30.7016 25.6993 32.8323 26.2125 34.7448 27.2256C35.6201 27.6842 36.4391 28.246 37.185 28.8994C37.8741 29.4984 38.4688 30.201 38.9486 30.9829C39.4789 31.8991 39.8945 32.879 40.1858 33.8999C40.5842 35.2364 40.8947 36.5984 41.1154 37.9767H42.5372V22.5654H41.1154C41.0722 23.2703 40.8354 23.9488 40.4319 24.5239C40.2719 24.6901 40.0786 24.8196 39.8652 24.9034C39.6518 24.9873 39.4231 25.0237 39.1946 25.0101C38.7307 24.9739 38.2722 24.8854 37.8276 24.7461L35.3805 24.0169C32.6463 23.2043 30.206 22.5237 27.6428 22.5237C25.8832 22.524 24.1394 22.861 22.5025 23.5168Z" fill="white"/>
<path d="M15.3729 0H0V0.757026C0.546397 0.945041 1.03601 1.2727 1.42177 1.70852C2.05063 2.45165 2.32405 4.98665 2.32405 7.5911V38.8931C2.32405 41.31 2.07797 43.97 1.59949 44.6715C1.20234 45.2237 0.641924 45.6325 0 45.8383L0 46.5328H11.0666C10.8427 46.1843 10.6395 45.8225 10.4582 45.4494C10.0484 44.6135 9.74954 43.726 9.56961 42.8102C9.27356 41.5272 9.14486 40.2102 9.18683 38.8931V2.77808C11.0194 2.29745 12.9062 2.06394 14.7987 2.08356C16.5371 2.05661 18.269 2.30499 19.9321 2.81975C21.286 3.23569 22.5484 3.91241 23.6506 4.81302C24.6005 5.59436 25.3665 6.58148 25.8926 7.70222C27.2255 10.64 26.9931 14.2238 24.5871 16.4601C28.743 19.5646 31.4977 18.252 32.6119 15.1127C33.2033 13.3714 33.3372 11.5034 33.0003 9.69331C32.6635 7.88326 31.8675 6.19388 30.6911 4.79218C29.9894 3.95929 29.1747 3.23202 28.2714 2.63223C27.2845 1.99181 26.2147 1.49394 25.0929 1.1529C23.7121 0.741517 22.2987 0.453355 20.8686 0.291698C19.1596 0.0974825 17.4412 9.91107e-05 15.7215 0L15.3797 0" fill="white"/>
<path d="M60.1929 53.8257C60.1915 54.8493 60.489 55.8504 61.0478 56.7022C61.6065 57.554 62.4014 58.2183 63.3318 58.6109C64.2621 59.0036 65.2863 59.1071 66.2746 58.9082C67.2628 58.7094 68.1708 58.2171 68.8837 57.4938C69.5966 56.7704 70.0823 55.8485 70.2793 54.8446C70.4764 53.8407 70.3759 52.8 69.9907 51.8542C69.6055 50.9083 68.9528 50.0998 68.1152 49.5309C67.2776 48.9621 66.2927 48.6584 65.2853 48.6584C63.9359 48.6584 62.6416 49.2026 61.6868 50.1715C60.732 51.1403 60.1947 52.4546 60.1929 53.8257Z" fill="#E0592A"/>
</svg>
