<svg width="22" height="16" viewBox="0 0 22 16" fill="none" xmlns="http://www.w3.org/2000/svg">
<g clip-path="url(#clip0_43_1232)">
<path d="M0.251953 0H21.5853V16H0.251953V0Z" fill="#012169"/>
<path d="M2.75195 0L10.8853 6.03333L18.9853 0H21.5853V2.06667L13.5853 8.03333L21.5853 13.9667V16H18.9186L10.9186 10.0333L2.95195 16H0.251953V14L8.21862 8.06667L0.251953 2.13333V0H2.75195Z" fill="white"/>
<path d="M14.3853 9.36667L21.5853 14.6667V16L12.552 9.36667H14.3853ZM8.25195 10.0333L8.45195 11.2L2.05195 16H0.251953L8.25195 10.0333ZM21.5853 0V0.1L13.2853 6.36667L13.352 4.9L19.9186 0H21.5853ZM0.251953 0L8.21862 5.86667H6.21862L0.251953 1.4V0Z" fill="#C8102E"/>
<path d="M8.28529 0V16H13.6186V0H8.28529ZM0.251953 5.33333V10.6667H21.5853V5.33333H0.251953Z" fill="white"/>
<path d="M0.251953 6.43333V9.63333H21.5853V6.43333H0.251953ZM9.35195 0V16H12.552V0H9.35195Z" fill="#C8102E"/>
</g>
<defs>
<clipPath id="clip0_43_1232">
<rect width="21.3333" height="16" fill="white" transform="translate(0.251953)"/>
</clipPath>
</defs>
</svg>
