<svg width="270" height="318" viewBox="0 0 270 318" fill="none" xmlns="http://www.w3.org/2000/svg">
<path d="M0.408203 7.48422L21.3789 19.8765L0.408203 32.2627V86.9842L21.3789 99.3765L0.408203 111.769V166.484L21.3789 178.877L0.408203 191.269V245.984L21.3789 258.377L0.408203 270.769V318H1.14182V299.393L22.1244 311.792V318H23.5857V312.689V312.652L32.6217 317.994H35.5562L23.5857 310.913V285.292L44.5683 272.893V298.52L67.0122 311.822V317.994H68.4794V311.822L89.4561 299.424V317.994H90.9233V298.526L112.634 285.701L133.604 298.093L99.9533 317.994H102.846L111.9 312.646V317.994H113.361V311.786L134.338 299.393V317.994H135.805V299.387L156.788 311.786V317.994H158.249V312.652L167.291 317.994H170.178L158.249 310.949V285.328L201.675 259.634V284.419L179.232 297.714V317.994H180.693V299.424L201.675 311.81V317.994H203.137V311.81L224.113 299.424V317.994H225.581V299.424L245.818 311.383L234.623 317.994H237.545L269.001 299.387V317.994H269.735V270.763L248.764 258.37L269.735 245.978V191.263L248.764 178.87L269.735 166.478V111.763L248.764 99.3704L269.735 86.9781V32.2627L248.764 19.8765L269.735 7.48422V0H269.007V6.17173L246.563 19.4675V45.0885L225.581 32.69V7.08132L237.551 0H234.623L225.581 5.34151V0H224.113V6.20836L203.137 18.6068V0H201.675V18.6007L180.693 6.21447V0H179.232V5.34762L170.184 0H167.297L178.498 6.61737L158.255 18.5763V0H156.794V18.5701L135.811 6.18394V0H134.344V6.18394L113.367 18.5701V0H111.906V20.2794L134.35 33.5752V58.3598L90.9293 32.6656V7.04469L102.852 0H99.9593L90.9233 5.34151V0H89.4561V6.20836L68.4794 18.6068V0H67.0122V18.6068L35.5562 0H32.6217L66.2726 19.9009L45.3019 32.2933L23.5857 19.4675V0H22.1244V18.5701L1.14182 6.17173V0H0.408203V7.48422ZM158.255 283.601V259.677L178.498 271.642L158.255 283.601ZM203.149 98.1129V73.3283L224.125 60.9299V85.7145L203.149 98.1129ZM224.125 87.3871V111.305L203.888 99.346L224.125 87.3871ZM224.125 113.039V137.823L203.149 125.425V100.64L224.125 113.039ZM223.386 139.13L202.415 151.522L181.444 139.13L202.415 126.737L223.386 139.13ZM201.681 152.822V177.607L180.699 165.221V140.436L201.681 152.822ZM202.415 206.237L223.386 218.63L202.415 231.022L181.444 218.63L202.415 206.237ZM180.699 217.323V192.539L201.681 180.152V204.937L180.699 217.323ZM224.125 219.93V244.714L203.149 257.113V232.328L224.125 219.93ZM202.415 310.522L181.444 298.13L202.415 285.737L223.386 298.13L202.415 310.522ZM224.125 296.829L203.149 284.431V259.646L224.125 272.045V296.823V296.829ZM224.125 270.311L203.888 258.352L224.125 246.393V270.317V270.311ZM203.149 204.937V180.14L224.125 192.539V217.323L203.149 204.937ZM203.888 178.907L224.125 166.948V190.866L203.888 178.907ZM224.125 165.214L203.149 177.613V152.816L224.125 140.43V165.214ZM269.013 244.69L248.03 257.076V232.292L269.013 219.905V244.69ZM269.013 192.569V217.354L248.03 204.961V180.177L269.013 192.563V192.569ZM269.019 85.6839L248.036 98.0701V73.2855L269.019 60.8932V85.6778V85.6839ZM248.036 21.1768L269.019 33.563V58.3476L248.036 45.9614V21.1768ZM225.593 34.4054L245.83 46.3643L225.593 58.3232V34.4054ZM225.587 60.0325L247.303 47.2006L268.273 59.593L225.593 84.8415V84.8049V60.0264L225.587 60.0325ZM246.569 74.1524V99.7794L269.013 113.075V137.86L225.587 112.166V86.5447L246.563 74.1463L246.569 74.1524ZM225.587 113.936V113.905L268.267 139.154L247.297 151.546L225.581 138.714V113.936H225.587ZM245.83 152.389L225.593 164.348V140.43L245.83 152.389ZM225.593 166.081L269.013 140.387V165.172L246.569 178.468V204.095L225.587 191.696V166.075L225.593 166.081ZM245.83 205.37L225.593 217.329V193.412L245.83 205.37ZM225.587 219.039L247.303 206.213L268.273 218.605L225.587 243.854V219.039ZM246.569 233.158V258.786L269.013 272.081V296.866L225.593 271.172V245.551L246.569 233.152V233.158ZM225.587 272.948V272.912L268.267 298.16L247.297 310.552L225.581 297.721V272.942L225.587 272.948ZM224.125 7.94206V31.8659L203.888 19.907L224.125 7.94817V7.94206ZM203.149 21.1402L224.125 33.5386V58.3232L203.149 45.9309V21.1341V21.1402ZM202.415 47.2312L223.386 59.6235L202.415 72.0158L181.444 59.6235L202.415 47.2312ZM201.681 45.9309L180.699 58.3232V33.5386L201.681 21.1524V45.937V45.9309ZM158.255 20.2794L179.965 7.4537L200.936 19.846L158.249 45.0946V20.2794H158.255ZM179.238 34.3993V60.0325L201.681 73.3283V98.1129L158.255 72.4187V46.7977L179.238 34.3993ZM158.255 74.189V74.1585L200.942 99.4071L179.971 111.793L158.261 98.9675V74.1829L158.255 74.189ZM178.498 112.636L158.255 124.595V100.677L178.498 112.636ZM158.255 126.334L201.681 100.64V125.425L179.238 138.721V164.348L158.255 151.949V126.328V126.334ZM178.498 165.617L158.255 177.576V153.658L178.498 165.617ZM158.255 179.286L179.965 166.454L200.936 178.846L158.249 204.088V179.279L158.255 179.286ZM179.238 193.405V219.032L201.681 232.328V257.113L158.255 231.419V205.798L179.238 193.399V193.405ZM158.255 233.195V233.165L200.942 258.413L179.971 270.805L158.261 257.974V233.195H158.255ZM1.14182 85.6839V60.8871L22.1244 73.2855V98.0701L1.14182 85.6839ZM1.8814 59.654L22.1244 47.6951V71.619L1.8814 59.654ZM1.14182 113.075L22.1244 100.677V125.455L1.14182 137.86V113.075ZM22.1244 127.134V151.058L1.8814 139.099L22.1244 127.14V127.134ZM1.14182 165.178V140.393L22.1244 152.798V177.576L1.14182 165.178ZM1.14182 272.081L22.1244 259.683V284.468L1.14182 296.866V272.081ZM22.1244 310.064L1.8814 298.105L22.1244 286.146V310.064ZM1.14182 244.69V219.893L22.1244 232.292V257.076L1.14182 244.69ZM1.8814 218.66L22.1244 206.701V230.625L1.8814 218.666V218.66ZM22.1244 204.968L1.14182 217.366V192.569L22.1244 180.183V204.968ZM23.5857 283.607V283.57V258.786L45.3019 245.96L66.2726 258.352L23.5857 283.601V283.607ZM67.0122 180.146V204.931L44.5683 218.227V243.854L23.5857 231.455V205.828L67.0122 180.14V180.146ZM23.5857 204.095V180.177L43.8228 192.136L23.5857 204.095ZM67.7458 126.737L88.7165 139.13L67.7458 151.522L46.7751 139.13L67.7458 126.737ZM46.0355 137.823V113.039L67.0122 100.646V125.437L46.0355 137.823ZM46.0355 85.7145V60.9299L67.0182 73.3161V98.1007L46.0355 85.7145ZM89.4561 113.039V137.823L68.4794 125.437V100.64L89.4561 113.039ZM69.219 99.4071L89.4561 87.4482V111.366L69.219 99.4071ZM46.7751 218.63L67.7458 206.237L88.7165 218.63L67.7458 231.022L46.7751 218.63ZM67.0122 232.322V257.107L46.0296 244.721V219.936L67.0122 232.322ZM68.4794 204.931V180.146L89.4561 192.551V217.329L68.4794 204.931ZM69.219 178.852L89.4561 166.887V190.811L69.219 178.852ZM68.4794 177.613V152.828L89.4561 140.43V165.208L68.4794 177.613ZM43.8287 245.123L23.5917 257.082V233.165L43.8287 245.123ZM46.0355 272.045L67.0182 259.659V284.443L46.0355 296.829V272.045ZM67.7458 310.522L46.7751 298.13L67.7458 285.737L88.7165 298.13L67.7458 310.522ZM68.4794 284.443V259.652L89.4561 272.051V296.829L68.4794 284.443ZM69.219 258.413L89.4561 246.454V270.372L69.219 258.413ZM89.4561 244.714L68.4794 257.113V232.316L89.4561 219.93V244.714ZM90.9233 296.835V272.918L111.16 284.877L90.9233 296.835ZM111.9 257.974V283.607L90.9173 271.208V245.587L134.338 219.893V244.678L111.894 257.974H111.9ZM90.9233 243.854V219.93L111.16 231.889L90.9233 243.848V243.854ZM135.077 166.484L156.048 178.877L135.077 191.269L114.107 178.877L135.077 166.484ZM113.367 177.576V152.792L134.344 140.405V165.19L113.367 177.576ZM113.367 125.461V100.677L134.344 113.063V137.848L113.367 125.461ZM156.788 152.792V177.576L135.811 165.19V140.393L156.788 152.792ZM136.551 139.16L156.794 127.201V151.119L136.551 139.16ZM136.551 218.599L156.794 206.64V230.564L136.551 218.605V218.599ZM156.794 232.298V257.076L135.811 244.678V219.893L156.794 232.298ZM135.811 217.366V192.581L156.788 180.183V204.961L135.811 217.366ZM134.344 296.86L113.367 284.468V259.683L134.344 272.069V296.854V296.86ZM114.107 258.383L135.077 245.99L156.048 258.383L135.077 270.775L114.107 258.383ZM156.794 310.125L136.551 298.166L156.794 286.207V310.125ZM156.794 284.468L135.811 296.866V272.069L156.794 259.683V284.468ZM156.794 125.461L135.811 137.86V113.063L156.794 100.677V125.461ZM156.794 73.2916V98.0763L135.811 85.6778V60.8932L156.794 73.2916ZM136.551 59.593L156.794 47.6341V71.5518L136.551 59.593ZM156.794 45.9553L135.811 58.3537V33.5691L156.794 21.1707V45.9492V45.9553ZM114.107 19.8765L135.077 7.48422L156.048 19.8765L135.077 32.2627L114.107 19.8765ZM135.077 86.9842L156.048 99.3765L135.077 111.769L114.107 99.3765L135.077 86.9842ZM90.9233 34.436V34.3993L133.61 59.654L112.64 72.0463L90.9293 59.2206V34.436H90.9233ZM111.16 72.8826L90.9233 84.8415V60.9238L111.16 72.8826ZM90.9233 86.5813L134.344 60.8871V85.6717L111.9 98.9675V124.595L90.9173 112.196V86.5752L90.9233 86.5813ZM111.16 125.87L90.9233 137.829V113.912L111.16 125.87ZM90.9233 139.532L112.634 126.707L133.604 139.099L90.9173 164.348V164.317V139.539L90.9233 139.532ZM111.9 153.652V179.279L134.344 192.575V217.36L90.9233 191.672V166.051L111.9 153.652ZM90.9233 193.442V193.412L133.61 218.66L112.64 231.052L90.9293 218.221V193.436L90.9233 193.442ZM89.4561 60.9299V85.7145L68.4794 98.1129V73.3161L89.4561 60.9299ZM89.4561 7.88102V31.7988L69.219 19.8399L89.4561 7.88102ZM68.4794 21.1402L89.4561 33.5386V58.3232L68.4794 45.9248V21.1402ZM67.7458 47.2312L88.7165 59.6296L67.7458 72.0219L46.7751 59.6296L67.7458 47.2312ZM23.5857 21.1707L43.8228 33.1296L23.5857 45.0885V21.1707ZM23.5857 46.8283L67.0122 21.1341V45.9187L44.5683 59.2145V84.8415L23.5857 72.4431V46.8222V46.8283ZM43.8287 86.1174L23.5917 98.0763V74.1585L43.8287 86.1174ZM23.5857 99.7794L45.3019 86.9476L66.2726 99.3399L23.5857 124.588V124.552V99.7733V99.7794ZM44.5683 113.905V139.526L67.0122 152.822V177.607L23.5917 151.913V126.292L44.5743 113.893L44.5683 113.905ZM23.5857 153.695V153.658L66.2726 178.907L45.3019 191.299L23.5857 178.468V153.689V153.695ZM22.1244 21.1768V45.9614L1.14182 58.3598V33.5691L22.1244 21.1829V21.1768Z" fill="#F79C50" fill-opacity="0.51"/>
</svg>
