<svg width="35" height="36" viewBox="0 0 35 36" fill="none" xmlns="http://www.w3.org/2000/svg">
<rect y="0.299072" width="35" height="35" rx="17.5" fill="black"/>
<path d="M26.25 13.3594C25.1108 13.358 24.0187 12.9049 23.2132 12.0993C22.4076 11.2938 21.9545 10.2017 21.9531 9.0625C21.9531 8.92575 21.8988 8.7946 21.8021 8.6979C21.7054 8.6012 21.5743 8.54688 21.4375 8.54688H18C17.8632 8.54688 17.7321 8.6012 17.6354 8.6979C17.5387 8.7946 17.4844 8.92575 17.4844 9.0625V20.4062C17.4842 20.7445 17.3932 21.0766 17.221 21.3677C17.0487 21.6589 16.8015 21.8985 16.5051 22.0616C16.2087 22.2246 15.874 22.3052 15.5359 22.2948C15.1978 22.2845 14.8686 22.1836 14.5827 22.0027C14.2969 21.8218 14.0648 21.5675 13.9107 21.2664C13.7566 20.9652 13.6861 20.6282 13.7066 20.2906C13.7271 19.9529 13.8378 19.6269 14.0272 19.3466C14.2166 19.0663 14.4777 18.842 14.7834 18.697C14.8715 18.6552 14.946 18.5892 14.9982 18.5068C15.0504 18.4243 15.0781 18.3287 15.0781 18.2312V14.5625C15.078 14.4876 15.0616 14.4135 15.03 14.3456C14.9984 14.2776 14.9524 14.2174 14.8951 14.169C14.8379 14.1207 14.7708 14.0854 14.6985 14.0656C14.6262 14.0459 14.5505 14.0421 14.4766 14.0546C11.4859 14.5866 9.23438 17.3168 9.23438 20.4062C9.23437 22.0929 9.90438 23.7104 11.097 24.903C12.2896 26.0956 13.9071 26.7656 15.5938 26.7656C17.2804 26.7656 18.8979 26.0956 20.0905 24.903C21.2831 23.7104 21.9531 22.0929 21.9531 20.4062V16.7049C23.2642 17.4446 24.7447 17.8316 26.25 17.8281C26.3868 17.8281 26.5179 17.7738 26.6146 17.6771C26.7113 17.5804 26.7656 17.4493 26.7656 17.3125V13.875C26.7656 13.7382 26.7113 13.6071 26.6146 13.5104C26.5179 13.4137 26.3868 13.3594 26.25 13.3594ZM25.7344 16.7797C24.2938 16.6877 22.9086 16.1905 21.7383 15.3454C21.6611 15.29 21.5702 15.257 21.4755 15.25C21.3808 15.243 21.286 15.2623 21.2015 15.3057C21.1171 15.3492 21.0463 15.4152 20.9969 15.4963C20.9476 15.5775 20.9216 15.6707 20.9219 15.7656V20.4062C20.9219 21.8194 20.3605 23.1746 19.3613 24.1738C18.3621 25.173 17.0069 25.7344 15.5938 25.7344C14.1806 25.7344 12.8254 25.173 11.8262 24.1738C10.827 23.1746 10.2656 21.8194 10.2656 20.4062C10.2656 18.0241 11.8529 15.8963 14.0469 15.2173V17.927C13.6154 18.1962 13.2616 18.5735 13.0206 19.0214C12.7797 19.4693 12.6598 19.9724 12.6728 20.4808C12.6859 20.9893 12.8315 21.4855 13.0951 21.9205C13.3588 22.3554 13.7315 22.714 14.1762 22.9608C14.621 23.2075 15.1225 23.3339 15.631 23.3274C16.1396 23.3209 16.6377 23.1818 17.076 22.9237C17.5143 22.6657 17.8777 22.2977 18.1302 21.8562C18.3827 21.4147 18.5155 20.9149 18.5156 20.4062V9.57812H20.9468C21.0677 10.8068 21.611 11.9555 22.484 12.8285C23.357 13.7015 24.5057 14.2448 25.7344 14.3657V16.7797Z" fill="white"/>
</svg>
