<svg width="92" height="24" viewBox="0 0 92 24" fill="none" xmlns="http://www.w3.org/2000/svg">
<path d="M91.2372 13.1959L82.0331 23.5051C81.7374 23.835 81.3677 24 80.9981 24C80.6284 24 80.2588 23.835 79.9631 23.5051C79.3716 22.8454 79.3716 21.8144 79.9631 21.1546L86.6536 13.6495H65.0665C64.2532 13.6495 63.5879 12.9072 63.5879 12C63.5879 11.0928 64.2532 10.3505 65.0665 10.3505H86.6536L79.9631 2.84537C79.3716 2.18557 79.3716 1.15464 79.9631 0.494845C80.5545 -0.164948 81.4786 -0.164948 82.07 0.494845L91.2742 10.8041C91.8286 11.5052 91.8286 12.5773 91.2372 13.1959Z" fill="#C19A5B"/>
<rect y="9.97961" width="88.7142" height="4.12295" rx="2.06148" fill="#C19A5B"/>
</svg>
