<svg width="45" height="20" viewBox="0 0 45 20" fill="none" xmlns="http://www.w3.org/2000/svg">
<path d="M44.355 10.9966L36.685 19.5876C36.4385 19.8625 36.1305 20 35.8224 20C35.5144 20 35.2064 19.8625 34.9599 19.5876C34.4671 19.0378 34.4671 18.1787 34.9599 17.6289L40.5354 11.3746H22.5461C21.8684 11.3746 21.314 10.756 21.314 10C21.314 9.24398 21.8684 8.62543 22.5461 8.62543H40.5354L34.9599 2.37114C34.4671 1.82131 34.4671 0.962199 34.9599 0.412371C35.4528 -0.137457 36.2229 -0.137457 36.7158 0.412371L44.3859 9.00344C44.8479 9.58763 44.8479 10.4811 44.355 10.9966Z" fill="#C19A5B"/>
<rect x="0.166504" y="8" width="44.17" height="3.4358" rx="1.7179" fill="#C19A5B"/>
</svg>
