<svg width="24" height="24" viewBox="0 0 24 24" fill="none" xmlns="http://www.w3.org/2000/svg">
<path d="M19.0714 11.0549C18.6662 10.877 18.2283 10.7853 17.7857 10.7857H6.21429C5.77172 10.7853 5.3339 10.8768 4.92857 11.0545C4.35571 11.305 3.86823 11.717 3.52573 12.2401C3.18324 12.7632 3.00055 13.3748 3 14V18.5C3 18.6705 3.06773 18.834 3.18829 18.9546C3.30885 19.0751 3.47236 19.1429 3.64286 19.1429C3.81335 19.1429 3.97687 19.0751 4.09743 18.9546C4.21798 18.834 4.28571 18.6705 4.28571 18.5V18.1786C4.28676 18.0936 4.32096 18.0125 4.38101 17.9524C4.44107 17.8924 4.52222 17.8582 4.60714 17.8571H19.3929C19.4778 17.8582 19.5589 17.8924 19.619 17.9524C19.679 18.0125 19.7132 18.0936 19.7143 18.1786V18.5C19.7143 18.6705 19.782 18.834 19.9026 18.9546C20.0231 19.0751 20.1866 19.1429 20.3571 19.1429C20.5276 19.1429 20.6912 19.0751 20.8117 18.9546C20.9323 18.834 21 18.6705 21 18.5V14C20.9994 13.3748 20.8167 12.7634 20.4742 12.2403C20.1317 11.7173 19.6442 11.3054 19.0714 11.0549ZM16.8214 5H7.17857C6.58183 5 6.00954 5.23705 5.58758 5.65901C5.16562 6.08097 4.92857 6.65326 4.92857 7.25V10.1429C4.92859 10.1678 4.9344 10.1923 4.94553 10.2146C4.95667 10.2369 4.97283 10.2563 4.99274 10.2712C5.01265 10.2862 5.03576 10.2963 5.06026 10.3008C5.08475 10.3053 5.10996 10.3041 5.13388 10.2971C5.48483 10.1945 5.84864 10.1425 6.21429 10.1429H6.38424C6.42391 10.1431 6.46227 10.1287 6.49194 10.1023C6.52161 10.076 6.54049 10.0396 6.54496 10.0002C6.58002 9.6861 6.72956 9.39591 6.96502 9.18505C7.20048 8.9742 7.50536 8.85746 7.82143 8.85714H10.0714C10.3877 8.85717 10.6929 8.97377 10.9286 9.18465C11.1643 9.39553 11.314 9.6859 11.3491 10.0002C11.3536 10.0396 11.3725 10.076 11.4021 10.1023C11.4318 10.1287 11.4702 10.1431 11.5098 10.1429H12.4926C12.5323 10.1431 12.5706 10.1287 12.6003 10.1023C12.63 10.076 12.6488 10.0396 12.6533 10.0002C12.6883 9.68631 12.8377 9.39628 13.0729 9.18545C13.3081 8.97463 13.6127 8.85776 13.9286 8.85714H16.1786C16.4948 8.85717 16.8 8.97377 17.0357 9.18465C17.2714 9.39553 17.4212 9.6859 17.4562 10.0002C17.4607 10.0396 17.4796 10.076 17.5093 10.1023C17.5389 10.1287 17.5773 10.1431 17.617 10.1429H17.7857C18.1514 10.1427 18.5152 10.1948 18.8661 10.2975C18.8901 10.3045 18.9153 10.3057 18.9398 10.3012C18.9644 10.2967 18.9875 10.2865 19.0074 10.2715C19.0273 10.2565 19.0435 10.2371 19.0546 10.2147C19.0657 10.1924 19.0715 10.1678 19.0714 10.1429V7.25C19.0714 6.65326 18.8344 6.08097 18.4124 5.65901C17.9905 5.23705 17.4182 5 16.8214 5Z" fill="#C19A5B"/>
</svg>
