<svg width="24" height="24" viewBox="0 0 24 24" fill="none" xmlns="http://www.w3.org/2000/svg">
<path d="M13.8516 17.2805C13.8647 17.258 13.8647 17.2449 13.8797 17.2224C13.8722 17.2427 13.8628 17.2621 13.8516 17.2805Z" fill="#C19A5B"/>
<path d="M20.1244 18.0509L12.1987 20.8627C11.6595 21.0532 11.0699 21.0452 10.536 20.8402L6.45508 19.2656V18.3283C7.9716 18.8326 7.85538 18.7988 7.89287 18.7988C7.94259 18.807 7.99352 18.7951 8.03448 18.7658C8.07544 18.7364 8.10305 18.692 8.11126 18.6423C8.11946 18.5926 8.10758 18.5416 8.07822 18.5007C8.04887 18.4597 8.00445 18.4321 7.95473 18.4239L6.45508 17.9234V14.3336L7.62106 13.685C7.90329 13.5265 8.22154 13.4433 8.54522 13.4433C8.8689 13.4433 9.18714 13.5265 9.46938 13.685L13.4922 15.9532C13.706 16.0773 13.8641 16.2787 13.9338 16.5158C14.0036 16.753 13.9797 17.0079 13.8671 17.2279C13.7731 17.3693 13.635 17.4756 13.4742 17.5302C13.3135 17.5848 13.1392 17.5846 12.9786 17.5297L8.82828 16.1219C8.80467 16.1134 8.77959 16.1097 8.75453 16.1111C8.72947 16.1124 8.70493 16.1188 8.68238 16.1298C8.65983 16.1408 8.63972 16.1563 8.62324 16.1752C8.60676 16.1941 8.59425 16.2162 8.58646 16.24C8.57798 16.2638 8.57437 16.289 8.57584 16.3141C8.57732 16.3393 8.58385 16.3639 8.59505 16.3864C8.60625 16.409 8.62189 16.4291 8.64102 16.4455C8.66016 16.4619 8.6824 16.4743 8.70643 16.4819C13.2054 18.004 12.9654 17.9459 13.2354 17.9459C13.4772 17.9466 13.7132 17.8711 13.9097 17.7301C14.1062 17.5891 14.2533 17.3898 14.3301 17.1605C20.0063 15.7958 19.5789 15.8876 19.7551 15.8876C20.0176 15.8867 20.272 15.9787 20.4732 16.1474C20.6744 16.316 20.8094 16.5504 20.8543 16.8091C20.8992 17.0677 20.8511 17.3339 20.7185 17.5605C20.586 17.7871 20.3775 17.9595 20.13 18.0471L20.1244 18.0509ZM9.99238 9.8609C9.96553 9.97823 9.89318 10.0801 9.79123 10.1441C9.68928 10.2081 9.56609 10.2289 9.44876 10.2021C9.33143 10.1752 9.22957 10.1029 9.16558 10.0009C9.1016 9.89897 9.08074 9.77578 9.10759 9.65845C9.40939 9.85903 9.66433 9.8459 9.99238 9.8609Z" fill="#C19A5B"/>
<path d="M16.8468 4.06883V8.36721L16.3912 8.88084C16.1527 9.14474 15.8587 9.35267 15.5305 9.48975C15.2022 9.62682 14.8477 9.68967 14.4923 9.67378L10.0571 9.48632C9.70279 9.47133 9.43285 9.49757 9.17603 9.21826C9.07992 9.11031 9.01569 8.97776 8.99054 8.83542C8.96538 8.69309 8.98028 8.54656 9.03357 8.4122L9.10105 8.28473C9.16862 8.17895 9.26094 8.09124 9.37004 8.02918C9.47913 7.96712 9.60171 7.93258 9.72716 7.92856L13.8006 7.81983C13.8503 7.81983 13.898 7.80009 13.9331 7.76493C13.9683 7.72978 13.988 7.6821 13.988 7.63238C13.988 7.58266 13.9683 7.53498 13.9331 7.49983C13.898 7.46467 13.8503 7.44492 13.8006 7.44492C13.4013 7.44492 15.2515 7.40556 9.72153 7.55365C9.57261 7.55695 9.42583 7.58981 9.28971 7.65031C9.15359 7.71081 9.03084 7.79774 8.92859 7.90606C8.74688 7.91021 8.5684 7.95495 8.40622 8.03701C8.24404 8.11907 8.10227 8.23638 7.99131 8.38033C7.63803 8.7763 7.41308 9.27006 7.34615 9.79648C7.27922 10.3229 7.37345 10.8572 7.6164 11.329C7.29653 11.1649 7.03816 10.9019 6.87969 10.5792L6.28921 9.40009C6.14858 9.11917 6.07897 8.80806 6.08649 8.494C6.094 8.17993 6.17841 7.87251 6.33232 7.59864L7.49268 5.53662C7.77002 5.04233 8.17628 4.63256 8.66816 4.35096C9.16004 4.06937 9.71911 3.92651 10.2858 3.93761L16.8468 4.06883Z" fill="#C19A5B"/>
<path d="M14.3995 13.8108L12.6992 12.1106C12.6703 12.0814 12.654 12.042 12.654 12.0009C12.654 11.9598 12.6703 11.9204 12.6992 11.8913L12.8511 11.7394C12.8671 11.7233 12.8794 11.704 12.8872 11.6827C12.895 11.6614 12.8981 11.6387 12.8963 11.6161C12.8946 11.5935 12.8879 11.5715 12.8769 11.5517C12.8658 11.5319 12.8506 11.5147 12.8323 11.5014L12.0825 10.969C12.0558 10.9497 12.0358 10.9224 12.0254 10.8912C12.0149 10.8599 12.0146 10.8261 12.0244 10.7946C12.1105 10.5223 12.1442 10.236 12.1237 9.95109L10.3654 9.87611C10.3489 9.9961 10.3063 10.111 10.2406 10.2127C10.1749 10.3145 10.0876 10.4006 9.98507 10.465C9.88248 10.5294 9.76703 10.5705 9.64685 10.5854C9.52666 10.6004 9.40465 10.5888 9.28942 10.5515C9.17419 10.5142 9.06854 10.4521 8.97991 10.3696C8.89127 10.287 8.82181 10.186 8.77642 10.0738C8.73102 9.96148 8.71079 9.8406 8.71716 9.71966C8.72352 9.59871 8.75633 9.48063 8.81326 9.37373C8.6977 9.21725 8.62426 9.03372 8.59997 8.84072C8.57568 8.64772 8.60136 8.45172 8.67454 8.27148C8.22592 8.56756 7.89986 9.01627 7.75684 9.53442C7.61381 10.0526 7.66352 10.605 7.89674 11.0893C8.12996 11.5736 8.53087 11.9569 9.02515 12.1681C9.51942 12.3794 10.0735 12.4042 10.5847 12.2381C10.6164 12.2279 10.6505 12.2276 10.6823 12.2373C10.7141 12.247 10.7422 12.2663 10.7628 12.2924L11.2952 13.0422C11.3086 13.0604 11.3258 13.0755 11.3455 13.0866C11.3652 13.0976 11.387 13.1043 11.4096 13.1063C11.4321 13.1082 11.4548 13.1054 11.4761 13.0979C11.4974 13.0904 11.5169 13.0785 11.5333 13.0629L11.6832 12.911C11.6977 12.8964 11.7149 12.8848 11.7339 12.8769C11.7529 12.869 11.7732 12.8649 11.7938 12.8649C11.8144 12.8649 11.8348 12.869 11.8537 12.8769C11.8727 12.8848 11.8899 12.8964 11.9044 12.911L13.6046 14.6113L14.422 14.6319L14.3995 13.8108Z" fill="#C19A5B"/>
<path d="M16.3919 8.88051C16.1533 9.14441 15.8594 9.35234 15.5311 9.48941C15.2029 9.62649 14.8483 9.68933 14.493 9.67345L9.7072 9.47099C9.50919 9.45989 9.32304 9.37304 9.18731 9.22844C9.05159 9.08384 8.97669 8.89257 8.97814 8.69426C8.97958 8.49594 9.05726 8.30578 9.19508 8.16318C9.3329 8.02057 9.52029 7.93644 9.71844 7.92823L13.7919 7.8195C13.8391 7.81965 13.8846 7.80198 13.9194 7.77C13.9541 7.73803 13.9755 7.69412 13.9793 7.64704L16.9299 8.27877L16.3919 8.88051ZM3 15.5596V19.9873C2.99976 20.0458 3.01107 20.1038 3.03328 20.1579C3.0555 20.212 3.08818 20.2612 3.12946 20.3027C3.17074 20.3441 3.2198 20.377 3.27383 20.3994C3.32785 20.4219 3.38578 20.4334 3.44428 20.4334H5.63564C5.75347 20.4334 5.86647 20.3866 5.94979 20.3033C6.03311 20.22 6.07991 20.107 6.07991 19.9892V15.5596H3ZM4.53902 19.4962C4.4074 19.4962 4.27874 19.4571 4.16931 19.384C4.05987 19.3109 3.97457 19.207 3.92421 19.0854C3.87384 18.9638 3.86066 18.83 3.88634 18.7009C3.91202 18.5718 3.97539 18.4532 4.06846 18.3601C4.16153 18.2671 4.28011 18.2037 4.40919 18.178C4.53828 18.1523 4.67209 18.1655 4.79369 18.2159C4.91528 18.2662 5.01922 18.3515 5.09234 18.461C5.16546 18.5704 5.20449 18.6991 5.20449 18.8307C5.20449 19.0072 5.13438 19.1765 5.00958 19.3013C4.88478 19.4261 4.71552 19.4962 4.53902 19.4962ZM6.07991 15.1847V14.2886C6.07942 14.1711 6.03239 14.0586 5.94913 13.9757C5.86586 13.8928 5.75315 13.8462 5.63564 13.8462H3.44428C3.32677 13.8462 3.21405 13.8928 3.13079 13.9757C3.04753 14.0586 3.0005 14.1711 3 14.2886V15.1847H6.07991ZM17.2223 4.71523V9.14107C17.2223 9.2589 17.2691 9.3719 17.3524 9.45522C17.4358 9.53854 17.5488 9.58534 17.6666 9.58534H19.858C19.9758 9.58534 20.0888 9.53854 20.1721 9.45522C20.2554 9.3719 20.3022 9.2589 20.3022 9.14107V4.71523H17.2223ZM18.7613 8.65181C18.6297 8.65107 18.5013 8.61131 18.3923 8.53757C18.2832 8.46383 18.1985 8.35942 18.1489 8.23754C18.0992 8.11566 18.0868 7.98179 18.1132 7.85285C18.1396 7.72391 18.2036 7.60569 18.2972 7.51315C18.3908 7.42061 18.5097 7.3579 18.639 7.33295C18.7682 7.308 18.9019 7.32193 19.0232 7.37298C19.1445 7.42403 19.248 7.50991 19.3205 7.61975C19.393 7.7296 19.4313 7.85847 19.4306 7.99009C19.4306 8.0778 19.4132 8.16464 19.3795 8.24562C19.3459 8.32661 19.2965 8.40013 19.2343 8.46198C19.1721 8.52382 19.0983 8.57276 19.0172 8.60598C18.936 8.6392 18.849 8.65605 18.7613 8.65556V8.65181ZM20.3022 4.34031V3.44427C20.3022 3.32644 20.2554 3.21344 20.1721 3.13012C20.0888 3.04681 19.9758 3 19.858 3H17.6666C17.5488 3 17.4358 3.04681 17.3524 3.13012C17.2691 3.21344 17.2223 3.32644 17.2223 3.44427V4.34031H20.3022Z" fill="#C19A5B"/>
</svg>
