<svg width="100" height="100" viewBox="0 0 100 100" fill="none" xmlns="http://www.w3.org/2000/svg">
<circle cx="50" cy="50" r="50" fill="white" fill-opacity="0.1"/>
<path d="M73.2298 40.1L59.2198 34.76L55.6798 39.43C55.6798 41.39 55.3298 43.35 54.6398 45.24C53.8898 47.31 52.7498 49.18 51.3198 50.76L54.9298 63.36L61.6598 61.43L57.7998 47.97L67.4098 45.21L71.2698 58.67L77.9998 56.74L73.2298 40.1Z" fill="white"/>
<path d="M44.6198 25.68L44.8198 25.48C44.9398 25.36 45.0698 25.26 45.1998 25.15C45.2898 25.07 45.3798 25 45.4798 24.92C45.5998 24.83 45.7298 24.74 45.8498 24.65C45.9698 24.57 46.0798 24.49 46.1998 24.42L46.5598 24.21C46.7598 24.1 46.9498 23.99 47.1598 23.89C48.2331 23.3869 49.3955 23.1013 50.5798 23.0499C51.764 22.9984 52.9468 23.1819 54.0598 23.59C56.3798 24.43 58.1698 26.17 59.1598 28.32L58.5398 28.09C57.7098 27.77 56.7698 28.04 56.2298 28.75L53.8798 31.86C53.9498 31.98 54.0098 32.11 54.0698 32.24C54.6998 33.6 55.1498 35.03 55.3998 36.47L58.5198 32.36L74.8698 38.59L76.2998 34.85L61.6298 29.26C60.7198 25.81 58.1898 22.96 54.7398 21.71C51.9698 20.7 48.9798 20.83 46.3098 22.08C46.1598 22.15 46.0298 22.23 45.8798 22.3C45.8598 22.3 45.8398 22.3 45.8198 22.32C45.7398 22.36 45.6598 22.42 45.5798 22.46C45.4298 22.54 45.2798 22.63 45.1398 22.72C44.9898 22.81 44.8498 22.91 44.7098 23C44.5598 23.11 44.3998 23.21 44.2498 23.33C44.1298 23.42 44.0198 23.51 43.9098 23.61C43.7498 23.74 43.5998 23.87 43.4498 24.01C43.3598 24.1 43.2698 24.19 43.1698 24.28C43.0198 24.43 42.8598 24.59 42.7198 24.75C42.6598 24.81 42.6098 24.88 42.5598 24.94C35.1198 22.93 27.2498 26.91 24.5598 34.28C22.3298 40.41 24.3598 47.05 29.1198 50.98L27.3198 55.93L28.5198 58.49L25.9598 59.69L27.1598 62.25L24.5998 63.45L25.7998 66.01L23.2398 67.21L22.0098 70.6L24.6598 77.95L31.4098 74.02L38.5498 54.41C44.7298 54.46 50.5498 50.69 52.7798 44.55C55.5098 37.05 51.8698 28.8 44.6398 25.67L44.6198 25.68ZM44.2198 32.94C43.6498 34.5 41.9298 35.3 40.3698 34.73C38.8098 34.16 38.0098 32.44 38.5798 30.88C38.8998 30.01 39.5798 29.39 40.3798 29.1C40.1998 29.75 40.0498 30.41 39.9898 31.08C39.9398 31.63 40.3498 32.12 40.8998 32.17C41.4498 32.22 41.9398 31.81 41.9898 31.26C42.0598 30.53 42.2198 29.81 42.4598 29.11C43.9898 29.69 44.7798 31.39 44.2198 32.94Z" fill="white"/>
</svg>
