<svg width="100" height="100" viewBox="0 0 100 100" fill="none" xmlns="http://www.w3.org/2000/svg">
<circle cx="50" cy="50" r="50" fill="white" fill-opacity="0.1"/>
<circle cx="50" cy="50" r="49.5" stroke="white" stroke-opacity="0.5"/>
<g clip-path="url(#clip0_1664_5651)">
<path d="M40.514 42.2607C41.8896 42.0723 43.0714 41.0592 43.4051 39.6266C43.8371 37.7723 42.6837 35.9191 40.8296 35.4873C38.9752 35.0555 37.122 36.2087 36.69 38.063C36.3262 39.6263 37.0887 41.1887 38.4478 41.8993C38.7066 42.0343 38.9814 42.1361 39.2657 42.2023C39.6877 42.3005 40.1091 42.316 40.514 42.2607ZM41.0046 69.0425C41.0818 70.0474 41.9213 70.8112 42.9128 70.8115C42.9622 70.8115 43.0118 70.8093 43.0618 70.8055C44.1166 70.7247 44.906 69.8037 44.8251 68.7489C44.2642 61.4645 41.7572 56.6476 40.206 54.307C40.1324 53.7191 40.1145 53.1093 40.1324 52.4943C39.1044 51.6788 38.4951 50.7822 38.1586 50.1501C37.4844 48.9043 37.1245 47.4491 37.1191 45.9439C37.1191 45.6131 37.1384 45.3848 37.1497 45.2778C37.172 45.0775 37.2337 44.8836 37.3311 44.7072C37.4285 44.5307 37.5598 44.3753 37.7174 44.2497C37.875 44.1241 38.0559 44.0309 38.2496 43.9753C38.4433 43.9198 38.6461 43.903 38.8464 43.926C39.6856 44.0215 40.291 44.7824 40.1954 45.6219L40.195 45.6291L40.1919 45.6734C40.1882 45.7311 40.1839 45.8231 40.1839 45.9425C40.1821 46.2603 40.2175 47.2872 40.6693 48.3148C40.7937 47.6763 40.9203 47.075 41.0262 46.5333C41.4659 45.0086 40.8906 43.1831 39.5826 42.8568C38.832 42.6697 37.8882 42.8245 37.0742 43.4136C36.4465 43.7493 35.6099 44.2728 34.7273 45.0412C32.9662 46.5696 31.0271 49.1218 30.366 52.9788C30.3347 53.1586 30.3441 53.3432 30.3935 53.5189C30.4429 53.6947 30.531 53.8571 30.6514 53.9944L29.0176 57.8752L23.6264 55.6059C23.478 55.5434 23.3188 55.5108 23.1578 55.5099C22.9968 55.509 22.8372 55.5398 22.6881 55.6005C22.539 55.6613 22.4033 55.7508 22.2888 55.864C22.1743 55.9772 22.0832 56.1119 22.0208 56.2603L18.0965 65.5825C18.0341 65.7309 18.0014 65.8901 18.0005 66.0511C17.9996 66.2121 18.0304 66.3717 18.0911 66.5208C18.1519 66.6699 18.2415 66.8056 18.3547 66.9201C18.4679 67.0345 18.6025 67.1256 18.7509 67.1881L24.4507 69.5876C24.646 70.3937 25.3702 70.9929 26.2361 70.9929C27.2517 70.9929 28.0751 70.1695 28.0751 69.1539C28.0751 68.7373 27.9349 68.3541 27.7011 68.0459L31.0604 60.0659C31.1229 59.9175 31.1555 59.7583 31.1565 59.5973C31.1574 59.4362 31.1267 59.2766 31.0659 59.1275C31.0052 58.9783 30.9156 58.8426 30.8024 58.7281C30.6892 58.6136 30.5546 58.5225 30.4062 58.46L29.9119 58.2521L31.5286 54.4118C31.5443 54.4124 31.5603 54.414 31.5761 54.414C31.8647 54.4135 32.144 54.3112 32.3646 54.1251C32.5853 53.939 32.7332 53.681 32.7823 53.3965C33.1413 51.3343 33.903 49.7739 34.7779 48.5865C34.4834 50.2486 34.4853 51.8437 34.7356 53.9936C34.971 55.2055 35.4992 55.8825 36.1417 56.2565C36.2703 57.0207 36.3353 57.7943 36.3361 58.5693C36.3366 59.9115 36.1346 61.4389 35.5258 62.9579C34.9132 64.4781 33.9093 66.0031 32.196 67.4165C31.3793 68.0889 31.2617 69.296 31.9342 70.1134C32.6067 70.9303 33.8138 71.0473 34.6309 70.375L34.6306 70.3747C36.8412 68.5599 38.2562 66.4528 39.0821 64.3827C39.3516 63.7085 39.5711 63.0154 39.7387 62.3091C40.3229 64.1801 40.8032 66.4241 41.0046 69.0425ZM26.2361 70.0733C26.1139 70.0755 25.9926 70.0533 25.8791 70.0081C25.7656 69.9629 25.6623 69.8955 25.5751 69.8099C25.488 69.7243 25.4187 69.6222 25.3715 69.5095C25.3243 69.3969 25.2999 69.2759 25.3 69.1538C25.3 69.0316 25.3243 68.9107 25.3716 68.798C25.4189 68.6854 25.4882 68.5833 25.5753 68.4977C25.6625 68.4122 25.7659 68.3448 25.8794 68.2996C25.9929 68.2545 26.1142 68.2323 26.2364 68.2346C26.4773 68.239 26.7069 68.3379 26.8756 68.5098C27.0444 68.6818 27.139 68.9131 27.1389 69.1541C27.1389 69.395 27.0443 69.6264 26.8754 69.7983C26.7066 69.9702 26.477 70.0689 26.2361 70.0733Z" fill="white"/>
<path d="M39.8905 45.5909L39.8908 45.5874C39.9276 45.2643 39.8346 44.9399 39.6322 44.6854C39.4298 44.431 39.1346 44.2673 38.8116 44.2305C38.6517 44.2122 38.4897 44.2256 38.3349 44.2699C38.1801 44.3143 38.0356 44.3887 37.9096 44.4889C37.7835 44.5891 37.6785 44.7131 37.6004 44.8539C37.5224 44.9947 37.4728 45.1496 37.4546 45.3095C37.4505 45.3484 37.4258 45.5771 37.4258 45.9426C37.4288 46.7849 37.5459 48.3739 38.429 50.0062C39.2997 51.6404 41.0319 53.2526 43.8618 53.8964C43.9534 53.9179 44.0471 53.9287 44.1412 53.9287C44.4177 53.9283 44.686 53.8345 44.9025 53.6625C45.119 53.4905 45.271 53.2503 45.3339 52.981C45.4078 52.6644 45.3529 52.3314 45.1813 52.0552C45.0096 51.779 44.7353 51.5824 44.4187 51.5085C42.2076 50.9756 41.1954 49.926 40.5823 48.8335C39.9814 47.7391 39.8746 46.5366 39.8775 45.9427C39.8775 45.8149 39.8819 45.7167 39.8857 45.6551C39.8877 45.6237 39.8897 45.6022 39.8905 45.5909ZM79.151 28.4368H58.3103V32.6838C58.5954 32.8643 58.8578 33.0782 59.0922 33.321C59.1058 33.3351 59.1185 33.3499 59.132 33.364V29.258H75.7951L62.0692 32.7598V72.989L62.1385 72.9713L76.3473 69.3464H82.0002V68.4269H79.151V28.4368ZM63.5809 51.8306L64.8128 51.4199V59.2215L63.5809 59.6322V51.8306ZM61.0437 68.4324C60.9044 68.4566 60.7637 68.4722 60.623 68.4722C59.5768 68.4722 58.6487 67.7937 58.3103 66.8221V68.4267H47.3711V69.3462H61.0437V68.4324Z" fill="white"/>
<path d="M60.946 67.5184C60.9793 67.5112 61.0111 67.5017 61.0435 67.4924V60.6709L60.5479 58.3625C59.3904 58.5956 58.3654 58.6969 57.4902 58.7215L59.1263 66.3418C59.3039 67.1693 60.1185 67.6962 60.946 67.5184Z" fill="white"/>
<path d="M59.3449 36.2956C59.3757 34.4765 57.9261 32.977 56.1071 32.9462C54.2882 32.9154 52.7887 34.365 52.7579 36.184C52.7271 38.0031 54.1767 39.5026 55.9956 39.5334C57.8146 39.5642 59.3141 38.1146 59.3449 36.2956Z" fill="white"/>
<path d="M60.6855 57.7871C60.8069 57.7611 60.926 57.7338 61.0437 57.7063V40.2831C60.315 39.9854 59.7559 39.9311 59.4866 39.9351C59.4592 39.9351 59.4345 39.9354 59.4129 39.9363C59.3054 39.9328 59.1978 39.931 59.0902 39.9309C58.6157 39.9322 57.7725 39.9564 56.8973 40.1432C55.7765 40.3875 54.7975 40.852 54.5365 40.9795C54.2524 41.0914 53.3012 41.568 52.428 42.9316C51.4699 44.4201 50.6126 46.9125 50.613 51.0532C50.6135 51.9218 50.6512 52.8637 50.7333 53.8852C50.7545 54.1486 50.8794 54.3927 51.0806 54.564C51.2818 54.7353 51.5427 54.8196 51.8061 54.7984C52.0694 54.7773 52.3136 54.6524 52.4849 54.4512C52.6561 54.25 52.7405 53.989 52.7193 53.7257H52.7188C52.6404 52.7529 52.6051 51.8646 52.6051 51.0532C52.6059 47.8035 53.168 45.8131 53.7612 44.6158L53.9036 57.8323C53.9035 57.8322 56.4423 58.6979 60.6855 57.7871ZM50.2031 27.1935C49.2415 27.7157 49.3472 28.6161 49.3472 28.6161C49.3472 28.6161 48.6495 28.037 47.6881 28.5589C46.726 29.0812 45.0944 32.0746 51.5161 32.6113C54.5638 26.9333 51.1647 26.6714 50.2031 27.1935ZM35.3739 36.7999C38.4216 31.1222 35.0225 30.86 34.0609 31.3822C33.0992 31.9045 33.205 32.8049 33.205 32.8049C33.205 32.8049 32.5072 32.2257 31.5459 32.7477C30.5837 33.2701 28.9522 36.2635 35.3739 36.7999Z" fill="white"/>
</g>
<defs>
<clipPath id="clip0_1664_5651">
<rect width="64" height="64" fill="white" transform="translate(18 18)"/>
</clipPath>
</defs>
</svg>
