<svg width="100" height="100" viewBox="0 0 100 100" fill="none" xmlns="http://www.w3.org/2000/svg">
<circle cx="50" cy="50" r="50" fill="white" fill-opacity="0.1"/>
<circle cx="50" cy="50" r="49.5" stroke="white" stroke-opacity="0.5"/>
<path d="M76.0196 43.197L51.9401 25.7023C50.6385 24.7568 48.8423 24.7672 47.5685 25.7262L39.3896 31.6684V28.5153C39.3896 27.6876 38.7161 27.0142 37.8885 27.0142H32.7647C31.937 27.0142 31.2637 27.6876 31.2637 28.5153V37.5725L23.522 43.1971C21.8758 44.3934 21.5072 46.7066 22.7005 48.3533C23.2797 49.1529 24.1362 49.6787 25.1117 49.834C26.0864 49.9892 27.0626 49.7554 27.8606 49.1757L29.7287 47.8185V71.8209C29.7287 73.5738 31.1549 75 32.9077 75H66.6337C68.3867 75 69.8128 73.5738 69.8128 71.8209V47.8183L71.6809 49.1755C72.3179 49.6383 73.0684 49.8806 73.8413 49.8806C74.0383 49.8805 74.235 49.8649 74.4296 49.8339C75.4052 49.6787 76.2615 49.1529 76.8409 48.3532C78.0344 46.7065 77.6658 44.3934 76.0196 43.197ZM48.8995 48.7406V53.1083C46.6676 52.7382 44.9019 50.9726 44.5319 48.7406H48.8995ZM44.5319 46.998C44.9019 44.7661 46.6676 43.0004 48.8995 42.6303V46.998H44.5319ZM55.0098 48.7406C54.6398 50.9727 52.874 52.7384 50.6421 53.1083V48.7406H55.0098ZM50.6421 46.998V42.6303C52.874 43.0003 54.6398 44.7661 55.0098 46.998H50.6421ZM36.8987 63.2556C36.8987 61.7015 38.1631 60.4371 39.7172 60.4371C41.2714 60.4371 42.5357 61.7015 42.5357 63.2556C42.5357 64.8096 41.2714 66.074 39.7172 66.074C38.1631 66.074 36.8987 64.8096 36.8987 63.2556ZM49.7709 62.0946C51.0935 62.0946 52.1694 63.1705 52.1694 64.493C52.1694 65.8155 51.0934 66.8915 49.7709 66.8915C48.4484 66.8915 47.3724 65.8155 47.3724 64.493C47.3724 63.1705 48.4483 62.0946 49.7709 62.0946ZM57.0062 63.2556C57.0062 61.7015 58.2704 60.4371 59.8246 60.4371C61.3788 60.4371 62.643 61.7015 62.643 63.2556C62.643 64.8096 61.3788 66.074 59.8246 66.074C58.2704 66.074 57.0062 64.8096 57.0062 63.2556ZM42.905 73.2572H33.8272C34.2545 70.3741 36.7623 68.1729 39.7171 68.1729C41.3953 68.1729 43.0004 68.899 44.1264 70.14C43.4846 71.0426 43.0515 72.1045 42.905 73.2572ZM44.6663 73.2572C45.0859 70.806 47.2403 68.9499 49.7709 68.9499C52.3013 68.9499 54.4558 70.8061 54.8754 73.2572H44.6663ZM56.6367 73.2572C56.4903 72.1046 56.0572 71.0427 55.4153 70.1399C56.5414 68.899 58.1464 68.1728 59.8246 68.1728C62.7795 68.1728 65.2872 70.374 65.7144 73.2571H56.6367V73.2572ZM75.43 47.3309C75.2799 47.539 75.0901 47.7153 74.8714 47.8496C74.6528 47.9838 74.4096 48.0734 74.1561 48.113C73.6412 48.1945 73.1262 48.0715 72.7054 47.7658L50.2829 31.4748C50.1303 31.3638 49.9505 31.3084 49.7708 31.3084C49.5911 31.3084 49.4113 31.3638 49.2587 31.4748L26.8364 47.7658C26.6296 47.9167 26.3948 48.0251 26.1458 48.0847C25.8968 48.1443 25.6384 48.1539 25.3856 48.113C25.1321 48.0734 24.8889 47.9839 24.6702 47.8497C24.4516 47.7154 24.2617 47.5391 24.1118 47.3309C23.4815 46.461 23.6765 45.239 24.5464 44.6068L48.599 27.1315L48.613 27.1211C49.2801 26.6158 50.2271 26.612 50.916 27.1121L74.9953 44.6065C75.8653 45.239 76.0602 46.461 75.43 47.3309Z" fill="white"/>
</svg>
