<svg width="116" height="107" viewBox="0 0 116 107" fill="none" xmlns="http://www.w3.org/2000/svg">
<path d="M74.2578 28.8537V29.7968C76.8518 30.7217 77.2537 32.7801 77.2446 38.2298L77.1806 78.6813C77.1806 83.3149 80.9529 87.078 85.6203 87.0871H86.1684L86.2414 38.248C86.2414 32.7257 86.6433 30.6764 89.3287 29.7786V28.8809L74.2578 28.8537Z" fill="white"/>
<path d="M43.5507 41.5396C41.4955 42.3013 39.5957 43.4347 37.9607 44.8947C36.4263 46.282 35.1841 47.9596 34.3072 49.8185C32.4713 54.0441 32.5535 58.8409 34.5447 63.0031C35.5859 65.0796 37.1113 66.8841 38.9746 68.2805C40.9018 69.7948 44.4549 71.9348 49.6429 74.6824C51.6433 75.707 53.5888 76.8405 55.4703 78.0556C56.9774 78.9986 58.4023 80.0686 59.7176 81.2565C60.6218 82.0273 61.3434 82.9794 61.8641 84.0494C62.2477 84.9381 62.4395 85.8992 62.4395 86.8695C62.4395 87.9758 62.1746 89.0639 61.6722 90.0432C61.1425 91.0679 60.43 91.9928 59.5715 92.7636C59.133 93.1535 58.6489 93.5071 58.1466 93.8154C69.7922 94.2053 72.368 84.7114 68.3856 77.8108C66.0565 73.7756 60.768 71.0099 56.8039 68.607C55.4612 67.7999 55.2055 67.6186 53.7623 66.7571C52.3192 65.8957 50.9948 65.1158 49.7526 64.3814C48.5286 63.6469 47.4874 63.0212 46.6196 62.5134C45.7519 61.9875 45.2222 61.6701 45.0212 61.5522C43.5872 60.4913 42.3907 59.1583 41.4864 57.6258C40.7557 56.3564 40.3721 54.9236 40.3538 53.4637C40.3538 52.2758 40.6187 51.1061 41.1211 50.0361C41.6417 48.9298 42.3998 47.9414 43.3223 47.1344C44.3636 46.2639 45.5601 45.5929 46.848 45.1667C48.3551 44.6589 49.9352 44.405 51.5337 44.4322C54.3834 44.3959 57.1966 45.0579 59.7176 46.3727C60.8776 46.9621 61.9645 47.6966 62.951 48.5399C63.8644 49.3288 64.6499 50.2537 65.2801 51.2784C65.9743 52.4663 66.5223 53.7267 66.9059 55.0506C67.4266 56.7735 67.8376 58.5326 68.1207 60.3099H70.0023L70.0297 40.3426H68.1481C68.0933 41.2494 67.7828 42.129 67.2439 42.8725C66.8146 43.3078 66.2209 43.5345 65.6089 43.4982C64.997 43.4529 64.3941 43.3441 63.8004 43.1627C62.9692 42.9269 61.8914 42.6005 60.567 42.2106C56.9957 41.1587 53.7258 40.2791 50.3463 40.2701C48.1724 40.2701 45.9346 40.6237 43.5415 41.5396H43.5507Z" fill="white"/>
<path d="M34.1785 11.1625L13.8648 11.1353V12.1146C14.6138 12.4138 15.2531 12.7675 15.7372 13.3387C16.5319 14.2999 16.9246 17.5734 16.9155 20.9375L16.8515 61.389C16.8515 64.5174 16.5227 67.945 15.8925 68.8518C15.381 69.6044 14.6594 69.949 13.7734 70.3117V71.1822L28.3967 71.2003C28.1045 70.7469 27.8396 70.2845 27.6021 69.7948C27.0632 68.7248 26.6704 67.5914 26.4238 66.4216C26.0402 64.7713 25.8758 63.0847 25.9397 61.389L25.9763 39.853L26.0128 14.7533C28.4333 14.1367 30.9268 13.8375 33.4295 13.8647C35.7312 13.8375 38.0147 14.1639 40.216 14.8258C41.9971 15.3608 43.6594 16.2314 45.1117 17.383C46.3722 18.3895 47.3769 19.6681 48.0619 21.1189C49.8248 24.9092 49.5051 29.5429 46.3265 32.4174C51.816 36.4344 55.4604 34.7478 56.94 30.6945C58.5385 26.1153 57.5794 21.0464 54.4191 17.3558C53.4966 16.2858 52.4188 15.3427 51.2223 14.5629C49.9161 13.7377 48.5095 13.0939 47.0207 12.6496C45.1939 12.1146 43.3306 11.7337 41.4399 11.5252C39.1747 11.2713 36.9004 11.1443 34.626 11.1443C34.4708 11.1443 34.3246 11.1443 34.1785 11.1443V11.1625Z" fill="white"/>
<path d="M93.3021 80.7487C93.3021 84.4393 96.298 87.4317 100.015 87.4317C103.733 87.4317 106.747 84.4575 106.747 80.7669C106.747 77.0763 103.751 74.0839 100.034 74.0839C96.3163 74.0839 93.3021 77.0581 93.293 80.7487H93.3021Z" fill="#E35F27"/>
</svg>
