<svg width="10" height="14" viewBox="0 0 10 14" fill="none" xmlns="http://www.w3.org/2000/svg">
<path d="M0.98996 4.0616C0.806312 2.73409 1.66141 1.53965 2.96767 1.10137C3.19961 1.0236 3.44988 1.0457 3.66745 1.16316C3.88502 1.28061 4.05349 1.48458 4.13849 1.73344L4.55736 2.95851C4.62471 3.15557 4.63678 3.37018 4.59204 3.57481C4.5473 3.77944 4.44777 3.96476 4.30623 4.10701L3.06022 5.35901C2.99865 5.42076 2.95278 5.49898 2.92709 5.58599C2.90141 5.673 2.89679 5.76582 2.91369 5.85538L2.92477 5.91029L2.95562 6.04811C2.9831 6.16428 3.02455 6.32798 3.08288 6.52336C3.19856 6.91147 3.38317 7.43318 3.65792 7.95436C3.93267 8.47554 4.25273 8.91171 4.50145 9.21534C4.6311 9.37332 4.76649 9.52552 4.90731 9.67157L4.94587 9.71065C5.00819 9.77111 5.08375 9.81286 5.16518 9.83183C5.24661 9.85081 5.33114 9.84635 5.41053 9.8189L7.02336 9.26286C7.20661 9.19976 7.40288 9.19806 7.58702 9.258C7.77115 9.31793 7.93474 9.43675 8.0568 9.59923L8.81984 10.6141C9.13797 11.0366 9.10037 11.6576 8.73452 12.0309C7.73482 13.0516 6.36011 13.2612 5.40379 12.4185C4.23187 11.3825 3.24371 10.1193 2.48855 8.69204C1.72784 7.26525 1.21943 5.6947 0.98996 4.0616ZM3.92351 5.92455L4.95792 4.88535C5.241 4.60086 5.44004 4.23021 5.52953 3.82095C5.61902 3.41169 5.59487 2.98247 5.46018 2.58835L5.04083 1.36328C4.86975 0.862759 4.53086 0.452555 4.09325 0.216289C3.65564 -0.0199779 3.15225 -0.0645199 2.68569 0.0917424C1.06371 0.636159 -0.2387 2.22928 0.0370135 4.21949C0.284512 5.98417 0.833475 7.68191 1.65514 9.22379C2.46965 10.763 3.53542 12.1251 4.79934 13.2422C6.23334 14.5043 8.14887 14.0739 9.39199 12.8039C9.74789 12.4409 9.96389 11.9427 9.99586 11.4111C10.0278 10.8795 9.8734 10.3546 9.56407 9.94351L8.80104 8.92861C8.55687 8.60355 8.2296 8.36584 7.86124 8.24597C7.49288 8.12611 7.10023 8.12955 6.73367 8.25588L5.39511 8.71739C5.33518 8.6499 5.27652 8.58106 5.21917 8.51092C4.94398 8.1776 4.70059 7.81435 4.49277 7.42684C4.29024 7.03588 4.12469 6.62327 3.99871 6.19544C3.97195 6.10589 3.94688 6.01575 3.92351 5.92508" fill="white"/>
</svg>
