<svg width="49" height="48" viewBox="0 0 49 48" fill="none" xmlns="http://www.w3.org/2000/svg">
<circle cx="24.5" cy="24" r="24" fill="#E0592A" fill-opacity="0.1"/>
<g clip-path="url(#clip0_4_1450)">
<path d="M30.75 18.75C30.4533 18.75 30.1633 18.662 29.9167 18.4972C29.67 18.3324 29.4777 18.0981 29.3642 17.824C29.2507 17.5499 29.221 17.2483 29.2788 16.9574C29.3367 16.6664 29.4796 16.3991 29.6894 16.1893C29.8991 15.9796 30.1664 15.8367 30.4574 15.7788C30.7484 15.7209 31.05 15.7506 31.324 15.8642C31.5981 15.9777 31.8324 16.17 31.9972 16.4166C32.162 16.6633 32.25 16.9533 32.25 17.25C32.2496 17.6477 32.0915 18.029 31.8102 18.3102C31.529 18.5914 31.1477 18.7496 30.75 18.75ZM30.75 16.5C30.6017 16.5 30.4567 16.544 30.3333 16.6264C30.21 16.7088 30.1139 16.8259 30.0571 16.963C30.0003 17.1 29.9855 17.2508 30.0144 17.3963C30.0434 17.5418 30.1148 17.6754 30.2197 17.7803C30.3246 17.8852 30.4582 17.9567 30.6037 17.9856C30.7492 18.0145 30.9 17.9997 31.037 17.9429C31.1741 17.8861 31.2912 17.79 31.3736 17.6667C31.456 17.5433 31.5 17.3983 31.5 17.25C31.4998 17.0511 31.4207 16.8605 31.2801 16.7199C31.1395 16.5793 30.9489 16.5002 30.75 16.5ZM32.6063 15.7688C32.6555 15.7688 32.7043 15.7591 32.7498 15.7403C32.7953 15.7214 32.8366 15.6937 32.8714 15.6589L33.4016 15.1286C33.4699 15.0579 33.5077 14.9632 33.5069 14.8648C33.506 14.7665 33.4666 14.6725 33.3971 14.6029C33.3275 14.5334 33.2335 14.494 33.1352 14.4931C33.0368 14.4923 32.9421 14.5301 32.8714 14.5984L32.3411 15.1286C32.2887 15.1811 32.253 15.2479 32.2385 15.3206C32.2241 15.3933 32.2315 15.4687 32.2599 15.5372C32.2883 15.6058 32.3363 15.6643 32.398 15.7055C32.4596 15.7467 32.5321 15.7687 32.6063 15.7688ZM28.6286 15.6589C28.6994 15.7272 28.7941 15.765 28.8924 15.7641C28.9907 15.7633 29.0848 15.7238 29.1543 15.6543C29.2239 15.5848 29.2633 15.4907 29.2641 15.3924C29.265 15.2941 29.2272 15.1994 29.1589 15.1286L28.6286 14.5987C28.5579 14.5304 28.4632 14.4926 28.3649 14.4935C28.2665 14.4944 28.1725 14.5338 28.103 14.6033C28.0334 14.6728 27.994 14.7669 27.9931 14.8652C27.9923 14.9635 28.0301 15.0583 28.0984 15.129L28.6286 15.6589ZM28.6286 18.8411L28.0984 19.3714C28.0626 19.406 28.034 19.4473 28.0144 19.4931C27.9947 19.5388 27.9844 19.5881 27.9839 19.6378C27.9835 19.6876 27.993 19.737 28.0118 19.7831C28.0307 19.8292 28.0585 19.8711 28.0937 19.9063C28.129 19.9415 28.1708 19.9693 28.2169 19.9882C28.263 20.007 28.3124 20.0165 28.3622 20.0161C28.412 20.0157 28.4612 20.0053 28.5069 19.9857C28.5527 19.966 28.594 19.9374 28.6286 19.9016L29.1589 19.3714C29.2272 19.3006 29.265 19.2059 29.2641 19.1076C29.2633 19.0093 29.2239 18.9152 29.1543 18.8457C29.0848 18.7762 28.9907 18.7367 28.8924 18.7359C28.7941 18.735 28.6994 18.7728 28.6286 18.8411ZM32.3411 18.8411C32.2708 18.9114 32.2313 19.0068 32.2313 19.1063C32.2313 19.2057 32.2708 19.3011 32.3411 19.3714L32.8714 19.9016C32.9421 19.9699 33.0368 20.0077 33.1352 20.0069C33.2335 20.006 33.3275 19.9666 33.3971 19.8971C33.4666 19.8275 33.506 19.7335 33.5069 19.6352C33.5077 19.5368 33.4699 19.4421 33.4016 19.3714L32.8714 18.8411C32.8011 18.7708 32.7057 18.7313 32.6063 18.7313C32.5068 18.7313 32.4115 18.7708 32.3411 18.8411ZM30.75 15C30.8495 15 30.9449 14.9605 31.0152 14.8902C31.0855 14.8198 31.125 14.7245 31.125 14.625V13.125C31.125 13.0255 31.0855 12.9302 31.0152 12.8598C30.9449 12.7895 30.8495 12.75 30.75 12.75C30.6506 12.75 30.5552 12.7895 30.4848 12.8598C30.4145 12.9302 30.375 13.0255 30.375 13.125V14.625C30.375 14.7245 30.4145 14.8198 30.4848 14.8902C30.5552 14.9605 30.6506 15 30.75 15ZM26.625 17.625H28.125C28.2245 17.625 28.3199 17.5855 28.3902 17.5152C28.4605 17.4448 28.5 17.3495 28.5 17.25C28.5 17.1505 28.4605 17.0552 28.3902 16.9848C28.3199 16.9145 28.2245 16.875 28.125 16.875H26.625C26.5256 16.875 26.4302 16.9145 26.3599 16.9848C26.2895 17.0552 26.25 17.1505 26.25 17.25C26.25 17.3495 26.2895 17.4448 26.3599 17.5152C26.4302 17.5855 26.5256 17.625 26.625 17.625ZM30.375 19.875V21.375C30.375 21.4745 30.4145 21.5698 30.4848 21.6402C30.5552 21.7105 30.6506 21.75 30.75 21.75C30.8495 21.75 30.9449 21.7105 31.0152 21.6402C31.0855 21.5698 31.125 21.4745 31.125 21.375V19.875C31.125 19.7755 31.0855 19.6802 31.0152 19.6098C30.9449 19.5395 30.8495 19.5 30.75 19.5C30.6506 19.5 30.5552 19.5395 30.4848 19.6098C30.4145 19.6802 30.375 19.7755 30.375 19.875ZM33 17.25C33 17.3495 33.0395 17.4448 33.1098 17.5152C33.1802 17.5855 33.2756 17.625 33.375 17.625H34.875C34.9745 17.625 35.0699 17.5855 35.1402 17.5152C35.2105 17.4448 35.25 17.3495 35.25 17.25C35.25 17.1505 35.2105 17.0552 35.1402 16.9848C35.0699 16.9145 34.9745 16.875 34.875 16.875H33.375C33.2756 16.875 33.1802 16.9145 33.1098 16.9848C33.0395 17.0552 33 17.1505 33 17.25ZM24 31.5C23.6985 31.5 23.4 31.5056 23.1034 31.5139L20.1634 24.4177L23.5039 23.0329L26.2511 21.894C26.3028 21.8726 26.349 21.8399 26.3864 21.7983C26.4238 21.7567 26.4514 21.7073 26.4672 21.6537C26.4831 21.6 26.4867 21.5435 26.4778 21.4883C26.469 21.4331 26.4479 21.3805 26.4161 21.3345C25.4729 19.9831 24.1124 18.9783 22.5433 18.4742C20.9742 17.9701 19.2831 17.9946 17.7293 18.5438L17.4353 17.8342C17.4164 17.7887 17.3888 17.7474 17.354 17.7126C17.3192 17.6777 17.2778 17.6501 17.2324 17.6312C17.1869 17.6124 17.1381 17.6027 17.0888 17.6027C17.0396 17.6027 16.9908 17.6124 16.9453 17.6312C16.8998 17.65 16.8585 17.6776 16.8236 17.7125C16.7888 17.7473 16.7612 17.7886 16.7423 17.8341C16.7042 17.926 16.7042 18.0292 16.7423 18.1211L17.0366 18.831C15.55 19.5422 14.3377 20.7214 13.5857 22.1878C12.8336 23.6541 12.5832 25.3267 12.873 26.949C12.8831 27.004 12.9054 27.056 12.9382 27.1013C12.971 27.1465 13.0135 27.1839 13.0626 27.2106C13.1118 27.2373 13.1662 27.2527 13.222 27.2556C13.2778 27.2586 13.3336 27.249 13.3853 27.2276L16.1325 26.0887L19.4708 24.705L22.3058 31.548C17.7506 31.7917 13.9695 33.0023 12.8171 34.6609C12.778 34.7171 12.7551 34.783 12.7507 34.8514C12.7464 34.9197 12.7609 34.988 12.7926 35.0487C12.8244 35.1094 12.8721 35.1603 12.9307 35.1958C12.9893 35.2312 13.0565 35.25 13.125 35.25H34.875C34.9435 35.25 35.0106 35.2312 35.0691 35.1957C35.1277 35.1602 35.1754 35.1094 35.2071 35.0488C35.2388 34.9881 35.2533 34.9199 35.249 34.8516C35.2448 34.7833 35.2219 34.7175 35.1829 34.6613C33.8899 32.7994 29.2913 31.5 24 31.5ZM25.5199 21.3855L23.5095 22.2188C22.4959 20.5999 21.2595 19.4325 20.0393 18.8636C21.0854 18.833 22.1244 19.0447 23.0752 19.4822C24.0259 19.9197 24.8626 20.5711 25.5199 21.3855ZM18.4286 19.218C19.8045 19.218 21.5029 20.4705 22.8101 22.5086L19.8761 23.7248L18.0248 19.257C18.1578 19.2309 18.2931 19.2179 18.4286 19.218ZM15.5524 25.5173L13.5424 26.3509C13.4307 25.3106 13.561 24.2585 13.9232 23.2769C14.2853 22.2953 14.8695 21.4106 15.63 20.6921C15.1706 21.957 15.1234 23.6565 15.5524 25.5173ZM16.2514 25.2274C15.6814 22.6249 16.1209 20.3644 17.3336 19.5476L19.1831 24.012L16.2514 25.2274ZM14.0044 34.5C15.6848 33.1665 19.6369 32.25 24 32.25C28.3631 32.25 32.3153 33.1665 33.9956 34.5H14.0044Z" fill="black"/>
</g>
<defs>
<clipPath id="clip0_4_1450">
<rect width="24" height="24" fill="white" transform="translate(12 12)"/>
</clipPath>
</defs>
</svg>
