<svg width="49" height="48" viewBox="0 0 49 48" fill="none" xmlns="http://www.w3.org/2000/svg">
<circle cx="24.5" cy="24" r="24" fill="#E0592A" fill-opacity="0.1"/>
<path d="M35.1672 14.6223C34.8422 13.6 34.4016 12.868 34.383 12.8373C34.3107 12.7182 34.162 12.6563 34.0273 12.6872C33.9924 12.6951 33.1604 12.8893 32.2008 13.3686C30.9052 14.0154 30.0002 14.8789 29.5833 15.8654C29.2363 16.6869 29.1864 17.6912 29.4327 18.8007C28.9082 18.215 28.3182 17.7026 27.6751 17.2712C27.4787 16.8833 26.9595 15.9281 26.1477 14.9299C25.8804 14.6013 25.3661 15.0137 25.6362 15.3456C26.1832 16.0184 26.5949 16.68 26.8524 17.1346L23.8499 16.5493L20.9974 12.6584C21.2743 12.6622 21.5523 12.689 21.8289 12.7432C22.7057 12.9149 23.5719 13.3615 24.4037 14.0704C24.7295 14.3482 25.1528 13.8426 24.8312 13.5686C23.9123 12.7855 22.9448 12.29 21.9555 12.0963C20.4453 11.8007 18.6839 12.1887 16.8613 13.2187C15.5028 13.9863 14.5944 14.8295 14.5564 14.865C14.4349 14.9785 14.4156 15.1848 14.5173 15.3174C14.6506 15.5908 15.1554 16.5766 15.9956 17.638C16.491 18.2638 17.0134 18.7994 17.5538 19.2396C17.3995 19.3687 17.2502 19.5038 17.1063 19.6444C16.3339 20.3999 15.7425 21.291 15.3544 22.2652C15.0112 23.126 14.8266 24.052 14.8163 25.0064C14.7993 26.5672 15.2515 28.0724 16.1243 29.3598C16.977 30.6172 18.169 31.5826 19.5714 32.1515C19.9639 32.3104 20.2121 31.7 19.8193 31.5407C19.3151 31.3359 18.8365 31.0727 18.3936 30.7564C18.4499 30.4441 18.5805 29.3202 17.834 28.1568C17.7294 27.994 18.0419 27.3549 18.2284 26.9731C18.4209 26.5797 18.6196 26.1729 18.7125 25.7899C18.8111 25.383 18.7001 25.0415 18.3918 24.8018C18.1655 24.6259 17.8693 24.5349 17.6082 24.4545C17.4386 24.4023 17.2463 24.3433 17.1777 24.286C17.0362 24.1675 16.8052 23.7296 16.6196 23.3779C16.4135 22.9877 16.2175 22.6164 16.0172 22.3877C16.4678 21.3176 17.1915 20.3708 18.0979 19.6463C18.9258 20.2104 19.8708 20.5995 20.8753 20.6784C19.7104 21.5809 19.3336 22.7335 19.8722 23.8407C20.5012 25.1335 21.7958 24.9269 22.9379 24.745C23.1355 24.7134 23.34 24.6808 23.5359 24.6564C23.6093 24.6472 23.6315 24.6673 23.6463 24.6803C23.8963 24.9028 23.8889 25.9653 23.8836 26.7412C23.8763 27.8144 23.8695 28.8282 24.2692 29.3487C24.4731 29.614 24.7603 29.7497 25.0969 29.7497C25.2986 29.7497 25.5178 29.701 25.7477 29.6024C26.7418 29.1767 27.7752 27.8955 27.6176 26.8817C27.4798 25.9954 27.3886 25.4098 27.6036 24.9378C27.8023 24.5009 28.2827 24.0965 29.2287 23.5804C29.3441 24.1009 29.3993 24.6328 29.3932 25.1659C29.3731 27.0245 28.6301 28.7641 27.3014 30.0639C25.8165 31.5165 23.7295 32.2339 21.665 32.0064C21.2444 31.9608 21.1717 32.6153 21.5929 32.6617C23.8527 32.9106 26.1374 32.125 27.7623 30.5352C29.2171 29.1121 30.0303 27.2078 30.0524 25.1729C30.0818 22.4748 28.6974 20.0844 26.5899 18.7074C27.0254 18.3969 27.3498 18.1284 27.5297 17.9726C28.2981 18.5238 28.9796 19.2029 29.5466 19.9941C30.9078 21.8937 31.4477 24.2095 31.067 26.5153C30.2808 31.275 25.7692 34.5081 21.0086 33.7216C18.7027 33.3408 16.6833 32.0851 15.3221 30.1854C13.9608 28.2859 13.4209 25.9698 13.8017 23.6642C13.8701 23.2493 13.2202 23.1404 13.1515 23.5568C12.7418 26.0363 13.3226 28.5268 14.7861 30.5695C16.2499 32.612 18.4218 33.9625 20.9012 34.3722C21.4146 34.4571 21.9341 34.4998 22.4544 34.5C24.4032 34.5 26.2988 33.895 27.9142 32.7374C29.9573 31.2736 31.3079 29.1022 31.7173 26.6227C32.0173 24.8058 31.7851 22.983 31.0639 21.3348C31.3968 21.2366 31.9632 21.046 32.5837 20.7362C33.879 20.0894 34.7841 19.2259 35.2009 18.2394C35.6181 17.2527 35.6064 16.0019 35.1672 14.6223ZM16.0365 23.6855C16.2818 24.1505 16.5137 24.5899 16.7547 24.7915C16.9254 24.9342 17.163 25.0073 17.4144 25.0846C18.0587 25.2826 18.1335 25.3798 18.0717 25.6346C17.9959 25.9478 17.813 26.3219 17.6362 26.6835C17.2958 27.3801 16.9743 28.0376 17.2791 28.5127C17.6145 29.0336 17.788 29.6422 17.7778 30.2616C15.8146 28.4913 15.0152 25.6952 15.7465 23.1537C15.8434 23.3199 15.9453 23.513 16.0365 23.6855ZM31.9838 17.208L31.0471 14.938C31.5029 14.5117 32.0318 14.1909 32.4822 13.965C32.8659 13.7725 33.2309 13.6286 33.5237 13.5265L31.9838 17.208ZM34.1314 13.7821C34.2622 14.0633 34.414 14.426 34.5436 14.8359C34.6858 15.2858 34.8162 15.8434 34.8422 16.425L32.647 17.3306L34.1314 13.7821ZM30.1904 16.1221C30.2877 15.8921 30.4133 15.679 30.5585 15.4822L31.6248 18.0661L30.6679 20.3543C30.5335 20.0691 30.3752 19.6944 30.2408 19.2688C29.9712 18.4167 29.7438 17.1788 30.1904 16.1221ZM32.3021 20.1398C31.9329 20.3252 31.5805 20.4655 31.2935 20.5667L32.2865 18.1927L34.8142 17.1497C34.7775 17.4329 34.7076 17.7136 34.5937 17.9828C34.1473 19.0395 33.1011 19.7392 32.3021 20.1398ZM20.4167 19.9522C20.3008 19.9293 20.1858 19.9018 20.072 19.8698L23.72 17.1957L26.7238 17.7811C25.6296 18.6433 22.9667 20.4518 20.4167 19.9522ZM17.0828 17.8899C16.3026 17.049 15.7308 16.1499 15.4024 15.5743L19.225 16.3196L17.0828 17.8899ZM17.7579 13.4922L19.3572 15.6737L15.5099 14.9237C15.9943 14.5413 16.7938 13.9671 17.7579 13.4922ZM20.3108 15.8596L18.3719 13.2148C18.9524 12.9763 19.5754 12.7886 20.2141 12.7051L22.8965 16.3635L20.3108 15.8596ZM20.1057 16.4912L22.8395 17.024L19.3309 19.5958C18.6692 19.2902 18.0737 18.8509 17.5527 18.3626L20.1057 16.4912ZM29.0496 22.9278C27.8613 23.5609 27.2795 24.0582 27.0034 24.6648C26.7069 25.3161 26.8156 26.0153 26.9659 26.9829C27.0548 27.5535 26.3767 28.616 25.4882 28.9965C25.1594 29.1373 24.9252 29.1207 24.7919 28.947C24.53 28.6061 24.5371 27.5745 24.5428 26.7457C24.5506 25.599 24.5575 24.6087 24.0844 24.1878C23.9142 24.0365 23.6966 23.9725 23.4547 24.0022C23.2475 24.028 23.0372 24.0615 22.8341 24.0939C21.6225 24.287 20.86 24.3643 20.4651 23.5523C19.8251 22.2371 21.1205 21.2629 21.7072 20.9051C21.8267 20.8323 21.9375 20.7465 22.0405 20.6509C23.4584 20.4815 24.7982 19.8731 25.9922 19.1111C27.4236 19.9663 28.5226 21.3199 29.0496 22.9278Z" fill="black"/>
</svg>
