<svg width="49" height="48" viewBox="0 0 49 48" fill="none" xmlns="http://www.w3.org/2000/svg">
<circle cx="24.5" cy="24" r="24" fill="#E0592A" fill-opacity="0.1"/>
<g clip-path="url(#clip0_4_1423)">
<path fill-rule="evenodd" clip-rule="evenodd" d="M33.8001 32.4C33.1587 32.3977 32.5416 32.6455 32.0801 33.0908C31.9218 33.2522 31.733 33.3803 31.5247 33.4678C31.3163 33.5553 31.0926 33.6003 30.8667 33.6003C30.6407 33.6003 30.417 33.5553 30.2086 33.4678C30.0003 33.3803 29.8115 33.2522 29.6532 33.0908C29.1903 32.6476 28.5741 32.4002 27.9333 32.4002C27.2924 32.4002 26.6762 32.6476 26.2133 33.0908C26.055 33.2521 25.8662 33.3802 25.6578 33.4677C25.4495 33.5551 25.2258 33.6002 24.9998 33.6002C24.7739 33.6002 24.5502 33.5551 24.3419 33.4677C24.1335 33.3802 23.9447 33.2521 23.7864 33.0908C23.3235 32.6476 22.7073 32.4002 22.0664 32.4002C21.4256 32.4002 20.8094 32.6476 20.3464 33.0908C20.1882 33.252 19.9994 33.3801 19.7911 33.4675C19.5828 33.5549 19.3592 33.6 19.1332 33.6C18.9073 33.6 18.6837 33.5549 18.4754 33.4675C18.2671 33.3801 18.0783 33.252 17.92 33.0908C17.4578 32.6465 16.8412 32.3989 16.2 32.4C16.094 32.4 15.9922 32.4422 15.9172 32.5172C15.8422 32.5922 15.8 32.6939 15.8 32.8C15.8 32.9061 15.8422 33.0079 15.9172 33.0829C15.9922 33.1579 16.094 33.2 16.2 33.2C16.4265 33.199 16.6509 33.2436 16.8597 33.3311C17.0686 33.4187 17.2576 33.5474 17.4156 33.7096C17.8786 34.1527 18.4948 34.4001 19.1356 34.4001C19.7765 34.4001 20.3927 34.1527 20.8556 33.7096C21.0139 33.5483 21.2027 33.4202 21.4111 33.3328C21.6194 33.2453 21.8431 33.2003 22.069 33.2003C22.295 33.2003 22.5187 33.2453 22.727 33.3328C22.9354 33.4202 23.1242 33.5483 23.2824 33.7096C23.7454 34.1528 24.3616 34.4002 25.0024 34.4002C25.6433 34.4002 26.2595 34.1528 26.7224 33.7096C26.8806 33.5483 27.0694 33.4202 27.2777 33.3327C27.486 33.2452 27.7097 33.2001 27.9356 33.2001C28.1616 33.2001 28.3853 33.2452 28.5936 33.3327C28.8019 33.4202 28.9907 33.5483 29.1489 33.7096C29.6117 34.1529 30.2279 34.4004 30.8689 34.4004C31.5098 34.4004 32.126 34.1529 32.5889 33.7096C32.746 33.5475 32.9343 33.4188 33.1425 33.3313C33.3506 33.2437 33.5743 33.1991 33.8001 33.2C33.9061 33.2 34.0079 33.1579 34.0829 33.0829C34.1579 33.0079 34.2001 32.9061 34.2001 32.8C34.2001 32.6939 34.1579 32.5922 34.0829 32.5172C34.0079 32.4422 33.9061 32.4 33.8001 32.4ZM21 28.4H20.2C20.094 28.4 19.9922 28.4422 19.9172 28.5172C19.8422 28.5922 19.8 28.6939 19.8 28.8C19.8 28.9061 19.8422 29.0079 19.9172 29.0829C19.9922 29.1579 20.094 29.2 20.2 29.2H21C21.1061 29.2 21.2079 29.1579 21.2829 29.0829C21.3579 29.0079 21.4 28.9061 21.4 28.8C21.4 28.6939 21.3579 28.5922 21.2829 28.5172C21.2079 28.4422 21.1061 28.4 21 28.4ZM29 29.2H29.8C29.9061 29.2 30.0079 29.1579 30.0829 29.0829C30.1579 29.0079 30.2001 28.9061 30.2001 28.8C30.2001 28.6939 30.1579 28.5922 30.0829 28.5172C30.0079 28.4422 29.9061 28.4 29.8 28.4H29C28.894 28.4 28.7922 28.4422 28.7172 28.5172C28.6422 28.5922 28.6 28.6939 28.6 28.8C28.6 28.9061 28.6422 29.0079 28.7172 29.0829C28.7922 29.1579 28.894 29.2 29 29.2ZM24.2 29.2C24.2 29.3061 24.2422 29.4079 24.3172 29.4829C24.3922 29.5579 24.494 29.6 24.6 29.6H25.4C25.5061 29.6 25.6079 29.5579 25.6829 29.4829C25.7579 29.4079 25.8 29.3061 25.8 29.2C25.8 29.0939 25.7579 28.9922 25.6829 28.9172C25.6079 28.8422 25.5061 28.8 25.4 28.8H24.6C24.494 28.8 24.3922 28.8422 24.3172 28.9172C24.2422 28.9922 24.2 29.0939 24.2 29.2Z" fill="black"/>
<path d="M36.2001 19.2H35.4001V18.4C35.4001 18.0818 35.2737 17.7765 35.0486 17.5515C34.8236 17.3264 34.5184 17.2 34.2001 17.2H33.4001C33.2637 17.2012 33.1281 17.2264 33.0001 17.2736V16.8C33.0001 16.4818 32.8737 16.1765 32.6486 15.9515C32.4236 15.7264 32.1184 15.6 31.8001 15.6H31.0001C30.6818 15.6 30.3766 15.7264 30.1516 15.9515C29.9265 16.1765 29.8001 16.4818 29.8001 16.8V19.2H26.3673C26.2897 18.044 26.2397 16.828 26.2173 15.5708C26.9093 15.7232 27.5386 16.0821 28.0221 16.6C28.1349 16.7276 28.2969 16.8004 28.4669 16.8C28.5474 16.7998 28.6271 16.7837 28.7014 16.7526C28.7756 16.7215 28.843 16.676 28.8996 16.6187C28.9562 16.5615 29.001 16.4936 29.0313 16.419C29.0615 16.3444 29.0768 16.2645 29.0761 16.184C29.0865 15.5489 28.9112 14.9245 28.5717 14.3876C28.9787 14.4514 29.3789 14.5532 29.7669 14.6916C29.8823 14.7338 30.0079 14.7393 30.1266 14.7074C30.2452 14.6755 30.3511 14.6076 30.4297 14.5132C30.511 14.4186 30.561 14.3012 30.5727 14.177C30.5845 14.0529 30.5574 13.9282 30.4953 13.82C30.17 13.2655 29.7009 12.8093 29.1376 12.4995C28.5743 12.1896 27.9378 12.0378 27.2953 12.06C26.5369 11.9993 25.7787 12.1796 25.1289 12.5752C25.1006 12.5968 25.066 12.6084 25.0305 12.6084C24.9949 12.6084 24.9604 12.5968 24.9321 12.5752C24.2908 12.1611 23.5352 11.9598 22.7729 12C22.1256 11.9562 21.4788 12.0911 20.9029 12.3898C20.3271 12.6885 19.8443 13.1397 19.5073 13.694C19.4447 13.8009 19.4162 13.9244 19.4256 14.0479C19.4351 14.1714 19.482 14.2891 19.5601 14.3852C19.6369 14.4798 19.7407 14.5488 19.8577 14.5829C19.9747 14.6171 20.0992 14.6148 20.2149 14.5764C20.6141 14.4484 21.0237 14.3544 21.4389 14.2964C21.0849 14.8219 20.8917 15.4392 20.8829 16.0728C20.8709 16.3272 21.0193 16.5616 21.2545 16.6592C21.4865 16.7592 21.7561 16.7016 21.9269 16.516C22.4267 15.9998 23.0756 15.653 23.7825 15.5244C23.7621 16.7502 23.713 17.9753 23.6353 19.1988H20.2001V16.8C20.2001 16.4818 20.0737 16.1765 19.8486 15.9515C19.6236 15.7264 19.3184 15.6 19.0001 15.6H18.2001C17.8818 15.6 17.5766 15.7264 17.3516 15.9515C17.1265 16.1765 17.0001 16.4818 17.0001 16.8V17.2736C16.872 17.2262 16.7367 17.2013 16.6001 17.2H15.8001C15.4818 17.2 15.1766 17.3264 14.9516 17.5515C14.7265 17.7765 14.6001 18.0818 14.6001 18.4V19.2H13.8001C13.5879 19.2 13.3844 19.2843 13.2344 19.4343C13.0844 19.5844 13.0001 19.7878 13.0001 20V21.6C13.0001 21.8122 13.0844 22.0157 13.2344 22.1657C13.3844 22.3157 13.5879 22.4 13.8001 22.4H14.6001V23.2C14.6001 23.5183 14.7265 23.8235 14.9516 24.0485C15.1766 24.2736 15.4818 24.4 15.8001 24.4H16.6001C16.7365 24.3988 16.8721 24.3736 17.0001 24.3264V24.8C17.0001 25.1183 17.1265 25.4235 17.3516 25.6485C17.5766 25.8736 17.8818 26 18.2001 26H19.0001C19.3184 26 19.6236 25.8736 19.8486 25.6485C20.0737 25.4235 20.2001 25.1183 20.2001 24.8V22.4H23.3265C23.1765 23.657 22.9484 24.9034 22.6433 26.132C18.0961 26.6436 14.5573 28.6072 13.9101 31.122C13.8917 31.128 13.8757 31.1368 13.8565 31.142C13.6062 31.218 13.3874 31.3732 13.233 31.5843C13.0785 31.7954 12.9968 32.0509 13.0001 32.3124V34.8C13.0001 35.1183 13.1265 35.4235 13.3516 35.6485C13.5766 35.8736 13.8818 36 14.2001 36H35.8001C36.1184 36 36.4236 35.8736 36.6486 35.6485C36.8737 35.4235 37.0001 35.1183 37.0001 34.8V32.3108C37.0033 32.0497 36.9217 31.7947 36.7676 31.5839C36.6134 31.3732 36.3951 31.2181 36.1453 31.142C36.1257 31.1364 36.1089 31.1276 36.0901 31.1212C35.4421 28.6068 31.9037 26.6436 27.3565 26.132C27.0517 24.9032 26.8226 23.6569 26.6705 22.4H29.8001V24.8C29.8001 25.1183 29.9265 25.4235 30.1516 25.6485C30.3766 25.8736 30.6818 26 31.0001 26H31.8001C32.1184 26 32.4236 25.8736 32.6486 25.6485C32.8737 25.4235 33.0001 25.1183 33.0001 24.8V24.3264C33.1281 24.3736 33.2637 24.3984 33.4001 24.4H34.2001C34.5184 24.4 34.8236 24.2736 35.0486 24.0485C35.2737 23.8235 35.4001 23.5183 35.4001 23.2V22.4H36.2001C36.4123 22.4 36.6158 22.3157 36.7658 22.1657C36.9158 22.0157 37.0001 21.8122 37.0001 21.6V20C37.0001 19.7878 36.9158 19.5844 36.7658 19.4343C36.6158 19.2843 36.4123 19.2 36.2001 19.2ZM27.8001 20V21.6H22.2001V20H27.8001ZM21.7429 15.6C21.7902 15.3059 21.9031 15.0261 22.0734 14.7817C22.2437 14.5372 22.4669 14.3343 22.7265 14.188C22.7985 14.1484 22.8566 14.0875 22.8928 14.0137C22.9291 13.9399 22.9416 13.8567 22.9289 13.7754C22.9161 13.6942 22.8786 13.6189 22.8215 13.5597C22.7644 13.5006 22.6904 13.4604 22.6097 13.4448C22.5652 13.4362 22.5198 13.4325 22.4745 13.4336C21.8182 13.4263 21.1635 13.5018 20.5261 13.6584C20.8122 13.3585 21.1613 13.1259 21.5483 12.9774C21.9353 12.829 22.3504 12.7684 22.7637 12.8C23.3525 12.7566 23.9401 12.899 24.4437 13.2072C24.7793 13.4712 25.2497 13.4792 25.5941 13.2268C26.1056 12.9296 26.6978 12.8012 27.2865 12.8596C27.6938 12.8447 28.0995 12.9174 28.4762 13.0727C28.853 13.2281 29.1921 13.4624 29.4705 13.76C28.848 13.5945 28.207 13.5082 27.5629 13.5032C27.4701 13.4842 27.3735 13.4988 27.2905 13.5443C27.2074 13.5898 27.1431 13.6633 27.1092 13.7517C27.0752 13.8402 27.0738 13.9378 27.1051 14.0272C27.1364 14.1166 27.1984 14.192 27.2801 14.24C27.5382 14.3942 27.7579 14.6049 27.9228 14.8562C28.0877 15.1076 28.1935 15.3931 28.2321 15.6912C27.3146 14.9662 26.1719 14.5858 25.0029 14.616H24.9109C23.7731 14.5697 22.6542 14.9172 21.7429 15.6ZM24.5853 15.4288C24.7181 15.422 24.8477 15.4124 24.9917 15.4152C25.1417 15.4176 25.2773 15.4312 25.4149 15.4432C25.4357 16.744 25.4865 18.0032 25.5653 19.1992H24.4373C24.5149 17.9796 24.5649 16.716 24.5853 15.4296V15.4288ZM13.8001 21.6V20H14.6001V21.6H13.8001ZM16.6001 23.6H15.8001C15.694 23.6 15.5923 23.5579 15.5173 23.4829C15.4422 23.4078 15.4001 23.3061 15.4001 23.2V18.4C15.4001 18.2939 15.4422 18.1922 15.5173 18.1172C15.5923 18.0422 15.694 18 15.8001 18H16.6001C16.7062 18 16.8079 18.0422 16.8829 18.1172C16.958 18.1922 17.0001 18.2939 17.0001 18.4V23.2C17.0001 23.3061 16.958 23.4078 16.8829 23.4829C16.8079 23.5579 16.7062 23.6 16.6001 23.6ZM19.4001 24.8C19.4001 24.9061 19.358 25.0078 19.2829 25.0829C19.2079 25.1579 19.1062 25.2 19.0001 25.2H18.2001C18.094 25.2 17.9923 25.1579 17.9173 25.0829C17.8422 25.0078 17.8001 24.9061 17.8001 24.8V16.8C17.8001 16.6939 17.8422 16.5922 17.9173 16.5172C17.9923 16.4422 18.094 16.4 18.2001 16.4H19.0001C19.1062 16.4 19.2079 16.4422 19.2829 16.5172C19.358 16.5922 19.4001 16.6939 19.4001 16.8V24.8ZM20.2001 20H21.4001V21.6H20.2001V20ZM36.2001 32.3108V34.8C36.2001 34.9061 36.158 35.0078 36.0829 35.0829C36.0079 35.1579 35.9062 35.2 35.8001 35.2H14.2001C14.094 35.2 13.9923 35.1579 13.9173 35.0829C13.8422 35.0078 13.8001 34.9061 13.8001 34.8V32.3124C13.7975 32.2253 13.8226 32.1396 13.8719 32.0677C13.9211 31.9958 13.9919 31.9415 14.0741 31.9124C14.4591 31.7901 14.8121 31.5838 15.1077 31.3084C15.2625 31.1478 15.4481 31.02 15.6534 30.9327C15.8586 30.8455 16.0794 30.8005 16.3025 30.8005C16.5256 30.8005 16.7463 30.8455 16.9516 30.9327C17.1569 31.02 17.3425 31.1478 17.4973 31.3084C17.9539 31.752 18.5655 32.0001 19.2021 32.0001C19.8387 32.0001 20.4502 31.752 20.9069 31.3084C21.0617 31.1478 21.2473 31.02 21.4527 30.9327C21.658 30.8454 21.8788 30.8004 22.1019 30.8004C22.325 30.8004 22.5458 30.8454 22.7511 30.9327C22.9565 31.02 23.1421 31.1478 23.2969 31.3084C23.7535 31.7522 24.3652 32.0004 25.0019 32.0004C25.6386 32.0004 26.2503 31.7522 26.7069 31.3084C26.8617 31.1478 27.0473 31.02 27.2527 30.9327C27.458 30.8454 27.6788 30.8004 27.9019 30.8004C28.125 30.8004 28.3458 30.8454 28.5511 30.9327C28.7565 31.02 28.9421 31.1478 29.0969 31.3084C29.5535 31.7523 30.1653 32.0006 30.8021 32.0006C31.4389 32.0006 32.0507 31.7523 32.5073 31.3084C32.6621 31.1477 32.8477 31.0199 33.053 30.9326C33.2583 30.8453 33.4792 30.8003 33.7023 30.8003C33.9254 30.8003 34.1462 30.8453 34.3516 30.9326C34.5569 31.0199 34.7425 31.1477 34.8973 31.3084C35.1916 31.5832 35.5433 31.7892 35.9269 31.9116C36.0949 31.9712 36.2057 32.1324 36.2001 32.3108ZM34.8153 30.2708C34.4732 30.0856 34.089 29.9923 33.7001 30C33.0636 29.9987 32.4521 30.2472 31.9969 30.692C31.8421 30.8527 31.6565 30.9805 31.4512 31.0679C31.2458 31.1552 31.025 31.2002 30.8019 31.2002C30.5788 31.2002 30.3579 31.1552 30.1526 31.0679C29.9473 30.9805 29.7617 30.8527 29.6069 30.692C29.1503 30.2483 28.5386 30 27.9019 30C27.2652 30 26.6535 30.2483 26.1969 30.692C26.0421 30.8527 25.8565 30.9804 25.6511 31.0677C25.4458 31.155 25.225 31.2 25.0019 31.2C24.7788 31.2 24.558 31.155 24.3527 31.0677C24.1473 30.9804 23.9617 30.8527 23.8069 30.692C23.3503 30.2483 22.7386 30 22.1019 30C21.4652 30 20.8535 30.2483 20.3969 30.692C20.2421 30.8527 20.0565 30.9804 19.8511 31.0677C19.6458 31.155 19.425 31.2 19.2019 31.2C18.9788 31.2 18.758 31.155 18.5527 31.0677C18.3473 30.9804 18.1617 30.8527 18.0069 30.692C17.5502 30.2472 16.9376 29.9989 16.3001 30C15.9103 29.9927 15.5253 30.0873 15.1833 30.2744C16.6189 28.2524 20.5393 26.8 25.0001 26.8C29.4609 26.8 33.3785 28.2512 34.8153 30.2724V30.2708ZM26.5129 26.054C26.0177 26.018 25.5133 26 25.0001 26C24.4869 26 23.9825 26.018 23.4873 26.054C23.7717 24.8493 23.9872 23.6293 24.1329 22.4H25.8641C26.0121 23.6292 26.2281 24.8492 26.5129 26.054ZM28.6001 21.6V20H29.8001V21.6H28.6001ZM32.2001 24.8C32.2001 24.9061 32.158 25.0078 32.0829 25.0829C32.0079 25.1579 31.9062 25.2 31.8001 25.2H31.0001C30.894 25.2 30.7923 25.1579 30.7173 25.0829C30.6422 25.0078 30.6001 24.9061 30.6001 24.8V16.8C30.6001 16.6939 30.6422 16.5922 30.7173 16.5172C30.7923 16.4422 30.894 16.4 31.0001 16.4H31.8001C31.9062 16.4 32.0079 16.4422 32.0829 16.5172C32.158 16.5922 32.2001 16.6939 32.2001 16.8V24.8ZM34.6001 23.2C34.6001 23.3061 34.558 23.4078 34.4829 23.4829C34.4079 23.5579 34.3062 23.6 34.2001 23.6H33.4001C33.294 23.6 33.1923 23.5579 33.1173 23.4829C33.0422 23.4078 33.0001 23.3061 33.0001 23.2V18.4C33.0001 18.2939 33.0422 18.1922 33.1173 18.1172C33.1923 18.0422 33.294 18 33.4001 18H34.2001C34.3062 18 34.4079 18.0422 34.4829 18.1172C34.558 18.1922 34.6001 18.2939 34.6001 18.4V23.2ZM35.4001 21.6V20H36.2001V21.6H35.4001Z" fill="black"/>
</g>
<defs>
<clipPath id="clip0_4_1423">
<rect width="24" height="24" fill="white" transform="translate(13 12)"/>
</clipPath>
</defs>
</svg>
