<svg width="49" height="48" viewBox="0 0 49 48" fill="none" xmlns="http://www.w3.org/2000/svg">
<circle cx="24.5" cy="24" r="24" fill="#E0592A" fill-opacity="0.1"/>
<g clip-path="url(#clip0_4_1462)">
<path d="M35.7433 13.6071C35.4579 13.5782 35.1706 13.6371 34.9197 13.7759C34.8592 13.5797 34.7558 13.3993 34.6169 13.248C34.4781 13.0966 34.3074 12.978 34.1171 12.9008C33.9267 12.8237 33.7216 12.7898 33.5166 12.8016C33.3116 12.8135 33.1118 12.8709 32.9317 12.9695C32.8331 12.6644 32.6328 12.4023 32.3642 12.2271C32.0956 12.0519 31.775 11.9743 31.4561 12.0071C31.245 12.0311 31.0423 12.1032 30.8635 12.2179C30.6847 12.3326 30.5346 12.4869 30.4249 12.6687C30.2606 12.5472 30.0714 12.4638 29.8709 12.4246C29.6703 12.3855 29.4636 12.3916 29.2658 12.4425C29.0679 12.4934 28.8839 12.5878 28.7271 12.7188C28.5704 12.8499 28.4448 13.0142 28.3597 13.1999H24.4205C24.3475 13.1994 24.276 13.1791 24.2137 13.1411L22.5965 12.1735C22.4105 12.0612 22.1977 12.0012 21.9805 11.9999H16.0569C15.7032 11.9952 15.3602 12.1205 15.0929 12.352C14.8256 12.5836 14.6526 12.9052 14.6069 13.2559C14.578 13.5414 14.6368 13.8288 14.7757 14.0799C14.5793 14.1403 14.3989 14.2437 14.2476 14.3825C14.0962 14.5213 13.9776 14.6921 13.9004 14.8825C13.8232 15.0728 13.7894 15.2779 13.8014 15.483C13.8134 15.688 13.8708 15.8878 13.9697 16.0679C13.6641 16.1661 13.4016 16.3664 13.2263 16.6353C13.0509 16.9041 12.9735 17.2251 13.0069 17.5443C13.0308 17.7554 13.1028 17.9582 13.2176 18.137C13.3323 18.3158 13.4865 18.4658 13.6685 18.5755C13.4657 18.8555 13.3725 19.2003 13.4069 19.5443C13.435 19.7796 13.5225 20.0038 13.6612 20.1959C13.7999 20.388 13.9852 20.5416 14.1997 20.6423V24.5799C14.199 24.6526 14.1785 24.7236 14.1405 24.7855L13.1645 26.4111C13.0582 26.5964 13.0015 26.8059 12.9997 27.0195V32.9431C12.9952 33.2967 13.1207 33.6396 13.3523 33.9068C13.5838 34.174 13.9054 34.3469 14.2561 34.3927C14.5413 34.4209 14.8285 34.362 15.0797 34.2239C15.1401 34.4202 15.2435 34.6006 15.3824 34.752C15.5212 34.9034 15.692 35.022 15.8824 35.0992C16.0728 35.1763 16.278 35.2102 16.483 35.1982C16.6881 35.1862 16.888 35.1287 17.0681 35.0299C17.1584 35.312 17.3361 35.558 17.5755 35.7324C17.8148 35.9067 18.1035 36.0004 18.3997 35.9999C18.6367 36 18.8696 35.9384 19.0757 35.8212C19.2817 35.704 19.4537 35.5353 19.5749 35.3315C19.7392 35.4531 19.9286 35.5364 20.1293 35.5756C20.3299 35.6147 20.5368 35.6085 20.7348 35.5576C20.9328 35.5067 21.1169 35.4123 21.2738 35.2812C21.4307 35.1501 21.5563 34.9857 21.6417 34.7999H25.5789C25.6517 34.8003 25.7233 34.8207 25.7857 34.8587L27.4029 35.8271C27.5889 35.9391 27.8017 35.9987 28.0189 35.9995H33.9425C34.2961 36.0043 34.6391 35.879 34.9064 35.6474C35.1737 35.4159 35.3467 35.0942 35.3925 34.7435C35.4213 34.4582 35.3624 34.1709 35.2237 33.9199C35.42 33.8595 35.6004 33.7561 35.7518 33.6173C35.9031 33.4785 36.0217 33.3077 36.0989 33.1174C36.1761 32.927 36.2099 32.7219 36.1979 32.5168C36.1859 32.3118 36.1285 32.112 36.0297 31.9319C36.3351 31.8338 36.5975 31.6336 36.7728 31.3649C36.9481 31.0962 37.0256 30.7754 36.9925 30.4563C36.9685 30.2452 36.8965 30.0425 36.7817 29.8637C36.667 29.6849 36.5128 29.5348 36.3309 29.4251C36.5337 29.1451 36.6269 28.8003 36.5925 28.4563C36.5641 28.2213 36.4765 27.9974 36.3378 27.8056C36.1991 27.6138 36.0139 27.4604 35.7997 27.3599V23.4199C35.8005 23.3471 35.8209 23.2759 35.8585 23.2135L36.8273 21.5967C36.9393 21.4107 36.9989 21.1975 36.9997 20.9803V15.0567C37.0041 14.7032 36.8786 14.3602 36.647 14.0931C36.4155 13.8259 36.0939 13.6529 35.7433 13.6071ZM13.8029 17.4651C13.7937 17.3813 13.8023 17.2965 13.8281 17.2162C13.8539 17.1359 13.8964 17.062 13.9527 16.9992C14.009 16.9365 14.0779 16.8863 14.1549 16.8519C14.2319 16.8176 14.3153 16.7999 14.3997 16.7999H16.9997C17.1057 16.7999 17.2075 16.7578 17.2825 16.6828C17.3575 16.6077 17.3997 16.506 17.3997 16.3999C17.3997 16.2938 17.3575 16.1921 17.2825 16.1171C17.2075 16.0421 17.1057 15.9999 16.9997 15.9999H15.1997C15.1153 16.0001 15.0319 15.9825 14.9549 15.9483C14.8778 15.9142 14.8088 15.8641 14.7524 15.8014C14.696 15.7388 14.6534 15.665 14.6274 15.5847C14.6014 15.5045 14.5927 15.4197 14.6017 15.3359C14.6264 15.1819 14.7067 15.0423 14.8275 14.9435C14.9482 14.8447 15.101 14.7936 15.2569 14.7999H17.7997C17.9057 14.7999 18.0075 14.7578 18.0825 14.6828C18.1575 14.6077 18.1997 14.506 18.1997 14.3999C18.1997 14.2938 18.1575 14.1921 18.0825 14.1171C18.0075 14.0421 17.9057 13.9999 17.7997 13.9999H15.9997C15.9153 14.0001 15.8319 13.9825 15.7549 13.9483C15.6778 13.9142 15.6088 13.8641 15.5524 13.8014C15.496 13.7388 15.4534 13.665 15.4274 13.5847C15.4014 13.5045 15.3927 13.4197 15.4017 13.3359C15.4263 13.1819 15.5066 13.0422 15.6274 12.9434C15.7481 12.8446 15.901 12.7935 16.0569 12.7999H21.9805C22.0534 12.8005 22.1247 12.8209 22.1869 12.8591L23.8045 13.8279C23.9905 13.9395 24.2033 13.9991 24.4205 13.9999H28.1997V17.5555L27.5069 16.9883C27.2552 16.7962 26.9433 16.7003 26.6272 16.7176C26.3111 16.735 26.0115 16.8646 25.7825 17.0831C25.6103 17.25 25.4894 17.4626 25.434 17.6959C25.3785 17.9291 25.3907 18.1734 25.4693 18.3999H24.1281C23.8132 18.4012 23.5116 18.5262 23.2881 18.7479L19.5237 22.4815L19.5157 22.4895L19.3493 22.6543C19.2555 22.746 19.1294 22.7969 18.9983 22.796C18.8672 22.7951 18.7417 22.7424 18.6493 22.6495C18.5643 22.5643 18.5134 22.451 18.5061 22.3309C18.4987 22.2108 18.5354 22.0921 18.6093 21.9971L19.7093 20.6531C19.7572 20.5945 19.7875 20.5235 19.7966 20.4484C19.8058 20.3732 19.7935 20.297 19.761 20.2286C19.7286 20.1602 19.6774 20.1024 19.6135 20.0619C19.5495 20.0214 19.4754 19.9999 19.3997 19.9999H14.8569C14.7012 20.006 14.5487 19.9549 14.4282 19.8562C14.3078 19.7575 14.2276 19.6181 14.2029 19.4643C14.1938 19.3806 14.2025 19.2958 14.2284 19.2157C14.2543 19.1355 14.2967 19.0616 14.353 18.999C14.4093 18.9363 14.4782 18.8862 14.5551 18.8519C14.6321 18.8176 14.7154 18.7999 14.7997 18.7999H16.9997C17.1057 18.7999 17.2075 18.7578 17.2825 18.6828C17.3575 18.6077 17.3997 18.506 17.3997 18.3999C17.3997 18.2938 17.3575 18.1921 17.2825 18.1171C17.2075 18.0421 17.1057 17.9999 16.9997 17.9999H14.4569C14.3014 18.0059 14.149 17.9549 14.0286 17.8564C13.9081 17.7579 13.8278 17.6187 13.8029 17.4651ZM29.7997 25.0627L26.1477 28.6843C26.0742 28.7577 25.9747 28.7991 25.8709 28.7995H23.9365L20.3153 25.1491C20.2416 25.0756 20.2001 24.976 20.1997 24.8719V22.9359L23.8505 19.3155C23.924 19.2418 24.0239 19.2002 24.1281 19.1999H26.0641L29.6853 22.8503C29.7583 22.9243 29.7994 23.024 29.7997 23.1279V25.0627ZM20.4605 34.7967C20.3772 34.8057 20.293 34.7969 20.2133 34.771C20.1337 34.7451 20.0605 34.7026 19.9985 34.6463C19.9361 34.5898 19.8863 34.5209 19.852 34.4441C19.8178 34.3672 19.8 34.2841 19.7997 34.1999V31.9999C19.7997 31.8938 19.7575 31.7921 19.6825 31.7171C19.6075 31.6421 19.5057 31.5999 19.3997 31.5999C19.2936 31.5999 19.1918 31.6421 19.1168 31.7171C19.0418 31.7921 18.9997 31.8938 18.9997 31.9999V34.5435C19.005 34.6997 18.9529 34.8524 18.8534 34.9729C18.7538 35.0934 18.6136 35.1733 18.4593 35.1975C18.2913 35.2159 18.1233 35.1611 17.9985 35.0471C17.936 34.9905 17.886 34.9215 17.8518 34.8445C17.8176 34.7675 17.7998 34.6842 17.7997 34.5999V31.9999C17.7997 31.8938 17.7575 31.7921 17.6825 31.7171C17.6075 31.6421 17.5057 31.5999 17.3997 31.5999C17.2936 31.5999 17.1918 31.6421 17.1168 31.7171C17.0418 31.7921 16.9997 31.8938 16.9997 31.9999V33.8047C16.9991 33.8886 16.981 33.9714 16.9465 34.0479C16.912 34.1243 16.8618 34.1927 16.7993 34.2485C16.7367 34.3044 16.6631 34.3465 16.5832 34.3722C16.5034 34.3978 16.419 34.4065 16.3357 34.3975C16.1817 34.3729 16.042 34.2926 15.9433 34.1719C15.8445 34.0513 15.7934 33.8985 15.7997 33.7427V31.1999C15.7997 31.0938 15.7575 30.9921 15.6825 30.9171C15.6075 30.8421 15.5057 30.7999 15.3997 30.7999C15.2936 30.7999 15.1918 30.8421 15.1168 30.9171C15.0418 30.9921 14.9997 31.0938 14.9997 31.1999V33.0035C14.9993 33.0875 14.9813 33.1704 14.9469 33.2469C14.9125 33.3235 14.8624 33.392 14.7998 33.448C14.7373 33.5039 14.6637 33.5462 14.5838 33.5719C14.5039 33.5977 14.4195 33.6064 14.3361 33.5975C14.1821 33.5729 14.0425 33.4927 13.9437 33.3721C13.8448 33.2515 13.7936 33.0989 13.7997 32.9431V27.0195C13.8005 26.9475 13.8193 26.8767 13.8545 26.8139L14.8277 25.1955C14.939 25.0094 14.9984 24.7968 14.9997 24.5799V20.7999H18.5549L17.9873 21.4931C17.8092 21.7097 17.7066 21.9785 17.6951 22.2587C17.6836 22.5389 17.7638 22.8152 17.9235 23.0457C18.0832 23.2762 18.3138 23.4483 18.5802 23.5359C18.8466 23.6235 19.1343 23.6218 19.3997 23.5311V24.8719C19.401 25.1867 19.526 25.4884 19.7477 25.7119L23.4781 29.4719C23.4824 29.4766 23.4869 29.4812 23.4917 29.4855L23.6545 29.6495C23.723 29.7193 23.7694 29.8078 23.7878 29.9038C23.8062 29.9999 23.7958 30.0993 23.7578 30.1894C23.7199 30.2796 23.6562 30.3565 23.5747 30.4105C23.4931 30.4646 23.3975 30.4933 23.2997 30.4931C23.1908 30.4936 23.085 30.4571 22.9997 30.3895L21.6561 29.2899C21.5975 29.241 21.5261 29.2099 21.4504 29.2002C21.3747 29.1905 21.2978 29.2026 21.2288 29.2352C21.1598 29.2678 21.1016 29.3195 21.061 29.3841C21.0204 29.4487 20.9991 29.5236 20.9997 29.5999V34.1427C21.005 34.2987 20.9531 34.4513 20.8538 34.5718C20.7545 34.6922 20.6146 34.7722 20.4605 34.7967ZM36.1965 30.5347C36.2056 30.6185 36.197 30.7034 36.1712 30.7836C36.1454 30.8639 36.1029 30.9378 36.0466 31.0006C35.9903 31.0634 35.9214 31.1136 35.8444 31.1479C35.7674 31.1822 35.684 31.2 35.5997 31.1999H32.9997C32.8936 31.1999 32.7918 31.2421 32.7168 31.3171C32.6418 31.3921 32.5997 31.4938 32.5997 31.5999C32.5997 31.706 32.6418 31.8077 32.7168 31.8828C32.7918 31.9578 32.8936 31.9999 32.9997 31.9999H34.7997C34.884 31.9997 34.9674 32.0173 35.0444 32.0515C35.1215 32.0857 35.1905 32.1357 35.2469 32.1984C35.3033 32.261 35.3459 32.3349 35.3719 32.4151C35.3979 32.4953 35.4066 32.5801 35.3977 32.6639C35.3729 32.8179 35.2926 32.9576 35.1718 33.0563C35.0511 33.1551 34.8983 33.2062 34.7425 33.1999H32.1997C32.0936 33.1999 31.9918 33.2421 31.9168 33.3171C31.8418 33.3921 31.7997 33.4938 31.7997 33.5999C31.7997 33.706 31.8418 33.8077 31.9168 33.8828C31.9918 33.9578 32.0936 33.9999 32.1997 33.9999H33.9997C34.084 33.9997 34.1674 34.0173 34.2444 34.0515C34.3215 34.0857 34.3905 34.1357 34.4469 34.1984C34.5033 34.261 34.5459 34.3349 34.5719 34.4151C34.5979 34.4953 34.6066 34.5801 34.5977 34.6639C34.573 34.818 34.4927 34.9576 34.3719 35.0564C34.2512 35.1552 34.0983 35.2063 33.9425 35.1999H28.0189C27.9459 35.1994 27.8746 35.1789 27.8125 35.1407L26.1949 34.1719C26.0087 34.0603 25.7959 34.0009 25.5789 33.9999H21.7997V30.4435L22.4925 31.0107C22.7438 31.2035 23.0559 31.2999 23.3722 31.2825C23.6885 31.2651 23.9881 31.1351 24.2169 30.9159C24.389 30.7492 24.5101 30.5368 24.5658 30.3037C24.6214 30.0706 24.6095 29.8265 24.5313 29.5999H25.8713C26.1861 29.5986 26.4877 29.4736 26.7113 29.2519L30.4745 25.5199L30.4885 25.5063L30.6513 25.3463C30.745 25.2547 30.8711 25.2038 31.0022 25.2047C31.1333 25.2056 31.2588 25.2582 31.3513 25.3511C31.5273 25.5275 31.5441 25.8071 31.3913 26.0035L30.2913 27.3475C30.2436 27.4061 30.2136 27.4769 30.2045 27.5518C30.1954 27.6267 30.2077 27.7026 30.2399 27.7709C30.2722 27.8391 30.3231 27.8968 30.3867 27.9373C30.4504 27.9779 30.5242 27.9996 30.5997 27.9999H35.1425C35.2981 27.9938 35.4506 28.045 35.5711 28.1437C35.6916 28.2423 35.7717 28.3817 35.7965 28.5355C35.8055 28.6193 35.7968 28.704 35.7709 28.7842C35.7451 28.8644 35.7026 28.9382 35.6463 29.0009C35.59 29.0635 35.5211 29.1137 35.4442 29.148C35.3672 29.1822 35.2839 29.2 35.1997 29.1999H32.9997C32.8936 29.1999 32.7918 29.2421 32.7168 29.3171C32.6418 29.3921 32.5997 29.4938 32.5997 29.5999C32.5997 29.706 32.6418 29.8077 32.7168 29.8828C32.7918 29.9578 32.8936 29.9999 32.9997 29.9999H35.5437C35.6989 29.9942 35.851 30.0454 35.9712 30.1439C36.0914 30.2423 36.1715 30.3813 36.1965 30.5347ZM36.1997 20.9803C36.1989 21.0531 36.1789 21.1243 36.1409 21.1867L35.1717 22.8043C35.0601 22.9904 35.0007 23.203 34.9997 23.4199V27.1999H31.4433L32.0109 26.5067C32.2098 26.258 32.3101 25.9447 32.2925 25.6266C32.2748 25.3086 32.1405 25.0083 31.9153 24.7831C31.7437 24.6185 31.5309 24.5035 31.2993 24.4501C31.0676 24.3967 30.8259 24.407 30.5997 24.4799V23.1279C30.5983 22.8131 30.4733 22.5114 30.2517 22.2879L26.5197 18.5223L26.5121 18.5147L26.3469 18.3483C26.3005 18.3025 26.2637 18.2478 26.2388 18.1876C26.2139 18.1273 26.2012 18.0627 26.2017 17.9975C26.2021 17.9323 26.2156 17.8678 26.2414 17.8079C26.2671 17.748 26.3046 17.6939 26.3517 17.6487C26.4383 17.5661 26.5513 17.5168 26.6707 17.5094C26.7902 17.5021 26.9084 17.5373 27.0045 17.6087L28.3481 18.7083C28.4066 18.7557 28.4773 18.7856 28.5521 18.7945C28.6269 18.8035 28.7027 18.7911 28.7708 18.7589C28.8389 18.7267 28.8965 18.6759 28.9369 18.6124C28.9774 18.5489 28.9992 18.4752 28.9997 18.3999V13.8571C28.9937 13.7014 29.0449 13.549 29.1436 13.4285C29.2424 13.308 29.3818 13.2278 29.5357 13.2031C29.6194 13.1941 29.7041 13.2029 29.7842 13.2288C29.8643 13.2547 29.9381 13.2972 30.0007 13.3534C30.0634 13.4097 30.1134 13.4786 30.1477 13.5555C30.182 13.6324 30.1997 13.7157 30.1997 13.7999V15.9999C30.1997 16.106 30.2418 16.2077 30.3168 16.2828C30.3918 16.3578 30.4936 16.3999 30.5997 16.3999C30.7057 16.3999 30.8075 16.3578 30.8825 16.2828C30.9575 16.2077 30.9997 16.106 30.9997 15.9999V13.4571C30.9936 13.3014 31.0448 13.1489 31.1435 13.0284C31.2423 12.9079 31.3818 12.8277 31.5357 12.8031C31.6194 12.7941 31.7041 12.8029 31.7842 12.8288C31.8643 12.8547 31.9381 12.8972 32.0007 12.9534C32.0634 13.0097 32.1134 13.0786 32.1477 13.1555C32.182 13.2324 32.1997 13.3157 32.1997 13.3999V15.9999C32.1997 16.106 32.2418 16.2077 32.3168 16.2828C32.3918 16.3578 32.4936 16.3999 32.5997 16.3999C32.7057 16.3999 32.8075 16.3578 32.8825 16.2828C32.9575 16.2077 32.9997 16.106 32.9997 15.9999V14.1999C32.9995 14.1156 33.0171 14.0323 33.0513 13.9553C33.0856 13.8782 33.1356 13.8093 33.1983 13.7529C33.2609 13.6965 33.3347 13.654 33.4149 13.628C33.4951 13.6021 33.5799 13.5933 33.6637 13.6023C33.9825 13.6535 34.2125 13.9343 34.1997 14.2571V16.7999C34.1997 16.906 34.2418 17.0077 34.3168 17.0828C34.3918 17.1578 34.4936 17.1999 34.5997 17.1999C34.7057 17.1999 34.8075 17.1578 34.8825 17.0828C34.9575 17.0077 34.9997 16.906 34.9997 16.7999V14.9999C34.9995 14.9156 35.0171 14.8323 35.0513 14.7553C35.0856 14.6782 35.1356 14.6093 35.1983 14.5529C35.2609 14.4965 35.3347 14.454 35.4149 14.428C35.4951 14.4021 35.5799 14.3933 35.6637 14.4023C35.9821 14.4535 36.2121 14.7343 36.1997 15.0567V20.9803Z" fill="black"/>
</g>
<defs>
<clipPath id="clip0_4_1462">
<rect width="24" height="24" fill="white" transform="translate(13 12)"/>
</clipPath>
</defs>
</svg>
