<svg width="49" height="48" viewBox="0 0 49 48" fill="none" xmlns="http://www.w3.org/2000/svg">
<circle cx="24.5" cy="24" r="24" fill="#E0592A" fill-opacity="0.1"/>
<g clip-path="url(#clip0_4_1442)">
<path d="M32.0588 18C34.4899 18 36.2941 19.2885 36.2941 21.1764C36.2941 22.0962 35.8529 23.5478 35.1848 24.7058C34.3081 26.2253 33.1261 27.1764 31.7059 27.1764C30.6068 27.1764 29.9105 26.7052 29.8134 25.8218C29.7555 25.2956 29.8819 24.8435 30.2496 23.8934L30.2726 23.8344C30.5546 23.107 30.6471 22.8084 30.6471 22.5882C30.6471 22.3545 30.5994 22.1032 30.4353 21.4034L30.3848 21.186C30.1847 20.3114 30.124 19.7865 30.2444 19.2712C30.4342 18.4574 31.0826 18 32.0588 18ZM31.7059 25.7647C33.2687 25.7647 34.8824 22.9676 34.8824 21.1764C34.8824 20.1903 33.7925 19.4117 32.0588 19.4117C31.7084 19.4117 31.6519 19.4516 31.6191 19.5917C31.5651 19.8247 31.6088 20.2069 31.7609 20.8708L31.8096 21.0808C32.0038 21.9084 32.0588 22.1985 32.0588 22.5882C32.0588 23.0601 31.9469 23.4211 31.5887 24.3448L31.5661 24.4027C31.2908 25.1145 31.1938 25.4611 31.2167 25.6676C31.2192 25.6912 31.216 25.6905 31.2139 25.6884C31.2771 25.7287 31.4362 25.7647 31.7059 25.7647ZM22.2591 35.995C22.0748 36.0137 21.8905 35.9592 21.746 35.8433C21.6016 35.7274 21.5085 35.5593 21.4868 35.3753C21.4651 35.1914 21.5166 35.0063 21.6302 34.8599C21.7438 34.7136 21.9103 34.6178 22.0939 34.5931C22.4429 34.5518 22.7751 34.5014 23.0899 34.4407C23.1812 34.4224 23.2752 34.4225 23.3665 34.4407C23.4578 34.459 23.5446 34.4952 23.6219 34.5471C23.6992 34.5991 23.7654 34.6658 23.8167 34.7435C23.8681 34.8212 23.9036 34.9082 23.9212 34.9997C23.9388 35.0911 23.9381 35.1851 23.9192 35.2763C23.9002 35.3675 23.8635 35.454 23.811 35.5309C23.7585 35.6078 23.6913 35.6736 23.6132 35.7244C23.5352 35.7752 23.4479 35.8101 23.3564 35.827C23.0069 35.8941 22.6413 35.9502 22.2591 35.995ZM26.9073 34.3778C26.8336 34.4342 26.7496 34.4754 26.66 34.4993C26.5704 34.5231 26.477 34.5291 26.3851 34.5168C26.1995 34.492 26.0314 34.3946 25.9176 34.2458C25.8039 34.0971 25.7539 33.9093 25.7787 33.7237C25.8034 33.5381 25.9009 33.3699 26.0496 33.2562C26.2967 33.0674 26.5106 32.8609 26.692 32.6371C26.8099 32.4917 26.9807 32.399 27.167 32.3795C27.3532 32.36 27.5395 32.4153 27.685 32.5332C27.8305 32.6511 27.9231 32.8219 27.9426 33.0082C27.9621 33.1944 27.9068 33.3807 27.7889 33.5262C27.5298 33.844 27.2339 34.1299 26.9073 34.3778ZM28.8273 29.6551C28.8409 29.7468 28.8364 29.8403 28.8138 29.9303C28.7913 30.0202 28.7513 30.1048 28.6961 30.1793C28.6409 30.2538 28.5716 30.3166 28.4921 30.3643C28.4126 30.412 28.3245 30.4436 28.2328 30.4572C28.1411 30.4708 28.0476 30.4662 27.9576 30.4437C27.8677 30.4212 27.7831 30.3812 27.7086 30.326C27.6341 30.2708 27.5713 30.2015 27.5236 30.122C27.4759 30.0425 27.4443 29.9544 27.4307 29.8627C27.3834 29.5564 27.3075 29.2552 27.2041 28.963C27.1428 28.7861 27.1542 28.5921 27.2359 28.4236C27.3176 28.2551 27.4629 28.126 27.6398 28.0646C27.8167 28.0032 28.0108 28.0147 28.1793 28.0964C28.3478 28.1781 28.4769 28.3234 28.5382 28.5003C28.6738 28.8917 28.7708 29.275 28.8273 29.6551ZM26.7647 25.2307C26.8176 25.3077 26.8548 25.3945 26.8739 25.4859C26.893 25.5774 26.8938 25.6718 26.8762 25.7636C26.8586 25.8554 26.8229 25.9427 26.7713 26.0206C26.7196 26.0985 26.653 26.1654 26.5753 26.2173C26.4976 26.2693 26.4104 26.3053 26.3187 26.3232C26.2269 26.3412 26.1326 26.3408 26.041 26.322C25.9495 26.3032 25.8626 26.2664 25.7853 26.2137C25.7081 26.1611 25.6421 26.0936 25.5912 26.0152C25.504 25.8847 25.4119 25.7484 25.2989 25.5822L25 25.1424C24.948 25.0657 24.9115 24.9795 24.8928 24.8887C24.8741 24.7979 24.8734 24.7043 24.8908 24.6133C24.9083 24.5223 24.9435 24.4355 24.9944 24.3581C25.0454 24.2807 25.1111 24.214 25.1878 24.162C25.2645 24.1099 25.3507 24.0735 25.4415 24.0547C25.5323 24.036 25.6258 24.0353 25.7169 24.0528C25.8079 24.0702 25.8947 24.1054 25.9721 24.1564C26.0495 24.2073 26.1162 24.273 26.1682 24.3497L26.4672 24.7898C26.5815 24.9585 26.6754 25.0972 26.7644 25.231L26.7647 25.2307ZM24.3887 21.4281C24.4704 21.5965 24.4819 21.7905 24.4206 21.9674C24.3592 22.1443 24.2301 22.2896 24.0617 22.3713C23.8933 22.453 23.6993 22.4645 23.5224 22.4032C23.3455 22.3418 23.2002 22.2128 23.1185 22.0443C22.9529 21.7055 22.8047 21.3584 22.6745 21.0045C22.6103 20.8287 22.6185 20.6345 22.6975 20.4647C22.7765 20.2949 22.9196 20.1635 23.0955 20.0992C23.2714 20.035 23.4656 20.0433 23.6354 20.1223C23.8052 20.2013 23.9366 20.3444 24.0008 20.5203C24.1146 20.8293 24.2441 21.1323 24.3887 21.4281ZM23.6789 17.4204C23.6603 17.5112 23.6239 17.5975 23.5719 17.6742C23.5199 17.7509 23.4533 17.8167 23.3759 17.8677C23.2984 17.9187 23.2117 17.9539 23.1207 17.9714C23.0297 17.9889 22.9361 17.9883 22.8453 17.9696C22.7545 17.9509 22.6683 17.9145 22.5915 17.8625C22.5148 17.8105 22.449 17.7439 22.3981 17.6665C22.2951 17.5102 22.2584 17.3193 22.2961 17.136C22.3779 16.733 22.5082 16.3414 22.6844 15.9698C22.7242 15.8861 22.7802 15.8111 22.849 15.749C22.9179 15.6869 22.9983 15.639 23.0857 15.608C23.173 15.577 23.2657 15.5635 23.3583 15.5683C23.4509 15.5731 23.5416 15.5961 23.6253 15.636C23.709 15.6758 23.784 15.7318 23.8461 15.8006C23.9082 15.8695 23.9561 15.9499 23.9871 16.0373C24.0181 16.1247 24.0316 16.2173 24.0268 16.3099C24.022 16.4025 23.999 16.4932 23.9592 16.5769C23.8319 16.8457 23.7378 17.1289 23.6789 17.4204ZM26.1753 14.5567C26.0913 14.5978 25.9999 14.6219 25.9065 14.6274C25.8131 14.633 25.7195 14.6199 25.6312 14.589C25.5429 14.558 25.4616 14.5098 25.3921 14.4472C25.3226 14.3845 25.2662 14.3087 25.2263 14.2241C25.1864 14.1394 25.1637 14.0477 25.1595 13.9543C25.1553 13.8608 25.1698 13.7674 25.202 13.6796C25.2343 13.5917 25.2837 13.5112 25.3473 13.4426C25.411 13.374 25.4876 13.3188 25.5728 13.2801C25.9025 13.1244 26.2551 12.9832 26.6309 12.8562C26.8083 12.7962 27.0022 12.8091 27.17 12.8921C27.3378 12.975 27.4658 13.1213 27.5258 13.2986C27.5858 13.4759 27.5729 13.6698 27.49 13.8377C27.407 14.0055 27.2607 14.1335 27.0834 14.1935C26.7573 14.3036 26.4548 14.4247 26.1753 14.5567ZM30.4187 13.5247C30.3265 13.534 30.2333 13.5251 30.1445 13.4984C30.0557 13.4717 29.9731 13.4279 29.9012 13.3692C29.8294 13.3106 29.7698 13.2384 29.7259 13.1568C29.682 13.0752 29.6546 12.9857 29.6452 12.8934C29.6359 12.8012 29.6448 12.708 29.6715 12.6192C29.6982 12.5304 29.742 12.4478 29.8007 12.376C29.8593 12.3041 29.9315 12.2446 30.0131 12.2006C30.0947 12.1567 30.1842 12.1293 30.2765 12.12C30.6262 12.0847 30.9876 12.0557 31.3604 12.0331C31.4529 12.0276 31.5456 12.0403 31.6332 12.0706C31.7209 12.1008 31.8017 12.1481 31.871 12.2096C31.9404 12.2711 31.997 12.3456 32.0375 12.429C32.0781 12.5124 32.1018 12.6029 32.1074 12.6954C32.1129 12.788 32.1002 12.8807 32.0699 12.9683C32.0396 13.0559 31.9924 13.1367 31.9309 13.2061C31.8694 13.2755 31.7949 13.332 31.7115 13.3726C31.6281 13.4131 31.5376 13.4369 31.4451 13.4424C31.1024 13.4629 30.7602 13.4903 30.4187 13.5247ZM36.4706 18.7058C36.3302 18.7058 36.1955 18.6501 36.0962 18.5508C35.997 18.4515 35.9412 18.3168 35.9412 18.1764C35.9412 18.036 35.997 17.9014 36.0962 17.8021C36.1955 17.7028 36.3302 17.647 36.4706 17.647C36.611 17.647 36.7457 17.7028 36.8449 17.8021C36.9442 17.9014 37 18.036 37 18.1764C37 18.3168 36.9442 18.4515 36.8449 18.5508C36.7457 18.6501 36.611 18.7058 36.4706 18.7058ZM34.8824 17.647C34.6951 17.647 34.5156 17.5726 34.3832 17.4403C34.2508 17.3079 34.1765 17.1283 34.1765 16.9411C34.1765 16.7539 34.2508 16.5744 34.3832 16.442C34.5156 16.3096 34.6951 16.2352 34.8824 16.2352C35.0696 16.2352 35.2491 16.3096 35.3815 16.442C35.5139 16.5744 35.5882 16.7539 35.5882 16.9411C35.5882 17.1283 35.5139 17.3079 35.3815 17.4403C35.2491 17.5726 35.0696 17.647 34.8824 17.647ZM32.5882 17.2941C32.3542 17.2941 32.1298 17.2011 31.9643 17.0356C31.7988 16.8702 31.7059 16.6457 31.7059 16.4117C31.7059 16.1777 31.7988 15.9533 31.9643 15.7878C32.1298 15.6223 32.3542 15.5294 32.5882 15.5294C32.8223 15.5294 33.0467 15.6223 33.2122 15.7878C33.3776 15.9533 33.4706 16.1777 33.4706 16.4117C33.4706 16.6457 33.3776 16.8702 33.2122 17.0356C33.0467 17.2011 32.8223 17.2941 32.5882 17.2941ZM29.9412 17.647C29.6604 17.647 29.391 17.5355 29.1925 17.3369C28.9939 17.1383 28.8824 16.869 28.8824 16.5882C28.8824 16.3074 28.9939 16.0381 29.1925 15.8395C29.391 15.6409 29.6604 15.5294 29.9412 15.5294C30.222 15.5294 30.4913 15.6409 30.6899 15.8395C30.8884 16.0381 31 16.3074 31 16.5882C31 16.869 30.8884 17.1383 30.6899 17.3369C30.4913 17.5355 30.222 17.647 29.9412 17.647ZM17.9412 24.7058C18.9174 24.7058 19.5658 25.1632 19.7556 25.9771C19.8756 26.4924 19.8156 27.0173 19.6152 27.8918C19.6011 27.9554 19.5862 28.0182 19.5647 28.1093C19.4006 28.8091 19.3529 29.0604 19.3529 29.2941C19.3529 29.5143 19.4454 29.8129 19.7274 30.5403L19.7504 30.5993C20.1181 31.5494 20.2445 32.0015 20.1866 32.5277C20.0895 33.4111 19.3932 33.8823 18.2941 33.8823C16.8739 33.8823 15.6919 32.9311 14.8152 31.4117C14.1471 30.2534 13.7059 28.8017 13.7059 27.8823C13.7059 25.9944 15.5101 24.7058 17.9412 24.7058ZM18.2941 32.4705C18.5641 32.4705 18.7229 32.4345 18.7861 32.3943C18.784 32.3964 18.7808 32.3971 18.7833 32.3735C18.8062 32.167 18.7092 31.8204 18.4339 31.1085L18.4113 31.0507C18.0531 30.127 17.9412 29.766 17.9412 29.2941C17.9412 28.9044 17.9962 28.6143 18.1904 27.787L18.2391 27.5767C18.3908 26.9131 18.4349 26.5305 18.3809 26.298C18.3481 26.1575 18.2916 26.1176 17.9412 26.1176C16.2075 26.1176 15.1176 26.8962 15.1176 27.8823C15.1176 29.6735 16.7313 32.4705 18.2941 32.4705ZM13.5294 25.4117C13.389 25.4117 13.2543 25.3559 13.1551 25.2567C13.0558 25.1574 13 25.0227 13 24.8823C13 24.7419 13.0558 24.6072 13.1551 24.508C13.2543 24.4087 13.389 24.3529 13.5294 24.3529C13.6698 24.3529 13.8045 24.4087 13.9038 24.508C14.003 24.6072 14.0588 24.7419 14.0588 24.8823C14.0588 25.0227 14.003 25.1574 13.9038 25.2567C13.8045 25.3559 13.6698 25.4117 13.5294 25.4117ZM15.1176 24.3529C14.9304 24.3529 14.7509 24.2785 14.6185 24.1461C14.4861 24.0138 14.4118 23.8342 14.4118 23.647C14.4118 23.4598 14.4861 23.2803 14.6185 23.1479C14.7509 23.0155 14.9304 22.9411 15.1176 22.9411C15.3049 22.9411 15.4844 23.0155 15.6168 23.1479C15.7492 23.2803 15.8235 23.4598 15.8235 23.647C15.8235 23.8342 15.7492 24.0138 15.6168 24.1461C15.4844 24.2785 15.3049 24.3529 15.1176 24.3529ZM17.4118 24C17.1778 24 16.9533 23.907 16.7878 23.7415C16.6224 23.576 16.5294 23.3516 16.5294 23.1176C16.5294 22.8836 16.6224 22.6592 16.7878 22.4937C16.9533 22.3282 17.1778 22.2352 17.4118 22.2352C17.6458 22.2352 17.8702 22.3282 18.0357 22.4937C18.2012 22.6592 18.2941 22.8836 18.2941 23.1176C18.2941 23.3516 18.2012 23.576 18.0357 23.7415C17.8702 23.907 17.6458 24 17.4118 24ZM20.0588 24.3529C19.778 24.3529 19.5087 24.2413 19.3101 24.0428C19.1116 23.8442 19 23.5749 19 23.2941C19 23.0133 19.1116 22.7439 19.3101 22.5454C19.5087 22.3468 19.778 22.2352 20.0588 22.2352C20.3396 22.2352 20.609 22.3468 20.8075 22.5454C21.0061 22.7439 21.1176 23.0133 21.1176 23.2941C21.1176 23.5749 21.0061 23.8442 20.8075 24.0428C20.609 24.2413 20.3396 24.3529 20.0588 24.3529Z" fill="black"/>
</g>
<defs>
<clipPath id="clip0_4_1442">
<rect width="24" height="24" fill="white" transform="translate(13 12)"/>
</clipPath>
</defs>
</svg>
