<svg width="135" height="40" viewBox="0 0 135 40" fill="none" xmlns="http://www.w3.org/2000/svg">
<g clip-path="url(#clip0_11_3394)">
<path fill-rule="evenodd" clip-rule="evenodd" d="M129.998 40H5.00184C2.24512 40 0 37.7456 0 35V5C0 2.24439 2.24512 0 5.00184 0H129.998C132.752 0 135 2.24439 135 5V35C135 37.7456 132.752 40 129.998 40Z" fill="black"/>
<path fill-rule="evenodd" clip-rule="evenodd" d="M129.998 0.800499C132.31 0.800499 134.203 2.68828 134.203 5V35C134.203 37.3117 132.323 39.1995 129.998 39.1995H5.00184C2.68967 39.1995 0.797215 37.3117 0.797215 35V5C0.797215 2.68828 2.67725 0.800499 5.00184 0.800499H129.998ZM129.998 0H5.00184C2.24512 0 0 2.25436 0 5V35C0 37.7556 2.24512 40 5.00184 40H129.998C132.752 40 135 37.7556 135 35V5C135 2.25436 132.752 0 129.998 0Z" fill="#A6A6A6"/>
<path d="M27.9432 19.3007C27.9554 18.466 28.2055 17.6477 28.6703 16.9217C29.1351 16.1957 29.7996 15.5858 30.6018 15.1486C30.0922 14.5035 29.4198 13.9725 28.6382 13.598C27.8566 13.2234 26.9872 13.0156 26.0991 12.991C24.2047 12.8147 22.3681 13.9958 21.4027 13.9958C20.4187 13.9958 18.9323 13.0085 17.3318 13.0376C16.2965 13.0673 15.2875 13.3341 14.4032 13.8122C13.5188 14.2903 12.7893 14.9632 12.2856 15.7655C10.1037 19.1139 11.7312 24.035 13.8213 26.7416C14.8669 28.0669 16.0891 29.5474 17.6882 29.4949C19.253 29.4374 19.8374 28.6104 21.7263 28.6104C23.5976 28.6104 24.146 29.4949 25.7775 29.4615C27.4566 29.4374 28.5146 28.1303 29.5236 26.7924C30.2749 25.848 30.853 24.8043 31.2366 23.6999C30.2611 23.3341 29.4286 22.722 28.8429 21.9397C28.2573 21.1574 27.9444 20.2396 27.9432 19.3007Z" fill="white"/>
<path d="M24.8616 11.211C25.7771 10.2367 26.2282 8.98457 26.119 7.72034C24.7202 7.85056 23.4282 8.44312 22.5003 9.37995C22.0466 9.83761 21.6992 10.37 21.4778 10.9468C21.2564 11.5236 21.1654 12.1334 21.21 12.7413C21.9096 12.7477 22.6018 12.6133 23.2343 12.3482C23.8668 12.0831 24.4232 11.6943 24.8616 11.211Z" fill="white"/>
<path d="M47.7236 26.1397H42.3836L41.1012 29.4961H38.8394L43.8973 17.0781H46.2473L51.3053 29.4961H49.0049L47.7236 26.1397ZM42.9366 24.5908H47.1695L45.0828 19.1436H45.0244L42.9366 24.5908Z" fill="white"/>
<path d="M62.2287 24.9698C62.2287 27.7833 60.5299 29.5909 57.9662 29.5909C57.3168 29.621 56.6709 29.4884 56.1025 29.2083C55.5342 28.9281 55.0663 28.5118 54.7525 28.0069H54.704V32.4913H52.6074V20.4425H54.6368V21.9483H54.6754C55.0036 21.4459 55.4794 21.0317 56.0521 20.7498C56.6248 20.468 57.2729 20.329 57.9276 20.3477C60.5199 20.3477 62.2287 22.1641 62.2287 24.9698ZM60.0738 24.9698C60.0738 23.1368 59.0051 21.9317 57.3746 21.9317C55.7727 21.9317 54.6952 23.1622 54.6952 24.9698C54.6952 26.794 55.7727 28.0157 57.3746 28.0157C59.0051 28.0157 60.0738 26.8194 60.0738 24.9698Z" fill="white"/>
<path d="M73.4707 24.9698C73.4707 27.7833 71.7718 29.5909 69.2082 29.5909C68.5587 29.621 67.9129 29.4884 67.3445 29.2083C66.7761 28.9281 66.3083 28.5118 65.9944 28.0069H65.9459V32.4913H63.8494V20.4425H65.8787V21.9483H65.9173C66.2455 21.4459 66.7213 21.0317 67.294 20.7498C67.8667 20.468 68.5149 20.329 69.1696 20.3477C71.7619 20.3477 73.4707 22.1641 73.4707 24.9698ZM71.3157 24.9698C71.3157 23.1368 70.2471 21.9317 68.6165 21.9317C67.0146 21.9317 65.9371 23.1622 65.9371 24.9698C65.9371 26.794 67.0146 28.0157 68.6165 28.0157C70.2471 28.0157 71.3157 26.8194 71.3157 24.9698H71.3157Z" fill="white"/>
<path d="M80.9008 26.0362C81.0562 27.2676 82.4058 28.0762 84.25 28.0762C86.0172 28.0762 87.2886 27.2676 87.2886 26.1572C87.2886 25.1934 86.5218 24.6162 84.7061 24.2207L82.8905 23.833C80.318 23.2822 79.1237 22.2158 79.1237 20.4854C79.1237 18.3428 81.2302 16.8711 84.2214 16.8711C87.1817 16.8711 89.2111 18.3428 89.2794 20.4854H87.163C87.0363 19.2461 85.8806 18.4981 84.1916 18.4981C82.5027 18.4981 81.347 19.2549 81.347 20.3565C81.347 21.2344 82.0851 21.751 83.8909 22.1465L85.4343 22.4824C88.3087 23.0849 89.503 24.1084 89.503 25.9248C89.503 28.248 87.4152 29.7031 84.0947 29.7031C80.9878 29.7031 78.8902 28.2822 78.7546 26.0361L80.9008 26.0362Z" fill="white"/>
<path d="M94.0276 18.2998V20.4424H95.9699V21.9141H94.0276V26.9053C94.0276 27.6807 94.4165 28.042 95.2704 28.042C95.5009 28.0384 95.7312 28.0241 95.96 27.999V29.4619C95.5762 29.5255 95.186 29.5543 94.7955 29.5478C92.7276 29.5478 91.9211 28.8593 91.9211 27.1035V21.9141H90.436V20.4424H91.9211V18.2998H94.0276Z" fill="white"/>
<path d="M97.095 24.9697C97.095 22.1211 98.9877 20.3311 101.939 20.3311C104.901 20.3311 106.785 22.1211 106.785 24.9697C106.785 27.8262 104.911 29.6084 101.939 29.6084C98.9689 29.6084 97.095 27.8262 97.095 24.9697ZM104.648 24.9697C104.648 23.0156 103.638 21.8623 101.939 21.8623C100.24 21.8623 99.2312 23.0244 99.2312 24.9697C99.2312 26.9316 100.24 28.0762 101.939 28.0762C103.638 28.0762 104.648 26.9316 104.648 24.9697H104.648Z" fill="white"/>
<path d="M108.513 20.4424H110.513V21.9834H110.561C110.696 21.5021 111.014 21.0768 111.462 20.7789C111.909 20.481 112.459 20.3287 113.018 20.3476C113.26 20.3469 113.5 20.3702 113.736 20.417V22.1553C113.431 22.0726 113.113 22.0347 112.794 22.043C112.49 22.032 112.186 22.0796 111.904 22.1825C111.622 22.2854 111.369 22.4411 111.161 22.639C110.954 22.8369 110.797 23.0723 110.702 23.3289C110.606 23.5856 110.575 23.8575 110.61 24.126V29.4961H108.513L108.513 20.4424Z" fill="white"/>
<path d="M123.403 26.8369C123.121 28.4805 121.315 29.6084 119.005 29.6084C116.033 29.6084 114.189 27.8437 114.189 25.0127C114.189 22.1729 116.043 20.3311 118.916 20.3311C121.742 20.3311 123.519 22.0518 123.519 24.7969V25.4336H116.305V25.5459C116.272 25.8791 116.319 26.2148 116.443 26.5306C116.568 26.8464 116.766 27.1352 117.026 27.3778C117.286 27.6203 117.601 27.8111 117.951 27.9374C118.3 28.0637 118.676 28.1226 119.053 28.1103C119.548 28.1515 120.046 28.0498 120.471 27.8203C120.896 27.5909 121.226 27.246 121.412 26.8369L123.403 26.8369ZM116.315 24.1348H121.422C121.441 23.8352 121.389 23.5354 121.271 23.2541C121.153 22.9729 120.971 22.7164 120.735 22.5006C120.5 22.2849 120.217 22.1145 119.904 22.0003C119.591 21.8861 119.255 21.8305 118.916 21.8369C118.575 21.8351 118.237 21.8933 117.921 22.008C117.605 22.1227 117.318 22.2918 117.076 22.5054C116.834 22.7191 116.642 22.973 116.512 23.2527C116.381 23.5323 116.314 23.8321 116.315 24.1348V24.1348Z" fill="white"/>
<path d="M43.4315 7.294C43.871 7.26604 44.3121 7.3249 44.7229 7.46634C45.1337 7.60777 45.5039 7.82825 45.8069 8.11187C46.1099 8.3955 46.3381 8.7352 46.4751 9.10647C46.612 9.47774 46.6543 9.87133 46.5989 10.2588C46.5989 12.1651 45.4366 13.2608 43.4315 13.2608H41V7.294H43.4315ZM42.0455 12.417H43.3147C43.6288 12.4336 43.9431 12.388 44.2348 12.2834C44.5264 12.1788 44.7881 12.0178 45.0008 11.8123C45.2134 11.6067 45.3717 11.3617 45.464 11.0951C45.5564 10.8284 45.5805 10.5469 45.5347 10.271C45.5772 9.99617 45.5506 9.7164 45.4569 9.45173C45.3631 9.18707 45.2044 8.94407 44.9923 8.74014C44.7801 8.53621 44.5197 8.3764 44.2296 8.27216C43.9396 8.16792 43.6272 8.12184 43.3147 8.13721H42.0455V12.417Z" fill="white"/>
<path d="M47.7799 11.0074C47.748 10.7115 47.7861 10.4129 47.892 10.1308C47.9979 9.84877 48.1691 9.58943 48.3946 9.36945C48.6202 9.14947 48.8952 8.9737 49.2019 8.85343C49.5085 8.73315 49.8402 8.67102 50.1756 8.67102C50.5109 8.67102 50.8426 8.73315 51.1493 8.85343C51.456 8.9737 51.7309 9.14947 51.9565 9.36945C52.1821 9.58943 52.3533 9.84877 52.4591 10.1308C52.565 10.4129 52.6032 10.7115 52.5713 11.0074C52.6038 11.3036 52.5661 11.6026 52.4605 11.8851C52.3549 12.1677 52.1838 12.4275 51.9582 12.6479C51.7325 12.8683 51.4574 13.0444 51.1504 13.165C50.8434 13.2855 50.5113 13.3478 50.1756 13.3478C49.8398 13.3478 49.5078 13.2855 49.2008 13.165C48.8938 13.0444 48.6186 12.8683 48.393 12.6479C48.1674 12.4275 47.9963 12.1677 47.8907 11.8851C47.7851 11.6026 47.7473 11.3036 47.7799 11.0074ZM51.54 11.0074C51.54 10.0313 51.0454 9.46053 50.1772 9.46053C49.3058 9.46053 48.8155 10.0313 48.8155 11.0074C48.8155 11.9913 49.3058 12.5577 50.1772 12.5577C51.0454 12.5577 51.5401 11.9874 51.5401 11.0074H51.54Z" fill="white"/>
<path d="M58.9404 13.2607H57.9003L56.8504 9.94433H56.7711L55.7256 13.2607H54.6954L53.2952 8.75781H54.3121L55.2221 12.1938H55.297L56.3414 8.75781H57.3032L58.3476 12.1938H58.427L59.3326 8.75781H60.3351L58.9404 13.2607Z" fill="white"/>
<path d="M61.5129 8.75786H62.478V9.47319H62.553C62.6801 9.21627 62.8944 9.00089 63.1662 8.85709C63.4379 8.71328 63.7535 8.64821 64.0689 8.67094C64.3161 8.65446 64.5643 8.6875 64.7951 8.7676C65.0259 8.84769 65.2335 8.9728 65.4023 9.13364C65.5712 9.29448 65.6971 9.48694 65.7706 9.69676C65.8442 9.90658 65.8635 10.1284 65.8273 10.3457V13.2607H64.8247V10.5689C64.8247 9.84527 64.47 9.4854 63.7285 9.4854C63.5607 9.47847 63.3931 9.50379 63.2374 9.55962C63.0816 9.61545 62.9414 9.70047 62.8261 9.80885C62.7109 9.91724 62.6235 10.0464 62.5699 10.1876C62.5163 10.3287 62.4977 10.4784 62.5155 10.6265V13.2608H61.5129L61.5129 8.75786Z" fill="white"/>
<path d="M67.4246 7H68.4271V13.2607H67.4246V7Z" fill="white"/>
<path d="M69.8209 11.0074C69.789 10.7114 69.8272 10.4128 69.9331 10.1308C70.039 9.84868 70.2102 9.58933 70.4358 9.36934C70.6614 9.14935 70.9363 8.97358 71.2431 8.85331C71.5498 8.73303 71.8815 8.6709 72.2168 8.6709C72.5522 8.6709 72.8839 8.73303 73.1906 8.85331C73.4973 8.97358 73.7723 9.14935 73.9979 9.36934C74.2235 9.58933 74.3947 9.84868 74.5006 10.1308C74.6065 10.4128 74.6447 10.7114 74.6128 11.0074C74.6453 11.3036 74.6075 11.6026 74.5019 11.8851C74.3963 12.1676 74.2252 12.4274 73.9995 12.6478C73.7739 12.8683 73.4987 13.0444 73.1917 13.1649C72.8847 13.2854 72.5526 13.3477 72.2168 13.3477C71.8811 13.3477 71.549 13.2854 71.242 13.1649C70.935 13.0444 70.6598 12.8683 70.4342 12.6478C70.2085 12.4274 70.0374 12.1676 69.9318 11.8851C69.8261 11.6026 69.7884 11.3036 69.8209 11.0074ZM73.581 11.0074C73.581 10.0313 73.0864 9.46049 72.2182 9.46049C71.3468 9.46049 70.8565 10.0313 70.8565 11.0074C70.8565 11.9913 71.3468 12.5577 72.2182 12.5577C73.0864 12.5577 73.581 11.9873 73.581 11.0074H73.581Z" fill="white"/>
<path d="M75.6682 11.9873C75.6682 11.1767 76.3491 10.7095 77.5576 10.6431L78.9337 10.5727V10.1841C78.9337 9.70849 78.5789 9.43994 77.8937 9.43994C77.334 9.43994 76.9462 9.62207 76.8349 9.94043H75.8643C75.9668 9.16699 76.7876 8.6709 77.94 8.6709C79.2135 8.6709 79.9319 9.2329 79.9319 10.1841V13.2607H78.9668V12.6279H78.8874C78.7264 12.8549 78.5003 13.04 78.2323 13.1642C77.9642 13.2884 77.6637 13.3473 77.3616 13.3349C77.1483 13.3546 76.9327 13.3344 76.7288 13.2757C76.5249 13.217 76.3371 13.1211 76.1776 12.9941C76.018 12.8672 75.8903 12.712 75.8025 12.5386C75.7148 12.3651 75.6691 12.1774 75.6682 11.9873ZM78.9337 11.6025V11.2261L77.6932 11.2964C76.9936 11.3379 76.6763 11.5488 76.6763 11.9458C76.6763 12.3511 77.0729 12.5869 77.6183 12.5869C77.7781 12.6012 77.9395 12.5869 78.0929 12.5448C78.2464 12.5028 78.3887 12.4337 78.5114 12.3419C78.6341 12.2501 78.7348 12.1373 78.8073 12.0102C78.8799 11.8832 78.9228 11.7446 78.9337 11.6025Z" fill="white"/>
<path d="M81.2495 11.0073C81.2495 9.58449 82.0747 8.68312 83.3582 8.68312C83.6757 8.67015 83.9908 8.73756 84.2666 8.87745C84.5425 9.01735 84.7677 9.22395 84.916 9.47312H84.9909V7H85.9935V13.2607H85.0328V12.5493H84.9535C84.7937 12.7968 84.5606 13.0008 84.2794 13.1393C83.9982 13.2778 83.6797 13.3455 83.3582 13.3349C82.0659 13.335 81.2495 12.4336 81.2495 11.0073ZM82.2852 11.0073C82.2852 11.9624 82.7931 12.5371 83.6425 12.5371C84.4875 12.5371 85.0097 11.9541 85.0097 11.0112C85.0097 10.0728 84.482 9.48146 83.6425 9.48146C82.7985 9.48146 82.2851 10.0601 82.2851 11.0073H82.2852Z" fill="white"/>
<path d="M90.1415 11.0074C90.1095 10.7115 90.1477 10.4129 90.2536 10.1308C90.3594 9.84877 90.5307 9.58943 90.7562 9.36945C90.9818 9.14947 91.2567 8.9737 91.5634 8.85343C91.8701 8.73315 92.2018 8.67102 92.5371 8.67102C92.8725 8.67102 93.2042 8.73315 93.5109 8.85343C93.8176 8.9737 94.0925 9.14947 94.3181 9.36945C94.5436 9.58943 94.7148 9.84877 94.8207 10.1308C94.9266 10.4129 94.9648 10.7115 94.9328 11.0074C94.9654 11.3036 94.9276 11.6026 94.822 11.8851C94.7165 12.1677 94.5454 12.4275 94.3197 12.6479C94.0941 12.8683 93.819 13.0444 93.512 13.165C93.205 13.2855 92.8729 13.3478 92.5371 13.3478C92.2014 13.3478 91.8693 13.2855 91.5623 13.165C91.2553 13.0444 90.9802 12.8683 90.7545 12.6479C90.5289 12.4275 90.3578 12.1677 90.2522 11.8851C90.1466 11.6026 90.1089 11.3036 90.1415 11.0074ZM93.9016 11.0074C93.9016 10.0313 93.4069 9.46053 92.5388 9.46053C91.6673 9.46053 91.1771 10.0313 91.1771 11.0074C91.1771 11.9913 91.6674 12.5577 92.5388 12.5577C93.4069 12.5577 93.9016 11.9874 93.9016 11.0074Z" fill="white"/>
<path d="M96.2781 8.75786H97.2432V9.47319H97.3181C97.4452 9.21627 97.6595 9.00089 97.9313 8.85709C98.203 8.71328 98.5186 8.64821 98.8341 8.67094C99.0812 8.65446 99.3294 8.6875 99.5603 8.7676C99.7911 8.84769 99.9986 8.9728 100.167 9.13364C100.336 9.29448 100.462 9.48694 100.536 9.69676C100.609 9.90658 100.629 10.1284 100.592 10.3457V13.2607H99.5898V10.5689C99.5898 9.84527 99.2351 9.4854 98.4936 9.4854C98.3258 9.47847 98.1583 9.50379 98.0025 9.55962C97.8468 9.61545 97.7065 9.70047 97.5913 9.80885C97.4761 9.91724 97.3887 10.0464 97.335 10.1876C97.2814 10.3287 97.2629 10.4784 97.2806 10.6265V13.2608H96.2781V8.75786Z" fill="white"/>
<path d="M106.257 7.63672V8.77832H107.358V9.52686H106.257V11.8423C106.257 12.314 106.477 12.5205 106.976 12.5205C107.103 12.5201 107.231 12.5133 107.358 12.5V13.2402C107.178 13.2688 106.996 13.284 106.813 13.2856C105.698 13.2856 105.254 12.938 105.254 12.0698V9.52682H104.447V8.77828H105.254V7.63672H106.257Z" fill="white"/>
<path d="M108.728 7H109.721V9.48145H109.801C109.934 9.22213 110.154 9.00554 110.431 8.86119C110.708 8.71684 111.029 8.65176 111.35 8.67481C111.595 8.66295 111.841 8.69934 112.069 8.78138C112.298 8.86342 112.503 8.9891 112.67 9.14943C112.837 9.30977 112.962 9.50082 113.036 9.70896C113.11 9.91709 113.132 10.1372 113.099 10.3535V13.2607H112.096V10.5728C112.096 9.85351 111.718 9.48925 111.009 9.48925C110.837 9.47672 110.664 9.49772 110.501 9.55077C110.339 9.60383 110.192 9.68766 110.07 9.79639C109.948 9.90513 109.855 10.0362 109.796 10.1803C109.737 10.3244 109.715 10.4782 109.73 10.6308V13.2607H108.728L108.728 7Z" fill="white"/>
<path d="M118.945 12.0449C118.809 12.4564 118.513 12.8124 118.111 13.0505C117.709 13.2887 117.225 13.3938 116.744 13.3476C116.409 13.3554 116.076 13.2986 115.769 13.1811C115.461 13.0636 115.187 12.8881 114.963 12.667C114.74 12.4459 114.574 12.1843 114.476 11.9005C114.378 11.6167 114.351 11.3174 114.397 11.0234C114.352 10.7285 114.38 10.4286 114.477 10.1439C114.575 9.85923 114.74 9.59646 114.962 9.37339C115.185 9.15032 115.458 8.97214 115.765 8.85094C116.071 8.72973 116.404 8.66831 116.739 8.67085C118.153 8.67085 119.005 9.52685 119.005 10.9409V11.2509H115.418V11.3007C115.402 11.466 115.426 11.6323 115.487 11.7891C115.548 11.9458 115.645 12.0895 115.773 12.211C115.9 12.3324 116.055 12.429 116.227 12.4944C116.399 12.5598 116.584 12.5926 116.771 12.5907C117.011 12.6163 117.254 12.578 117.469 12.4808C117.684 12.3836 117.862 12.2318 117.98 12.0448L118.945 12.0449ZM115.418 10.5937H117.984C117.997 10.4426 117.974 10.2908 117.916 10.1481C117.859 10.0053 117.768 9.87486 117.65 9.765C117.532 9.65514 117.39 9.56834 117.232 9.51016C117.074 9.45199 116.905 9.42373 116.734 9.4272C116.56 9.42527 116.388 9.45413 116.228 9.51207C116.067 9.57002 115.921 9.65588 115.798 9.76459C115.676 9.8733 115.579 10.0027 115.514 10.1451C115.448 10.2875 115.416 10.44 115.418 10.5937H115.418Z" fill="white"/>
</g>
<defs>
<clipPath id="clip0_11_3394">
<rect width="135" height="40" fill="white"/>
</clipPath>
</defs>
</svg>
