<svg width="49" height="48" viewBox="0 0 49 48" fill="none" xmlns="http://www.w3.org/2000/svg">
<path d="M36.5 34.5H13.3428C12.9915 34.5 12.6514 34.3767 12.3817 34.1517C12.112 33.9264 11.9298 33.6138 11.867 33.2682L6.8603 5.73168C6.79745 5.38605 6.61532 5.07345 6.34562 4.84836C6.07592 4.6233 5.73578 4.5 5.38451 4.5H2" stroke="white" stroke-width="2" stroke-linecap="round" stroke-linejoin="round"/>
<path d="M14 42C16.0711 42 17.75 40.3212 17.75 38.25C17.75 36.1788 16.0711 34.5 14 34.5C11.9289 34.5 10.25 36.1788 10.25 38.25C10.25 40.3212 11.9289 42 14 42Z" stroke="white" stroke-width="2" stroke-linecap="round" stroke-linejoin="round"/>
<path d="M36.5 42C38.5712 42 40.25 40.3212 40.25 38.25C40.25 36.1788 38.5712 34.5 36.5 34.5C34.4288 34.5 32.75 36.1788 32.75 38.25C32.75 40.3212 34.4288 42 36.5 42Z" stroke="white" stroke-width="2" stroke-linecap="round" stroke-linejoin="round"/>
<path d="M8 12H40.7027C40.9223 12 41.1395 12.0483 41.3384 12.1414C41.5373 12.2345 41.7134 12.3702 41.8544 12.5389C41.9951 12.7075 42.0971 12.9051 42.1532 13.1176C42.209 13.33 42.2177 13.5522 42.1784 13.7683L39.7238 27.2683C39.6611 27.614 39.479 27.9265 39.2093 28.1516C38.9396 28.3767 38.5994 28.5 38.2481 28.5H11" stroke="white" stroke-width="2" stroke-linecap="round" stroke-linejoin="round"/>
</svg>
