<svg width="49" height="40" viewBox="0 0 49 40" fill="none" xmlns="http://www.w3.org/2000/svg">
<path d="M46.731 36H30.5V40H46.897C47.2584 40.0178 47.615 39.9108 47.9069 39.6968C48.1988 39.4829 48.4082 39.175 48.5 38.825V37.855C48.5 37.855 48.488 36 46.731 36ZM44.486 35.21C45.5515 35.2084 46.5727 34.7839 47.3254 34.0297C48.0781 33.2756 48.5005 32.2535 48.5 31.188C48.5 28.961 46.7 27.165 44.486 27.165C43.9588 27.1659 43.4369 27.2707 42.9501 27.4734C42.4634 27.6761 42.0214 27.9728 41.6494 28.3464C41.2773 28.72 40.9826 29.1633 40.7819 29.6508C40.5813 30.1384 40.4787 30.6608 40.48 31.188C40.48 33.407 42.275 35.21 44.486 35.21ZM36.032 35C38.138 35 39.832 33.516 39.832 31.413C39.831 29.314 38.131 28.213 36.041 28.197L30.5 28.899V35H36.032ZM18.023 8.933C20.482 8.933 22.471 6.933 22.471 4.466C22.471 1.999 20.482 0 18.023 0C15.566 0 13.574 1.999 13.574 4.466C13.574 6.933 15.566 8.933 18.023 8.933ZM13.481 23.389L13.441 23.331L11.425 18.637L11.422 28H17.447L18.763 26.6L15.194 25.226C14.348 24.908 13.747 24.188 13.481 23.389ZM14.758 22.968C14.953 23.406 15.314 23.761 15.768 23.924L22.645 26.473C22.8545 26.5652 23.0802 26.6151 23.309 26.6198C23.5379 26.6246 23.7654 26.5841 23.9786 26.5006C24.1917 26.4172 24.3863 26.2925 24.5511 26.1336C24.7159 25.9748 24.8478 25.7849 24.939 25.575C25.1252 25.1496 25.1354 24.6677 24.9676 24.2347C24.7997 23.8017 24.4673 23.4528 24.043 23.264L17.698 20.868L15.738 16.167L17.016 15.691L18.677 19.719L23.5 21.507V16.585L26.06 18.108L27.336 24.536C27.4095 24.7535 27.5253 24.9543 27.6769 25.1267C27.8284 25.2991 28.0127 25.4398 28.2189 25.5406C28.4252 25.6414 28.6493 25.7003 28.8785 25.714C29.1077 25.7276 29.3373 25.6956 29.554 25.62C29.9905 25.4647 30.3481 25.1436 30.5494 24.7263C30.7506 24.309 30.7792 23.8292 30.629 23.391L29.199 17.2C29.1053 16.8573 28.9092 16.5513 28.637 16.323C27.904 15.511 24.197 11.366 23.933 11.089C23.546 10.701 22.661 10 20.989 10H14.989C11.579 10 10.923 13.48 11.62 15.25L14.758 22.968ZM29.5 29H2.467C1.483 29 0.5 29.555 0.5 30.776V40H29.5V29Z" fill="white"/>
</svg>
