<svg width="49" height="49" viewBox="0 0 49 49" fill="none" xmlns="http://www.w3.org/2000/svg">
<path d="M14.3858 39.2086L12.5001 46.7857M34.6144 39.2086L36.5001 46.7857M12.5001 10.7857V7.35715M36.5001 10.7857V7.35715M24.5001 10.7857V2.21429M24.5001 41.6429C30.1111 41.6343 35.5131 39.5126 39.6302 35.7004C43.7474 31.8882 46.2777 26.6652 46.7172 21.0714C46.7176 20.6284 46.5464 20.2025 46.2396 19.8829C45.9328 19.5633 45.5142 19.3749 45.0715 19.3572H3.92867C3.48601 19.3749 3.06739 19.5633 2.76058 19.8829C2.45377 20.2025 2.2826 20.6284 2.28296 21.0714C2.72253 26.6652 5.25282 31.8882 9.36998 35.7004C13.4871 39.5126 18.8891 41.6343 24.5001 41.6429Z" stroke="white" stroke-width="3.42857" stroke-linecap="round" stroke-linejoin="round"/>
</svg>
