<svg width="49" height="48" viewBox="0 0 49 48" fill="none" xmlns="http://www.w3.org/2000/svg">
<g clip-path="url(#clip0_36_5808)">
<mask id="mask0_36_5808" style="mask-type:luminance" maskUnits="userSpaceOnUse" x="0" y="0" width="49" height="48">
<path d="M48.5 0H0.5V48H48.5V0Z" fill="white"/>
</mask>
<g mask="url(#mask0_36_5808)">
<path d="M39.6119 11.912L36.5899 46.666H12.4119L9.38989 11.912" stroke="white" stroke-width="2" stroke-linecap="round" stroke-linejoin="round"/>
<path d="M35.0779 5.86798L32.7439 1.33398H16.2579L13.9239 5.86798H4.85791V11.912H44.1439V5.86798H35.0779Z" stroke="white" stroke-width="2" stroke-linecap="round" stroke-linejoin="round"/>
<path d="M24.4998 33.066C27.8378 33.066 30.5438 30.36 30.5438 27.022C30.5438 23.684 27.8378 20.978 24.4998 20.978C21.1618 20.978 18.4558 23.684 18.4558 27.022C18.4558 30.36 21.1618 33.066 24.4998 33.066Z" stroke="white" stroke-width="2" stroke-linecap="round" stroke-linejoin="round"/>
</g>
</g>
<defs>
<clipPath id="clip0_36_5808">
<rect width="48" height="48" fill="white" transform="translate(0.5)"/>
</clipPath>
</defs>
</svg>
