<svg width="49" height="48" viewBox="0 0 49 48" fill="none" xmlns="http://www.w3.org/2000/svg">
<path d="M40.3803 18.7533C39.2723 16.1511 37.5425 13.8608 35.3427 12.0832C33.1429 10.3057 30.5404 9.09528 27.7636 8.55833L30.272 4.54499L27.728 2.95499L24.4182 8.25074C21.0467 8.26638 17.7537 9.26941 14.946 11.1359C12.1383 13.0024 9.93896 15.6506 8.61969 18.7533C6.85256 18.7869 5.16914 19.5124 3.9313 20.774C2.69345 22.0356 2 23.7325 2 25.5C2 27.2674 2.69345 28.9643 3.9313 30.2259C5.16914 31.4875 6.85256 32.2131 8.61969 32.2467C9.94457 35.3621 12.1566 38.019 14.9802 39.8866C17.8039 41.7542 21.1146 42.75 24.5 42.75C27.8854 42.75 31.1961 41.7542 34.0198 39.8866C36.8435 38.019 39.0554 35.3621 40.3803 32.2467C42.1475 32.2131 43.8309 31.4875 45.0687 30.2259C46.3066 28.9643 47 27.2674 47 25.5C47 23.7325 46.3066 22.0356 45.0687 20.774C43.8309 19.5124 42.1475 18.7869 40.3803 18.7533ZM42.9258 28.1259C42.2397 28.8277 41.3046 29.2306 40.3233 29.2473L38.3803 29.2842L37.6198 31.0724C36.5254 33.6465 34.698 35.8417 32.3652 37.3848C30.0323 38.928 27.2971 39.7507 24.5001 39.7507C21.703 39.7507 18.9678 38.928 16.6349 37.3848C14.3021 35.8417 12.4747 33.6465 11.3803 31.0724L10.6197 29.2842L8.67669 29.2473C7.695 29.2289 6.75971 28.826 6.07195 28.1253C5.38419 27.4245 4.99889 26.4819 4.99889 25.5C4.99889 24.5181 5.38419 23.5755 6.07195 22.8747C6.75971 22.174 7.695 21.7711 8.67669 21.7527L10.6197 21.7158L11.3803 19.9276C12.4747 17.3536 14.3021 15.1583 16.635 13.6152C18.9678 12.0721 21.703 11.2494 24.5001 11.2494C27.2971 11.2494 30.0323 12.0721 32.3651 13.6152C34.698 15.1583 36.5254 17.3536 37.6198 19.9276L38.3803 21.7158L40.3233 21.7527C41.0555 21.7665 41.7676 21.9946 42.3716 22.4087C42.9756 22.8228 43.4451 23.4049 43.7219 24.0829C43.9988 24.7608 44.0709 25.5051 43.9295 26.2236C43.788 26.9422 43.439 27.6035 42.9258 28.1259Z" fill="white"/>
<path d="M16.25 21.75H20V25.5H16.25V21.75ZM29 21.75H32.75V25.5H29V21.75ZM24.5 36C25.4849 36 26.4602 35.806 27.3701 35.4291C28.2801 35.0522 29.1069 34.4997 29.8033 33.8033C30.4997 33.1069 31.0522 32.2801 31.4291 31.3701C31.806 30.4602 32 29.4849 32 28.5H17C17 29.4849 17.194 30.4602 17.5709 31.3701C17.9478 32.2801 18.5003 33.1069 19.1967 33.8033C20.6032 35.2098 22.5109 36 24.5 36Z" fill="white"/>
</svg>
