<svg width="44" height="46" viewBox="0 0 44 46" fill="none" xmlns="http://www.w3.org/2000/svg">
<path d="M42.9228 45.6134H42.926C43.3306 45.6134 43.6992 45.3756 43.8657 45.0066C43.9474 44.8252 43.9749 44.6241 43.945 44.4274C43.9151 44.2307 43.8289 44.0469 43.697 43.898L40.9309 40.7827C40.2027 39.9269 38.986 39.6628 37.968 40.1406C37.6072 40.3104 37.2921 40.5638 37.0489 40.8798L36.829 41.166L35.4489 41.4126L30.837 40.113C29.1921 39.65 27.4536 39.6331 25.8 40.0643L25.4232 40.1625L21.1566 35.6761C20.9976 34.2522 20.3513 32.9269 19.3272 31.9249L18.6643 31.2756C18.2134 28.939 18.8519 26.4814 20.3935 24.661L20.8188 24.1586C21.4873 23.4275 21.9101 22.4904 22.0102 21.4978L22.7218 21.6048L22.6604 21.8406C22.467 22.5883 22.4429 23.3698 22.5898 24.1281C22.9377 25.9097 24.2164 27.3941 25.9271 28.0018L26.3102 28.1378C26.4397 28.1837 26.5794 28.1932 26.7139 28.1653C26.8484 28.1373 26.9727 28.0729 27.0732 27.9792C27.1736 27.8853 27.2463 27.7657 27.2834 27.6334C27.3204 27.5011 27.3204 27.3611 27.2833 27.2288L26.8453 25.6647C26.7241 25.2335 26.699 24.7809 26.7717 24.339C26.8445 23.897 27.0133 23.4764 27.2663 23.1068C27.9411 22.1186 27.9973 20.856 27.4128 19.8118L27.2475 19.5164C27.3887 19.1462 27.4611 18.7533 27.4613 18.357C27.4613 17.1223 26.7448 15.973 25.6362 15.4292L25.159 15.1951L24.3371 14.7095L23.3588 13.6867L24.1318 12.7137C24.5509 12.1842 24.8519 11.5712 25.0144 10.9157L26.5479 6.14413L28.0424 5.06188C28.1839 4.95945 28.2852 4.81084 28.3288 4.64169L29.0439 1.86847C29.0693 1.77021 29.0744 1.66782 29.0591 1.56749C29.0437 1.46717 29.0082 1.37101 28.9546 1.28484C28.9009 1.19868 28.8304 1.12429 28.7472 1.0662C28.6639 1.00812 28.5698 0.967531 28.4704 0.94691L25.3011 0.28766C25.1363 0.253165 24.9647 0.275212 24.8139 0.350242C24.6632 0.425271 24.5421 0.548906 24.4703 0.701191L22.9322 3.95338L18.8853 11.1318C18.5745 11.6827 18.357 12.2812 18.2416 12.903L17.3229 17.8464L13.996 18.8289C12.4643 19.2813 11.4529 20.7645 11.5913 22.3558L11.6973 23.5756L11.6011 24.0454C11.1495 26.2504 11.1429 28.5595 11.5746 30.7713L6.16316 28.9897C5.39665 28.7381 4.56663 28.7601 3.81453 29.0519L3.77366 29.0678C2.11184 29.7148 1.17809 31.4473 1.55366 33.1874C2.11728 35.7993 2.97959 39.8178 3.29056 41.2682L1.54606 42.2268C1.19677 42.4174 0.926838 42.7262 0.78471 43.0978C0.642581 43.4695 0.637566 43.8796 0.770564 44.2546L0.776938 44.2728C1.01694 44.955 1.661 45.4121 2.38091 45.4121H2.38747C3.12003 45.4094 4.3085 45.4087 5.21778 45.4085C6.26666 45.4082 7.23697 44.8849 7.81391 44.0079L7.82797 43.9866C8.23325 43.3705 8.41278 42.6294 8.33328 41.9C8.19144 40.5976 7.92106 38.1092 7.74425 36.4823C9.04834 37.2895 10.396 38.024 11.781 38.6827L12.5149 39.0314L21.8822 44.6403C22.7971 45.1879 23.8413 45.482 24.9075 45.4924L42.9229 45.6136L42.9228 45.6134ZM37.3786 42.5916C37.5626 42.5588 37.7277 42.4585 37.8416 42.3103L38.2384 41.7936C38.3355 41.6674 38.4614 41.5662 38.6054 41.4984C38.8042 41.4054 39.028 41.3805 39.2423 41.4274C39.4566 41.4744 39.6495 41.5906 39.7912 41.7581L39.8036 41.7722L41.8796 44.1103L36.0678 44.0931L36.1309 42.8145L37.3787 42.5917L37.3786 42.5916ZM12.9808 24.8282L17.3034 27.5075C17.0265 28.6231 16.951 29.7886 17.0936 30.9413L13.1839 31.1213C12.6923 29.0715 12.6238 26.9074 12.9808 24.8282ZM26.0277 22.2608C25.657 22.8023 25.4076 23.4176 25.2966 24.0644C25.1856 24.7112 25.2156 25.3744 25.3845 26.0085C24.7097 25.4728 24.231 24.7062 24.062 23.8406C23.9578 23.3028 23.9749 22.7485 24.1121 22.2182L24.2317 21.7584C24.9467 21.7148 25.6274 21.4366 26.1683 20.9668L26.2498 20.8963C26.3815 21.3557 26.3061 21.8531 26.0277 22.2608ZM24.4851 18.4182L25.1656 16.8854C25.6546 17.2079 25.9612 17.7639 25.9612 18.357C25.9613 18.6093 25.9071 18.8586 25.8024 19.0881C25.6978 19.3176 25.545 19.5219 25.3544 19.6872L25.1852 19.834C24.993 20.001 24.7668 20.1243 24.5223 20.1954C24.2778 20.2665 24.0207 20.2836 23.7689 20.2455L22.1335 19.9994L22.198 19.2002L23.9473 18.8491C24.0648 18.8255 24.175 18.7741 24.2686 18.6991C24.3622 18.6241 24.4364 18.5278 24.4851 18.4182ZM23.8458 16.1616L23.2716 17.4548L22.3235 17.6451L22.5372 14.9979L23.3246 15.821C23.372 15.8706 23.4259 15.9134 23.485 15.9483L23.8459 16.1616H23.8458ZM19.7164 13.1773C19.8017 12.7177 19.9624 12.2755 20.192 11.8684L24.252 4.66663C24.2608 4.65107 24.269 4.63513 24.2767 4.619L25.5738 1.87654L27.3951 2.25529L26.9439 4.0055L25.4692 5.07332C25.3399 5.16692 25.2438 5.29934 25.195 5.45132C25.195 5.45132 23.5672 10.5189 23.5628 10.5373C23.4534 10.9907 23.2468 11.415 22.9572 11.7808L21.2455 13.9358C21.1529 14.0523 21.0971 14.1936 21.0852 14.3419L20.5246 21.2871C20.4706 21.9565 20.1975 22.5914 19.7597 23.0925C19.7466 23.1058 19.4916 23.3696 19.3785 23.4613C18.8571 23.884 18.1162 23.9425 17.5348 23.607C17.2865 23.4632 17.0803 23.2567 16.9368 23.0081C16.7934 22.7595 16.7178 22.4776 16.7176 22.1906L16.7179 21.8326C16.7187 21.4696 16.8398 21.1171 17.0623 20.8303C17.0623 20.8303 18.5743 18.8866 18.5776 18.8821C18.589 18.8667 19.7164 13.1773 19.7164 13.1773ZM14.4209 20.2674L16.0344 19.6313C15.6086 20.1783 15.2183 21.1388 15.2178 21.8316L15.2176 22.1893C15.2167 23.3068 15.8173 24.3479 16.7852 24.9064C17.2012 25.1458 17.6668 25.2857 18.1458 25.3154C18.0183 25.5542 17.9011 25.7983 17.7945 26.0471L13.1686 23.1798L13.0857 22.2257C13.0088 21.3422 13.5703 20.5186 14.4209 20.2674ZM6.56028 43.1842C6.41422 43.4069 6.21498 43.5898 5.98054 43.7162C5.7461 43.8427 5.48386 43.9087 5.2175 43.9084C4.30663 43.9086 3.11591 43.9093 2.38184 43.912H2.381C2.29541 43.912 2.22125 43.8583 2.19209 43.7755L2.18572 43.7574C2.17154 43.7174 2.17206 43.6737 2.1872 43.6342C2.20234 43.5946 2.2311 43.5617 2.26831 43.5414L4.34769 42.3989L6.84931 42.2983C6.83854 42.6063 6.74339 42.9053 6.57425 43.1628L6.56028 43.1842ZM22.6528 43.3533C22.6528 43.3533 13.213 37.7023 13.1913 37.692L12.4249 37.3278C10.7238 36.5189 9.08174 35.5913 7.51081 34.5519L7.24269 34.3745C7.12392 34.2959 6.98522 34.2528 6.84282 34.2501C6.70042 34.2474 6.56021 34.2854 6.43859 34.3595C6.31698 34.4336 6.21898 34.5408 6.15605 34.6686C6.09313 34.7964 6.06789 34.9394 6.08328 35.081C6.08328 35.081 6.45238 38.48 6.70513 40.803L4.74191 40.882C4.41856 39.3747 3.57472 35.4417 3.01981 32.8709C2.80072 31.8553 3.34663 30.8436 4.31713 30.4658L4.358 30.4498C4.78582 30.2836 5.25806 30.271 5.69413 30.4142C5.69413 30.4142 12.475 32.638 12.4882 32.6399C12.4974 32.6413 17.6846 32.4157 17.6846 32.4157L18.2776 32.9966C19.1068 33.8078 19.6078 34.8963 19.6848 36.0538C19.6965 36.2284 19.7689 36.3936 19.8896 36.5204L24.641 41.5168C24.7334 41.614 24.8501 41.6846 24.979 41.7213C25.1079 41.758 25.2443 41.7595 25.3739 41.7256L26.1788 41.5156C27.5745 41.1518 29.0418 41.1661 30.4302 41.5569L34.6327 42.741L34.5665 44.0839L24.9219 43.9923C24.1222 43.9845 23.3391 43.764 22.6528 43.3534V43.3533Z" fill="white"/>
</svg>
