<svg width="49" height="44" viewBox="0 0 49 44" fill="none" xmlns="http://www.w3.org/2000/svg">
<path d="M24.5 20.5641C24.5 22.4752 23.9096 23.9806 22.0083 23.954C20.6254 23.9349 19.4423 23.191 18.9253 21.9873C18.8958 21.9172 18.8461 21.8575 18.7826 21.8156C18.7192 21.7737 18.6448 21.7515 18.5687 21.7518H18.5587C16.1925 21.7518 14.7937 20.4473 14.7937 18.0693C14.7937 17.7885 14.8207 17.5141 14.8719 17.2485C14.9027 17.0875 14.8307 16.9251 14.6889 16.8435C12.9198 15.825 12.2386 14.5444 12.2386 12.3484C12.2386 10.1525 12.9198 8.8715 14.6889 7.85328C14.8307 7.77172 14.9027 7.60925 14.8719 7.44809C14.8198 7.17767 14.7936 6.9029 14.7937 6.6275C14.7937 4.24945 16.1925 2.94501 18.5587 2.94501H18.5687C18.6448 2.9453 18.7193 2.92306 18.7827 2.88111C18.8462 2.83915 18.8958 2.77935 18.9253 2.70923C19.4423 1.50577 20.6254 0.761959 22.0083 0.74274C23.9098 0.716209 24.5 2.22155 24.5 4.13273" stroke="white" stroke-width="1.5" stroke-miterlimit="10" stroke-linecap="round" stroke-linejoin="round"/>
<path d="M24.5 4.13273C24.5 2.22155 25.0903 0.716209 26.9917 0.74274C28.3746 0.761865 29.5577 1.50577 30.0746 2.70952C30.1042 2.77956 30.1539 2.83929 30.2173 2.88119C30.2808 2.92309 30.3552 2.9453 30.4313 2.94501H30.4413C32.8075 2.94501 34.2063 4.24945 34.2063 6.6275C34.2064 6.90296 34.1802 7.1778 34.1281 7.44828C34.0973 7.60925 34.1693 7.77172 34.3111 7.85328C36.0802 8.87178 36.7614 10.1525 36.7614 12.3484C36.7614 14.5444 36.0802 15.8253 34.3111 16.8435C34.1693 16.9251 34.0973 17.0875 34.1281 17.2487C34.1793 17.5144 34.2063 17.7885 34.2063 18.0693C34.2063 20.4473 32.8075 21.7518 30.4413 21.7518H30.4313C30.3552 21.7515 30.2807 21.7737 30.2173 21.8157C30.1538 21.8576 30.1042 21.9174 30.0746 21.9876C29.5577 23.191 28.3746 23.9348 26.9917 23.954C25.0902 23.9806 24.5 22.4752 24.5 20.5641" stroke="white" stroke-width="1.5" stroke-miterlimit="10" stroke-linecap="round" stroke-linejoin="round"/>
<path d="M30.2044 2.89346C29.8562 4.20295 28.5176 4.98089 27.2145 4.63092" stroke="white" stroke-width="1.5" stroke-miterlimit="10" stroke-linecap="round" stroke-linejoin="round"/>
<path d="M30.2404 21.7687C29.1776 21.4833 28.5462 20.3859 28.8302 19.3178" stroke="white" stroke-width="1.5" stroke-miterlimit="10" stroke-linecap="round" stroke-linejoin="round"/>
<path d="M18.7956 21.8033C19.1438 20.4938 20.4824 19.7159 21.7855 20.0659" stroke="white" stroke-width="1.5" stroke-miterlimit="10" stroke-linecap="round" stroke-linejoin="round"/>
<path d="M18.7596 2.92805C19.8225 3.21352 20.4538 4.31086 20.1698 5.37895" stroke="white" stroke-width="1.5" stroke-miterlimit="10" stroke-linecap="round" stroke-linejoin="round"/>
<path d="M17.9432 14.4808C17.9134 14.451 17.8842 14.4207 17.8557 14.3902C16.7852 13.2417 17.6123 11.3671 19.1822 11.3671" stroke="white" stroke-width="1.5" stroke-miterlimit="10" stroke-linecap="round" stroke-linejoin="round"/>
<path d="M31.0567 14.4808C31.0865 14.451 31.1157 14.4207 31.1442 14.3902C32.2147 13.2417 31.3876 11.3671 29.8177 11.3671" stroke="white" stroke-width="1.5" stroke-miterlimit="10" stroke-linecap="round" stroke-linejoin="round"/>
<path d="M24.5 4.13273V20.6394" stroke="white" stroke-width="1.5" stroke-miterlimit="10" stroke-linecap="round" stroke-linejoin="round"/>
<path d="M40.3482 18.7318V11.6595C40.3482 10.6084 41.2003 9.75612 42.2516 9.75612C42.2616 9.75612 42.3165 9.75724 42.3178 9.75724C42.7419 9.77144 43.1491 9.92752 43.474 10.2005" stroke="white" stroke-width="1.5" stroke-miterlimit="10" stroke-linecap="round" stroke-linejoin="round"/>
<path d="M8.6518 18.7318V11.6595C8.6518 10.6084 7.79971 9.75612 6.7484 9.75612C6.73837 9.75612 6.68353 9.75724 6.68222 9.75724C6.25807 9.77144 5.85094 9.92752 5.526 10.2005" stroke="white" stroke-width="1.5" stroke-miterlimit="10" stroke-linecap="round" stroke-linejoin="round"/>
<path d="M12.3365 28.9105L5.72905 21.9983C5.24408 21.506 5.0519 20.8346 5.1508 20.2004C5.21643 19.7793 5.4104 19.3745 5.73233 19.0493C5.73861 19.0429 5.90061 18.8965 5.90108 18.8962C6.73077 18.2207 7.95373 18.2749 8.71967 19.0524L15.4669 25.7009C16.3259 26.5473 17.0081 27.5561 17.4737 28.6685C17.9393 29.781 18.1791 30.9749 18.1791 32.1809V43.2575H11.5893V35.3658L3.93009 29.1878C2.40009 27.7816 1.47891 25.8181 1.43925 23.7403C1.43794 23.6718 1.43738 23.6029 1.43757 23.5335C1.44638 20.3609 1.46007 10.0367 1.46007 7.79375C1.46007 6.8601 2.44875 6.18332 3.42572 6.22926C4.44946 6.27745 5.23715 7.15935 5.23715 8.18431V19.8317" stroke="white" stroke-width="1.5" stroke-miterlimit="10" stroke-linecap="round" stroke-linejoin="round"/>
<path d="M39.9406 25.4619L43.2709 21.9983C43.7559 21.506 43.9481 20.8346 43.8492 20.2004C43.7816 19.765 43.5781 19.3621 43.2676 19.0493C43.2614 19.0429 43.0994 18.8965 43.0989 18.8962C42.2692 18.2207 41.0462 18.2749 40.2803 19.0524L33.533 25.7009C32.674 26.5473 31.9919 27.5561 31.5263 28.6685C31.0607 29.781 30.8209 30.9749 30.8209 32.1809V43.2575H37.4107V35.3659L45.0699 29.1879C46.5999 27.7816 47.5211 25.8181 47.5607 23.7403C47.562 23.6718 47.5626 23.6029 47.5624 23.5335C47.5536 20.3609 47.5399 10.0367 47.5399 7.79375C47.5399 6.86019 46.5512 6.18332 45.5743 6.22935C44.5505 6.27744 43.7628 7.15935 43.7628 8.18441V19.8317" stroke="white" stroke-width="1.5" stroke-miterlimit="10" stroke-linecap="round" stroke-linejoin="round"/>
</svg>
