<svg width="453" height="492" viewBox="0 0 453 492" fill="none" xmlns="http://www.w3.org/2000/svg">
<g opacity="0.1">
<path d="M261.815 30.2445L267.237 32.978V27.9653L261.815 25.2318V30.2445Z" fill="white" stroke="white" stroke-width="2" stroke-miterlimit="10"/>
<path d="M251.298 24.9433L256.72 27.6768V22.6641L251.298 19.9307V24.9433Z" fill="white" stroke="white" stroke-width="2" stroke-miterlimit="10"/>
<path d="M240.781 19.6418L246.204 22.3753V17.3626L240.781 14.6292V19.6418Z" fill="white" stroke="white" stroke-width="2" stroke-miterlimit="10"/>
<path d="M261.815 42.3967L267.237 45.1302V40.1175L261.815 37.384V42.3967Z" fill="white" stroke="white" stroke-width="2" stroke-miterlimit="10"/>
<path d="M251.298 37.0958L256.72 39.8293V34.8166L251.298 32.0831V37.0958Z" fill="white" stroke="white" stroke-width="2" stroke-miterlimit="10"/>
<path d="M240.781 31.7941L246.204 34.5275V29.5148L240.781 26.7814V31.7941Z" fill="white" stroke="white" stroke-width="2" stroke-miterlimit="10"/>
<path d="M261.815 54.5484L267.237 57.2818V52.2691L261.815 49.5356V54.5484Z" fill="white" stroke="white" stroke-width="2" stroke-miterlimit="10"/>
<path d="M251.298 49.2471L256.72 51.9805V46.9678L251.298 44.2344V49.2471Z" fill="white" stroke="white" stroke-width="2" stroke-miterlimit="10"/>
<path d="M240.781 43.9461L246.204 46.6795V41.6668L240.781 38.9333V43.9461Z" fill="white" stroke="white" stroke-width="2" stroke-miterlimit="10"/>
<path d="M261.815 66.701L267.237 69.4345V64.4218L261.815 61.6884V66.701Z" fill="white" stroke="white" stroke-width="2" stroke-miterlimit="10"/>
<path d="M251.298 61.3995L256.72 64.133V59.1203L251.298 56.3868V61.3995Z" fill="white" stroke="white" stroke-width="2" stroke-miterlimit="10"/>
<path d="M240.781 56.0973L246.204 58.8308V53.8181L240.781 51.0846V56.0973Z" fill="white" stroke="white" stroke-width="2" stroke-miterlimit="10"/>
<path d="M261.815 78.853L267.237 81.5865V76.5738L261.815 73.8403V78.853Z" fill="white" stroke="white" stroke-width="2" stroke-miterlimit="10"/>
<path d="M251.298 73.5515L256.72 76.285V71.2723L251.298 68.5388V73.5515Z" fill="white" stroke="white" stroke-width="2" stroke-miterlimit="10"/>
<path d="M240.781 68.2501L246.204 70.9836V65.9709L240.781 63.2374V68.2501Z" fill="white" stroke="white" stroke-width="2" stroke-miterlimit="10"/>
<path d="M261.815 91.0044L267.237 93.7379V88.7252L261.815 85.9917V91.0044Z" fill="white" stroke="white" stroke-width="2" stroke-miterlimit="10"/>
<path d="M251.298 85.7032L256.72 88.4366V83.4239L251.298 80.6904V85.7032Z" fill="white" stroke="white" stroke-width="2" stroke-miterlimit="10"/>
<path d="M240.781 80.4021L246.204 83.1356V78.1229L240.781 75.3894V80.4021Z" fill="white" stroke="white" stroke-width="2" stroke-miterlimit="10"/>
<path d="M261.815 103.157L267.237 105.89V100.878L261.815 98.144V103.157Z" fill="white" stroke="white" stroke-width="2" stroke-miterlimit="10"/>
<path d="M251.298 97.8557L256.72 100.589V95.5765L251.298 92.843V97.8557Z" fill="white" stroke="white" stroke-width="2" stroke-miterlimit="10"/>
<path d="M240.781 92.5541L246.204 95.2875V90.2749L240.781 87.5414V92.5541Z" fill="white" stroke="white" stroke-width="2" stroke-miterlimit="10"/>
<path d="M261.815 115.309L267.237 118.042V113.029L261.815 110.296V115.309Z" fill="white" stroke="white" stroke-width="2" stroke-miterlimit="10"/>
<path d="M251.298 110.008L256.72 112.741V107.728L251.298 104.995V110.008Z" fill="white" stroke="white" stroke-width="2" stroke-miterlimit="10"/>
<path d="M240.781 104.707L246.204 107.44V102.428L240.781 99.6941V104.707Z" fill="white" stroke="white" stroke-width="2" stroke-miterlimit="10"/>
<path d="M261.815 127.461L267.237 130.194V125.182L261.815 122.448V127.461Z" fill="white" stroke="white" stroke-width="2" stroke-miterlimit="10"/>
<path d="M251.298 122.16L256.72 124.893V119.881L251.298 117.147V122.16Z" fill="white" stroke="white" stroke-width="2" stroke-miterlimit="10"/>
<path d="M240.781 116.858L246.204 119.592V114.579L240.781 111.846V116.858Z" fill="white" stroke="white" stroke-width="2" stroke-miterlimit="10"/>
<path d="M261.815 139.613L267.237 142.346V137.334L261.815 134.6V139.613Z" fill="white" stroke="white" stroke-width="2" stroke-miterlimit="10"/>
<path d="M251.298 134.312L256.72 137.046V132.033L251.298 129.3V134.312Z" fill="white" stroke="white" stroke-width="2" stroke-miterlimit="10"/>
<path d="M240.781 129.011L246.204 131.744V126.732L240.781 123.998V129.011Z" fill="white" stroke="white" stroke-width="2" stroke-miterlimit="10"/>
<path d="M261.815 151.766L267.237 154.499V149.486L261.815 146.753V151.766Z" fill="white" stroke="white" stroke-width="2" stroke-miterlimit="10"/>
<path d="M251.298 146.464L256.72 149.197V144.185L251.298 141.451V146.464Z" fill="white" stroke="white" stroke-width="2" stroke-miterlimit="10"/>
<path d="M240.781 141.163L246.204 143.896V138.884L240.781 136.15V141.163Z" fill="white" stroke="white" stroke-width="2" stroke-miterlimit="10"/>
<path d="M261.815 163.917L267.237 166.65V161.638L261.815 158.904V163.917Z" fill="white" stroke="white" stroke-width="2" stroke-miterlimit="10"/>
<path d="M251.298 158.616L256.72 161.35V156.337L251.298 153.604V158.616Z" fill="white" stroke="white" stroke-width="2" stroke-miterlimit="10"/>
<path d="M240.781 153.315L246.204 156.048V151.036L240.781 148.302V153.315Z" fill="white" stroke="white" stroke-width="2" stroke-miterlimit="10"/>
<path d="M261.815 176.07L267.237 178.803V173.79L261.815 171.057V176.07Z" fill="white" stroke="white" stroke-width="2" stroke-miterlimit="10"/>
<path d="M251.298 170.768L256.72 173.502V168.489L251.298 165.755V170.768Z" fill="white" stroke="white" stroke-width="2" stroke-miterlimit="10"/>
<path d="M240.781 165.467L246.204 168.2V163.187L240.781 160.454V165.467Z" fill="white" stroke="white" stroke-width="2" stroke-miterlimit="10"/>
<path d="M261.815 188.221L267.237 190.955V185.942L261.815 183.209V188.221Z" stroke="white" stroke-width="2" stroke-miterlimit="10"/>
<path d="M251.298 182.92L256.72 185.653V180.641L251.298 177.907V182.92Z" fill="white" stroke="white" stroke-width="2" stroke-miterlimit="10"/>
<path d="M240.781 177.619L246.204 180.352V175.339L240.781 172.606V177.619Z" fill="white" stroke="white" stroke-width="2" stroke-miterlimit="10"/>
<path d="M261.815 200.373L267.237 203.107V198.094L261.815 195.36V200.373Z" fill="white" stroke="white" stroke-width="2" stroke-miterlimit="10"/>
<path d="M251.298 195.072L256.72 197.805V192.793L251.298 190.059V195.072Z" fill="white" stroke="white" stroke-width="2" stroke-miterlimit="10"/>
<path d="M240.781 189.771L246.204 192.504V187.492L240.781 184.758V189.771Z" stroke="white" stroke-width="2" stroke-miterlimit="10"/>
<path d="M261.815 212.526L267.237 215.259V210.246L261.815 207.513V212.526Z" stroke="white" stroke-width="2" stroke-miterlimit="10"/>
<path d="M251.298 207.224L256.72 209.957V204.945L251.298 202.211V207.224Z" fill="white" stroke="white" stroke-width="2" stroke-miterlimit="10"/>
<path d="M240.781 201.922L246.204 204.656V199.643L240.781 196.91V201.922Z" stroke="white" stroke-width="2" stroke-miterlimit="10"/>
<path d="M261.815 224.678L267.237 227.411V222.399L261.815 219.665V224.678Z" stroke="white" stroke-width="2" stroke-miterlimit="10"/>
<path d="M251.298 219.376L256.72 222.11V217.097L251.298 214.364V219.376Z" fill="white" stroke="white" stroke-width="2" stroke-miterlimit="10"/>
<path d="M240.781 214.075L246.204 216.809V211.796L240.781 209.062V214.075Z" stroke="white" stroke-width="2" stroke-miterlimit="10"/>
<path d="M261.815 236.829L267.237 239.563V234.55L261.815 231.816V236.829Z" fill="white" stroke="white" stroke-width="2" stroke-miterlimit="10"/>
<path d="M251.298 231.528L256.72 234.261V229.249L251.298 226.515V231.528Z" stroke="white" stroke-width="2" stroke-miterlimit="10"/>
<path d="M240.781 226.226L246.204 228.96V223.947L240.781 221.214V226.226Z" stroke="white" stroke-width="2" stroke-miterlimit="10"/>
<path d="M261.815 248.981L267.237 251.715V246.702L261.815 243.968V248.981Z" stroke="white" stroke-width="2" stroke-miterlimit="10"/>
<path d="M251.298 243.681L256.72 246.414V241.401L251.298 238.668V243.681Z" fill="white" stroke="white" stroke-width="2" stroke-miterlimit="10"/>
<path d="M240.781 238.379L246.204 241.112V236.1L240.781 233.366V238.379Z" stroke="white" stroke-width="2" stroke-miterlimit="10"/>
<path d="M261.815 261.134L267.237 263.867V258.854L261.815 256.121V261.134Z" fill="white" stroke="white" stroke-width="2" stroke-miterlimit="10"/>
<path d="M251.298 255.832L256.72 258.566V253.553L251.298 250.82V255.832Z" stroke="white" stroke-width="2" stroke-miterlimit="10"/>
<path d="M240.781 250.531L246.204 253.265V248.252L240.781 245.519V250.531Z" stroke="white" stroke-width="2" stroke-miterlimit="10"/>
<path d="M261.815 273.286L267.237 276.019V271.007L261.815 268.273V273.286Z" stroke="white" stroke-width="2" stroke-miterlimit="10"/>
<path d="M251.298 267.985L256.72 270.718V265.706L251.298 262.972V267.985Z" stroke="white" stroke-width="2" stroke-miterlimit="10"/>
<path d="M240.781 262.683L246.204 265.417V260.404L240.781 257.67V262.683Z" stroke="white" stroke-width="2" stroke-miterlimit="10"/>
<path d="M261.815 285.438L267.237 288.171V283.158L261.815 280.425V285.438Z" stroke="white" stroke-width="2" stroke-miterlimit="10"/>
<path d="M251.298 280.137L256.72 282.87V277.857L251.298 275.124V280.137Z" stroke="white" stroke-width="2" stroke-miterlimit="10"/>
<path d="M240.781 274.835L246.204 277.569V272.556L240.781 269.823V274.835Z" stroke="white" stroke-width="2" stroke-miterlimit="10"/>
<path d="M261.815 297.59L267.237 300.323V295.311L261.815 292.577V297.59Z" stroke="white" stroke-width="2" stroke-miterlimit="10"/>
<path d="M251.298 292.289L256.72 295.023V290.01L251.298 287.276V292.289Z" stroke="white" stroke-width="2" stroke-miterlimit="10"/>
<path d="M240.781 286.987L246.204 289.721V284.708L240.781 281.974V286.987Z" stroke="white" stroke-width="2" stroke-miterlimit="10"/>
<path d="M261.815 309.742L267.237 312.475V307.463L261.815 304.729V309.742Z" stroke="white" stroke-width="2" stroke-miterlimit="10"/>
<path d="M251.298 304.441L256.72 307.174V302.162L251.298 299.428V304.441Z" stroke="white" stroke-width="2" stroke-miterlimit="10"/>
<path d="M240.781 299.139L246.204 301.873V296.86L240.781 294.127V299.139Z" stroke="white" stroke-width="2" stroke-miterlimit="10"/>
<path d="M206.438 34.1528L201.015 37.7016V32.689L206.438 29.1401V34.1528Z" fill="white" stroke="white" stroke-width="2" stroke-miterlimit="10"/>
<path d="M216.955 27.27L211.532 30.8188V25.8061L216.955 22.2573V27.27Z" fill="white" stroke="white" stroke-width="2" stroke-miterlimit="10"/>
<path d="M227.472 20.3868L222.049 23.9356V18.9229L227.472 15.3741V20.3868Z" fill="white" stroke="white" stroke-width="2" stroke-miterlimit="10"/>
<path d="M206.438 46.3042L201.015 49.853V44.8403L206.438 41.2915V46.3042Z" fill="white" stroke="white" stroke-width="2" stroke-miterlimit="10"/>
<path d="M216.955 39.4221L211.532 42.9709V37.9582L216.955 34.4094V39.4221Z" fill="white" stroke="white" stroke-width="2" stroke-miterlimit="10"/>
<path d="M227.472 32.5397L222.049 36.0885V31.0758L227.472 27.527V32.5397Z" fill="white" stroke="white" stroke-width="2" stroke-miterlimit="10"/>
<path d="M206.438 58.456L201.015 62.0048V56.9921L206.438 53.4434V58.456Z" fill="white" stroke="white" stroke-width="2" stroke-miterlimit="10"/>
<path d="M216.955 51.574L211.532 55.1227V50.1101L216.955 46.5613V51.574Z" fill="white" stroke="white" stroke-width="2" stroke-miterlimit="10"/>
<path d="M227.472 44.6912L222.049 48.24V43.2273L227.472 39.6785V44.6912Z" fill="white" stroke="white" stroke-width="2" stroke-miterlimit="10"/>
<path d="M206.438 70.6085L201.015 74.1573V69.1446L206.438 65.5958V70.6085Z" fill="white" stroke="white" stroke-width="2" stroke-miterlimit="10"/>
<path d="M216.955 63.7259L211.532 67.2746V62.262L216.955 58.7131V63.7259Z" fill="white" stroke="white" stroke-width="2" stroke-miterlimit="10"/>
<path d="M227.472 56.8435L222.049 60.3923V55.3796L227.472 51.8308V56.8435Z" fill="white" stroke="white" stroke-width="2" stroke-miterlimit="10"/>
<path d="M206.438 82.7603L201.015 86.309V81.2963L206.438 77.7476V82.7603Z" fill="white" stroke="white" stroke-width="2" stroke-miterlimit="10"/>
<path d="M216.955 75.8776L211.532 79.4264V74.4137L216.955 70.8649V75.8776Z" fill="white" stroke="white" stroke-width="2" stroke-miterlimit="10"/>
<path d="M227.472 68.9954L222.049 72.5442V67.5315L227.472 63.9827V68.9954Z" fill="white" stroke="white" stroke-width="2" stroke-miterlimit="10"/>
<path d="M206.438 94.9128L201.015 98.4616V93.4489L206.438 89.9001V94.9128Z" fill="white" stroke="white" stroke-width="2" stroke-miterlimit="10"/>
<path d="M216.955 88.0305L211.532 91.5793V86.5666L216.955 83.0178V88.0305Z" fill="white" stroke="white" stroke-width="2" stroke-miterlimit="10"/>
<path d="M227.472 81.1472L222.049 84.696V79.6833L227.472 76.1345V81.1472Z" fill="white" stroke="white" stroke-width="2" stroke-miterlimit="10"/>
<path d="M206.438 107.066L201.015 110.614V105.602L206.438 102.053V107.066Z" fill="white" stroke="white" stroke-width="2" stroke-miterlimit="10"/>
<path d="M216.955 100.182L211.532 103.731V98.7179L216.955 95.1691V100.182Z" fill="white" stroke="white" stroke-width="2" stroke-miterlimit="10"/>
<path d="M227.472 93.2996L222.049 96.8483V91.8357L227.472 88.2869V93.2996Z" fill="white" stroke="white" stroke-width="2" stroke-miterlimit="10"/>
<path d="M206.438 119.217L201.015 122.766V117.753L206.438 114.204V119.217Z" fill="white" stroke="white" stroke-width="2" stroke-miterlimit="10"/>
<path d="M216.955 112.335L211.532 115.883V110.871L216.955 107.322V112.335Z" fill="white" stroke="white" stroke-width="2" stroke-miterlimit="10"/>
<path d="M227.472 105.452L222.049 109.001V103.988L227.472 100.439V105.452Z" fill="white" stroke="white" stroke-width="2" stroke-miterlimit="10"/>
<path d="M206.438 131.369L201.015 134.918V129.905L206.438 126.356V131.369Z" fill="white" stroke="white" stroke-width="2" stroke-miterlimit="10"/>
<path d="M216.955 124.486L211.532 128.035V123.023L216.955 119.474V124.486Z" fill="white" stroke="white" stroke-width="2" stroke-miterlimit="10"/>
<path d="M227.472 117.603L222.049 121.152V116.139L227.472 112.591V117.603Z" fill="white" stroke="white" stroke-width="2" stroke-miterlimit="10"/>
<path d="M206.438 143.521L201.015 147.07V142.057L206.438 138.509V143.521Z" fill="white" stroke="white" stroke-width="2" stroke-miterlimit="10"/>
<path d="M216.955 136.638L211.532 140.187V135.175L216.955 131.626V136.638Z" fill="white" stroke="white" stroke-width="2" stroke-miterlimit="10"/>
<path d="M227.472 129.756L222.049 133.305V128.292L227.472 124.743V129.756Z" fill="white" stroke="white" stroke-width="2" stroke-miterlimit="10"/>
<path d="M206.438 155.673L201.015 159.221V154.209L206.438 150.66V155.673Z" fill="white" stroke="white" stroke-width="2" stroke-miterlimit="10"/>
<path d="M216.955 148.79L211.532 152.339V147.326L216.955 143.778V148.79Z" fill="white" stroke="white" stroke-width="2" stroke-miterlimit="10"/>
<path d="M227.472 141.908L222.049 145.457V140.444L227.472 136.895V141.908Z" fill="white" stroke="white" stroke-width="2" stroke-miterlimit="10"/>
<path d="M206.438 167.825L201.015 171.373V166.361L206.438 162.812V167.825Z" fill="white" stroke="white" stroke-width="2" stroke-miterlimit="10"/>
<path d="M216.955 160.942L211.532 164.491V159.478L216.955 155.93V160.942Z" fill="white" stroke="white" stroke-width="2" stroke-miterlimit="10"/>
<path d="M227.472 154.06L222.049 157.609V152.596L227.472 149.047V154.06Z" fill="white" stroke="white" stroke-width="2" stroke-miterlimit="10"/>
<path d="M206.438 179.977L201.015 183.526V178.513L206.438 174.964V179.977Z" fill="white" stroke="white" stroke-width="2" stroke-miterlimit="10"/>
<path d="M216.955 173.094L211.532 176.643V171.63L216.955 168.082V173.094Z" fill="white" stroke="white" stroke-width="2" stroke-miterlimit="10"/>
<path d="M227.472 166.212L222.049 169.761V164.748L227.472 161.199V166.212Z" fill="white" stroke="white" stroke-width="2" stroke-miterlimit="10"/>
<path d="M206.438 192.129L201.015 195.678V190.665L206.438 187.116V192.129Z" stroke="white" stroke-width="2" stroke-miterlimit="10"/>
<path d="M216.955 185.247L211.532 188.796V183.783L216.955 180.234V185.247Z" fill="white" stroke="white" stroke-width="2" stroke-miterlimit="10"/>
<path d="M227.472 178.364L222.049 181.913V176.9L227.472 173.351V178.364Z" fill="white" stroke="white" stroke-width="2" stroke-miterlimit="10"/>
<path d="M206.438 204.281L201.015 207.83V202.817L206.438 199.268V204.281Z" stroke="white" stroke-width="2" stroke-miterlimit="10"/>
<path d="M216.955 197.399L211.532 200.947V195.935L216.955 192.386V197.399Z" fill="white" stroke="white" stroke-width="2" stroke-miterlimit="10"/>
<path d="M227.472 190.516L222.049 194.065V189.052L227.472 185.503V190.516Z" fill="white" stroke="white" stroke-width="2" stroke-miterlimit="10"/>
<path d="M206.438 216.433L201.015 219.982V214.969L206.438 211.42V216.433Z" fill="white" stroke="white" stroke-width="2" stroke-miterlimit="10"/>
<path d="M216.955 209.55L211.532 213.099V208.086L216.955 204.537V209.55Z" stroke="white" stroke-width="2" stroke-miterlimit="10"/>
<path d="M227.472 202.668L222.049 206.217V201.204L227.472 197.655V202.668Z" stroke="white" stroke-width="2" stroke-miterlimit="10"/>
<path d="M206.438 228.585L201.015 232.134V227.121L206.438 223.573V228.585Z" stroke="white" stroke-width="2" stroke-miterlimit="10"/>
<path d="M216.955 221.703L211.532 225.251V220.239L216.955 216.69V221.703Z" fill="white" stroke="white" stroke-width="2" stroke-miterlimit="10"/>
<path d="M227.472 214.82L222.049 218.369V213.356L227.472 209.807V214.82Z" stroke="white" stroke-width="2" stroke-miterlimit="10"/>
<path d="M206.438 240.737L201.015 244.286V239.273L206.438 235.724V240.737Z" stroke="white" stroke-width="2" stroke-miterlimit="10"/>
<path d="M216.955 233.855L211.532 237.404V232.391L216.955 228.842V233.855Z" fill="white" stroke="white" stroke-width="2" stroke-miterlimit="10"/>
<path d="M227.472 226.972L222.049 230.52V225.508L227.472 221.959V226.972Z" stroke="white" stroke-width="2" stroke-miterlimit="10"/>
<path d="M206.438 252.89L201.015 256.439V251.426L206.438 247.877V252.89Z" fill="white" stroke="white" stroke-width="2" stroke-miterlimit="10"/>
<path d="M216.955 246.007L211.532 249.556V244.543L216.955 240.994V246.007Z" stroke="white" stroke-width="2" stroke-miterlimit="10"/>
<path d="M227.472 239.125L222.049 242.673V237.661L227.472 234.112V239.125Z" stroke="white" stroke-width="2" stroke-miterlimit="10"/>
<path d="M206.438 265.042L201.015 268.591V263.578L206.438 260.029V265.042Z" stroke="white" stroke-width="2" stroke-miterlimit="10"/>
<path d="M216.955 258.159L211.532 261.708V256.696L216.955 253.147V258.159Z" stroke="white" stroke-width="2" stroke-miterlimit="10"/>
<path d="M227.472 251.276L222.049 254.825V249.812L227.472 246.264V251.276Z" fill="white" stroke="white" stroke-width="2" stroke-miterlimit="10"/>
<path d="M206.438 277.194L201.015 280.743V275.73L206.438 272.181V277.194Z" stroke="white" stroke-width="2" stroke-miterlimit="10"/>
<path d="M216.955 270.311L211.532 273.86V268.847L216.955 265.298V270.311Z" stroke="white" stroke-width="2" stroke-miterlimit="10"/>
<path d="M227.472 263.429L222.049 266.977V261.965L227.472 258.416V263.429Z" stroke="white" stroke-width="2" stroke-miterlimit="10"/>
<path d="M206.438 289.346L201.015 292.895V287.882L206.438 284.333V289.346Z" stroke="white" stroke-width="2" stroke-miterlimit="10"/>
<path d="M216.955 282.463L211.532 286.012V280.999L216.955 277.45V282.463Z" stroke="white" stroke-width="2" stroke-miterlimit="10"/>
<path d="M227.472 275.581L222.049 279.129V274.117L227.472 270.568V275.581Z" stroke="white" stroke-width="2" stroke-miterlimit="10"/>
<path d="M206.438 301.497L201.015 305.046V300.034L206.438 296.485V301.497Z" stroke="white" stroke-width="2" stroke-miterlimit="10"/>
<path d="M216.955 294.615L211.532 298.164V293.151L216.955 289.603V294.615Z" stroke="white" stroke-width="2" stroke-miterlimit="10"/>
<path d="M227.472 287.733L222.049 291.281V286.269L227.472 282.72V287.733Z" stroke="white" stroke-width="2" stroke-miterlimit="10"/>
<path d="M206.438 313.649L201.015 317.198V312.185L206.438 308.637V313.649Z" stroke="white" stroke-width="2" stroke-miterlimit="10"/>
<path d="M216.955 306.767L211.532 310.316V305.303L216.955 301.754V306.767Z" stroke="white" stroke-width="2" stroke-miterlimit="10"/>
<path d="M227.472 299.884L222.049 303.433V298.421L227.472 294.872V299.884Z" stroke="white" stroke-width="2" stroke-miterlimit="10"/>
<path d="M306.546 266.282L301.123 269.17V264.157L306.546 261.269V266.282Z" fill="white" stroke="white" stroke-width="2" stroke-miterlimit="10"/>
<path d="M317.062 260.681L311.64 263.569V258.556L317.062 255.668V260.681Z" fill="white" stroke="white" stroke-width="2" stroke-miterlimit="10"/>
<path d="M327.579 255.079L322.157 257.967V252.955L327.579 250.067V255.079Z" fill="white" stroke="white" stroke-width="2" stroke-miterlimit="10"/>
<path d="M306.546 278.434L301.123 281.322V276.309L306.546 273.421V278.434Z" fill="white" stroke="white" stroke-width="2" stroke-miterlimit="10"/>
<path d="M317.062 272.833L311.64 275.721V270.708L317.062 267.82V272.833Z" fill="white" stroke="white" stroke-width="2" stroke-miterlimit="10"/>
<path d="M327.579 267.231L322.157 270.119V265.107L327.579 262.219V267.231Z" fill="white" stroke="white" stroke-width="2" stroke-miterlimit="10"/>
<path d="M306.546 290.586L301.123 293.474V288.461L306.546 285.573V290.586Z" fill="white" stroke="white" stroke-width="2" stroke-miterlimit="10"/>
<path d="M317.062 284.985L311.64 287.873V282.86L317.062 279.972V284.985Z" fill="white" stroke="white" stroke-width="2" stroke-miterlimit="10"/>
<path d="M327.579 279.383L322.157 282.271V277.259L327.579 274.37V279.383Z" fill="white" stroke="white" stroke-width="2" stroke-miterlimit="10"/>
<path d="M306.546 302.737L301.123 305.625V300.613L306.546 297.724V302.737Z" fill="white" stroke="white" stroke-width="2" stroke-miterlimit="10"/>
<path d="M317.062 297.136L311.64 300.024V295.012L317.062 292.124V297.136Z" fill="white" stroke="white" stroke-width="2" stroke-miterlimit="10"/>
<path d="M327.579 291.535L322.157 294.423V289.41L327.579 286.522V291.535Z" fill="white" stroke="white" stroke-width="2" stroke-miterlimit="10"/>
<path d="M306.546 314.89L301.123 317.778V312.765L306.546 309.877V314.89Z" fill="white" stroke="white" stroke-width="2" stroke-miterlimit="10"/>
<path d="M317.062 309.288L311.64 312.177V307.164L317.062 304.276V309.288Z" fill="white" stroke="white" stroke-width="2" stroke-miterlimit="10"/>
<path d="M327.579 303.687L322.157 306.576V301.563L327.579 298.675V303.687Z" stroke="white" stroke-width="2" stroke-miterlimit="10"/>
<path d="M306.546 327.042L301.123 329.93V324.918L306.546 322.03V327.042Z" stroke="white" stroke-width="2" stroke-miterlimit="10"/>
<path d="M317.062 321.441L311.64 324.329V319.316L317.062 316.428V321.441Z" stroke="white" stroke-width="2" stroke-miterlimit="10"/>
<path d="M327.579 315.839L322.157 318.727V313.715L327.579 310.826V315.839Z" fill="white" stroke="white" stroke-width="2" stroke-miterlimit="10"/>
<path d="M306.546 339.194L301.123 342.082V337.07L306.546 334.182V339.194Z" fill="white" stroke="white" stroke-width="2" stroke-miterlimit="10"/>
<path d="M317.062 333.592L311.64 336.481V331.468L317.062 328.58V333.592Z" stroke="white" stroke-width="2" stroke-miterlimit="10"/>
<path d="M327.579 327.991L322.157 330.88V325.867L327.579 322.979V327.991Z" fill="white" stroke="white" stroke-width="2" stroke-miterlimit="10"/>
<path d="M306.546 351.347L301.123 354.235V349.222L306.546 346.334V351.347Z" stroke="white" stroke-width="2" stroke-miterlimit="10"/>
<path d="M317.062 345.745L311.64 348.633V343.621L317.062 340.732V345.745Z" stroke="white" stroke-width="2" stroke-miterlimit="10"/>
<path d="M327.579 340.143L322.157 343.032V338.019L327.579 335.131V340.143Z" fill="white" stroke="white" stroke-width="2" stroke-miterlimit="10"/>
<path d="M306.546 363.499L301.123 366.387V361.374L306.546 358.486V363.499Z" fill="white" stroke="white" stroke-width="2" stroke-miterlimit="10"/>
<path d="M317.062 357.897L311.64 360.785V355.772L317.062 352.884V357.897Z" stroke="white" stroke-width="2" stroke-miterlimit="10"/>
<path d="M327.579 352.296L322.157 355.184V350.171L327.579 347.283V352.296Z" stroke="white" stroke-width="2" stroke-miterlimit="10"/>
<path d="M306.546 375.65L301.123 378.538V373.525L306.546 370.637V375.65Z" stroke="white" stroke-width="2" stroke-miterlimit="10"/>
<path d="M317.062 370.049L311.64 372.937V367.924L317.062 365.036V370.049Z" stroke="white" stroke-width="2" stroke-miterlimit="10"/>
<path d="M327.579 364.448L322.157 367.336V362.323L327.579 359.435V364.448Z" fill="white" stroke="white" stroke-width="2" stroke-miterlimit="10"/>
<path d="M306.546 387.802L301.123 390.69V385.678L306.546 382.789V387.802Z" stroke="white" stroke-width="2" stroke-miterlimit="10"/>
<path d="M317.062 382.201L311.64 385.089V380.076L317.062 377.188V382.201Z" stroke="white" stroke-width="2" stroke-miterlimit="10"/>
<path d="M327.579 376.6L322.157 379.488V374.475L327.579 371.587V376.6Z" stroke="white" stroke-width="2" stroke-miterlimit="10"/>
<path d="M317.062 394.353L311.64 397.241V392.229L317.062 389.341V394.353Z" stroke="white" stroke-width="2" stroke-miterlimit="10"/>
<path d="M327.579 388.752L322.157 391.64V386.627L327.579 383.739V388.752Z" stroke="white" stroke-width="2" stroke-miterlimit="10"/>
<path d="M317.062 406.505L311.64 409.393V404.381L317.062 401.492V406.505Z" stroke="white" stroke-width="2" stroke-miterlimit="10"/>
<path d="M327.579 413.056L322.157 415.944V410.931L327.579 408.043V413.056Z" stroke="white" stroke-width="2" stroke-miterlimit="10"/>
<path d="M338.095 249.918L332.673 252.806V247.794L338.095 244.906V249.918Z" fill="white" stroke="white" stroke-width="2" stroke-miterlimit="10"/>
<path d="M338.095 262.07L332.673 264.958V259.946L338.095 257.058V262.07Z" fill="white" stroke="white" stroke-width="2" stroke-miterlimit="10"/>
<path d="M338.095 274.223L332.673 277.111V272.098L338.095 269.21V274.223Z" stroke="white" stroke-width="2" stroke-miterlimit="10"/>
<path d="M338.095 286.375L332.673 289.263V284.25L338.095 281.362V286.375Z" stroke="white" stroke-width="2" stroke-miterlimit="10"/>
<path d="M338.095 298.526L332.673 301.415V296.402L338.095 293.514V298.526Z" stroke="white" stroke-width="2" stroke-miterlimit="10"/>
<path d="M338.095 310.678L332.673 313.566V308.554L338.095 305.666V310.678Z" fill="white" stroke="white" stroke-width="2" stroke-miterlimit="10"/>
<path d="M338.095 322.831L332.673 325.719V320.706L338.095 317.818V322.831Z" stroke="white" stroke-width="2" stroke-miterlimit="10"/>
<path d="M338.095 334.982L332.673 337.871V332.858L338.095 329.97V334.982Z" stroke="white" stroke-width="2" stroke-miterlimit="10"/>
<path d="M338.095 347.135L332.673 350.023V345.01L338.095 342.122V347.135Z" stroke="white" stroke-width="2" stroke-miterlimit="10"/>
<path d="M338.095 359.287L332.673 362.175V357.162L338.095 354.274V359.287Z" stroke="white" stroke-width="2" stroke-miterlimit="10"/>
<path d="M338.095 383.591L332.673 386.479V381.466L338.095 378.578V383.591Z" stroke="white" stroke-width="2" stroke-miterlimit="10"/>
<path d="M338.095 395.743L332.673 398.631V393.619L338.095 390.73V395.743Z" stroke="white" stroke-width="2" stroke-miterlimit="10"/>
<path d="M338.095 420.047L332.673 422.936V417.923L338.095 415.035V420.047Z" stroke="white" stroke-width="2" stroke-miterlimit="10"/>
<path d="M382.627 271.161L388.05 274.939V269.926L382.627 266.148V271.161Z" fill="white" stroke="white" stroke-width="2" stroke-miterlimit="10"/>
<path d="M372.111 263.833L377.533 267.611V262.599L372.111 258.82V263.833Z" fill="white" stroke="white" stroke-width="2" stroke-miterlimit="10"/>
<path d="M361.593 256.506L367.016 260.284V255.271L361.593 251.493V256.506Z" fill="white" stroke="white" stroke-width="2" stroke-miterlimit="10"/>
<path d="M382.627 283.313L388.05 287.091V282.078L382.627 278.3V283.313Z" fill="white" stroke="white" stroke-width="2" stroke-miterlimit="10"/>
<path d="M372.111 275.985L377.533 279.763V274.75L372.111 270.972V275.985Z" fill="white" stroke="white" stroke-width="2" stroke-miterlimit="10"/>
<path d="M361.593 268.657L367.016 272.435V267.422L361.593 263.644V268.657Z" fill="white" stroke="white" stroke-width="2" stroke-miterlimit="10"/>
<path d="M382.627 295.464L388.05 299.243V294.23L382.627 290.452V295.464Z" fill="white" stroke="white" stroke-width="2" stroke-miterlimit="10"/>
<path d="M372.111 288.137L377.533 291.915V286.903L372.111 283.124V288.137Z" stroke="white" stroke-width="2" stroke-miterlimit="10"/>
<path d="M361.593 280.809L367.016 284.587V279.575L361.593 275.796V280.809Z" fill="white" stroke="white" stroke-width="2" stroke-miterlimit="10"/>
<path d="M382.627 307.617L388.05 311.395V306.383L382.627 302.604V307.617Z" stroke="white" stroke-width="2" stroke-miterlimit="10"/>
<path d="M372.111 300.289L377.533 304.067V299.055L372.111 295.276V300.289Z" fill="white" stroke="white" stroke-width="2" stroke-miterlimit="10"/>
<path d="M361.593 292.961L367.016 296.74V291.727L361.593 287.948V292.961Z" stroke="white" stroke-width="2" stroke-miterlimit="10"/>
<path d="M382.627 319.769L388.05 323.547V318.535L382.627 314.756V319.769Z" stroke="white" stroke-width="2" stroke-miterlimit="10"/>
<path d="M372.111 312.441L377.533 316.22V311.207L372.111 307.429V312.441Z" fill="white" stroke="white" stroke-width="2" stroke-miterlimit="10"/>
<path d="M361.593 305.114L367.016 308.892V303.879L361.593 300.101V305.114Z" fill="white" stroke="white" stroke-width="2" stroke-miterlimit="10"/>
<path d="M382.627 331.92L388.05 335.699V330.686L382.627 326.908V331.92Z" fill="white" stroke="white" stroke-width="2" stroke-miterlimit="10"/>
<path d="M372.111 324.593L377.533 328.371V323.358L372.111 319.58V324.593Z" stroke="white" stroke-width="2" stroke-miterlimit="10"/>
<path d="M361.593 317.266L367.016 321.044V316.031L361.593 312.253V317.266Z" fill="white" stroke="white" stroke-width="2" stroke-miterlimit="10"/>
<path d="M382.627 344.073L388.05 347.851V342.838L382.627 339.06V344.073Z" stroke="white" stroke-width="2" stroke-miterlimit="10"/>
<path d="M372.111 336.745L377.533 340.524V335.511L372.111 331.733V336.745Z" stroke="white" stroke-width="2" stroke-miterlimit="10"/>
<path d="M361.593 329.417L367.016 333.196V328.183L361.593 324.405V329.417Z" fill="white" stroke="white" stroke-width="2" stroke-miterlimit="10"/>
<path d="M382.627 356.225L388.05 360.003V354.99L382.627 351.212V356.225Z" stroke="white" stroke-width="2" stroke-miterlimit="10"/>
<path d="M372.111 348.897L377.533 352.675V347.662L372.111 343.884V348.897Z" fill="white" stroke="white" stroke-width="2" stroke-miterlimit="10"/>
<path d="M361.593 341.569L367.016 345.347V340.335L361.593 336.556V341.569Z" stroke="white" stroke-width="2" stroke-miterlimit="10"/>
<path d="M382.627 368.376L388.05 372.155V367.142L382.627 363.364V368.376Z" stroke="white" stroke-width="2" stroke-miterlimit="10"/>
<path d="M372.111 361.049L377.533 364.828V359.815L372.111 356.036V361.049Z" stroke="white" stroke-width="2" stroke-miterlimit="10"/>
<path d="M361.593 353.721L367.016 357.5V352.487L361.593 348.708V353.721Z" fill="white" stroke="white" stroke-width="2" stroke-miterlimit="10"/>
<path d="M382.627 380.529L388.05 384.307V379.294L382.627 375.516V380.529Z" stroke="white" stroke-width="2" stroke-miterlimit="10"/>
<path d="M372.111 373.201L377.533 376.979V371.967L372.111 368.188V373.201Z" stroke="white" stroke-width="2" stroke-miterlimit="10"/>
<path d="M361.593 365.874L367.016 369.652V364.64L361.593 360.861V365.874Z" stroke="white" stroke-width="2" stroke-miterlimit="10"/>
<path d="M382.627 392.681L388.05 396.46V391.447L382.627 387.669V392.681Z" stroke="white" stroke-width="2" stroke-miterlimit="10"/>
<path d="M372.111 385.354L377.533 389.132V384.119L372.111 380.341V385.354Z" stroke="white" stroke-width="2" stroke-miterlimit="10"/>
<path d="M361.593 378.025L367.016 381.804V376.791L361.593 373.013V378.025Z" stroke="white" stroke-width="2" stroke-miterlimit="10"/>
<path d="M382.627 404.834L388.05 408.612V403.599L382.627 399.821V404.834Z" stroke="white" stroke-width="2" stroke-miterlimit="10"/>
<path d="M372.111 397.505L377.533 401.284V396.271L372.111 392.493V397.505Z" stroke="white" stroke-width="2" stroke-miterlimit="10"/>
<path d="M361.593 390.178L367.016 393.956V388.944L361.593 385.165V390.178Z" stroke="white" stroke-width="2" stroke-miterlimit="10"/>
<path d="M382.627 416.985L388.05 420.764V415.751L382.627 411.973V416.985Z" stroke="white" stroke-width="2" stroke-miterlimit="10"/>
<path d="M372.111 409.658L377.533 413.436V408.424L372.111 404.645V409.658Z" stroke="white" stroke-width="2" stroke-miterlimit="10"/>
<path d="M382.627 429.137L388.05 432.916V427.903L382.627 424.125V429.137Z" stroke="white" stroke-width="2" stroke-miterlimit="10"/>
<path d="M361.593 414.482L367.016 418.26V413.248L361.593 409.469V414.482Z" stroke="white" stroke-width="2" stroke-miterlimit="10"/>
<path d="M372.111 433.961L377.533 437.74V432.727L372.111 428.949V433.961Z" stroke="white" stroke-width="2" stroke-miterlimit="10"/>
<path d="M351.077 249.618L356.5 253.396V248.384L351.077 244.605V249.618Z" fill="white" stroke="white" stroke-width="2" stroke-miterlimit="10"/>
<path d="M351.077 261.77L356.5 265.548V260.535L351.077 256.757V261.77Z" fill="white" stroke="white" stroke-width="2" stroke-miterlimit="10"/>
<path d="M351.077 273.922L356.5 277.7V272.687L351.077 268.909V273.922Z" fill="white" stroke="white" stroke-width="2" stroke-miterlimit="10"/>
<path d="M351.077 286.074L356.5 289.852V284.839L351.077 281.061V286.074Z" fill="white" stroke="white" stroke-width="2" stroke-miterlimit="10"/>
<path d="M351.077 298.226L356.5 302.004V296.991L351.077 293.213V298.226Z" stroke="white" stroke-width="2" stroke-miterlimit="10"/>
<path d="M351.077 310.378L356.5 314.156V309.144L351.077 305.365V310.378Z" stroke="white" stroke-width="2" stroke-miterlimit="10"/>
<path d="M351.077 322.53L356.5 326.309V321.296L351.077 317.518V322.53Z" stroke="white" stroke-width="2" stroke-miterlimit="10"/>
<path d="M351.077 334.682L356.5 338.46V333.447L351.077 329.669V334.682Z" stroke="white" stroke-width="2" stroke-miterlimit="10"/>
<path d="M351.077 346.835L356.5 350.613V345.6L351.077 341.822V346.835Z" stroke="white" stroke-width="2" stroke-miterlimit="10"/>
<path d="M351.077 358.987L356.5 362.765V357.752L351.077 353.974V358.987Z" stroke="white" stroke-width="2" stroke-miterlimit="10"/>
<path d="M351.077 371.138L356.5 374.917V369.904L351.077 366.126V371.138Z" stroke="white" stroke-width="2" stroke-miterlimit="10"/>
<path d="M351.077 395.442L356.5 399.221V394.208L351.077 390.43V395.442Z" stroke="white" stroke-width="2" stroke-miterlimit="10"/>
<path d="M351.077 407.594L356.5 411.373V406.36L351.077 402.582V407.594Z" stroke="white" stroke-width="2" stroke-miterlimit="10"/>
<path d="M351.077 419.746L356.5 423.525V418.512L351.077 414.734V419.746Z" stroke="white" stroke-width="2" stroke-miterlimit="10"/>
<path d="M317.115 202.5L311.693 205.233V200.221L317.115 197.487V202.5Z" fill="white" stroke="white" stroke-width="2" stroke-miterlimit="10"/>
<path d="M327.631 197.199L322.209 199.933V194.92L327.631 192.187V197.199Z" fill="white" stroke="white" stroke-width="2" stroke-miterlimit="10"/>
<path d="M338.149 191.897L332.726 194.631V189.618L338.149 186.885V191.897Z" fill="white" stroke="white" stroke-width="2" stroke-miterlimit="10"/>
<path d="M317.115 214.652L311.693 217.386V212.373L317.115 209.64V214.652Z" fill="white" stroke="white" stroke-width="2" stroke-miterlimit="10"/>
<path d="M327.631 209.351L322.209 212.085V207.072L327.631 204.338V209.351Z" fill="white" stroke="white" stroke-width="2" stroke-miterlimit="10"/>
<path d="M338.149 204.05L332.726 206.783V201.771L338.149 199.037V204.05Z" fill="white" stroke="white" stroke-width="2" stroke-miterlimit="10"/>
<path d="M317.115 226.804L311.693 229.538V224.525L317.115 221.792V226.804Z" fill="white" stroke="white" stroke-width="2" stroke-miterlimit="10"/>
<path d="M327.631 221.503L322.209 224.236V219.223L327.631 216.49V221.503Z" fill="white" stroke="white" stroke-width="2" stroke-miterlimit="10"/>
<path d="M338.149 216.201L332.726 218.935V213.922L338.149 211.189V216.201Z" fill="white" stroke="white" stroke-width="2" stroke-miterlimit="10"/>
<path d="M317.115 238.955L311.693 241.689V236.676L317.115 233.943V238.955Z" fill="white" stroke="white" stroke-width="2" stroke-miterlimit="10"/>
<path d="M327.631 233.655L322.209 236.388V231.376L327.631 228.642V233.655Z" fill="white" stroke="white" stroke-width="2" stroke-miterlimit="10"/>
<path d="M338.149 228.354L332.726 231.087V226.075L338.149 223.341V228.354Z" fill="white" stroke="white" stroke-width="2" stroke-miterlimit="10"/>
<path d="M372.163 207.622L377.585 211.171V206.158L372.163 202.61V207.622Z" fill="white" stroke="white" stroke-width="2" stroke-miterlimit="10"/>
<path d="M361.647 200.74L367.069 204.289V199.276L361.647 195.727V200.74Z" fill="white" stroke="white" stroke-width="2" stroke-miterlimit="10"/>
<path d="M351.13 193.858L356.552 197.407V192.394L351.13 188.845V193.858Z" fill="white" stroke="white" stroke-width="2" stroke-miterlimit="10"/>
<path d="M372.163 219.775L377.585 223.324V218.311L372.163 214.762V219.775Z" fill="white" stroke="white" stroke-width="2" stroke-miterlimit="10"/>
<path d="M361.647 212.892L367.069 216.441V211.429L361.647 207.88V212.892Z" fill="white" stroke="white" stroke-width="2" stroke-miterlimit="10"/>
<path d="M351.13 206.009L356.552 209.558V204.545L351.13 200.996V206.009Z" fill="white" stroke="white" stroke-width="2" stroke-miterlimit="10"/>
<path d="M372.163 231.927L377.585 235.476V230.463L372.163 226.914V231.927Z" fill="white" stroke="white" stroke-width="2" stroke-miterlimit="10"/>
<path d="M361.647 225.044L367.069 228.593V223.581L361.647 220.032V225.044Z" fill="white" stroke="white" stroke-width="2" stroke-miterlimit="10"/>
<path d="M351.13 218.162L356.552 221.711V216.698L351.13 213.149V218.162Z" fill="white" stroke="white" stroke-width="2" stroke-miterlimit="10"/>
<path d="M372.163 244.079L377.585 247.628V242.616L372.163 239.067V244.079Z" fill="white" stroke="white" stroke-width="2" stroke-miterlimit="10"/>
<path d="M361.647 237.196L367.069 240.745V235.732L361.647 232.184V237.196Z" fill="white" stroke="white" stroke-width="2" stroke-miterlimit="10"/>
<path d="M351.13 230.314L356.552 233.863V228.85L351.13 225.301V230.314Z" fill="white" stroke="white" stroke-width="2" stroke-miterlimit="10"/>
<path d="M233.171 2V276.461" stroke="white" stroke-width="3" stroke-miterlimit="10"/>
<path d="M345.417 231.839V364.827" stroke="white" stroke-width="3" stroke-miterlimit="10"/>
<path d="M305.773 253.303V197.842L345.417 176.378L383.472 203.482V258.82" stroke="white" stroke-width="3" stroke-miterlimit="10"/>
<path d="M345.417 176.378V231.838" stroke="white" stroke-width="3" stroke-miterlimit="10"/>
<path d="M1.55207 274.849L76.8923 311.375L76.5334 141.61L124.733 107.28L176.205 135.149V358.616L195.116 367.612V29.105L233.171 2.00037L272.814 23.4649V404.216L293.945 414.623V259.708L345.417 231.839L393.616 266.169L393.28 461.865L448.704 488.406" stroke="white" stroke-width="3" stroke-miterlimit="10"/>
<path d="M124.733 107.28V229.715" stroke="white" stroke-width="3" stroke-miterlimit="10"/>
<path d="M163.603 141.723L169.025 144.612V139.599L163.603 136.711V141.723Z" fill="white" stroke="white" stroke-width="2" stroke-miterlimit="10"/>
<path d="M153.086 136.122L158.509 139.01V133.998L153.086 131.109V136.122Z" fill="white" stroke="white" stroke-width="2" stroke-miterlimit="10"/>
<path d="M142.569 130.521L147.991 133.409V128.396L142.569 125.508V130.521Z" fill="white" stroke="white" stroke-width="2" stroke-miterlimit="10"/>
<path d="M163.603 153.875L169.025 156.763V151.751L163.603 148.863V153.875Z" fill="white" stroke="white" stroke-width="2" stroke-miterlimit="10"/>
<path d="M153.086 148.274L158.509 151.162V146.149L153.086 143.261V148.274Z" fill="white" stroke="white" stroke-width="2" stroke-miterlimit="10"/>
<path d="M142.569 142.673L147.991 145.561V140.548L142.569 137.66V142.673Z" fill="white" stroke="white" stroke-width="2" stroke-miterlimit="10"/>
<path d="M163.603 166.027L169.025 168.915V163.903L163.603 161.014V166.027Z" fill="white" stroke="white" stroke-width="2" stroke-miterlimit="10"/>
<path d="M153.086 160.426L158.509 163.314V158.301L153.086 155.413V160.426Z" fill="white" stroke="white" stroke-width="2" stroke-miterlimit="10"/>
<path d="M142.569 154.825L147.991 157.713V152.7L142.569 149.812V154.825Z" fill="white" stroke="white" stroke-width="2" stroke-miterlimit="10"/>
<path d="M163.603 178.18L169.025 181.068V176.055L163.603 173.167V178.18Z" fill="white" stroke="white" stroke-width="2" stroke-miterlimit="10"/>
<path d="M153.086 172.578L158.509 175.466V170.453L153.086 167.565V172.578Z" fill="white" stroke="white" stroke-width="2" stroke-miterlimit="10"/>
<path d="M142.569 166.976L147.991 169.865V164.852L142.569 161.964V166.976Z" fill="white" stroke="white" stroke-width="2" stroke-miterlimit="10"/>
<path d="M163.603 190.331L169.025 193.219V188.207L163.603 185.319V190.331Z" stroke="white" stroke-width="2" stroke-miterlimit="10"/>
<path d="M153.086 184.73L158.509 187.618V182.605L153.086 179.717V184.73Z" stroke="white" stroke-width="2" stroke-miterlimit="10"/>
<path d="M142.569 179.128L147.991 182.016V177.004L142.569 174.116V179.128Z" fill="white" stroke="white" stroke-width="2" stroke-miterlimit="10"/>
<path d="M163.603 202.483L169.025 205.371V200.359L163.603 197.47V202.483Z" stroke="white" stroke-width="2" stroke-miterlimit="10"/>
<path d="M153.086 196.882L158.509 199.77V194.758L153.086 191.87V196.882Z" fill="white" stroke="white" stroke-width="2" stroke-miterlimit="10"/>
<path d="M142.569 191.281L147.991 194.169V189.156L142.569 186.268V191.281Z" fill="white" stroke="white" stroke-width="2" stroke-miterlimit="10"/>
<path d="M163.603 214.636L169.025 217.524V212.511L163.603 209.623V214.636Z" stroke="white" stroke-width="2" stroke-miterlimit="10"/>
<path d="M153.086 209.034L158.509 211.922V206.909L153.086 204.021V209.034Z" fill="white" stroke="white" stroke-width="2" stroke-miterlimit="10"/>
<path d="M142.569 203.433L147.991 206.321V201.308L142.569 198.42V203.433Z" fill="white" stroke="white" stroke-width="2" stroke-miterlimit="10"/>
<path d="M163.603 226.787L169.025 229.675V224.662L163.603 221.774V226.787Z" stroke="white" stroke-width="2" stroke-miterlimit="10"/>
<path d="M153.086 221.187L158.509 224.075V219.062L153.086 216.174V221.187Z" fill="white" stroke="white" stroke-width="2" stroke-miterlimit="10"/>
<path d="M142.569 215.585L147.991 218.473V213.46L142.569 210.572V215.585Z" stroke="white" stroke-width="2" stroke-miterlimit="10"/>
<path d="M163.603 238.94L169.025 241.828V236.815L163.603 233.927V238.94Z" stroke="white" stroke-width="2" stroke-miterlimit="10"/>
<path d="M153.086 233.338L158.509 236.227V231.214L153.086 228.326V233.338Z" stroke="white" stroke-width="2" stroke-miterlimit="10"/>
<path d="M142.569 227.737L147.991 230.625V225.613L142.569 222.724V227.737Z" fill="white" stroke="white" stroke-width="2" stroke-miterlimit="10"/>
<path d="M163.603 251.092L169.025 253.98V248.967L163.603 246.079V251.092Z" stroke="white" stroke-width="2" stroke-miterlimit="10"/>
<path d="M153.086 245.49L158.509 248.378V243.366L153.086 240.478V245.49Z" stroke="white" stroke-width="2" stroke-miterlimit="10"/>
<path d="M142.569 239.889L147.991 242.777V237.765L142.569 234.876V239.889Z" fill="white" stroke="white" stroke-width="2" stroke-miterlimit="10"/>
<path d="M163.603 263.244L169.025 266.132V261.119L163.603 258.231V263.244Z" stroke="white" stroke-width="2" stroke-miterlimit="10"/>
<path d="M153.086 257.642L158.509 260.53V255.518L153.086 252.63V257.642Z" stroke="white" stroke-width="2" stroke-miterlimit="10"/>
<path d="M142.569 252.041L147.991 254.929V249.916L142.569 247.028V252.041Z" fill="white" stroke="white" stroke-width="2" stroke-miterlimit="10"/>
<path d="M163.603 275.395L169.025 278.284V273.271L163.603 270.383V275.395Z" stroke="white" stroke-width="2" stroke-miterlimit="10"/>
<path d="M153.086 269.794L158.509 272.682V267.669L153.086 264.781V269.794Z" fill="white" stroke="white" stroke-width="2" stroke-miterlimit="10"/>
<path d="M142.569 264.193L147.991 267.081V262.069L142.569 259.181V264.193Z" stroke="white" stroke-width="2" stroke-miterlimit="10"/>
<path d="M163.603 287.548L169.025 290.436V285.423L163.603 282.535V287.548Z" stroke="white" stroke-width="2" stroke-miterlimit="10"/>
<path d="M153.086 281.947L158.509 284.835V279.822L153.086 276.934V281.947Z" stroke="white" stroke-width="2" stroke-miterlimit="10"/>
<path d="M142.569 276.346L147.991 279.234V274.221L142.569 271.333V276.346Z" stroke="white" stroke-width="2" stroke-miterlimit="10"/>
<path d="M163.603 299.699L169.025 302.588V297.575L163.603 294.687V299.699Z" stroke="white" stroke-width="2" stroke-miterlimit="10"/>
<path d="M153.086 294.099L158.509 296.987V291.974L153.086 289.086V294.099Z" stroke="white" stroke-width="2" stroke-miterlimit="10"/>
<path d="M142.569 288.498L147.991 291.386V286.373L142.569 283.485V288.498Z" stroke="white" stroke-width="2" stroke-miterlimit="10"/>
<path d="M163.603 311.852L169.025 314.74V309.728L163.603 306.839V311.852Z" stroke="white" stroke-width="2" stroke-miterlimit="10"/>
<path d="M142.569 300.649L147.991 303.537V298.524L142.569 295.636V300.649Z" stroke="white" stroke-width="2" stroke-miterlimit="10"/>
<path d="M153.086 318.402L158.509 321.29V316.278L153.086 313.39V318.402Z" stroke="white" stroke-width="2" stroke-miterlimit="10"/>
<path d="M132.052 125.36L137.475 128.248V123.235L132.052 120.347V125.36Z" fill="white" stroke="white" stroke-width="2" stroke-miterlimit="10"/>
<path d="M132.052 137.512L137.475 140.4V135.387L132.052 132.499V137.512Z" fill="white" stroke="white" stroke-width="2" stroke-miterlimit="10"/>
<path d="M132.052 149.664L137.475 152.552V147.539L132.052 144.651V149.664Z" fill="white" stroke="white" stroke-width="2" stroke-miterlimit="10"/>
<path d="M132.052 161.816L137.475 164.704V159.691L132.052 156.803V161.816Z" fill="white" stroke="white" stroke-width="2" stroke-miterlimit="10"/>
<path d="M132.052 173.968L137.475 176.856V171.844L132.052 168.956V173.968Z" fill="white" stroke="white" stroke-width="2" stroke-miterlimit="10"/>
<path d="M132.052 186.12L137.475 189.008V183.995L132.052 181.107V186.12Z" stroke="white" stroke-width="2" stroke-miterlimit="10"/>
<path d="M132.052 198.272L137.475 201.16V196.147L132.052 193.259V198.272Z" stroke="white" stroke-width="2" stroke-miterlimit="10"/>
<path d="M132.052 210.424L137.475 213.312V208.299L132.052 205.411V210.424Z" stroke="white" stroke-width="2" stroke-miterlimit="10"/>
<path d="M132.052 222.576L137.475 225.464V220.451L132.052 217.563V222.576Z" stroke="white" stroke-width="2" stroke-miterlimit="10"/>
<path d="M132.052 234.728L137.475 237.616V232.603L132.052 229.715V234.728Z" stroke="white" stroke-width="2" stroke-miterlimit="10"/>
<path d="M132.052 246.881L137.475 249.769V244.756L132.052 241.868V246.881Z" stroke="white" stroke-width="2" stroke-miterlimit="10"/>
<path d="M132.052 259.032L137.475 261.92V256.908L132.052 254.02V259.032Z" stroke="white" stroke-width="2" stroke-miterlimit="10"/>
<path d="M132.052 271.185L137.475 274.073V269.06L132.052 266.172V271.185Z" stroke="white" stroke-width="2" stroke-miterlimit="10"/>
<path d="M132.052 295.489L137.475 298.377V293.364L132.052 290.476V295.489Z" stroke="white" stroke-width="2" stroke-miterlimit="10"/>
<path d="M132.052 307.641L137.475 310.529V305.516L132.052 302.628V307.641Z" stroke="white" stroke-width="2" stroke-miterlimit="10"/>
<path d="M87.521 146.602L82.0984 150.38V145.367L87.521 141.589V146.602Z" fill="white" stroke="white" stroke-width="2" stroke-miterlimit="10"/>
<path d="M98.0381 139.274L92.6154 143.053V138.04L98.0381 134.261V139.274Z" fill="white" stroke="white" stroke-width="2" stroke-miterlimit="10"/>
<path d="M108.555 131.947L103.132 135.725V130.713L108.555 126.934V131.947Z" fill="white" stroke="white" stroke-width="2" stroke-miterlimit="10"/>
<path d="M87.521 158.754L82.0984 162.532V157.52L87.521 153.741V158.754Z" fill="white" stroke="white" stroke-width="2" stroke-miterlimit="10"/>
<path d="M98.0381 151.426L92.6154 155.205V150.192L98.0381 146.414V151.426Z" fill="white" stroke="white" stroke-width="2" stroke-miterlimit="10"/>
<path d="M108.555 144.099L103.132 147.877V142.865L108.555 139.086V144.099Z" fill="white" stroke="white" stroke-width="2" stroke-miterlimit="10"/>
<path d="M87.521 170.906L82.0984 174.684V169.672L87.521 165.893V170.906Z" fill="white" stroke="white" stroke-width="2" stroke-miterlimit="10"/>
<path d="M98.0381 163.578L92.6154 167.357V162.344L98.0381 158.566V163.578Z" fill="white" stroke="white" stroke-width="2" stroke-miterlimit="10"/>
<path d="M108.555 156.25L103.132 160.029V155.016L108.555 151.238V156.25Z" fill="white" stroke="white" stroke-width="2" stroke-miterlimit="10"/>
<path d="M87.521 183.057L82.0984 186.836V181.823L87.521 178.045V183.057Z" fill="white" stroke="white" stroke-width="2" stroke-miterlimit="10"/>
<path d="M98.0381 175.73L92.6154 179.509V174.496L98.0381 170.718V175.73Z" fill="white" stroke="white" stroke-width="2" stroke-miterlimit="10"/>
<path d="M108.555 168.403L103.132 172.181V167.168L108.555 163.39V168.403Z" fill="white" stroke="white" stroke-width="2" stroke-miterlimit="10"/>
<path d="M87.521 195.21L82.0984 198.989V193.976L87.521 190.198V195.21Z" stroke="white" stroke-width="2" stroke-miterlimit="10"/>
<path d="M98.0381 187.883L92.6154 191.661V186.648L98.0381 182.87V187.883Z" fill="white" stroke="white" stroke-width="2" stroke-miterlimit="10"/>
<path d="M108.555 180.554L103.132 184.333V179.32L108.555 175.542V180.554Z" stroke="white" stroke-width="2" stroke-miterlimit="10"/>
<path d="M87.521 207.362L82.0984 211.141V206.128L87.521 202.35V207.362Z" stroke="white" stroke-width="2" stroke-miterlimit="10"/>
<path d="M98.0381 200.034L92.6154 203.813V198.8L98.0381 195.022V200.034Z" fill="white" stroke="white" stroke-width="2" stroke-miterlimit="10"/>
<path d="M108.555 192.707L103.132 196.485V191.473L108.555 187.694V192.707Z" fill="white" stroke="white" stroke-width="2" stroke-miterlimit="10"/>
<path d="M87.521 219.514L82.0984 223.292V218.28L87.521 214.501V219.514Z" stroke="white" stroke-width="2" stroke-miterlimit="10"/>
<path d="M98.0381 212.186L92.6154 215.964V210.952L98.0381 207.173V212.186Z" fill="white" stroke="white" stroke-width="2" stroke-miterlimit="10"/>
<path d="M108.555 204.859L103.132 208.637V203.624L108.555 199.846V204.859Z" fill="white" stroke="white" stroke-width="2" stroke-miterlimit="10"/>
<path d="M87.521 231.666L82.0984 235.444V230.432L87.521 226.653V231.666Z" stroke="white" stroke-width="2" stroke-miterlimit="10"/>
<path d="M98.0381 224.339L92.6154 228.117V223.105L98.0381 219.326V224.339Z" stroke="white" stroke-width="2" stroke-miterlimit="10"/>
<path d="M108.555 217.011L103.132 220.789V215.777L108.555 211.998V217.011Z" fill="white" stroke="white" stroke-width="2" stroke-miterlimit="10"/>
<path d="M87.521 243.818L82.0984 247.597V242.584L87.521 238.806V243.818Z" stroke="white" stroke-width="2" stroke-miterlimit="10"/>
<path d="M98.0381 236.49L92.6154 240.268V235.256L98.0381 231.477V236.49Z" stroke="white" stroke-width="2" stroke-miterlimit="10"/>
<path d="M108.555 229.162L103.132 232.941V227.928L108.555 224.15V229.162Z" fill="white" stroke="white" stroke-width="2" stroke-miterlimit="10"/>
<path d="M87.521 255.97L82.0984 259.748V254.736L87.521 250.957V255.97Z" stroke="white" stroke-width="2" stroke-miterlimit="10"/>
<path d="M98.0381 248.642L92.6154 252.421V247.408L98.0381 243.63V248.642Z" fill="white" stroke="white" stroke-width="2" stroke-miterlimit="10"/>
<path d="M108.555 241.315L103.132 245.094V240.081L108.555 236.302V241.315Z" stroke="white" stroke-width="2" stroke-miterlimit="10"/>
<path d="M87.521 268.123L82.0984 271.901V266.888L87.521 263.11V268.123Z" stroke="white" stroke-width="2" stroke-miterlimit="10"/>
<path d="M98.0381 260.795L92.6154 264.574V259.561L98.0381 255.783V260.795Z" stroke="white" stroke-width="2" stroke-miterlimit="10"/>
<path d="M108.555 253.467L103.132 257.245V252.233L108.555 248.454V253.467Z" stroke="white" stroke-width="2" stroke-miterlimit="10"/>
<path d="M87.521 280.275L82.0984 284.053V279.04L87.521 275.262V280.275Z" stroke="white" stroke-width="2" stroke-miterlimit="10"/>
<path d="M98.0381 272.947L92.6154 276.725V271.712L98.0381 267.934V272.947Z" stroke="white" stroke-width="2" stroke-miterlimit="10"/>
<path d="M108.555 265.619L103.132 269.398V264.385L108.555 260.607V265.619Z" fill="white" stroke="white" stroke-width="2" stroke-miterlimit="10"/>
<path d="M87.521 292.427L82.0984 296.205V291.192L87.521 287.414V292.427Z" stroke="white" stroke-width="2" stroke-miterlimit="10"/>
<path d="M98.0381 285.099L92.6154 288.877V283.864L98.0381 280.086V285.099Z" stroke="white" stroke-width="2" stroke-miterlimit="10"/>
<path d="M108.555 277.771L103.132 281.55V276.537L108.555 272.759V277.771Z" stroke="white" stroke-width="2" stroke-miterlimit="10"/>
<path d="M108.555 289.924L103.132 293.702V288.689L108.555 284.911V289.924Z" stroke="white" stroke-width="2" stroke-miterlimit="10"/>
<path d="M108.555 302.075L103.132 305.853V300.841L108.555 297.062V302.075Z" stroke="white" stroke-width="2" stroke-miterlimit="10"/>
<path d="M108.555 314.227L103.132 318.005V312.993L108.555 309.214V314.227Z" stroke="white" stroke-width="2" stroke-miterlimit="10"/>
<path d="M119.071 125.06L113.648 128.838V123.825L119.071 120.047V125.06Z" fill="white" stroke="white" stroke-width="2" stroke-miterlimit="10"/>
<path d="M119.071 137.211L113.648 140.99V135.977L119.071 132.199V137.211Z" fill="white" stroke="white" stroke-width="2" stroke-miterlimit="10"/>
<path d="M119.071 149.363L113.648 153.142V148.129L119.071 144.351V149.363Z" fill="white" stroke="white" stroke-width="2" stroke-miterlimit="10"/>
<path d="M119.071 161.515L113.648 165.294V160.281L119.071 156.503V161.515Z" fill="white" stroke="white" stroke-width="2" stroke-miterlimit="10"/>
<path d="M119.071 173.667L113.648 177.445V172.433L119.071 168.654V173.667Z" fill="white" stroke="white" stroke-width="2" stroke-miterlimit="10"/>
<path d="M119.071 185.819L113.648 189.597V184.584L119.071 180.806V185.819Z" stroke="white" stroke-width="2" stroke-miterlimit="10"/>
<path d="M119.071 197.972L113.648 201.75V196.737L119.071 192.959V197.972Z" stroke="white" stroke-width="2" stroke-miterlimit="10"/>
<path d="M119.071 210.124L113.648 213.902V208.889L119.071 205.111V210.124Z" stroke="white" stroke-width="2" stroke-miterlimit="10"/>
<path d="M119.071 222.276L113.648 226.054V221.041L119.071 217.263V222.276Z" stroke="white" stroke-width="2" stroke-miterlimit="10"/>
<path d="M119.071 234.428L113.648 238.206V233.193L119.071 229.415V234.428Z" stroke="white" stroke-width="2" stroke-miterlimit="10"/>
<path d="M119.071 246.58L113.648 250.359V245.346L119.071 241.568V246.58Z" fill="white" stroke="white" stroke-width="2" stroke-miterlimit="10"/>
<path d="M119.071 258.732L113.648 262.51V257.497L119.071 253.719V258.732Z" stroke="white" stroke-width="2" stroke-miterlimit="10"/>
<path d="M119.071 270.885L113.648 274.663V269.65L119.071 265.872V270.885Z" stroke="white" stroke-width="2" stroke-miterlimit="10"/>
<path d="M119.071 283.036L113.648 286.814V281.802L119.071 278.023V283.036Z" stroke="white" stroke-width="2" stroke-miterlimit="10"/>
<path d="M119.071 307.34L113.648 311.118V306.106L119.071 302.327V307.34Z" stroke="white" stroke-width="2" stroke-miterlimit="10"/>
<path d="M261.815 321.894L267.237 324.628V319.615L261.815 316.882V321.894Z" stroke="white" stroke-width="2" stroke-miterlimit="10"/>
<path d="M251.298 316.593L256.72 319.327V314.314L251.298 311.581V316.593Z" stroke="white" stroke-width="2" stroke-miterlimit="10"/>
<path d="M240.781 311.292L246.204 314.025V309.012L240.781 306.279V311.292Z" stroke="white" stroke-width="2" stroke-miterlimit="10"/>
<path d="M261.815 334.046L267.237 336.779V331.766L261.815 329.033V334.046Z" stroke="white" stroke-width="2" stroke-miterlimit="10"/>
<path d="M251.298 328.745L256.72 331.478V326.465L251.298 323.732V328.745Z" stroke="white" stroke-width="2" stroke-miterlimit="10"/>
<path d="M261.815 346.198L267.237 348.931V343.918L261.815 341.185V346.198Z" stroke="white" stroke-width="2" stroke-miterlimit="10"/>
<path d="M251.298 340.896L256.72 343.63V338.617L251.298 335.884V340.896Z" stroke="white" stroke-width="2" stroke-miterlimit="10"/>
<path d="M240.781 335.596L246.204 338.329V333.316L240.781 330.583V335.596Z" stroke="white" stroke-width="2" stroke-miterlimit="10"/>
<path d="M261.815 358.35L267.237 361.084V356.071L261.815 353.338V358.35Z" stroke="white" stroke-width="2" stroke-miterlimit="10"/>
<path d="M240.781 347.748L246.204 350.481V345.468L240.781 342.735V347.748Z" stroke="white" stroke-width="2" stroke-miterlimit="10"/>
<path d="M251.298 365.201L256.72 367.934V362.922L251.298 360.188V365.201Z" stroke="white" stroke-width="2" stroke-miterlimit="10"/>
<path d="M240.781 372.051L246.204 374.785V369.772L240.781 367.039V372.051Z" stroke="white" stroke-width="2" stroke-miterlimit="10"/>
<path d="M206.438 325.802L201.015 329.351V324.338L206.438 320.789V325.802Z" stroke="white" stroke-width="2" stroke-miterlimit="10"/>
<path d="M216.955 318.919L211.532 322.468V317.456L216.955 313.907V318.919Z" stroke="white" stroke-width="2" stroke-miterlimit="10"/>
<path d="M227.472 312.037L222.049 315.586V310.573L227.472 307.024V312.037Z" stroke="white" stroke-width="2" stroke-miterlimit="10"/>
<path d="M206.438 337.954L201.015 341.502V336.49L206.438 332.941V337.954Z" stroke="white" stroke-width="2" stroke-miterlimit="10"/>
<path d="M227.472 324.188L222.049 327.737V322.725L227.472 319.176V324.188Z" stroke="white" stroke-width="2" stroke-miterlimit="10"/>
<path d="M206.438 350.105L201.015 353.654V348.642L206.438 345.093V350.105Z" stroke="white" stroke-width="2" stroke-miterlimit="10"/>
<path d="M216.955 343.223L211.532 346.772V341.759L216.955 338.211V343.223Z" stroke="white" stroke-width="2" stroke-miterlimit="10"/>
<path d="M227.472 336.341L222.049 339.89V334.877L227.472 331.328V336.341Z" stroke="white" stroke-width="2" stroke-miterlimit="10"/>
<path d="M216.955 355.375L211.532 358.924V353.911L216.955 350.362V355.375Z" stroke="white" stroke-width="2" stroke-miterlimit="10"/>
<path d="M216.955 367.527L211.532 371.076V366.063L216.955 362.514V367.527Z" stroke="white" stroke-width="2" stroke-miterlimit="10"/>
<path d="M227.472 372.797L222.049 376.345V371.333L227.472 367.784V372.797Z" stroke="white" stroke-width="2" stroke-miterlimit="10"/>
<path d="M0.528829 273.754L14.3101 266.688C14.9945 266.337 15.835 266.794 15.835 267.518V294.783C15.835 295.734 14.4888 296.094 13.9397 295.289L0.1584 275.09C-0.156244 274.629 0.0130723 274.018 0.528829 273.754Z" fill="white" stroke="white" stroke-width="2" stroke-miterlimit="10"/>
<path d="M446.757 490.203C445.684 489.211 445.684 487.602 446.757 486.609C447.831 485.617 449.571 485.617 450.645 486.609C451.719 487.602 451.719 489.211 450.645 490.203C449.571 491.195 447.831 491.195 446.757 490.203Z" fill="white" stroke="white" stroke-width="2" stroke-miterlimit="10"/>
<path d="M390.434 462.303C390.086 460.937 391.002 459.569 392.48 459.248C393.958 458.926 395.438 459.773 395.785 461.139C396.133 462.506 395.217 463.874 393.739 464.195C392.261 464.516 390.781 463.669 390.434 462.303Z" fill="white" stroke="white" stroke-width="2" stroke-miterlimit="10"/>
<path d="M291.387 415.44C291.143 414.054 292.161 412.749 293.66 412.524C295.158 412.299 296.57 413.24 296.814 414.625C297.057 416.011 296.039 417.316 294.54 417.541C293.042 417.766 291.63 416.825 291.387 415.44Z" fill="white" stroke="white" stroke-width="2" stroke-miterlimit="10"/>
<path d="M272.645 406.913C271.127 406.913 269.896 405.775 269.896 404.371C269.896 402.968 271.127 401.83 272.645 401.83C274.163 401.83 275.394 402.968 275.394 404.371C275.394 405.775 274.163 406.913 272.645 406.913Z" fill="white" stroke="white" stroke-width="2" stroke-miterlimit="10"/>
<path d="M195.251 370.475C193.732 370.475 192.502 369.338 192.502 367.934C192.502 366.531 193.732 365.393 195.251 365.393C196.769 365.393 198 366.531 198 367.934C198 369.338 196.769 370.475 195.251 370.475Z" fill="white" stroke="white" stroke-width="2" stroke-miterlimit="10"/>
<path d="M173.436 359.506C173.088 358.14 174.003 356.771 175.48 356.449C176.958 356.127 178.439 356.972 178.787 358.338C179.136 359.704 178.221 361.073 176.743 361.395C175.266 361.718 173.785 360.872 173.436 359.506Z" fill="white" stroke="white" stroke-width="2" stroke-miterlimit="10"/>
<path d="M74.1102 312.16C73.867 310.775 74.8848 309.47 76.3834 309.245C77.882 309.02 79.294 309.961 79.5372 311.346C79.7804 312.732 78.7627 314.037 77.264 314.262C75.7654 314.486 74.3534 313.546 74.1102 312.16Z" fill="white" stroke="white" stroke-width="2" stroke-miterlimit="10"/>
<path d="M176.11 365.393V367.398" stroke="white" stroke-width="1.97923" stroke-miterlimit="10"/>
<path d="M176.11 371.413V481.85" stroke="white" stroke-width="1.97923" stroke-miterlimit="10" stroke-dasharray="11.89 11.89"/>
<path d="M176.11 483.859V485.864" stroke="white" stroke-width="1.97923" stroke-miterlimit="10"/>
<path d="M195.251 367.882V369.887" stroke="white" stroke-width="1.97923" stroke-miterlimit="10"/>
<path d="M195.251 373.817V481.894" stroke="white" stroke-width="1.97923" stroke-miterlimit="10" stroke-dasharray="11.64 11.64"/>
<path d="M195.251 483.859V485.864" stroke="white" stroke-width="1.97923" stroke-miterlimit="10"/>
<path d="M272.645 403.566V405.571" stroke="white" stroke-width="1.97923" stroke-miterlimit="10"/>
<path d="M272.645 409.692V481.799" stroke="white" stroke-width="1.97923" stroke-miterlimit="10" stroke-dasharray="12.2 12.2"/>
<path d="M272.645 483.86V485.865" stroke="white" stroke-width="1.97923" stroke-miterlimit="10"/>
<path d="M393.105 459.732V461.737" stroke="white" stroke-width="1.97923" stroke-miterlimit="10"/>
<path d="M393.105 466.161V481.646" stroke="white" stroke-width="1.97923" stroke-miterlimit="10" stroke-dasharray="13.1 13.1"/>
<path d="M393.105 483.858V485.863" stroke="white" stroke-width="1.97923" stroke-miterlimit="10"/>
<path d="M294.102 411.52V413.525" stroke="white" stroke-width="1.97923" stroke-miterlimit="10"/>
<path d="M294.102 417.662V481.79" stroke="white" stroke-width="1.97923" stroke-miterlimit="10" stroke-dasharray="12.25 12.25"/>
<path d="M294.102 483.859V485.864" stroke="white" stroke-width="1.97923" stroke-miterlimit="10"/>
<path d="M76.8242 488.406V486.379" stroke="white" stroke-width="2" stroke-miterlimit="10"/>
<path d="M76.8242 482.327V322.24" stroke="white" stroke-width="2" stroke-miterlimit="10" stroke-dasharray="12 12"/>
<path d="M76.8242 320.214V318.188" stroke="white" stroke-width="2" stroke-miterlimit="10"/>
</g>
</svg>
