<svg width="25" height="38" viewBox="0 0 25 38" fill="none" xmlns="http://www.w3.org/2000/svg">
<path d="M1.5 29L11.5 31L13 28M23.5 37V29L15.5 23L17.5 11M17.5 3C17.5 3.53043 17.7107 4.03914 18.0858 4.41421C18.4609 4.78929 18.9696 5 19.5 5C20.0304 5 20.5391 4.78929 20.9142 4.41421C21.2893 4.03914 21.5 3.53043 21.5 3C21.5 2.46957 21.2893 1.96086 20.9142 1.58579C20.5391 1.21071 20.0304 1 19.5 1C18.9696 1 18.4609 1.21071 18.0858 1.58579C17.7107 1.96086 17.5 2.46957 17.5 3Z" stroke="white" stroke-width="2" stroke-linecap="round" stroke-linejoin="round"/>
</svg>
