<svg width="47" height="44" viewBox="0 0 47 44" fill="none" xmlns="http://www.w3.org/2000/svg">
<path d="M46.6787 30.4013C46.6083 30.1349 46.4858 29.8851 46.3182 29.6664C46.1506 29.4477 45.9413 29.2644 45.7024 29.1271C45.4642 28.9885 45.2009 28.8985 44.9277 28.8624C44.6545 28.8263 44.3768 28.8447 44.1108 28.9167L38.3205 30.4681L37.6024 27.7882L38.6006 27.5207C38.6957 27.4953 38.7849 27.4513 38.8631 27.3913C38.9412 27.3314 39.0068 27.2566 39.056 27.1713C39.1053 27.086 39.1372 26.9918 39.1501 26.8942C39.1629 26.7965 39.1564 26.6973 39.1309 26.6022C39.1054 26.507 39.0615 26.4179 39.0015 26.3397C38.9416 26.2616 38.8668 26.196 38.7815 26.1468C38.6962 26.0975 38.602 26.0656 38.5044 26.0527C38.4067 26.0398 38.3075 26.0463 38.2124 26.0718L36.4914 26.533L36.4897 26.5334L36.488 26.5339L34.7671 26.9951C34.6719 27.0206 34.5827 27.0646 34.5046 27.1245C34.4265 27.1845 34.3609 27.2592 34.3116 27.3445C34.2624 27.4298 34.2304 27.524 34.2176 27.6216C34.2047 27.7193 34.2112 27.8185 34.2367 27.9136C34.2794 28.0731 34.3735 28.214 34.5044 28.3145C34.6353 28.415 34.7957 28.4696 34.9608 28.4698C35.0251 28.4698 35.0903 28.4614 35.1553 28.4441L36.1535 28.1766L36.8716 30.8566L15.9328 36.4671L15.2148 33.7873L16.213 33.5198C16.4051 33.4683 16.569 33.3426 16.6684 33.1704C16.7679 32.9981 16.7948 32.7934 16.7433 32.6012C16.6919 32.4091 16.5662 32.2453 16.3939 32.1458C16.2216 32.0464 16.0169 32.0194 15.8248 32.0709L14.1031 32.5321L14.102 32.5323L14.101 32.5327L12.3794 32.994C12.2842 33.0195 12.1951 33.0634 12.1169 33.1234C12.0388 33.1833 11.9732 33.2581 11.924 33.3434C11.8747 33.4287 11.8427 33.5229 11.8299 33.6205C11.817 33.7182 11.8235 33.8174 11.849 33.9125C11.8918 34.0719 11.9859 34.2128 12.1167 34.3134C12.2476 34.4139 12.408 34.4685 12.5731 34.4686C12.6374 34.4686 12.7026 34.4603 12.7676 34.443L13.7658 34.1755L14.484 36.8554L8.69434 38.4067C8.42796 38.4771 8.17818 38.5996 7.95947 38.7672C7.74076 38.9347 7.55746 39.144 7.42019 39.3829C7.28162 39.6211 7.19165 39.8843 7.15549 40.1574C7.11933 40.4306 7.1377 40.7082 7.20953 40.9741C7.27991 41.2405 7.40244 41.4903 7.57001 41.709C7.73758 41.9277 7.94686 42.111 8.18575 42.2482C8.50351 42.433 8.86449 42.5306 9.23209 42.5309C9.41378 42.5309 9.59669 42.507 9.77697 42.4588L24.6381 38.4767L23.7941 42.563C23.7716 42.6721 23.7737 42.7848 23.8002 42.8929C23.8266 43.0011 23.8769 43.102 23.9472 43.1883C24.0175 43.2747 24.1062 43.3443 24.2068 43.3921C24.3073 43.4399 24.4173 43.4647 24.5286 43.4647H30.0551C30.1665 43.4647 30.2764 43.4399 30.377 43.3921C30.4776 43.3443 30.5662 43.2747 30.6366 43.1884C30.7069 43.102 30.7571 43.0011 30.7836 42.8929C30.8101 42.7848 30.8121 42.6721 30.7896 42.563L29.6673 37.1292L45.194 32.9688C46.3111 32.6701 46.9771 31.5183 46.6787 30.4013ZM29.1343 41.9645H25.4493L26.2595 38.0421L28.2158 37.518L29.1343 41.9645ZM45.1695 31.2415C45.1303 31.3096 45.0781 31.3692 45.0157 31.417C44.9533 31.4647 44.8821 31.4996 44.8062 31.5196L9.38969 41.0094C9.31396 41.0298 9.23494 41.035 9.15718 41.0247C9.07943 41.0144 9.00449 40.9888 8.93669 40.9494C8.86867 40.9103 8.80908 40.8581 8.76137 40.7959C8.71366 40.7336 8.67877 40.6625 8.65872 40.5867C8.61799 40.4336 8.63969 40.2706 8.71906 40.1335C8.79843 39.9964 8.92897 39.8964 9.082 39.8555L37.9836 32.1113L37.9843 32.1112L37.9851 32.1109L44.4986 30.3657C44.5743 30.3453 44.6533 30.3401 44.7311 30.3504C44.8088 30.3607 44.8838 30.3862 44.9516 30.4256C45.0196 30.4647 45.0792 30.5169 45.1269 30.5792C45.1746 30.6414 45.2095 30.7126 45.2296 30.7884C45.25 30.8641 45.2551 30.9432 45.2448 31.021C45.2345 31.0987 45.2089 31.1737 45.1695 31.2415ZM7.32944 23.6119C7.32944 22.9965 6.87944 22.4853 6.29144 22.3869L10.2368 4.73321H12.9663V18.1414H12.3365C11.5439 18.1414 10.8991 18.7862 10.8991 19.5789V21.2296C10.8991 22.0221 11.5439 22.6669 12.3365 22.6669H23.3541C24.1468 22.6669 24.7916 22.0221 24.7916 21.2296V19.5789C24.7916 18.7862 24.1468 18.1414 23.3541 18.1414H22.7243V4.73321H25.4538L29.3981 22.3818C28.8131 22.4647 28.3612 22.9673 28.3612 23.5749V24.9002C28.3612 25.5655 28.9023 26.1066 29.5676 26.1066H34.2342C34.8994 26.1066 35.4406 25.5655 35.4406 24.9002V23.5749C35.4406 22.9097 34.8994 22.3685 34.2342 22.3685H33.6856L29.5108 3.68762C29.096 1.83165 27.4822 0.535461 25.5863 0.535461H10.1044C8.20844 0.535461 6.59463 1.83165 6.17997 3.68752L2.005 22.3684H1.4935C0.807906 22.3684 0.25 22.9262 0.25 23.6119V25.0445C0.25 25.7301 0.807813 26.288 1.4935 26.288H6.08594C6.77153 26.288 7.32944 25.7302 7.32944 25.0445V23.6119ZM23.2916 21.167H12.3991V19.6415H23.2916V21.167ZM21.2243 18.1414H14.4663V4.73321H21.2243V18.1414ZM33.9407 24.6065H29.8612V23.8684H33.9407V24.6065ZM7.64388 4.01481C7.90422 2.8494 8.91606 2.03556 10.1044 2.03556H25.5863C26.7747 2.03556 27.7865 2.84949 28.0469 4.01481L32.1486 22.3684H30.9322L26.8867 4.26746C26.7487 3.64881 26.2261 3.23321 25.5862 3.23321H10.1043C9.46478 3.23321 8.94213 3.64881 8.80384 4.26718L4.75853 22.3684H3.54203L7.64388 4.01481ZM5.82944 24.788H1.75V23.8684H5.82944V24.788Z" fill="white"/>
</svg>
