<svg width="33" height="32" viewBox="0 0 33 32" fill="none" xmlns="http://www.w3.org/2000/svg">
<g clip-path="url(#clip0_37_6989)">
<path d="M13.2782 21.6881H7.17568C6.82693 21.6881 6.54443 21.4056 6.54443 21.0569V19.4275C6.54443 19.0788 6.82693 18.7963 7.17568 18.7963H13.2782M21.9187 18.7963H25.8244C26.1732 18.7963 26.4557 19.0788 26.4557 19.4275V21.0569C26.4557 21.4056 26.1732 21.6881 25.8244 21.6881H19.7219M8.3925 21.6881V30.6815M24.6076 21.6881V30.6815" stroke="white" stroke-width="1.5" stroke-miterlimit="10" stroke-linecap="round" stroke-linejoin="round"/>
<path d="M18.8021 23.4958H14.198C13.6899 23.4958 13.2781 23.0839 13.2781 22.5759V17.5431C13.2781 16.3331 14.259 15.3522 15.469 15.3522H17.5311C18.7411 15.3522 19.722 16.3331 19.722 17.5431V22.5759C19.722 23.084 19.3101 23.4958 18.8021 23.4958Z" stroke="white" stroke-width="1.5" stroke-miterlimit="10" stroke-linecap="round" stroke-linejoin="round"/>
<path d="M16.5 25.3356V29.5597M13.7327 30.6815V30.0613C13.7327 29.9283 13.7855 29.8007 13.8796 29.7066C13.9736 29.6126 14.1012 29.5597 14.2342 29.5597H18.7657C18.8988 29.5597 19.0263 29.6126 19.1204 29.7066C19.2145 29.8007 19.2673 29.9283 19.2673 30.0613V30.6815M19.4571 23.4958H13.543C13.0349 23.4958 12.6231 23.9077 12.6231 24.4157C12.6231 24.9237 13.035 25.3355 13.543 25.3355H19.4571C19.9651 25.3355 20.3769 24.9237 20.3769 24.4157C20.3769 23.9077 19.9651 23.4958 19.4571 23.4958ZM1.99475 23.4958H0.96875V16.3782C0.96875 15.8116 1.42812 15.3522 1.99475 15.3522C2.56137 15.3522 3.02075 15.8116 3.02075 16.3782V22.4698C3.02081 23.0364 2.56144 23.4958 1.99475 23.4958Z" stroke="white" stroke-width="1.5" stroke-miterlimit="10" stroke-linecap="round" stroke-linejoin="round"/>
<path d="M4.03137 25.3356V29.5597M1.264 30.6815V30.0613C1.264 29.9283 1.31684 29.8007 1.4109 29.7066C1.50497 29.6126 1.63254 29.5597 1.76556 29.5597H6.29706C6.43009 29.5597 6.55766 29.6126 6.65172 29.7066C6.74578 29.8007 6.79862 29.9283 6.79862 30.0613V30.6815M5.87681 23.4958H0.96875V24.4157C0.96875 24.9237 1.38063 25.3355 1.88863 25.3355H5.87681C6.38487 25.3355 6.79669 24.9237 6.79669 24.4157C6.79669 23.9077 6.38487 23.4958 5.87681 23.4958ZM31.0053 23.4958H32.0312V16.3782C32.0312 15.8116 31.5719 15.3522 31.0053 15.3522C30.4386 15.3522 29.9792 15.8116 29.9792 16.3782V22.4698C29.9792 23.0364 30.4386 23.4958 31.0053 23.4958Z" stroke="white" stroke-width="1.5" stroke-miterlimit="10" stroke-linecap="round" stroke-linejoin="round"/>
<path d="M28.9686 25.3356V29.5597M31.736 30.6815V30.0613C31.736 29.9283 31.6831 29.8007 31.5891 29.7066C31.495 29.6126 31.3674 29.5597 31.2344 29.5597H26.7029C26.5699 29.5597 26.4423 29.6126 26.3483 29.7066C26.2542 29.8007 26.2014 29.9283 26.2014 30.0613V30.6815M23.7885 3.46461H9.21149C8.61887 3.46461 8.13843 2.98417 8.13843 2.39154C8.13843 1.79892 8.61887 1.31848 9.21149 1.31848H23.7885C24.3811 1.31848 24.8615 1.79892 24.8615 2.39154C24.8615 2.98417 24.3811 3.46461 23.7885 3.46461ZM23.7885 3.46461V9.45879C23.7885 9.82929 23.4881 10.1297 23.1176 10.1297H9.88236C9.51186 10.1297 9.21149 9.82929 9.21149 9.45879V5.66579M16.5 11.407V10.1297M27.1232 23.4958H32.0312V24.4157C32.0312 24.9237 31.6194 25.3355 31.1114 25.3355H27.1232C26.6151 25.3355 26.2033 24.9237 26.2033 24.4157C26.2033 23.9077 26.6151 23.4958 27.1232 23.4958Z" stroke="white" stroke-width="1.5" stroke-miterlimit="10" stroke-linecap="round" stroke-linejoin="round"/>
</g>
<defs>
<clipPath id="clip0_37_6989">
<rect width="32" height="32" fill="white" transform="translate(0.5)"/>
</clipPath>
</defs>
</svg>
