<svg width="49" height="48" viewBox="0 0 49 48" fill="none" xmlns="http://www.w3.org/2000/svg">
<path d="M42.5 24C41.9889 23.9999 41.4815 24.0874 41 24.2588V24C41 16.1663 35.1744 12.2887 30.92 9.4575C28.28 7.69875 26 6.1875 26 4.5C26 4.10218 25.842 3.72064 25.5607 3.43934C25.2794 3.15804 24.8978 3 24.5 3C24.1022 3 23.7206 3.15804 23.4393 3.43934C23.158 3.72064 23 4.10218 23 4.5C23 6.1875 20.72 7.69875 18.08 9.4575C13.8256 12.2887 8 16.1663 8 24V24.2588C7.32137 24.0188 6.59509 23.9452 5.88211 24.044C5.16913 24.1428 4.49027 24.4113 3.90249 24.8268C3.31472 25.2422 2.83519 25.7927 2.50415 26.4318C2.17311 27.071 2.00022 27.7802 2 28.5V39C2 39.3978 2.15804 39.7794 2.43934 40.0607C2.72064 40.342 3.10218 40.5 3.5 40.5H14C14.3978 40.5 14.7794 40.342 15.0607 40.0607C15.342 39.7794 15.5 39.3978 15.5 39V33C15.5 32.2044 15.8161 31.4413 16.3787 30.8787C16.9413 30.3161 17.7044 30 18.5 30C19.2956 30 20.0587 30.3161 20.6213 30.8787C21.1839 31.4413 21.5 32.2044 21.5 33V39C21.5 39.3978 21.658 39.7794 21.9393 40.0607C22.2206 40.342 22.6022 40.5 23 40.5H26C26.3978 40.5 26.7794 40.342 27.0607 40.0607C27.342 39.7794 27.5 39.3978 27.5 39V33C27.5 32.2044 27.8161 31.4413 28.3787 30.8787C28.9413 30.3161 29.7044 30 30.5 30C31.2956 30 32.0587 30.3161 32.6213 30.8787C33.1839 31.4413 33.5 32.2044 33.5 33V39C33.5 39.3978 33.658 39.7794 33.9393 40.0607C34.2206 40.342 34.6022 40.5 35 40.5H45.5C45.8978 40.5 46.2794 40.342 46.5607 40.0607C46.842 39.7794 47 39.3978 47 39V28.5C47 27.3065 46.5259 26.1619 45.682 25.318C44.8381 24.4741 43.6935 24 42.5 24ZM8 37.5H5V28.5C5 28.1022 5.15804 27.7206 5.43934 27.4393C5.72064 27.158 6.10218 27 6.5 27C6.89782 27 7.27936 27.158 7.56066 27.4393C7.84196 27.7206 8 28.1022 8 28.5V37.5ZM44 37.5H41V28.5C41 28.1022 41.158 27.7206 41.4393 27.4393C41.7206 27.158 42.1022 27 42.5 27C42.8978 27 43.2794 27.158 43.5607 27.4393C43.842 27.7206 44 28.1022 44 28.5V37.5Z" fill="white"/>
</svg>
