<svg width="51" height="56" viewBox="0 0 51 56" fill="none" xmlns="http://www.w3.org/2000/svg">
<path d="M41.5702 19.3567C41.1442 18.102 40.3355 17.0125 39.2578 16.2415C38.1802 15.4705 36.8879 15.0568 35.5629 15.0587H30.4745V0L28.3361 0.305488C23.4852 0.998429 19.7066 3.45662 17.1063 7.61192C15.2316 10.6072 14.3601 13.9114 13.9557 16.3827C11.1634 18.5311 8.73426 21.4891 6.72674 25.1879C5.03491 28.3046 3.63439 31.9576 2.56395 36.0455C0.755257 42.9527 0.510421 48.682 0.500937 48.9225L0.5 55.5532H4.2463V49.0388C4.29314 48.075 5.47294 26.9849 16.7787 18.9541L17.4414 18.4833L17.5503 17.6776C18.1141 13.5061 20.0625 6.6163 26.7276 4.49849V18.8056H35.5629C36.1046 18.804 36.6333 18.9723 37.0743 19.2868C37.5154 19.6013 37.8468 20.0462 38.0218 20.5589C39.5155 24.9681 42.0821 30.4855 46.0822 33.0783L44.8792 37.5896C44.4605 39.1984 43.508 40.6175 42.1777 41.6144C40.8474 42.6114 39.2181 43.1273 37.5564 43.0776C34.1996 42.9769 30.7059 43.4148 27.1718 44.3786L25.7909 44.7551V55.5532H29.5378V47.6459C32.127 47.0342 34.784 46.7575 37.4437 46.8228C39.9485 46.8918 42.4031 46.1128 44.4098 44.6122C46.4164 43.1115 47.8574 40.9771 48.4992 38.555L50.5 31.0518L49.0099 30.4131C46.2232 29.2188 43.5811 25.2922 41.5702 19.3567Z" fill="white"/>
</svg>
