<svg width="49" height="48" viewBox="0 0 49 48" fill="none" xmlns="http://www.w3.org/2000/svg">
<path d="M47 26.25V21.75C47 21.6337 46.973 21.5182 46.9213 21.4147L46.25 20.073V18C46.25 17.8011 46.171 17.6103 46.0303 17.4697C45.8897 17.329 45.6989 17.25 45.5 17.25H43.25C43.0511 17.25 42.8603 17.329 42.7197 17.4697C42.579 17.6103 42.5 17.8011 42.5 18V20.073L41.8287 21.4147C41.7769 21.5189 41.7499 21.6337 41.75 21.75V26.25H38.75V24.9998L40.85 22.2C40.9339 22.0886 40.985 21.9561 40.9977 21.8173C41.0103 21.6785 40.984 21.5389 40.9217 21.4142C40.8593 21.2895 40.7634 21.1847 40.6448 21.1115C40.5261 21.0383 40.3894 20.9997 40.25 21H35.75C35.6108 21.0003 35.4745 21.0392 35.3562 21.1125C35.2379 21.1858 35.1422 21.2905 35.08 21.415C35.0178 21.5395 34.9914 21.6788 35.0037 21.8174C35.0161 21.956 35.0667 22.0885 35.15 22.2L37.25 24.9998V26.25H32C31.8011 26.25 31.6103 26.329 31.4697 26.4697C31.329 26.6103 31.25 26.8011 31.25 27V30C31.25 30.1989 31.329 30.3897 31.4697 30.5303C31.6103 30.671 31.8011 30.75 32 30.75H32.75V34.5C32.75 34.6989 32.829 34.8897 32.9697 35.0303C33.1103 35.171 33.3011 35.25 33.5 35.25H35C35.2842 35.25 35.5438 35.0895 35.6713 34.8352L37.7135 30.75H41.2865L43.3295 34.8352C43.3916 34.9599 43.4873 35.0648 43.6057 35.1381C43.7242 35.2113 43.8607 35.2501 44 35.25H45.5C45.6989 35.25 45.8897 35.171 46.0303 35.0303C46.171 34.8897 46.25 34.6989 46.25 34.5V30.75H47C47.1989 30.75 47.3897 30.671 47.5303 30.5303C47.671 30.3897 47.75 30.1989 47.75 30V27C47.75 26.8011 47.671 26.6103 47.5303 26.4697C47.3897 26.329 47.1989 26.25 47 26.25ZM38.75 22.5L38 23.4998L37.25 22.5H38.75ZM43.25 21.927L43.9213 20.5853C43.973 20.4818 44 20.3663 44 20.25V18.75H44.75V20.25C44.75 20.3663 44.777 20.4818 44.8287 20.5853L45.5 21.927V26.25H43.25V21.927ZM34.5365 33.75H34.25V30.75H36.0365L34.5365 33.75ZM44.75 33.75H44.4635L42.9635 30.75H44.75V33.75ZM46.25 29.25H32.75V27.75H46.25V29.25Z" fill="white"/>
<path d="M4.25 26.1742V30C4.25 31.0072 4.91975 31.8518 5.834 32.1383L4.4 34.05C4.31614 34.1614 4.265 34.2939 4.25234 34.4327C4.23968 34.5715 4.26601 34.7111 4.32835 34.8358C4.39069 34.9605 4.48658 35.0653 4.60523 35.1385C4.72389 35.2117 4.8606 35.2503 5 35.25H7.25C7.42037 35.2501 7.58569 35.1922 7.71875 35.0857L11.2633 32.25H23.4867L27.0312 35.0857C27.1643 35.1922 27.3296 35.2501 27.5 35.25H29.75C29.8892 35.2497 30.0255 35.2108 30.1438 35.1375C30.2621 35.0642 30.3578 34.9595 30.42 34.835C30.4822 34.7105 30.5086 34.5712 30.4963 34.4326C30.4839 34.294 30.4333 34.1615 30.35 34.05L28.916 32.1383C29.3734 31.9971 29.7738 31.7136 30.0587 31.3289C30.3436 30.9443 30.4983 30.4787 30.5 30V26.1742C31.3463 26.0002 32.1068 25.5398 32.6532 24.8705C33.1997 24.2012 33.4987 23.364 33.5 22.5C33.5 20.4323 31.8177 18.75 29.75 18.75H29V15C29 13.7595 27.9905 12.75 26.75 12.75H7.25C6.0095 12.75 5 13.7595 5 15V18.75C2.93225 18.75 1.25 20.4323 1.25 22.5C1.25112 23.3641 1.55013 24.2013 2.09661 24.8706C2.64309 25.5399 3.40362 26.0003 4.25 26.1742ZM6.98675 33.75H6.5L7.625 32.25H8.86175L6.98675 33.75ZM27.7633 33.75L25.8883 32.25H27.125L28.25 33.75H27.7633ZM6.5 15C6.5 14.5868 6.836 14.25 7.25 14.25H26.75C27.164 14.25 27.5 14.5868 27.5 15V18.75H26.75C26.5511 18.75 26.3603 18.829 26.2197 18.9697C26.079 19.1103 26 19.3011 26 19.5V25.917C25.546 25.6471 25.0282 25.5031 24.5 25.5H10.25C9.701 25.5 9.19325 25.659 8.75 25.917V19.5C8.75 19.3011 8.67098 19.1103 8.53033 18.9697C8.38968 18.829 8.19891 18.75 8 18.75H6.5V15ZM25.7915 27.75H8.9585C9.21875 27.3038 9.69725 27 10.25 27H24.5C25.0527 27 25.5312 27.3038 25.7915 27.75ZM5 20.25H7.25V28.5C7.25 28.6989 7.32902 28.8897 7.46967 29.0303C7.61032 29.171 7.80109 29.25 8 29.25H26.75C26.9489 29.25 27.1397 29.171 27.2803 29.0303C27.421 28.8897 27.5 28.6989 27.5 28.5V20.25H29.75C30.9905 20.25 32 21.2595 32 22.5C32 23.7405 30.9905 24.75 29.75 24.75C29.5511 24.75 29.3603 24.829 29.2197 24.9697C29.079 25.1103 29 25.3011 29 25.5V30C29 30.4132 28.664 30.75 28.25 30.75H6.5C6.086 30.75 5.75 30.4132 5.75 30V25.5C5.75 25.3011 5.67098 25.1103 5.53033 24.9697C5.38968 24.829 5.19891 24.75 5 24.75C3.7595 24.75 2.75 23.7405 2.75 22.5C2.75 21.2595 3.7595 20.25 5 20.25ZM1.25 36.75H47.75V38.25H1.25V36.75Z" fill="white"/>
</svg>
