<svg width="49" height="48" viewBox="0 0 49 48" fill="none" xmlns="http://www.w3.org/2000/svg">
<path d="M45.9061 36.5973C45.3034 35.9948 44.5023 35.663 43.6498 35.663H43.5746C42.7608 35.6632 42.0392 36.0647 41.5967 36.6797L36.8471 31.93L35.8805 24.6807C35.4544 21.4853 32.7021 19.0756 29.4762 19.0756C28.59 19.0756 27.8693 19.7964 27.8693 20.6825V22.3412C27.8693 24.1989 26.3578 25.7106 24.4999 25.7106C22.6421 25.7106 21.1305 24.199 21.1305 22.3412V20.6825C21.1305 19.7963 20.4097 19.0756 19.5214 19.0756C16.2976 19.0756 13.5453 21.4853 13.1194 24.6807L12.1527 31.93L7.40431 36.6785C7.32677 36.571 7.24072 36.4699 7.14697 36.3762C6.68684 35.9162 6.07531 35.663 5.42403 35.663H5.42356C3.62319 35.6633 2.15862 37.1284 2.15862 38.9287C2.15862 40.6967 3.57125 42.1401 5.327 42.1918C4.88396 42.8128 4.64612 43.5567 4.64675 44.3196C4.64684 46.3491 6.29787 48 8.32718 48H40.6728C42.7022 48 44.3532 46.3491 44.3532 44.3197C44.3532 43.5273 44.1006 42.7933 43.673 42.192C45.4286 42.1408 46.8413 40.6916 46.8413 38.9165V38.854C46.8413 38.0015 46.5092 37.2 45.9061 36.5973ZM31.2197 33.6666L31.4878 31.3878L31.7358 32.6276C31.9575 33.7419 32.5052 34.7652 33.3093 35.5677L38.3809 40.6393H32.5715L31.3546 35.7715C31.1821 35.0839 31.1364 34.3706 31.2197 33.6666ZM19.5237 20.6306C19.5523 20.6306 19.5756 20.6539 19.5756 20.6825V22.3412C19.5756 25.0565 21.7847 27.2656 24.5 27.2656C27.2153 27.2656 29.4244 25.0565 29.4244 22.3412V20.6825C29.4245 20.6755 29.426 20.6686 29.4287 20.6622C29.4315 20.6558 29.4355 20.6501 29.4405 20.6452C29.4456 20.6404 29.4515 20.6366 29.458 20.6341C29.4645 20.6316 29.4714 20.6304 29.4784 20.6306C30.0634 20.6306 30.6276 20.7362 31.1525 20.9285L29.6753 33.4848C29.5697 34.3757 29.6275 35.2784 29.8458 36.1486L30.9685 40.6392H18.0315L19.1542 36.1486C19.3724 35.2784 19.4302 34.3757 19.3248 33.4848L17.8476 20.9288C18.3844 20.7316 18.9518 20.6307 19.5237 20.6306ZM17.5122 31.3877L17.7804 33.6665C17.8637 34.3705 17.818 35.0839 17.6456 35.7715L16.4286 40.6393H10.619L15.6906 35.5677C16.4947 34.7652 17.0424 33.7419 17.2641 32.6276L17.5122 31.3877ZM5.4244 40.6393C4.48119 40.6393 3.71384 39.872 3.71384 38.9287C3.71384 37.9857 4.481 37.2184 5.4245 37.2182C5.65981 37.2182 5.88106 37.3097 6.04747 37.4761C6.1296 37.5577 6.19471 37.6549 6.23903 37.7618C6.28335 37.8688 6.30599 37.9835 6.30565 38.0993C6.30564 38.2531 6.35124 38.4035 6.43668 38.5313C6.52212 38.6592 6.64357 38.7588 6.78565 38.8177C6.92772 38.8765 7.08406 38.892 7.23489 38.862C7.38572 38.8319 7.52426 38.7579 7.63297 38.6491L13.4386 32.8434C13.5594 32.7227 13.637 32.5657 13.6596 32.3964L14.6609 24.8862C14.8279 23.6336 15.4664 22.5411 16.3814 21.7762L16.9248 26.3949L15.7393 32.3226C15.5775 33.1356 15.1779 33.8824 14.5912 34.468L8.42 40.6392H5.4244V40.6393ZM21.2343 46.445H8.32718C7.15531 46.445 6.20187 45.4916 6.20187 44.3197C6.20187 43.1477 7.15522 42.1943 8.32718 42.1943H13.7699V42.5743C13.7699 43.725 14.5544 44.703 15.6777 44.9526L21.2342 46.1874V46.445H21.2343ZM21.2343 44.5943L16.0151 43.4345C15.8189 43.3919 15.6433 43.2832 15.5177 43.1266C15.3921 42.97 15.3241 42.775 15.3251 42.5742V42.1943H21.2343V44.5943ZM40.6728 46.445H22.7894V42.1944H40.6729C41.8447 42.1945 42.798 43.1479 42.798 44.3197C42.798 45.4915 41.8447 46.445 40.6728 46.445ZM45.2862 38.9165C45.2862 39.8664 44.5195 40.6393 43.5772 40.6393H40.5802L34.409 34.468C33.8222 33.8824 33.4226 33.1357 33.2607 32.3226L32.0752 26.3948L32.6186 21.7761C33.5335 22.541 34.1721 23.6336 34.3391 24.8863L35.3404 32.3965C35.363 32.5657 35.4407 32.7228 35.5614 32.8435L41.367 38.6492C41.4758 38.7578 41.6143 38.8318 41.7651 38.8618C41.9159 38.8917 42.0722 38.8763 42.2143 38.8175C42.3563 38.7587 42.4778 38.6591 42.5632 38.5313C42.6487 38.4035 42.6943 38.2532 42.6944 38.0994C42.6944 37.6136 43.0896 37.2184 43.5755 37.2182H43.6502C44.0871 37.2182 44.4979 37.3883 44.8069 37.6972C44.9593 37.8488 45.0802 38.0291 45.1625 38.2277C45.2447 38.4263 45.2868 38.6392 45.2862 38.8542V38.9165H45.2862ZM27.6747 4.03322C27.735 3.78338 27.7657 3.52669 27.7657 3.26559C27.7657 1.46503 26.3007 0 24.5 0C22.6993 0 21.2343 1.46503 21.2343 3.26569C21.2343 3.52697 21.2654 3.78347 21.3257 4.03303C18.8223 5.22441 17.0874 7.77806 17.0874 10.7301V11.492C17.0874 11.6974 17.1687 11.8944 17.3135 12.0401C17.4583 12.1858 17.6548 12.2683 17.8602 12.2695C17.9108 12.2694 18.2307 12.2694 18.7461 12.2362V13.2183C18.7461 16.391 21.3272 18.9721 24.4999 18.9721C27.6726 18.9721 30.2537 16.391 30.2537 13.2183V12.2503C30.5352 12.3055 30.8291 12.3371 31.135 12.3371C31.3412 12.3371 31.539 12.2552 31.6848 12.1094C31.8306 11.9636 31.9125 11.7658 31.9125 11.5596V10.7302C31.9125 7.77825 30.1778 5.22459 27.6747 4.03322ZM24.5 1.55503C25.4432 1.55503 26.2106 2.32238 26.2106 3.26559C26.2106 3.34969 26.2027 3.43237 26.1908 3.51431C25.6366 3.38385 25.0693 3.31779 24.5 3.31744C23.9183 3.31744 23.3528 3.38691 22.8093 3.51422C22.7967 3.43193 22.7901 3.34884 22.7894 3.26559C22.7894 2.32247 23.5568 1.55503 24.5 1.55503ZM28.6987 13.2182C28.6987 15.5333 26.8152 17.4169 24.5 17.4169C22.1848 17.4169 20.3013 15.5333 20.3013 13.2182V12.0776C22.0482 11.8373 24.4864 11.2959 26.7877 10.0747C27.1867 10.5351 27.8402 11.1809 28.6988 11.6648L28.6987 13.2182ZM27.6339 8.63822C27.5233 8.47331 27.3538 8.35696 27.1602 8.31301C26.9665 8.26907 26.7634 8.30086 26.5925 8.40188C23.6257 10.1551 20.1573 10.5792 18.6427 10.6817C18.6689 7.47413 21.2863 4.87256 24.5 4.87256C27.7128 4.87256 30.3297 7.47272 30.3572 10.6793C28.7418 10.2547 27.6465 8.65678 27.6339 8.63822Z" fill="white"/>
</svg>
