<svg width="49" height="48" viewBox="0 0 49 48" fill="none" xmlns="http://www.w3.org/2000/svg">
<path d="M36.5 33C36.9142 33 37.25 32.6642 37.25 32.25C37.25 31.8358 36.9142 31.5 36.5 31.5C36.0858 31.5 35.75 31.8358 35.75 32.25C35.75 32.6642 36.0858 33 36.5 33Z" fill="white"/>
<path d="M40.9767 12.516C40.9269 12.3234 40.8028 12.1584 40.6316 12.0572C40.4604 11.956 40.256 11.9268 40.0632 11.976L38.5632 12.3615C38.4676 12.3858 38.3778 12.4288 38.2988 12.4879C38.2198 12.547 38.1532 12.6211 38.1029 12.7059C38.0526 12.7908 38.0196 12.8848 38.0056 12.9824C37.9917 13.0801 37.9972 13.1796 38.0217 13.2751C38.0463 13.3707 38.0895 13.4604 38.1488 13.5393C38.2081 13.6181 38.2824 13.6845 38.3674 13.7345C38.4524 13.7846 38.5464 13.8174 38.6441 13.8311C38.7418 13.8448 38.8413 13.8391 38.9367 13.8143L40.4367 13.4288C40.8372 13.326 41.0787 12.9173 40.9767 12.516Z" fill="white"/>
<path d="M47.75 26.25H44.75C44.5511 26.25 44.3603 26.329 44.2197 26.4697C44.079 26.6103 44 26.8011 44 27V37.5C44 37.9133 43.664 38.25 43.25 38.25H41.75V36C41.75 35.1728 41.0772 34.5 40.25 34.5H39.4782C39.563 34.3875 39.6552 34.2818 39.728 34.1588C40.1989 33.3691 40.3603 32.4329 40.1809 31.5312C40.0015 30.6294 39.4941 29.8263 38.7567 29.277C40.3677 28.533 41.2752 26.7255 40.8192 24.9458L40.6325 24.2198L41.3592 24.033C43.1052 23.5838 44.5722 22.4828 45.4902 20.9303C46.4082 19.3778 46.6655 17.562 46.2177 15.816L45.2847 12.1838L47.4642 11.6243C47.8647 11.5208 48.1062 11.112 48.0042 10.7115L47.4447 8.53201C45.8997 2.52376 39.7542 -1.10849 33.7482 0.434256L22.1262 3.41926L21.5667 1.24051C21.5164 1.04825 21.3922 0.883644 21.2211 0.782513C21.05 0.681383 20.8459 0.651909 20.6532 0.700506L14.8415 2.19301C14.7461 2.21737 14.6565 2.2604 14.5778 2.31962C14.4992 2.37884 14.433 2.45306 14.3832 2.53801C14.3329 2.62272 14.2998 2.71658 14.2859 2.81415C14.272 2.91173 14.2775 3.01109 14.3022 3.10651L14.8617 5.28526L1.05949 8.82976C0.867078 8.87956 0.702228 9.00357 0.601024 9.17463C0.49982 9.34569 0.470505 9.54988 0.519494 9.74251L0.892244 11.196C1.08401 11.9389 1.46281 12.6204 1.99255 13.1755C2.52228 13.7306 3.18532 14.1408 3.91849 14.367C3.98374 16.3028 4.30849 18.4643 4.86424 20.6295C5.65774 23.7173 6.83674 26.5208 8.18374 28.5225C9.76024 30.864 11.1102 31.4745 12.0897 31.4745C12.2982 31.4745 12.491 31.4468 12.665 31.4025C12.7437 31.3823 12.824 31.3553 12.9057 31.3245C12.947 31.3208 12.9875 31.3193 13.0287 31.3088L20.6555 29.3498H20.657L29.0097 27.2048L29.1957 27.9308C29.4039 28.7365 29.8736 29.4504 30.5313 29.9604C31.1889 30.4703 31.9973 30.7475 32.8295 30.7485C32.9157 30.7485 33.0035 30.738 33.0897 30.732C32.7393 31.4998 32.661 32.364 32.8677 33.1823C32.9945 33.6765 33.224 34.1153 33.5142 34.4993H32.75C31.9227 34.4993 31.25 35.172 31.25 35.9993V38.2493C31.25 39.0765 31.9227 39.7493 32.75 39.7493H33.5V40.4993C33.5 42.567 35.1822 44.2493 37.25 44.2493H42.5V47.2493C42.5 47.4482 42.579 47.6389 42.7197 47.7796C42.8603 47.9202 43.0511 47.9993 43.25 47.9993H47.75C47.9489 47.9993 48.1397 47.9202 48.2803 47.7796C48.421 47.6389 48.5 47.4482 48.5 47.2493V27C48.5 26.8011 48.421 26.6103 48.2803 26.4697C48.1397 26.329 47.9489 26.25 47.75 26.25ZM20.3 2.34001L20.6727 3.79276L16.3145 4.91251L15.9417 3.45976L20.3 2.34001ZM13.709 26.586C13.5387 28.4798 12.9957 29.769 12.2907 29.9498C11.5872 30.1335 10.49 29.2628 9.42799 27.6855C8.17399 25.8218 7.06849 23.1833 6.31774 20.2568C5.81224 18.2888 5.51449 16.3358 5.43424 14.571C5.75039 14.5588 6.06438 14.5133 6.37099 14.4353L6.91324 14.2958C6.95824 15.6233 7.15849 17.5035 7.76974 19.8833C8.77999 23.8148 10.1217 26.0813 10.832 27.0825C10.9195 27.2066 11.0428 27.3011 11.1853 27.3533C11.3279 27.4056 11.483 27.4131 11.63 27.375C11.7769 27.3372 11.9088 27.2557 12.0084 27.1414C12.108 27.027 12.1706 26.8852 12.188 26.7345C12.3282 25.5158 12.4122 22.8848 11.402 18.9503C10.8927 16.9695 10.2177 15.159 9.45049 13.644L10.9377 13.2623C11.6982 14.826 12.3605 16.6553 12.8547 18.5775C13.6077 21.504 13.9107 24.348 13.709 26.586ZM8.45149 14.9985C8.93224 16.0493 9.47674 17.4825 9.95 19.3238C10.4157 21.1388 10.6362 22.647 10.724 23.844C10.2237 22.7528 9.68899 21.3248 9.22324 19.5105C8.75299 17.6805 8.5385 16.1663 8.45149 14.9985ZM20.2827 27.897L14.6457 29.3445C14.9037 28.6845 15.104 27.831 15.2037 26.7195C15.4197 24.3158 15.1017 21.2918 14.309 18.204C13.8185 16.2953 13.1637 14.475 12.4152 12.8828L18.926 11.2103C19.6872 12.7763 20.3517 14.5965 20.8467 16.524C22.5215 23.0498 21.6477 27.546 20.2827 27.897ZM29.363 25.5653L22.6175 27.2978C23.6217 24.7298 23.3517 20.2485 22.2995 16.1513C21.8075 14.238 21.1527 12.4245 20.4035 10.8315L21.6267 10.5173C22.3972 10.3202 23.2143 10.4368 23.8989 10.8414C24.5835 11.2461 25.0797 11.9058 25.2785 12.6758C25.4239 13.2489 25.6816 13.7874 26.0366 14.2601C26.3917 14.7329 26.8371 15.1304 27.347 15.4298C27.8552 15.7319 28.4182 15.9304 29.0036 16.0137C29.5889 16.097 30.1849 16.0634 30.7572 15.915L35.9375 14.5845C36.338 14.481 36.5795 14.0723 36.4775 13.6718C36.4277 13.4792 36.3036 13.3142 36.1323 13.213C35.9611 13.1117 35.7567 13.0825 35.564 13.1318L30.3837 14.4623C30.0023 14.5616 29.6049 14.5842 29.2147 14.5287C28.8244 14.4732 28.4491 14.3407 28.1105 14.139C27.7706 13.9394 27.4738 13.6744 27.2372 13.3592C27.0005 13.044 26.8288 12.685 26.732 12.303C26.4332 11.1481 25.6888 10.1587 24.6618 9.55165C23.6349 8.94461 22.4091 8.76943 21.2532 9.06451L5.99749 12.9825C5.22696 13.1793 4.40981 13.0626 3.72525 12.6578C3.04069 12.253 2.54459 11.5933 2.34574 10.8233L2.15899 10.0965L15.9605 6.55201L21.773 5.05951L21.7752 5.05876L34.1217 1.88776C39.3252 0.548256 44.6532 3.69901 45.9905 8.90551L46.364 10.359L44.1852 10.9185H44.1837L42.7985 11.274C42.6058 11.3236 42.4407 11.4477 42.3394 11.619C42.2382 11.7903 42.2091 11.9948 42.2585 12.1875C42.3627 12.5895 42.773 12.828 43.172 12.7275L43.8312 12.558L44.7635 16.1903C45.4842 18.9938 43.7885 21.861 40.985 22.581L39.5337 22.9538H39.5315L39.53 22.9545L29.363 25.5653ZM33.3882 29.1773C32.8104 29.3245 32.1977 29.2367 31.6844 28.9333C31.171 28.6298 30.7988 28.1353 30.6492 27.558L30.4632 26.832L39.1805 24.5933L39.3672 25.3193C39.5149 25.8973 39.4272 26.5102 39.1235 27.0237C38.8198 27.5371 38.3249 27.9092 37.7472 28.0583L33.3882 29.1773ZM38.4365 33.3953C38.2869 33.6501 38.0881 33.8728 37.8517 34.0502C37.6153 34.2276 37.346 34.3563 37.0595 34.4288C36.7735 34.5029 36.4757 34.5196 36.1833 34.4781C35.8908 34.4365 35.6095 34.3374 35.3555 34.1865C34.838 33.8805 34.4705 33.3915 34.3212 32.8095C34.172 32.2275 34.2575 31.6223 34.5635 31.1048C34.7131 30.8499 34.9119 30.6273 35.1483 30.4498C35.3847 30.2724 35.654 30.1437 35.9405 30.0713C36.2265 29.9972 36.5244 29.9804 36.817 30.0219C37.1095 30.0633 37.391 30.1622 37.6452 30.3128C37.9001 30.4625 38.1228 30.6613 38.3003 30.8976C38.4779 31.134 38.6067 31.4032 38.6795 31.6898C38.7535 31.976 38.7702 32.2741 38.7285 32.5668C38.6868 32.8595 38.5875 33.1411 38.4365 33.3953ZM34.25 38.25H32.75V36H40.25L40.2507 38.25H34.25ZM47 46.5H44V44.25H47V46.5ZM47 42.75H37.25C36.0095 42.75 35 41.7405 35 40.5V39.75H43.25C44.4905 39.75 45.5 38.7405 45.5 37.5V27.75H47V42.75Z" fill="white"/>
</svg>
