<svg width="49" height="48" viewBox="0 0 49 48" fill="none" xmlns="http://www.w3.org/2000/svg">
<g clip-path="url(#clip0_36_5820)">
<mask id="mask0_36_5820" style="mask-type:luminance" maskUnits="userSpaceOnUse" x="0" y="0" width="49" height="48">
<path d="M48.5 0H0.5V48H48.5V0Z" fill="white"/>
</mask>
<g mask="url(#mask0_36_5820)">
<path d="M10.884 36.102V7.35998C10.884 5.75489 11.5217 4.21554 12.6566 3.08057C13.7916 1.9456 15.3309 1.30798 16.936 1.30798" stroke="white" stroke-width="2" stroke-linecap="round" stroke-linejoin="round"/>
<path d="M44.1662 1.30798C42.5615 1.30851 41.0226 1.94637 39.8881 3.08128C38.7536 4.21619 38.1162 5.75524 38.1162 7.35998V36.102" stroke="white" stroke-width="2" stroke-linecap="round" stroke-linejoin="round"/>
<path d="M10.884 31.564H38.114" stroke="white" stroke-width="2" stroke-linecap="round" stroke-linejoin="round"/>
<path d="M10.884 20.974H38.114" stroke="white" stroke-width="2" stroke-linecap="round" stroke-linejoin="round"/>
<path d="M10.884 10.384H38.114" stroke="white" stroke-width="2" stroke-linecap="round" stroke-linejoin="round"/>
<path d="M1.80811 46.69C3.9731 46.7016 6.11371 46.2327 8.07568 45.3173C10.0376 44.4018 11.7721 43.0626 13.1541 41.396C14.5432 43.0545 16.279 44.3883 18.2393 45.3035C20.1996 46.2186 22.3367 46.6929 24.5001 46.6929C26.6635 46.6929 28.8006 46.2186 30.7609 45.3035C32.7212 44.3883 34.457 43.0545 35.8461 41.396C37.2281 43.0626 38.9626 44.4018 40.9245 45.3173C42.8865 46.2327 45.0271 46.7016 47.1921 46.69" stroke="white" stroke-width="2" stroke-linecap="round" stroke-linejoin="round"/>
</g>
</g>
<defs>
<clipPath id="clip0_36_5820">
<rect width="48" height="48" fill="white" transform="translate(0.5)"/>
</clipPath>
</defs>
</svg>
