<svg width="40" height="40" viewBox="0 0 40 40" fill="none" xmlns="http://www.w3.org/2000/svg">
<g id="svgexport-17 (65)">
<g id="Group">
<path id="Vector" d="M12.1769 37.1915C15.3153 37.1915 17.87 34.6377 17.87 31.4977C17.87 28.3623 15.3161 25.8123 12.1769 25.8123C9.04149 25.8123 6.49072 28.3623 6.49072 31.4969C6.49072 34.6369 9.04149 37.1915 12.1769 37.1915ZM12.1769 27.3508C14.4676 27.3508 16.3315 29.2108 16.3315 31.4969C16.3305 32.5986 15.8925 33.6549 15.1136 34.4341C14.3347 35.2133 13.2786 35.6516 12.1769 35.6531C9.88995 35.6531 8.02918 33.7885 8.02918 31.4977C8.03041 30.3981 8.46781 29.3439 9.24541 28.5664C10.023 27.789 11.0773 27.3518 12.1769 27.3508Z" fill="white"/>
<path id="Vector_2" d="M37.4729 33.4208L31.6714 27.6192C31.4329 27.3808 31.0499 27.3515 30.7591 27.5062L27.2691 24.0162C24.3229 14.5892 25.8937 10.4462 20.9937 5.54615C15.9491 0.499999 8.60756 0.332306 4.53525 4.40308L4.53371 4.40538L4.53217 4.40692C0.0906354 8.85077 1.06294 16.2454 5.6591 20.8546C5.66371 20.8592 5.66448 20.8654 5.6691 20.87C5.67448 20.8746 5.68063 20.8762 5.68525 20.8808C9.83756 25.0215 12.2191 24.0408 23.916 27.4192L27.3791 30.8823C27.2952 31.0263 27.261 31.1938 27.2819 31.3592C27.3027 31.5245 27.3775 31.6783 27.4945 31.7969L33.2952 37.5985C33.8497 38.1513 34.6007 38.4618 35.3837 38.4618C36.1667 38.4618 36.9177 38.1513 37.4722 37.5985C37.7467 37.3243 37.9644 36.9988 38.113 36.6404C38.2616 36.2821 38.3381 35.8979 38.3381 35.51C38.3381 35.1221 38.2616 34.7379 38.113 34.3796C37.9644 34.0212 37.7467 33.6957 37.4722 33.4215L37.4729 33.4208ZM25.7245 24.2L24.0629 25.8615C22.1492 25.3154 20.2247 24.8076 18.2906 24.3385C19.7176 23.8731 21.0337 23.1062 22.1329 22.0077L22.1345 22.0069L22.1368 22.0046C23.1066 21.0289 23.8541 19.8552 24.3283 18.5638C24.7122 20.4546 25.1514 22.3223 25.7245 24.2ZM11.5137 22.7492L13.3337 20.93L15.6991 23.2954C14.2568 23.4069 12.8599 23.2031 11.5137 22.7492ZM7.32679 20.3008L10.0153 17.6115L12.246 19.8423L9.98063 22.1069C9.02161 21.6222 8.12954 21.0151 7.32679 20.3008ZM4.4291 16.5623L6.69756 14.2938L8.92833 16.5246L6.23833 19.2138C5.5232 18.4119 4.91506 17.5206 4.4291 16.5623ZM3.24371 10.84L5.60987 13.2062L3.78756 15.0277C3.26602 13.4762 3.1414 12.1754 3.24371 10.84ZM5.10756 6.06923L8.92756 9.88923L6.69679 12.1192L3.57525 8.99692C3.88125 7.92683 4.40269 6.93056 5.10756 6.06923ZM9.11371 3.43846L12.2452 6.57077L10.0153 8.80154L6.19217 4.97846C7.0509 4.2714 8.04509 3.74734 9.11371 3.43846ZM19.3399 6.11308L16.6514 8.80154L14.4206 6.57077L16.6883 4.30308C17.6465 4.78952 18.5378 5.39791 19.3399 6.11308ZM22.2329 9.85538L19.9691 12.1192L17.7391 9.88846L20.4268 7.20154C21.141 8.00437 21.7481 8.89642 22.2329 9.85538ZM17.5406 22.9631L14.4214 19.8431L16.6514 17.6123L20.4699 21.4315C19.6081 22.1358 18.6116 22.6567 17.5414 22.9623L17.5406 22.9631ZM13.3329 14.2946L15.5637 16.5254L13.3329 18.7554L11.1029 16.5246L13.3329 14.2946ZM10.0153 15.4369L7.78448 13.2069L10.0153 10.9762L12.246 13.2069L10.0153 15.4369ZM14.4214 13.2069L16.6514 10.9762L18.8822 13.2069L16.6514 15.4377L14.4214 13.2069ZM21.5583 20.3438L17.7391 16.5246L19.9699 14.2946L23.0906 17.4162C22.7849 18.4863 22.2634 19.4827 21.5583 20.3438ZM23.4237 15.5731L21.0568 13.2069L22.876 11.3877C23.3222 12.7085 23.5337 14.1469 23.4237 15.5731ZM15.5637 9.88846L13.3329 12.1192L11.1029 9.88846L13.3337 7.65846L15.5637 9.88846ZM15.1552 3.66154L13.3329 5.48308L10.9591 3.10846C12.2845 3.00615 13.6314 3.14769 15.1552 3.66154ZM26.5883 25.5123L29.6399 28.5638L28.4376 29.7662L25.386 26.7146L26.5883 25.5123ZM36.3853 36.5115C36.1195 36.7766 35.7595 36.9255 35.3841 36.9255C35.0087 36.9255 34.6487 36.7766 34.3829 36.5115L29.126 31.2538L31.1276 29.2523L36.3853 34.5092C36.9383 35.0631 36.9383 35.9577 36.3853 36.5115Z" fill="white"/>
</g>
</g>
</svg>
