<svg width="46" height="46" viewBox="0 0 46 46" fill="none" xmlns="http://www.w3.org/2000/svg">
<path d="M21.7778 37.6667L25.4444 27.8889L13.5107 23L20.844 14.4444L28.1773 20.5556H36.7329M27.8889 10.7778C29.1855 10.7778 30.429 10.2627 31.3459 9.34586C32.2627 8.42901 32.7778 7.1855 32.7778 5.88889C32.7778 4.59228 32.2627 3.34877 31.3459 2.43192C30.429 1.51508 29.1855 1 27.8889 1C26.5923 1 25.3488 1.51508 24.4319 2.43192C23.5151 3.34877 23 4.59228 23 5.88889C23 7.1855 23.5151 8.42901 24.4319 9.34586C25.3488 10.2627 26.5923 10.7778 27.8889 10.7778ZM37.6667 45C39.6116 45 41.4769 44.2274 42.8521 42.8521C44.2274 41.4769 45 39.6116 45 37.6667C45 35.7217 44.2274 33.8565 42.8521 32.4812C41.4769 31.106 39.6116 30.3333 37.6667 30.3333C35.7217 30.3333 33.8565 31.106 32.4812 32.4812C31.106 33.8565 30.3333 35.7217 30.3333 37.6667C30.3333 39.6116 31.106 41.4769 32.4812 42.8521C33.8565 44.2274 35.7217 45 37.6667 45ZM8.33333 45C10.2783 45 12.1435 44.2274 13.5188 42.8521C14.8941 41.4769 15.6667 39.6116 15.6667 37.6667C15.6667 35.7217 14.8941 33.8565 13.5188 32.4812C12.1435 31.106 10.2783 30.3333 8.33333 30.3333C6.38841 30.3333 4.52315 31.106 3.14788 32.4812C1.77262 33.8565 1 35.7217 1 37.6667C1 39.6116 1.77262 41.4769 3.14788 42.8521C4.52315 44.2274 6.38841 45 8.33333 45Z" stroke="white" stroke-width="1.5" stroke-linecap="round" stroke-linejoin="round"/>
</svg>
