<svg width="49" height="48" viewBox="0 0 49 48" fill="none" xmlns="http://www.w3.org/2000/svg">
<g clip-path="url(#clip0_36_5781)">
<mask id="mask0_36_5781" style="mask-type:luminance" maskUnits="userSpaceOnUse" x="0" y="0" width="49" height="48">
<path d="M48.5 0H0.5V48H48.5V0Z" fill="white"/>
</mask>
<g mask="url(#mask0_36_5781)">
<path d="M2.10791 40.0401C4.24403 40.0464 6.35526 39.5815 8.29117 38.6786C10.2271 37.7756 11.94 36.4568 13.3079 34.8161C14.6782 36.4547 16.3914 37.7727 18.3266 38.6771C20.2618 39.5815 22.3718 40.0502 24.5079 40.0502C26.644 40.0502 28.7541 39.5815 30.6892 38.6771C32.6244 37.7727 34.3376 36.4547 35.7079 34.8161C37.072 36.4612 38.7842 37.7831 40.721 38.6864C42.6578 39.5898 44.7709 40.0521 46.9079 40.0401" stroke="white" stroke-width="2" stroke-linecap="round" stroke-linejoin="round"/>
<path d="M2.10791 26.6121C4.24403 26.6184 6.35526 26.1536 8.29117 25.2506C10.2271 24.3476 11.94 23.0288 13.3079 21.3881C14.6782 23.0268 16.3914 24.3448 18.3266 25.2491C20.2618 26.1535 22.3718 26.6222 24.5079 26.6222C26.644 26.6222 28.7541 26.1535 30.6892 25.2491C32.6244 24.3448 34.3376 23.0268 35.7079 21.3881C37.072 23.0332 38.7842 24.3551 40.721 25.2585C42.6578 26.1618 44.7709 26.6242 46.9079 26.6121" stroke="white" stroke-width="2" stroke-linecap="round" stroke-linejoin="round"/>
<path d="M2.10791 13.1781C4.24403 13.1844 6.35526 12.7195 8.29117 11.8166C10.2271 10.9136 11.94 9.5948 13.3079 7.9541C14.6762 9.59438 16.3892 10.9129 18.325 11.8158C20.2608 12.7187 22.3719 13.1839 24.5079 13.1781C26.645 13.1901 28.7581 12.7278 30.6948 11.8244C32.6316 10.9211 34.3438 9.59919 35.7079 7.9541C37.072 9.59919 38.7842 10.9211 40.721 11.8244C42.6578 12.7278 44.7709 13.1901 46.9079 13.1781" stroke="white" stroke-width="2" stroke-linecap="round" stroke-linejoin="round"/>
</g>
</g>
<defs>
<clipPath id="clip0_36_5781">
<rect width="48" height="48" fill="white" transform="translate(0.5)"/>
</clipPath>
</defs>
</svg>
