<?xml version="1.0" encoding="UTF-8"?>
<svg xmlns="http://www.w3.org/2000/svg" width="155" height="38" viewBox="0 0 155 38" fill="none">
  <g clip-path="url(#clip0_944_5788)">
    <path d="M118.252 1.16699H126.222V9.11999H118.252V1.16699ZM132.094 1.16699H140.064V9.11999H132.094V1.16699ZM118.252 14.981H126.222V22.934H118.252V14.981ZM132.094 14.981H140.064V22.934H132.094V14.981ZM118.252 28.628H126.222V36.581H118.252V28.628ZM132.094 28.628H140.064V36.581H132.094V28.628ZM146.021 14.981H153.991V22.934H146.021V14.981ZM146.021 28.628H153.991V36.581H146.021V28.628Z" fill="#1C1E27"></path>
    <path d="M154.075 5.186C154.075 7.53 152.145 9.372 149.88 9.372C147.531 9.372 145.685 7.447 145.685 5.186C145.685 2.842 147.615 1 149.88 1C152.23 1 154.075 2.926 154.075 5.186Z" fill="#1C1E27"></path>
    <path d="M89.4999 8.65702L90.1669 6.25702H94.1669C94.1669 6.25702 99.5829 6.25702 99.5829 12.171C99.5829 17.743 94.3329 17.571 94.3329 17.571H85.5829L86.2499 15.171H93.7499C93.7499 15.171 96.5829 15.171 96.5829 12.086C96.5829 9.00002 93.9999 8.65702 93.9999 8.65702H89.4999ZM78.4549 8.91402L81.4939 7.62902V13.543C81.4939 13.543 81.2399 17.057 76.6819 17.4H21.9799C21.9799 17.4 17.3369 17.486 17.3369 12.857V1.54302L20.4599 0.343018V12.343C20.4599 12.343 20.2909 14.743 22.7399 15H76.5119C76.5119 15 78.2849 14.914 78.5379 13.457V8.91402H78.4549Z" fill="#1C1E27"></path>
    <path d="M72.48 20.48H75.52V23.52H72.48V20.48Z" fill="#1C1E27"></path>
    <path d="M75.1001 20.48H78.0001V23.52H75.1001V20.48Z" fill="#1C1E27"></path>
    <path d="M14.5592 7.16797V17.863C14.5592 17.863 14.5592 22.326 8.82416 22.326H0.26416L1.85316 19.632H9.00016C9.00016 19.632 11.1182 19.463 11.1182 17.863V8.68397L14.5582 7.16797H14.5592Z" fill="#1C1E27"></path>
    <path d="M19.3501 25.431V37.071H32.6501V34.312H22.8501V32.329H28.5371V29.656H22.8501V27.845H32.6501V25.431H19.3501Z" fill="#1C1E27"></path>
    <path d="M35.583 25.4291H39.417L42.917 29.5431L46.417 25.4291H50L44.25 31.6861V36.9141H41.333V31.8571L35.583 25.4291Z" fill="#1C1E27"></path>
    <path d="M8.66699 25.4291H0.166992V36.9141H8.33299C8.33299 36.9141 14.583 36.6571 14.583 31.4291C14.583 26.2001 9.99999 25.4291 8.66699 25.4291ZM7.99999 34.2571C6.49999 34.2571 3.41699 34.3431 3.41699 34.3431V27.8291H8.49999C8.49999 27.8291 11.417 28.0001 11.417 30.9141C11.417 33.9141 9.49999 34.2571 7.99999 34.2571ZM56.055 25.4291L49.765 36.9141H52.825L54.1 34.4301H60.475L61.835 36.9151H65.235L58.775 25.4301L56.055 25.4291ZM55.545 31.9431L57.415 28.6001L59.2 31.9431H55.545ZM72.055 25.4291L65.765 36.9141H68.825L70.1 34.4301H76.475L77.835 36.9151H81.235L74.775 25.4301L72.055 25.4291ZM71.46 31.9431L73.33 28.6001L75.115 31.9431H71.46ZM94.583 32.8861C94.583 32.8861 98.75 32.9711 98.75 29.0291C98.75 29.0291 98.667 25.4291 95.333 25.4291H85.083V36.9141H88.25V32.8001H90.417L94.833 36.9141H99.5L94.583 32.8861ZM88.25 30.4001V27.8291H94.417C94.417 27.8291 95.583 28.0001 95.583 29.0291C95.583 30.3141 94.417 30.4001 94.417 30.4001H88.25Z" fill="#1C1E27"></path>
  </g>
  <defs>
    <clipPath id="clip0_944_5788">
      <rect width="155" height="38" fill="white"></rect>
    </clipPath>
  </defs>
</svg>
