<svg width="80" height="109" viewBox="0 0 80 109" fill="none" xmlns="http://www.w3.org/2000/svg">
<path fill-rule="evenodd" clip-rule="evenodd" d="M25.3525 61.3695C22.7284 62.8008 19.695 63.2312 16.2897 62.2349C5.75583 59.1524 1.49451 50.9035 0.91917 41.125C0.0795457 26.8467 7.21752 9.27539 13.5977 0.542352C13.8994 0.128387 14.4795 0.0394878 14.8911 0.341191C15.3051 0.642895 15.3962 1.22292 15.0945 1.63689C8.90142 10.1127 1.95529 27.1601 2.76919 41.0174C3.29775 49.996 7.13571 57.6251 16.8113 60.4551C19.6903 61.2994 22.249 60.9275 24.4708 59.7231C23.706 58.259 22.9927 56.7925 22.3331 55.3261C20.5135 51.2777 17.7936 40.0375 18.8086 31.7722C19.5383 25.8434 22.1835 21.4487 27.9649 21.6031C31.1784 21.6896 33.5031 23.6916 34.9251 26.8771C36.8827 31.2553 37.1025 37.963 35.725 44.3899C34.579 49.7411 32.3338 54.8887 29.1484 58.3431C28.4467 59.1009 27.7029 59.7815 26.9148 60.3662C37.9071 80.4704 58.3271 99.2696 79.2966 107.198C79.7738 107.381 80.0169 107.914 79.8345 108.393C79.6544 108.873 79.1188 109.114 78.6417 108.933C57.3307 100.874 36.5717 81.8012 25.3525 61.3695ZM26.0284 58.7033C25.3127 57.3258 24.6438 55.9459 24.0241 54.566C22.2817 50.686 19.6762 39.9182 20.6492 31.999C21.2455 27.139 23.1775 23.3292 27.9158 23.4555C30.4043 23.5233 32.1303 25.1674 33.2342 27.6325C34.4457 30.3455 34.9088 34.0197 34.7147 37.9372C34.42 43.8847 32.6028 50.3912 29.4407 54.9963C28.4397 56.4557 27.3007 57.721 26.0284 58.7033Z" fill="#DC6962"/>
<path fill-rule="evenodd" clip-rule="evenodd" d="M62.7268 76.86C64.5932 87.7587 71.7171 99.3638 79.3954 107.4C79.7485 107.769 79.7345 108.356 79.365 108.71C78.9954 109.063 78.4084 109.051 78.0552 108.682C70.1361 100.395 62.825 88.4089 60.9002 77.1734C60.8137 76.6706 61.1528 76.1911 61.658 76.1046C62.1609 76.018 62.6403 76.3571 62.7268 76.86Z" fill="#DC6962"/>
<path fill-rule="evenodd" clip-rule="evenodd" d="M77.9358 108.877C69.9418 104.312 57.6795 103.68 48.7407 105.993C48.2449 106.122 47.7373 105.825 47.611 105.329C47.4824 104.833 47.7794 104.328 48.2752 104.199C57.6397 101.776 70.4797 102.485 78.8549 107.268C79.2992 107.521 79.4537 108.089 79.2011 108.533C78.9462 108.978 78.3802 109.132 77.9358 108.877Z" fill="#DC6962"/>
</svg>
