<svg width="80" height="109" viewBox="0 0 80 109" fill="none" xmlns="http://www.w3.org/2000/svg">
<path fill-rule="evenodd" clip-rule="evenodd" d="M54.6514 61.3695C57.2755 62.8008 60.3089 63.2312 63.7142 62.2349C74.2481 59.1524 78.5094 50.9035 79.0847 41.125C79.9244 26.8467 72.7864 9.27538 66.4062 0.542351C66.1045 0.128387 65.5244 0.0394897 65.1128 0.341194C64.6988 0.642899 64.6077 1.22292 64.9094 1.63689C71.1025 10.1127 78.0486 27.1601 77.2347 41.0174C76.7062 49.996 72.8682 57.6251 63.1926 60.4551C60.3136 61.2994 57.7549 60.9275 55.5331 59.723C56.2979 58.259 57.0112 56.7925 57.6708 55.3261C59.4904 51.2777 62.2103 40.0375 61.1953 31.7722C60.4656 25.8434 57.8204 21.4487 52.039 21.6031C48.8255 21.6896 46.5008 23.6916 45.0788 26.8771C43.1212 31.2553 42.9014 37.963 44.2789 44.3899C45.4249 49.7411 47.6701 54.8887 50.8555 58.3431C51.5572 59.1009 52.301 59.7815 53.0891 60.3662C42.0968 80.4704 21.6768 99.2696 0.70726 107.198C0.230148 107.381 -0.0130386 107.914 0.169388 108.393C0.349472 108.873 0.885078 109.114 1.36219 108.933C22.6732 100.874 43.4322 81.8012 54.6514 61.3695ZM53.9755 58.7033C54.6912 57.3258 55.3601 55.9459 55.9798 54.566C57.7222 50.686 60.3277 39.9182 59.3548 31.999C58.7584 27.139 56.8265 23.3292 52.0881 23.4555C49.5996 23.5233 47.8736 25.1674 46.7697 27.6325C45.5582 30.3455 45.0951 34.0197 45.2893 37.9372C45.5839 43.8847 47.4011 50.3912 50.5632 54.9963C51.5642 56.4557 52.7032 57.721 53.9755 58.7033Z" fill="#DC6962"/>
<path fill-rule="evenodd" clip-rule="evenodd" d="M17.2771 76.86C15.4107 87.7587 8.28679 99.3638 0.608551 107.4C0.255394 107.769 0.2694 108.356 0.638929 108.71C1.00846 109.063 1.59552 109.051 1.94867 108.682C9.86781 100.395 17.1789 88.4089 19.1037 77.1734C19.1902 76.6706 18.8511 76.1911 18.3459 76.1046C17.843 76.018 17.3636 76.3571 17.2771 76.86Z" fill="#DC6962"/>
<path fill-rule="evenodd" clip-rule="evenodd" d="M2.0681 108.877C10.0621 104.312 22.3244 103.68 31.2632 105.993C31.759 106.122 32.2666 105.825 32.3929 105.329C32.5215 104.833 32.2245 104.328 31.7287 104.199C22.3642 101.776 9.52423 102.485 1.14903 107.268C0.704657 107.521 0.550188 108.089 0.802776 108.533C1.0577 108.978 1.62373 109.132 2.0681 108.877Z" fill="#DC6962"/>
</svg>
