<svg width="120" height="120" viewBox="0 0 120 120" fill="none" xmlns="http://www.w3.org/2000/svg">
<g opacity="0.7" filter="url(#filter0_f_1011_14010)">
<circle cx="60" cy="60" r="24" fill="#E46027"/>
</g>
<g clip-path="url(#clip0_1011_14010)">
<path d="M79.8269 37.0236L79.8254 36.9863C79.8046 36.5252 79.7906 36.0374 79.7822 35.4947C79.743 32.8481 77.6392 30.6589 74.9922 30.5109C69.4734 30.203 65.2041 28.4034 61.5563 24.8479L61.5252 24.8182C60.3354 23.7273 58.5406 23.7273 57.3504 24.8182L57.3193 24.8479C53.6715 28.4034 49.4022 30.203 43.8834 30.5113C41.2368 30.6589 39.1326 32.8481 39.0934 35.4951C39.0853 36.0341 39.071 36.5219 39.0502 36.9863L39.048 37.0731C38.9407 42.7006 38.8074 49.7044 41.1504 56.0614C42.4387 59.5572 44.3899 62.5961 46.9493 65.094C49.8643 67.9387 53.6824 70.1971 58.2974 71.8062C58.4476 71.8586 58.6036 71.9011 58.7625 71.9329C58.9866 71.9776 59.2122 72 59.4378 72C59.6634 72 59.8893 71.9776 60.1131 71.9329C60.272 71.9011 60.4291 71.8582 60.58 71.8055C65.1895 70.1934 69.0036 67.9339 71.916 65.0896C74.4744 62.5909 76.4255 59.5514 77.715 56.0548C80.0668 49.6787 79.9338 42.6618 79.8269 37.0236ZM75.0724 55.0803C72.6012 61.7805 67.5567 66.3819 59.6506 69.1468C59.6224 69.1563 59.5923 69.1648 59.5612 69.171C59.4795 69.1871 59.3964 69.1871 59.3137 69.1706C59.2829 69.1644 59.2529 69.1563 59.225 69.1468C51.3105 66.3871 46.2627 61.7882 43.7933 55.0877C41.6338 49.2279 41.7561 42.7987 41.8641 37.1269L41.8648 37.0954C41.8868 36.608 41.9015 36.0975 41.9095 35.5364C41.9271 34.3613 42.8631 33.389 44.0405 33.3234C47.1635 33.1491 49.9072 32.5456 52.4282 31.4785C54.9459 30.4128 57.1819 28.9106 59.2635 26.8862C59.3693 26.7968 59.5066 26.7965 59.6121 26.8862C61.694 28.9106 63.9301 30.4128 66.4474 31.4785C68.9684 32.5456 71.7121 33.1491 74.8355 33.3234C76.0128 33.389 76.9489 34.3613 76.9661 35.5368C76.9745 36.1008 76.9891 36.6113 77.0111 37.0954C77.1188 42.7738 77.2382 49.2082 75.0724 55.0803Z" fill="#E46027"/>
<path d="M59.4369 36.0381C52.8407 36.0381 47.4746 41.4045 47.4746 48.0004C47.4746 54.5966 52.8407 59.963 59.4369 59.963C66.0327 59.963 71.3992 54.5966 71.3992 48.0004C71.3992 41.4045 66.0327 36.0381 59.4369 36.0381ZM59.4369 57.1461C54.3938 57.1461 50.2911 53.0435 50.2911 48.0004C50.2911 42.9573 54.3938 38.8546 59.4369 38.8546C64.4796 38.8546 68.5823 42.9573 68.5823 48.0004C68.5823 53.0435 64.4796 57.1461 59.4369 57.1461Z" fill="#E46027"/>
<path d="M62.8755 44.2868L57.3194 49.843L55.8113 48.3349C55.2613 47.7849 54.3695 47.7849 53.8195 48.3349C53.2698 48.885 53.2698 49.7767 53.8195 50.3264L56.3236 52.8305C56.5987 53.1056 56.959 53.2429 57.3194 53.2429C57.6797 53.2429 58.0401 53.1056 58.3151 52.8305L64.8673 46.2783C65.417 45.7282 65.417 44.8365 64.8673 44.2868C64.3173 43.7364 63.4256 43.7364 62.8755 44.2868Z" fill="#E46027"/>
</g>
<defs>
<filter id="filter0_f_1011_14010" x="0" y="0" width="120" height="120" filterUnits="userSpaceOnUse" color-interpolation-filters="sRGB">
<feFlood flood-opacity="0" result="BackgroundImageFix"/>
<feBlend mode="normal" in="SourceGraphic" in2="BackgroundImageFix" result="shape"/>
<feGaussianBlur stdDeviation="18" result="effect1_foregroundBlur_1011_14010"/>
</filter>
<clipPath id="clip0_1011_14010">
<rect width="48" height="48" fill="white" transform="translate(36 24)"/>
</clipPath>
</defs>
</svg>
