<svg width="24" height="25" viewBox="0 0 24 25" fill="none" xmlns="http://www.w3.org/2000/svg">
<path d="M12 24.1094C18.6274 24.1094 24 18.7368 24 12.1094C24 5.48196 18.6274 0.109375 12 0.109375C5.37258 0.109375 0 5.48196 0 12.1094C0 18.7368 5.37258 24.1094 12 24.1094Z" fill="#FECD1A"/>
<path d="M17.3936 10.2777C17.3928 9.47569 17.0738 8.70675 16.5067 8.13962C15.9396 7.57249 15.1706 7.25351 14.3686 7.25266H14.1616V5.938C14.1637 5.81673 14.1416 5.69626 14.0966 5.58361C14.0517 5.47097 13.9847 5.36841 13.8997 5.28192C13.8147 5.19542 13.7133 5.12673 13.6014 5.07983C13.4895 5.03294 13.3695 5.00879 13.2482 5.00879C13.1269 5.00879 13.0068 5.03294 12.895 5.07983C12.7831 5.12673 12.6817 5.19542 12.5967 5.28192C12.5116 5.36841 12.4447 5.47097 12.3997 5.58361C12.3547 5.69626 12.3326 5.81673 12.3347 5.938V7.25266H10.6731V5.938C10.6752 5.81673 10.6531 5.69626 10.6081 5.58361C10.5631 5.47097 10.4962 5.36841 10.4112 5.28192C10.3261 5.19542 10.2247 5.12673 10.1129 5.07983C10.001 5.03294 9.88093 5.00879 9.75965 5.00879C9.63836 5.00879 9.51828 5.03294 9.40642 5.07983C9.29457 5.12673 9.19317 5.19542 9.10814 5.28192C9.02311 5.36841 8.95615 5.47097 8.91118 5.58361C8.8662 5.69626 8.84411 5.81673 8.84618 5.938V7.25266H7.65045C7.37356 7.25266 7.10801 7.36266 6.91223 7.55844C6.71644 7.75423 6.60645 8.01978 6.60645 8.29666C6.60645 8.57355 6.71644 8.83909 6.91223 9.03488C7.10801 9.23067 7.37356 9.34066 7.65045 9.34066H8.45471V15.1764H7.65045C7.37356 15.1764 7.10801 15.2864 6.91223 15.4822C6.71644 15.678 6.60645 15.9435 6.60645 16.2204C6.60645 16.4973 6.71644 16.7628 6.91223 16.9586C7.10801 17.1544 7.37356 17.2644 7.65045 17.2644H8.84618V18.5793C8.85027 18.8189 8.94831 19.0473 9.11918 19.2152C9.29004 19.3832 9.52005 19.4773 9.75965 19.4773C9.99924 19.4773 10.2293 19.3832 10.4001 19.2152C10.571 19.0473 10.669 18.8189 10.6731 18.5793V17.2649H12.3347V18.5799C12.3388 18.8194 12.4368 19.0478 12.6077 19.2158C12.7786 19.3837 13.0086 19.4779 13.2482 19.4779C13.4878 19.4779 13.7178 19.3837 13.8887 19.2158C14.0595 19.0478 14.1576 18.8194 14.1616 18.5799V17.2649H14.3686C14.9489 17.2658 15.5171 17.0995 16.0054 16.786C16.4937 16.4724 16.8813 16.0248 17.1219 15.4967C17.3625 14.9686 17.4459 14.3824 17.3621 13.8082C17.2783 13.234 17.0308 12.6961 16.6494 12.2588C17.1291 11.7103 17.3936 11.0064 17.3936 10.2777ZM15.0448 10.2777C15.0446 10.5264 14.9456 10.7647 14.7697 10.9404C14.5938 11.1161 14.3553 11.2148 14.1067 11.2148H10.5427V9.34066H14.1067C14.3553 9.34073 14.5937 9.43945 14.7696 9.61514C14.9455 9.79083 15.0445 10.0291 15.0448 10.2777ZM14.1067 15.1764H10.5427V13.3028H14.1067C14.3552 13.3028 14.5936 13.4015 14.7693 13.5773C14.9451 13.753 15.0438 13.9913 15.0438 14.2399C15.0438 14.4884 14.9451 14.7267 14.7693 14.9025C14.5936 15.0782 14.3552 15.1769 14.1067 15.1769V15.1764Z" fill="#FC852D"/>
</svg>
