<svg width="48" height="48" viewBox="0 0 48 48" fill="none" xmlns="http://www.w3.org/2000/svg">
<circle cx="24" cy="24" r="24" fill="#8C94CB" fill-opacity="0.2"/>
<path d="M27.75 23.625H33.75V22.5H33V20.25H32.625V18.375H31.875V20.25H31.5V22.5H27.75V23.625Z" fill="#8C94CB"/>
<path d="M25.125 13.125H24.375V14.9925L25.125 14.8425V13.125Z" fill="#8C94CB"/>
<path d="M26.625 12.375H25.875V14.6925L26.625 14.5425V12.375Z" fill="#8C94CB"/>
<path d="M28.125 13.125H27.375V14.3925L28.125 14.2425V13.125Z" fill="#8C94CB"/>
<path d="M25.7812 32.415C26.0468 32.3066 26.3325 32.25 26.625 32.25V23.625H27V21.75H29.625V14.7075L22.875 16.0575V31.5949C23.1158 31.5334 23.367 31.5 23.625 31.5C24.4481 31.5 25.2232 31.8383 25.7812 32.415ZM27 17.25H28.5V19.5H27V17.25ZM24 17.25H25.5V19.5H24V17.25ZM24 21H25.5V23.25H24V21ZM24 24.75H25.5V27H24V24.75ZM24 28.5H25.5V30.75H24V28.5Z" fill="#8C94CB"/>
<path d="M29.625 31.5C29.883 31.5 30.1339 31.5349 30.375 31.5971V25.875H28.875V31.5994C29.1173 31.5364 29.3681 31.5 29.625 31.5Z" fill="#8C94CB"/>
<path d="M32.2234 33H32.25C32.3771 33 32.5013 33.0139 32.625 33.0296V25.875H31.125V31.9009C31.5769 32.1619 31.9579 32.5384 32.2234 33Z" fill="#8C94CB"/>
<path d="M34.125 33.6698V24.375H27.375V32.3873C27.4058 32.3981 27.4384 32.403 27.4688 32.4154C27.663 32.2144 27.885 32.0445 28.125 31.9058V25.125H33.375V33.2288C33.6461 33.3394 33.8977 33.4871 34.125 33.6698Z" fill="#8C94CB"/>
<path d="M34.194 34.875C33.8047 34.2037 33.0818 33.75 32.25 33.75C32.0831 33.75 31.9207 33.7695 31.764 33.804C31.4707 32.9025 30.6248 32.25 29.625 32.25C28.7764 32.25 28.038 32.7203 27.6547 33.414C27.3859 33.159 27.0247 33 26.625 33C26.2253 33 25.8641 33.159 25.5953 33.414C25.212 32.7203 24.4736 32.25 23.625 32.25C22.614 32.25 21.7594 32.9167 21.4755 33.834C21.3251 33.7837 21.1672 33.75 21 33.75L20.8069 33.7635C20.5496 33.3075 20.0606 33 19.5 33C18.6716 33 18 33.6716 18 34.5C18 34.6297 18.0176 34.755 18.0484 34.875H17.2852C17.2642 34.7512 17.25 34.6264 17.25 34.5C17.25 33.2591 18.2591 32.25 19.5 32.25C20.1 32.25 20.6674 32.4907 21.0836 32.9017C21.345 32.4832 21.7046 32.142 22.125 31.9001V18.375H16.875V22.3425C17.1394 22.4464 17.3917 22.584 17.625 22.758V22.125H18.375V22.875H17.7682C17.9066 22.9905 18.0397 23.1146 18.162 23.2545C18.6277 23.2789 19.0676 23.4109 19.4655 23.625H19.875V23.8879C20.7776 24.5614 21.375 25.7036 21.375 27C21.375 28.629 20.4338 30.0146 19.125 30.5314V31.1666L16.875 33.7913V34.875H16.125V33.5134L18.375 30.8888V29.9659C19.6448 29.7566 20.625 28.5083 20.625 27C20.625 25.3459 19.4471 24 18 24C17.9355 24 17.8695 24.0041 17.8028 24.0105C17.3212 23.3197 16.5806 22.875 15.75 22.875C14.3029 22.875 13.125 24.2209 13.125 25.875C13.125 27.3833 14.1053 28.6316 15.375 28.8409V25.5H16.125V29.0917C16.527 29.5642 17.0528 29.8703 17.625 29.9655V30.6112L16.125 32.3614V29.0917C16.0631 29.019 16.0031 28.9436 15.9472 28.8634C15.882 28.869 15.8168 28.875 15.75 28.875C15.6225 28.875 15.498 28.8611 15.375 28.8409V29.3295C15.0611 29.0456 14.6723 28.875 14.25 28.875C13.2161 28.875 12.375 29.8841 12.375 31.125C12.375 32.2118 13.0204 33.1204 13.875 33.3296V34.875H12.375V35.625H35.625V34.875H34.194ZM18.375 21.375H17.625V20.625H18.375V21.375ZM18.375 19.875H17.625V19.125H18.375V19.875ZM19.875 22.875H19.125V22.125H19.875V22.875ZM19.875 21.375H19.125V20.625H19.875V21.375ZM19.875 19.875H19.125V19.125H19.875V19.875ZM20.625 19.125H21.375V19.875H20.625V19.125ZM20.625 20.625H21.375V21.375H20.625V20.625ZM20.625 22.125H21.375V22.875H20.625V22.125ZM20.625 24.375V23.625H21.375V24.375H20.625ZM14.625 33.3296C14.9025 33.2618 15.1567 33.1181 15.375 32.9209V34.875H14.625V33.3296Z" fill="#8C94CB"/>
</svg>
