<svg width="48" height="48" viewBox="0 0 48 48" fill="none" xmlns="http://www.w3.org/2000/svg">
<circle cx="24" cy="24" r="24" fill="#E46027" fill-opacity="0.2"/>
<g clip-path="url(#clip0_921_24432)">
<path d="M19.5848 15.112C19.5848 15.112 17.1117 11.7903 14.3395 14.8708C14.2541 14.9657 14.3393 15.115 14.4641 15.0905C15.2318 14.9393 16.9425 14.7704 17.8207 16.0027C17.8207 16.0027 12.8391 14.7378 12.118 19.7188C12.0761 20.0077 12.4062 20.203 12.6394 20.0275C13.4767 19.397 15.0659 18.2861 16.5464 17.7272C15.6983 18.8978 14.8717 21.0521 15.3024 24.8779C14.0496 25.1372 12.1542 25.8519 12.0011 27.0852C11.9959 27.1272 12.009 27.1695 12.0371 27.2012C12.0651 27.233 12.1055 27.2511 12.1479 27.2511H21.2838C20.3799 27.0226 19.8867 26.0647 20.2008 25.2054C20.2028 25.2 20.2322 25.1194 20.283 24.9802C19.4804 24.7728 18.5562 24.6544 17.5724 24.6544C17.4473 24.6544 17.3233 24.6565 17.2002 24.6603C16.7708 23.3012 16.2506 20.7841 17.313 18.5753C17.421 18.9228 17.6784 19.1676 17.9792 19.1676C18.2584 19.1676 18.5001 18.9564 18.6197 18.6482C18.7696 19.5053 18.8952 20.736 18.7638 22.132C18.7514 22.264 18.919 22.3302 19.0006 22.2274C19.5945 21.4789 20.8645 19.4917 20.2612 16.7722C20.2612 16.7722 22.0152 16.1522 22.8297 18.1152C22.8832 18.2439 23.0741 18.2133 23.0854 18.075C23.1756 16.9621 22.9777 14.6164 19.5848 15.112Z" fill="#E46027"/>
<path d="M31.4066 16.3044C32.4466 16.3044 33.2897 15.4613 33.2897 14.4212C33.2897 13.3812 32.4466 12.5381 31.4066 12.5381C30.3666 12.5381 29.5234 13.3812 29.5234 14.4212C29.5234 15.4613 30.3666 16.3044 31.4066 16.3044Z" fill="#E46027"/>
<path d="M33.8496 16.9043C33.7521 16.9043 33.9343 16.9043 28.9625 16.9043C28.4406 16.9043 27.9612 17.0923 27.5879 17.4039H27.7825C29.1332 17.4039 29.9781 18.3352 30.4163 19.6101C30.9052 21.0326 31.902 23.7767 32.2762 24.8039C32.648 24.9497 32.9463 25.2428 33.0988 25.6111C33.1701 25.7836 33.2098 25.9725 33.2098 26.1705V27.7352C33.443 27.7574 33.6546 27.8538 33.822 27.9998C33.822 27.6782 33.822 24.7619 33.822 19.0197C33.822 18.9244 33.8992 18.8472 33.9945 18.8472C34.0898 18.8472 34.167 18.9244 34.167 19.0197C34.167 19.0297 34.1668 19.04 34.1665 19.0506V25.7208C34.1653 26.2226 34.571 26.6303 35.0728 26.6316C35.0736 26.6316 35.0743 26.6316 35.0751 26.6316C35.5758 26.6315 35.9984 26.2262 35.9997 25.7252V19.0503C35.9997 19.0481 35.9997 19.0458 35.9997 19.0436C35.9937 17.864 35.0292 16.9043 33.8496 16.9043Z" fill="#E46027"/>
<path d="M26.3115 14.0327C25.3396 14.0327 24.5518 14.8206 24.5518 15.7925C24.5518 16.7694 25.346 17.5523 26.3115 17.5523C27.2773 17.5523 28.0713 16.7692 28.0713 15.7925C28.0713 14.8206 27.2834 14.0327 26.3115 14.0327Z" fill="#E46027"/>
<path d="M33.1059 28.4058H32.5343C32.5343 28.1727 32.5343 26.4127 32.5343 26.1704C32.5343 25.7337 32.179 25.3784 31.7423 25.3784H31.7312C31.2294 24.0041 30.2282 21.2439 29.7459 19.8405C29.3519 18.6941 28.6914 18.1128 27.7826 18.1128C26.506 18.1128 26.1154 18.1128 24.8406 18.1128C23.9318 18.1128 23.2713 18.694 22.8773 19.8405C22.3917 21.2535 21.3576 24.1044 20.8663 25.4485C20.7053 25.8889 20.9317 26.3765 21.3722 26.5375C21.8123 26.6986 22.3002 26.4722 22.4613 26.0317C22.4731 25.9993 23.4687 23.2755 24.1488 21.3503C24.1032 21.7229 24.2474 20.9374 22.9428 27.6733C22.8862 27.9656 23.1113 28.2353 23.4059 28.2353C23.5885 28.2353 23.8085 28.2353 24.0538 28.2353V34.3945C24.0538 34.9572 24.51 35.4135 25.0727 35.4135C25.6354 35.4135 26.0917 34.9573 26.0917 34.3945V28.2352C26.2382 28.2352 26.3852 28.2352 26.5316 28.2352V34.3944C26.5316 34.9572 26.9878 35.4134 27.5506 35.4134C27.8303 35.4134 28.0836 35.3005 28.2678 35.118C28.0824 34.9222 27.9683 34.6582 27.9683 34.3679V28.8225C27.9683 28.2553 28.4029 27.7877 28.9566 27.7352V26.1704C28.9566 25.8557 29.0565 25.5641 29.2257 25.3249C28.4187 21.1584 28.5185 21.71 28.4745 21.3501C28.779 22.2122 29.9096 25.3394 29.9749 25.5189C29.7681 25.6619 29.6321 25.9005 29.6321 26.1704C29.6321 26.4106 29.6321 28.1722 29.6321 28.4058H29.0605C28.8303 28.4058 28.6438 28.5924 28.6438 28.8226C28.6438 29.4697 28.6438 33.8217 28.6438 34.3678C28.6438 34.5903 28.8183 34.7716 29.0378 34.7834V35.0862C29.0378 35.2839 29.191 35.4456 29.385 35.4601C29.3943 35.4607 29.4037 35.4615 29.4131 35.4615C29.4225 35.4615 29.4318 35.4607 29.4411 35.4601C29.6352 35.4456 29.7883 35.2839 29.7883 35.0862V34.7845H32.3779V35.0862C32.3779 35.2839 32.531 35.4456 32.7251 35.4601C32.7344 35.4607 32.7437 35.4615 32.7531 35.4615C32.7625 35.4615 32.7719 35.4607 32.7811 35.4601C32.9753 35.4456 33.1283 35.2839 33.1283 35.0862V34.7834C33.3479 34.7715 33.5224 34.5903 33.5224 34.3678C33.5225 33.9222 33.5225 30.1976 33.5225 28.8226C33.5227 28.5924 33.3361 28.4058 33.1059 28.4058ZM30.3826 26.3632C30.5386 26.5074 30.7449 26.5894 30.9594 26.5894C31.256 26.5894 31.5438 26.4326 31.6993 26.1552C31.7497 26.1861 31.7837 26.2412 31.7837 26.3045V28.4057H30.3826V26.3632ZM32.2722 30.8953H29.8941C29.7072 30.8953 29.5563 30.7433 29.5563 30.5575C29.5563 30.3718 29.7071 30.2198 29.8941 30.2198C30.9404 30.2198 31.1706 30.2198 32.2722 30.2198C32.4591 30.2198 32.61 30.3718 32.61 30.5575C32.61 30.7433 32.4592 30.8953 32.2722 30.8953Z" fill="#E46027"/>
</g>
<defs>
<clipPath id="clip0_921_24432">
<rect width="24" height="24" fill="white" transform="translate(12 12)"/>
</clipPath>
</defs>
</svg>
