<svg width="48" height="48" viewBox="0 0 48 48" fill="none" xmlns="http://www.w3.org/2000/svg">
<path d="M2.4 15.2H3.2V18.4C3.2 18.8418 3.5582 19.2 4 19.2H10.4C10.8418 19.2 11.2 18.8418 11.2 18.4V15.2H12C13.3254 15.2 14.4 14.1254 14.4 12.8V11.2C14.3969 8.83281 12.6687 6.82109 10.3289 6.46172C10.8891 5.76289 11.1961 4.89531 11.2 4C11.2 1.79102 9.40898 0 7.2 0C4.99102 0 3.2 1.79102 3.2 4C3.20391 4.89531 3.51094 5.76289 4.07109 6.46172C1.73125 6.82109 0.003125 8.83281 0 11.2V12.8C0 14.1254 1.07461 15.2 2.4 15.2ZM7.2 1.6C8.52539 1.6 9.6 2.67461 9.6 4C9.6 5.32539 8.52539 6.4 7.2 6.4C5.87461 6.4 4.8 5.32539 4.8 4C4.8 2.67461 5.87461 1.6 7.2 1.6ZM1.6 11.2C1.6 9.43281 3.03281 8 4.8 8H6.4V10.4H8V8H9.6C11.3672 8 12.8 9.43281 12.8 11.2V12.8C12.8 13.2418 12.4418 13.6 12 13.6H11.2V11.2H9.6V17.6H4.8V11.2H3.2V13.6H2.4C1.9582 13.6 1.6 13.2418 1.6 12.8V11.2Z" fill="url(#paint0_linear_941_350)"/>
<path d="M36.7996 4C36.8035 4.89531 37.1105 5.76289 37.6707 6.46172C35.3309 6.82109 33.6027 8.83281 33.5996 11.2V12.8C33.5996 14.1254 34.6742 15.2 35.9996 15.2H36.7996V18.4C36.7996 18.8418 37.1578 19.2 37.5996 19.2H43.9996C44.4414 19.2 44.7996 18.8418 44.7996 18.4V15.2H45.5996C46.925 15.2 47.9996 14.1254 47.9996 12.8V11.2C47.9965 8.83281 46.2684 6.82109 43.9285 6.46172C44.4887 5.76289 44.7957 4.89531 44.7996 4C44.7996 1.79102 43.0086 0 40.7996 0C38.5906 0 36.7996 1.79102 36.7996 4ZM46.3996 11.2V12.8C46.3996 13.2418 46.0414 13.6 45.5996 13.6H44.7996V11.2H43.1996V17.6H38.3996V11.2H36.7996V13.6H35.9996C35.5578 13.6 35.1996 13.2418 35.1996 12.8V11.2C35.1996 9.43281 36.6324 8 38.3996 8H39.9996V10.4H41.5996V8H43.1996C44.9668 8 46.3996 9.43281 46.3996 11.2ZM40.7996 1.6C42.125 1.6 43.1996 2.67461 43.1996 4C43.1996 5.32539 42.125 6.4 40.7996 6.4C39.4742 6.4 38.3996 5.32539 38.3996 4C38.3996 2.67461 39.4742 1.6 40.7996 1.6Z" fill="url(#paint1_linear_941_350)"/>
<path d="M2.4 43.2H3.2V46.4C3.2 46.8418 3.5582 47.2 4 47.2H10.4C10.8418 47.2 11.2 46.8418 11.2 46.4V43.2H12C13.3254 43.2 14.4 42.1254 14.4 40.8V39.2C14.3969 36.8328 12.6687 34.8211 10.3289 34.4617C10.8891 33.7629 11.1961 32.8953 11.2 32C11.2 29.791 9.40898 28 7.2 28C4.99102 28 3.2 29.791 3.2 32C3.20391 32.8953 3.51094 33.7629 4.07109 34.4617C1.73125 34.8211 0.003125 36.8328 0 39.2V40.8C0 42.1254 1.07461 43.2 2.4 43.2ZM7.2 29.6C8.52539 29.6 9.6 30.6746 9.6 32C9.6 33.3254 8.52539 34.4 7.2 34.4C5.87461 34.4 4.8 33.3254 4.8 32C4.8 30.6746 5.87461 29.6 7.2 29.6ZM1.6 39.2C1.6 37.4328 3.03281 36 4.8 36H6.4V38.4H8V36H9.6C11.3672 36 12.8 37.4328 12.8 39.2V40.8C12.8 41.2418 12.4418 41.6 12 41.6H11.2V39.2H9.6V45.6H4.8V39.2H3.2V41.6H2.4C1.9582 41.6 1.6 41.2418 1.6 40.8V39.2Z" fill="url(#paint2_linear_941_350)"/>
<path d="M47.9996 39.2C47.9965 36.8328 46.2684 34.8211 43.9285 34.4617C44.4887 33.7629 44.7957 32.8953 44.7996 32C44.7996 29.791 43.0086 28 40.7996 28C38.5906 28 36.7996 29.791 36.7996 32C36.8035 32.8953 37.1105 33.7629 37.6707 34.4617C35.3309 34.8211 33.6027 36.8328 33.5996 39.2V40.8C33.5996 42.1254 34.6742 43.2 35.9996 43.2H36.7996V46.4C36.7996 46.8418 37.1578 47.2 37.5996 47.2H43.9996C44.4414 47.2 44.7996 46.8418 44.7996 46.4V43.2H45.5996C46.925 43.2 47.9996 42.1254 47.9996 40.8V39.2ZM40.7996 29.6C42.125 29.6 43.1996 30.6746 43.1996 32C43.1996 33.3254 42.125 34.4 40.7996 34.4C39.4742 34.4 38.3996 33.3254 38.3996 32C38.3996 30.6746 39.4742 29.6 40.7996 29.6ZM46.3996 40.8C46.3996 41.2418 46.0414 41.6 45.5996 41.6H44.7996V39.2H43.1996V45.6H38.3996V39.2H36.7996V41.6H35.9996C35.5578 41.6 35.1996 41.2418 35.1996 40.8V39.2C35.1996 37.4328 36.6324 36 38.3996 36H39.9996V38.4H41.5996V36H43.1996C44.9668 36 46.3996 37.4328 46.3996 39.2V40.8Z" fill="url(#paint3_linear_941_350)"/>
<path d="M4.27686 20.667C3.90771 22.8736 3.90771 25.126 4.27686 27.3326L5.8542 27.067C5.51514 25.0361 5.51514 22.9635 5.8542 20.9326L4.27686 20.667Z" fill="url(#paint4_linear_941_350)"/>
<path d="M43.7229 27.3326C44.092 25.126 44.092 22.8736 43.7229 20.667L42.1455 20.9326C42.4846 22.9635 42.4846 25.0361 42.1455 27.067L43.7229 27.3326Z" fill="url(#paint5_linear_941_350)"/>
<path d="M32.433 7.64131L33.1674 6.21982C27.4143 3.26006 20.5861 3.26006 14.833 6.21982L15.5674 7.64131C20.8596 4.91943 27.1408 4.91943 32.433 7.64131Z" fill="url(#paint6_linear_941_350)"/>
<path d="M32.0049 42.3336L31.365 40.8672C26.6682 42.9109 21.3338 42.9109 16.6369 40.8672L15.9971 42.3336C21.1021 44.5555 26.9014 44.5555 32.0064 42.3336H32.0049Z" fill="url(#paint7_linear_941_350)"/>
<path d="M23.9998 35.1998C30.1854 35.1998 35.1998 30.1854 35.1998 23.9998C35.1998 17.8143 30.1854 12.7998 23.9998 12.7998C17.8143 12.7998 12.7998 17.8143 12.7998 23.9998C12.8064 30.1826 17.817 35.1932 23.9998 35.1998ZM25.5998 33.4549V32.3998L28.4799 30.2397C28.7904 30.0092 28.8916 29.5889 28.7197 29.2424L28.1158 28.035L30.1479 24.6396L31.9432 23.9197L33.5709 24.56C33.3064 29.0182 30.0025 32.7053 25.5998 33.4549ZM33.5197 22.8244L32.2318 22.3189C32.0428 22.2443 31.8322 22.2443 31.6432 22.3189L29.3022 23.2557C29.14 23.3205 29.0033 23.4365 28.9135 23.5861L26.5135 27.5861C26.3725 27.8205 26.3607 28.1111 26.483 28.3557L26.9846 29.3592L24.3197 31.36C24.1186 31.5107 23.9998 31.7479 23.9998 31.9998V33.5998C20.9432 33.5994 18.0693 32.1432 16.2611 29.6783C14.4533 27.2139 13.9268 24.0357 14.8439 21.1197L16.8799 22.1334L17.6127 26.5334C17.6463 26.7361 17.7572 26.9182 17.9213 27.0412L21.1213 29.4412C21.26 29.5451 21.4283 29.6014 21.6014 29.6014C21.6424 29.6014 21.6834 29.5982 21.7236 29.592C21.9365 29.5588 22.1268 29.4412 22.2518 29.2662L26.2518 23.6662C26.349 23.5303 26.4006 23.367 26.3998 23.1998V19.9998C26.3998 19.7189 26.2525 19.4588 26.0119 19.3143L22.2119 17.0334L21.1197 14.8439C23.8377 13.9881 26.7951 14.385 29.1912 15.9268C31.5869 17.4689 33.1732 19.9963 33.5197 22.8244ZM19.6357 15.46L20.8838 17.9572C20.9518 18.0936 21.0572 18.2072 21.1877 18.2854L24.7998 20.4525V22.9439L21.4244 27.6686L19.1365 25.9518L18.3885 21.4717C18.3467 21.2193 18.1861 21.0021 17.9572 20.8877L15.46 19.6389C16.3811 17.8439 17.8412 16.3822 19.6357 15.46Z" fill="url(#paint8_linear_941_350)"/>
<path d="M6.40039 12H8.00039V13.6H6.40039V12Z" fill="url(#paint9_linear_941_350)"/>
<path d="M6.40039 40H8.00039V41.6H6.40039V40Z" fill="url(#paint10_linear_941_350)"/>
<path d="M40 40H41.6V41.6H40V40Z" fill="url(#paint11_linear_941_350)"/>
<path d="M40 12H41.6V13.6H40V12Z" fill="url(#paint12_linear_941_350)"/>
<defs>
<linearGradient id="paint0_linear_941_350" x1="7.2" y1="0" x2="7.2" y2="19.2" gradientUnits="userSpaceOnUse">
<stop stop-color="#5AA2FF"/>
<stop offset="1" stop-color="#43A047"/>
</linearGradient>
<linearGradient id="paint1_linear_941_350" x1="40.7996" y1="0" x2="40.7996" y2="19.2" gradientUnits="userSpaceOnUse">
<stop stop-color="#5AA2FF"/>
<stop offset="1" stop-color="#43A047"/>
</linearGradient>
<linearGradient id="paint2_linear_941_350" x1="7.2" y1="28" x2="7.2" y2="47.2" gradientUnits="userSpaceOnUse">
<stop stop-color="#5AA2FF"/>
<stop offset="1" stop-color="#43A047"/>
</linearGradient>
<linearGradient id="paint3_linear_941_350" x1="40.7996" y1="28" x2="40.7996" y2="47.2" gradientUnits="userSpaceOnUse">
<stop stop-color="#5AA2FF"/>
<stop offset="1" stop-color="#43A047"/>
</linearGradient>
<linearGradient id="paint4_linear_941_350" x1="4.9271" y1="20.667" x2="4.9271" y2="27.3326" gradientUnits="userSpaceOnUse">
<stop stop-color="#5AA2FF"/>
<stop offset="1" stop-color="#43A047"/>
</linearGradient>
<linearGradient id="paint5_linear_941_350" x1="43.0726" y1="20.667" x2="43.0726" y2="27.3326" gradientUnits="userSpaceOnUse">
<stop stop-color="#5AA2FF"/>
<stop offset="1" stop-color="#43A047"/>
</linearGradient>
<linearGradient id="paint6_linear_941_350" x1="24.0002" y1="4" x2="24.0002" y2="7.64131" gradientUnits="userSpaceOnUse">
<stop stop-color="#5AA2FF"/>
<stop offset="1" stop-color="#43A047"/>
</linearGradient>
<linearGradient id="paint7_linear_941_350" x1="24.0018" y1="40.8672" x2="24.0018" y2="44" gradientUnits="userSpaceOnUse">
<stop stop-color="#5AA2FF"/>
<stop offset="1" stop-color="#43A047"/>
</linearGradient>
<linearGradient id="paint8_linear_941_350" x1="23.9998" y1="12.7998" x2="23.9998" y2="35.1998" gradientUnits="userSpaceOnUse">
<stop stop-color="#5AA2FF"/>
<stop offset="1" stop-color="#43A047"/>
</linearGradient>
<linearGradient id="paint9_linear_941_350" x1="7.20039" y1="12" x2="7.20039" y2="13.6" gradientUnits="userSpaceOnUse">
<stop stop-color="#5AA2FF"/>
<stop offset="1" stop-color="#43A047"/>
</linearGradient>
<linearGradient id="paint10_linear_941_350" x1="7.20039" y1="40" x2="7.20039" y2="41.6" gradientUnits="userSpaceOnUse">
<stop stop-color="#5AA2FF"/>
<stop offset="1" stop-color="#43A047"/>
</linearGradient>
<linearGradient id="paint11_linear_941_350" x1="40.8" y1="40" x2="40.8" y2="41.6" gradientUnits="userSpaceOnUse">
<stop stop-color="#5AA2FF"/>
<stop offset="1" stop-color="#43A047"/>
</linearGradient>
<linearGradient id="paint12_linear_941_350" x1="40.8" y1="12" x2="40.8" y2="13.6" gradientUnits="userSpaceOnUse">
<stop stop-color="#5AA2FF"/>
<stop offset="1" stop-color="#43A047"/>
</linearGradient>
</defs>
</svg>
