<svg width="48" height="44" viewBox="0 0 48 44" fill="none" xmlns="http://www.w3.org/2000/svg">
<path d="M47.637 23.2051C47.637 23.2051 47.6353 23.2041 47.6351 23.2039C47.6168 23.178 47.5974 23.153 47.5755 23.1295L43.5568 18.8152L45.0669 10.2513C45.2684 9.10834 44.5027 8.01453 43.3614 7.81332L30.8389 5.57379C29.6968 5.3723 28.6023 6.13814 28.4008 7.28106L27.5373 12.178L22.6573 14.6682V5.09925C23.1966 4.70141 24.5668 3.9437 25.9641 5.19952C26.2524 5.45864 26.6959 5.43479 26.9549 5.14677C27.2139 4.85856 27.1904 4.41498 26.9022 4.15595C25.5677 2.95644 24.1604 2.94597 23.0605 3.3207C23.1656 3.13521 23.2977 2.95429 23.4646 2.79396C23.9335 2.34336 24.6085 2.12812 25.4684 2.15337C25.4755 2.15356 25.4825 2.15365 25.4897 2.15365C25.8675 2.15365 26.1793 1.8531 26.1906 1.47294C26.2021 1.08567 25.8974 0.76238 25.5101 0.750875C24.2544 0.712522 23.2319 1.06453 22.4799 1.79435C22.2719 1.99622 22.0994 2.21418 21.9559 2.43718C21.8126 2.21418 21.6399 1.99622 21.4318 1.79426C20.6801 1.06453 19.6608 0.71327 18.4017 0.750875C18.0143 0.76238 17.7097 1.08567 17.7212 1.47294C17.7327 1.86021 18.0569 2.16619 18.4434 2.15337C19.3027 2.12784 19.9783 2.34327 20.4471 2.79396C20.6137 2.95411 20.7456 3.13455 20.8506 3.31967C19.2364 2.80883 17.7302 3.53192 17.0227 4.13715C16.7293 4.38803 16.6953 4.82741 16.9445 5.12207C17.1938 5.41673 17.6358 5.4535 17.9319 5.20589C17.9367 5.20186 18.417 4.80477 19.1047 4.63022C19.8679 4.43649 20.5897 4.59467 21.2543 5.09822V15.3844L16.7588 17.6784C16.7208 17.6958 16.6837 17.7164 16.6481 17.7412C16.2098 18.0481 15.9173 18.5073 15.8244 19.0342L15.2612 22.2278C12.3903 22.5994 9.79754 23.3299 7.51386 24.41V16.453C8.05314 16.0553 9.42337 15.2975 10.8205 16.5533C11.1087 16.8124 11.5523 16.7885 11.8113 16.5005C12.0704 16.2123 12.0468 15.7687 11.7586 15.5097C10.4242 14.3104 9.01692 14.2997 7.91713 14.6745C8.02059 14.4918 8.15033 14.3136 8.31366 14.1549C8.78297 13.6994 9.45957 13.4824 10.3248 13.5071C10.716 13.5208 11.0355 13.2141 11.047 12.8267C11.0585 12.4394 10.7538 12.1161 10.3666 12.1046C9.10897 12.0669 8.08831 12.4184 7.33641 13.1481C7.12837 13.35 6.95578 13.5679 6.81238 13.791C6.66898 13.568 6.49639 13.3501 6.28835 13.1482C5.53654 12.4184 4.51635 12.0668 3.2581 12.1047C2.87074 12.1162 2.56616 12.4395 2.57766 12.8268C2.58898 13.2069 2.90076 13.5075 3.27858 13.5075C3.2856 13.5075 3.29262 13.5074 3.29982 13.5072C4.1593 13.4815 4.83478 13.6972 5.30362 14.1478C5.47022 14.3079 5.60211 14.4884 5.70697 14.6734C4.09279 14.1627 2.58646 14.8857 1.87899 15.4909C1.5846 15.7427 1.54999 16.1857 1.80191 16.48C2.05382 16.7744 2.49675 16.809 2.79104 16.5571C2.86026 16.4981 4.43413 15.1862 6.11071 16.4528V25.1409C5.58977 25.4379 5.08519 25.7529 4.60157 26.0904C2.11743 27.8241 0.781534 29.6552 0.206428 30.5924C-0.00516767 30.9371 -0.0568037 31.3564 0.0647094 31.7429C0.187251 32.1323 0.472372 32.4493 0.847201 32.6126C1.24832 32.7873 1.64298 32.8575 2.02903 32.8575C2.88159 32.8575 3.69177 32.5152 4.43366 32.2018C5.74963 31.6458 6.53596 31.3664 7.39403 32.0914C8.95181 33.4077 10.5344 32.7391 11.8062 32.2018C12.4622 31.9246 13.0527 31.6761 13.5982 31.6593L13.1731 34.0706C12.588 34.1866 12.0306 34.4218 11.4873 34.6514C10.1712 35.2076 9.38455 35.4867 8.52694 34.7618C6.96906 33.4455 5.3865 34.1142 4.11477 34.6514C2.7988 35.2075 2.01229 35.4868 1.1544 34.7618C0.858426 34.5118 0.415778 34.549 0.165736 34.8449C-0.084399 35.1409 -0.0471687 35.5835 0.248803 35.8335C1.80668 37.1499 3.38915 36.4811 4.66097 35.9439C5.97704 35.3879 6.76346 35.1086 7.62134 35.8335C8.29168 36.3999 8.96641 36.5988 9.61915 36.5988C10.4833 36.5988 11.3089 36.25 12.0335 35.9439C12.332 35.8177 12.6226 35.6953 12.9038 35.5984L12.811 36.1246C12.6193 37.2124 13.3482 38.2533 14.4359 38.4452C14.4359 38.4452 42.8688 43.4478 42.9839 43.4478C43.9371 43.4478 44.7845 42.7629 44.9557 41.7923L47.969 24.702C48.0619 24.1751 47.944 23.6434 47.637 23.2051ZM45.9145 23.4051L42.4349 25.1784L43.2516 20.5462L45.9145 23.4051ZM30.1599 29.627C30.3985 29.5042 30.6925 29.5559 30.8809 29.7596L42.4518 41.9601L15.343 37.1803L30.1599 29.627ZM31.9052 28.8004C31.2965 28.1423 30.3148 27.9693 29.5203 28.3781L28.0776 29.1136L26.3101 27.2178L29.0006 11.9592C29.1166 11.9659 29.2324 11.9706 29.3479 11.9706C30.5572 11.9706 31.7357 11.6014 32.7469 10.8933C33.8516 10.1198 34.6429 9.01975 35.026 7.74803L38.6826 8.40199C38.6023 9.73564 38.9696 11.0483 39.7474 12.1593C40.523 13.2671 41.6271 14.0597 42.9033 14.4417L40.8694 25.9762L33.0203 29.9763L31.9052 28.8004ZM43.6851 10.0077L43.149 13.0483C42.2412 12.74 41.4571 12.1545 40.8968 11.3544C40.335 10.5522 40.053 9.61216 40.0754 8.6511L43.1161 9.19496C43.497 9.26212 43.7523 9.62666 43.6851 10.0077ZM30.5937 6.95534L33.6334 7.49901C33.3245 8.40367 32.7401 9.18523 31.9421 9.74396C31.142 10.3043 30.2047 10.5861 29.2464 10.5654L29.7826 7.52474C29.8498 7.14373 30.2148 6.88855 30.5937 6.95534ZM27.2321 13.9091L25.112 25.9326L18.1995 18.5184L27.2321 13.9091ZM17.1716 19.4734L26.7773 29.7764L14.2268 36.1743L17.1716 19.4734ZM11.2601 30.9093C9.94412 31.4653 9.15761 31.7447 8.29972 31.0197C6.74194 29.7034 5.15928 30.372 3.88755 30.9093C2.95118 31.3048 2.14259 31.6463 1.40219 31.3264C1.92033 30.4823 3.1292 28.8291 5.40455 27.2411C8.01984 25.4159 11.2469 24.2202 15.0055 23.6781L13.845 30.2598C12.9241 30.2066 12.0511 30.5751 11.2601 30.9093ZM43.6398 41.1738L34.0272 31.0379L46.5524 24.6548L43.6398 41.1738Z" fill="url(#paint0_linear_941_332)"/>
<defs>
<linearGradient id="paint0_linear_941_332" x1="24" y1="0.748047" x2="24" y2="43.4478" gradientUnits="userSpaceOnUse">
<stop offset="0.53125" stop-color="#E46027"/>
<stop offset="1" stop-color="#F5E052" stop-opacity="0"/>
</linearGradient>
</defs>
</svg>
