<svg width="24" height="24" viewBox="0 0 24 24" fill="none" xmlns="http://www.w3.org/2000/svg">
<path d="M16.1422 12.0804L11.9983 4.74023L7.85449 12.0804L11.9983 13.6695L16.1422 12.0804Z" fill="black"/>
<path d="M11.9986 1.71289C9.96429 1.71289 7.97565 2.31614 6.28417 3.44635C4.5927 4.57655 3.27435 6.18296 2.49585 8.06243C1.71735 9.9419 1.51366 12.01 1.91053 14.0052C2.30741 16.0005 3.28703 17.8332 4.72551 19.2717C6.16399 20.7102 7.99673 21.6898 9.99197 22.0867C11.9872 22.4836 14.0553 22.2799 15.9348 21.5014C17.8142 20.7229 19.4207 19.4045 20.5509 17.713C21.6811 16.0216 22.2843 14.0329 22.2843 11.9986C22.2811 9.27164 21.1965 6.65727 19.2682 4.72901C17.3399 2.80076 14.7256 1.71607 11.9986 1.71289ZM6.86432 12.092L11.6253 3.65775C11.6659 3.59576 11.7213 3.54486 11.7864 3.50962C11.8516 3.47439 11.9245 3.45594 11.9986 3.45594C12.0727 3.45594 12.1456 3.47439 12.2108 3.50962C12.276 3.54486 12.3313 3.59576 12.3719 3.65775L17.1333 12.092C17.1637 12.1457 17.1821 12.2052 17.1873 12.2667C17.1926 12.3281 17.1845 12.3899 17.1637 12.4479C17.1428 12.5059 17.1097 12.5587 17.0666 12.6028C17.0235 12.6468 16.9714 12.6811 16.9139 12.7032L12.152 14.5272C12.0533 14.5655 11.9439 14.5655 11.8452 14.5272L7.08375 12.7019C7.02621 12.6798 6.97411 12.6456 6.931 12.6015C6.8879 12.5575 6.8548 12.5046 6.83398 12.4466C6.81315 12.3886 6.80508 12.3268 6.81031 12.2654C6.81555 12.204 6.83397 12.1444 6.86432 12.0907V12.092ZM17.8812 13.9936L12.3226 20.4093C12.2824 20.4558 12.2326 20.4931 12.1767 20.5186C12.1208 20.5441 12.0601 20.5574 11.9986 20.5574C11.9371 20.5574 11.8764 20.5441 11.8205 20.5186C11.7646 20.4931 11.7148 20.4558 11.6746 20.4093L6.11604 13.9936C6.05334 13.9214 6.0166 13.8303 6.01165 13.7348C6.0067 13.6393 6.03383 13.5449 6.08872 13.4666C6.14361 13.3883 6.22312 13.3306 6.31458 13.3027C6.40604 13.2748 6.50421 13.2783 6.59347 13.3126L11.9986 15.3843L17.4038 13.313C17.493 13.2787 17.5912 13.2752 17.6826 13.3031C17.7741 13.331 17.8536 13.3887 17.9085 13.467C17.9634 13.5453 17.9905 13.6397 17.9856 13.7352C17.9806 13.8307 17.9439 13.9218 17.8812 13.994V13.9936Z" fill="black"/>
<path d="M11.8437 16.2409L7.88281 14.7246L11.9971 19.4732L16.1114 14.7246L12.1505 16.2409C12.0518 16.2791 11.9424 16.2791 11.8437 16.2409Z" fill="black"/>
<path d="M12 0C9.62663 0 7.30655 0.703788 5.33316 2.02236C3.35977 3.34094 1.8217 5.21508 0.913451 7.4078C0.0051994 9.60051 -0.232441 12.0133 0.230582 14.3411C0.693605 16.6689 1.83649 18.807 3.51472 20.4853C5.19295 22.1635 7.33115 23.3064 9.65892 23.7694C11.9867 24.2324 14.3995 23.9948 16.5922 23.0865C18.7849 22.1783 20.6591 20.6402 21.9776 18.6668C23.2962 16.6934 24 14.3734 24 12C23.9964 8.81851 22.7309 5.76838 20.4813 3.51873C18.2316 1.26908 15.1815 0.00362976 12 0ZM12 23.1429C9.79615 23.1429 7.6418 22.4893 5.80936 21.2649C3.97693 20.0406 2.54872 18.3003 1.70535 16.2642C0.861971 14.2281 0.641305 11.9876 1.07125 9.82613C1.5012 7.66463 2.56246 5.67917 4.12081 4.12081C5.67917 2.56245 7.66464 1.5012 9.82614 1.07125C11.9876 0.6413 14.2281 0.861966 16.2642 1.70534C18.3003 2.54872 20.0406 3.97693 21.2649 5.80936C22.4893 7.64179 23.1429 9.79615 23.1429 12C23.1395 14.9542 21.9644 17.7865 19.8754 19.8754C17.7865 21.9644 14.9542 23.1395 12 23.1429Z" fill="black"/>
</svg>
