<svg width="48" height="48" viewBox="0 0 48 48" fill="none" xmlns="http://www.w3.org/2000/svg">
<circle cx="24" cy="24" r="24" fill="#8BC727" fill-opacity="0.2"/>
<g clip-path="url(#clip0_921_24473)">
<path d="M16.2263 26.6726L21.4798 21.4191L22.7347 22.6753C23.3263 23.27 24.1138 23.5976 24.9519 23.5976C25.79 23.5976 26.5775 23.27 27.1694 22.6751C28.3867 21.4517 28.3867 19.4612 27.1694 18.2378L25.2019 16.2651L26.1793 15.4055C28.6378 13.251 32.3775 13.4975 34.532 15.9561C36.6866 18.4147 36.44 22.1544 33.9815 24.3089L32.5772 25.6068L31.0182 24.0478C30.1112 23.1408 28.6353 23.1408 27.7283 24.0478C27.2958 24.4803 27.0551 25.0533 27.0477 25.6638C26.462 25.6713 25.8786 25.8975 25.4327 26.3434C24.9866 26.7895 24.7604 27.3733 24.7532 27.9593C24.1671 27.9665 23.5834 28.1927 23.1372 28.6389H23.1372C22.2302 29.5459 22.2302 31.0218 23.1372 31.9288L24.3858 33.1774L23.3298 34.1533C22.6094 34.7846 21.5136 34.7124 20.8823 33.992C20.251 33.2716 20.3233 32.1758 21.0437 31.5445C20.3233 32.1758 19.2275 32.1036 18.5962 31.3832C17.9649 30.6628 18.0372 29.567 18.7576 28.9357L18.7575 28.9356C18.0371 29.567 16.9413 29.4947 16.31 28.7743C15.769 28.157 15.8003 27.3776 16.2263 26.6726Z" fill="#8BC727"/>
<path d="M13.7337 15.1507C16.0452 12.8391 19.793 12.8391 22.1046 15.1507L26.1731 19.2299C26.6589 19.7182 26.8082 20.4699 26.5519 21.1083C26.2731 21.8027 25.555 22.2474 24.8088 22.1854C24.3973 22.1512 24.0097 21.9664 23.7207 21.6722L21.4809 19.4299L15.5614 25.3493L13.7337 23.5215C11.4221 21.21 11.4221 17.4622 13.7337 15.1507Z" fill="#8BC727"/>
<path d="M30.7292 28.3492L28.7236 26.3436C28.5498 26.1698 28.4541 25.9388 28.4541 25.693C28.4541 25.4473 28.5498 25.2163 28.7236 25.0425C28.9029 24.8631 29.1386 24.7734 29.3742 24.7734C29.6098 24.7734 29.8454 24.8631 30.0247 25.0425L32.0303 27.0481C32.3877 27.4054 32.3888 27.9859 32.0342 28.345C32.0283 28.3507 32.0223 28.3562 32.0164 28.3619C31.8442 28.5273 31.6192 28.6187 31.3798 28.6187C31.134 28.6187 30.903 28.523 30.7292 28.3492Z" fill="#8BC727"/>
<path d="M28.4333 30.6446L26.4276 28.639C26.2539 28.4652 26.1582 28.2342 26.1582 27.9884C26.1582 27.7427 26.2539 27.5117 26.4276 27.3378C26.6015 27.1641 26.8325 27.0684 27.0782 27.0684C27.324 27.0684 27.555 27.1641 27.7288 27.3378L29.7344 29.3435C29.9082 29.5173 30.0039 29.7483 30.0039 29.9941C30.0039 30.2385 29.9091 30.4682 29.7372 30.6416C29.7334 30.6454 29.7295 30.6489 29.7257 30.6526C29.3662 31.0029 28.7892 31.0005 28.4333 30.6446Z" fill="#8BC727"/>
<path d="M26.138 32.9405L24.1323 30.9349C23.7736 30.5762 23.7736 29.9925 24.1323 29.6338V29.6337C24.3061 29.46 24.5371 29.3643 24.7829 29.3643C25.0287 29.3643 25.2597 29.46 25.4335 29.6337L27.4391 31.6394C27.6129 31.8132 27.7086 32.0442 27.7086 32.29C27.7086 32.535 27.6133 32.7654 27.4405 32.939C27.4386 32.9409 27.4367 32.9426 27.4348 32.9444C27.0757 33.299 26.4953 33.2979 26.138 32.9405Z" fill="#8BC727"/>
</g>
<defs>
<clipPath id="clip0_921_24473">
<rect width="24" height="24" fill="white" transform="translate(12 12)"/>
</clipPath>
</defs>
</svg>
