<svg width="48" height="48" viewBox="0 0 48 48" fill="none" xmlns="http://www.w3.org/2000/svg">
<g clip-path="url(#clip0_941_294)">
<path d="M47.8045 20.1899L39.7706 9.75364C39.4732 9.36766 38.9308 9.27244 38.5196 9.53392L33.3326 12.8327H26.5676C26.48 12.8327 26.3929 12.8514 26.3086 12.876L21.0634 14.3858L15.6208 12.8972L10.3323 9.53392C9.92803 9.27684 9.39556 9.364 9.0949 9.7368L0.208794 20.7436C-0.110541 21.1391 -0.0578071 21.7167 0.327447 22.0481L4.98492 26.0563L9.16338 31.6871C7.94134 32.989 7.96514 35.0423 9.23663 36.3142C9.80023 36.8774 10.5169 37.1957 11.2541 37.2696C11.2284 37.4366 11.2153 37.6062 11.2153 37.7783C11.2153 38.6667 11.5613 39.5021 12.1894 40.1301C12.8178 40.7585 13.6531 41.1046 14.5416 41.1046C14.5536 41.1046 14.5654 41.1039 14.5771 41.1035C14.5767 41.1262 14.5756 41.1485 14.5756 41.1712C14.5756 42.0597 14.9217 42.895 15.5497 43.5234C16.1782 44.1515 17.0135 44.4975 17.9019 44.4975C18.0773 44.4975 18.2509 44.4833 18.4212 44.4569C18.4933 45.1966 18.8123 45.9166 19.3777 46.482C20.0259 47.1306 20.8777 47.4547 21.7295 47.4547C22.5814 47.4547 23.4332 47.1306 24.0817 46.482L24.5904 45.9734L24.8039 46.1455C25.447 46.7684 26.2819 47.0797 27.1169 47.0797C27.9687 47.0797 28.8205 46.7556 29.4687 46.107C30.1304 45.4453 30.4545 44.5719 30.441 43.7029C31.3096 43.716 32.1834 43.3923 32.8451 42.7309C33.5062 42.0696 33.8303 41.1969 33.8174 40.3282C34.7223 40.3425 35.5807 39.995 36.2212 39.3545C36.883 38.6927 37.2071 37.8193 37.1935 36.9503C38.0629 36.9635 38.936 36.6398 39.5977 35.978C40.7271 34.8486 40.8725 33.1029 40.035 31.8142L43.0859 25.4245L47.6727 21.4775C48.0517 21.1512 48.1096 20.5858 47.8045 20.1899ZM10.0313 11.5733L13.834 13.9914L5.5617 24.0696L2.24676 21.2164L10.0313 11.5733ZM10.5678 32.941L11.7155 31.7933C11.7503 31.7585 11.7869 31.7256 11.8243 31.6948C12.0488 31.5117 12.3205 31.4026 12.6083 31.3766C12.6164 31.3758 12.6248 31.3758 12.6329 31.3755C12.6739 31.3722 12.7149 31.37 12.7563 31.3703C13.1496 31.3758 13.5151 31.5366 13.7861 31.8226C14.3178 32.3847 14.2892 33.3032 13.7223 33.8701L12.6094 34.983C12.0466 35.5459 11.1307 35.5459 10.5678 34.983C10.0049 34.4198 10.0049 33.5039 10.5678 32.941ZM13.5206 38.7989C13.2477 38.5265 13.0976 38.1639 13.0976 37.7783C13.0976 37.3927 13.2477 37.0301 13.5206 36.7573L15.746 34.5318C16.1723 34.1056 16.8425 33.9888 17.3874 34.2484C17.9492 34.5161 18.2652 35.1258 18.1828 35.7392C18.1388 36.0666 17.9865 36.375 17.7529 36.609L15.5626 38.7989C15.2897 39.0718 14.9272 39.2219 14.5416 39.2219C14.1559 39.2219 13.7934 39.0718 13.5206 38.7989ZM16.8809 42.1919C16.6081 41.9194 16.4579 41.5569 16.4579 41.1712C16.4579 40.7856 16.6081 40.4231 16.8809 40.1503L19.106 37.9248C19.5619 37.4692 20.2933 37.3711 20.8514 37.6959C21.3611 37.9925 21.6281 38.5748 21.5406 39.1549C21.4926 39.4739 21.341 39.7738 21.1128 40.0019L18.9229 42.1919C18.6501 42.4647 18.2875 42.6149 17.9019 42.6149C17.5163 42.6149 17.1537 42.4647 16.8809 42.1919ZM20.7085 45.1509C20.1457 44.588 20.1457 43.6721 20.7085 43.1092L21.8563 41.9615C21.891 41.9267 21.9273 41.8941 21.9647 41.8634C21.9658 41.8627 21.9665 41.8619 21.9672 41.8612C22.154 41.7096 22.3733 41.6081 22.6074 41.5638C22.6128 41.5631 22.6183 41.5624 22.6238 41.5616C22.6641 41.5543 22.7051 41.5484 22.7461 41.5448C22.7626 41.5433 22.7791 41.5433 22.796 41.5422C22.8296 41.5404 22.863 41.5382 22.897 41.5386C23.29 41.5441 23.6558 41.7045 23.9268 41.9908C23.9601 42.026 23.9913 42.0626 24.0198 42.1003C24.4527 42.6661 24.3945 43.5066 23.8572 44.0442L22.7502 45.1512C22.1873 45.7141 21.2714 45.7137 20.7085 45.1509ZM38.2665 34.6468C37.7037 35.2101 36.7878 35.2097 36.2249 34.6468C36.2044 34.6263 36.1828 34.6073 36.1608 34.5893L30.1088 28.4736C29.743 28.1041 29.1471 28.1012 28.7776 28.467C28.4081 28.8325 28.4052 29.4283 28.7707 29.7978L34.8882 35.9791C34.889 35.9798 34.8897 35.9806 34.8904 35.9813C35.4533 36.5442 35.4533 37.4604 34.8904 38.0233C34.6176 38.2961 34.2551 38.4463 33.8694 38.4463C33.4835 38.4463 33.1209 38.2961 32.8484 38.0233L28.756 33.8884C28.3906 33.5189 27.7947 33.516 27.4252 33.8815C27.0557 34.2473 27.0528 34.8431 27.4183 35.2126L31.4481 39.2842C31.4686 39.3098 31.4905 39.3343 31.514 39.3578C32.0768 39.9206 32.0768 40.8369 31.514 41.3998C30.9507 41.9626 30.0345 41.9623 29.4716 41.3994L27.2381 39.1424C26.8722 38.7729 26.2764 38.7696 25.9069 39.1355C25.5374 39.501 25.5345 40.0968 25.9 40.4663L28.0712 42.6599C28.0917 42.6855 28.1137 42.7104 28.1375 42.7339C28.7004 43.2967 28.7004 44.213 28.1375 44.7759C27.5746 45.3391 26.6587 45.3387 26.0959 44.7759C26.0311 44.711 25.9549 44.6612 25.8824 44.6056C25.8209 44.5587 25.8047 44.5261 25.8355 44.4514C25.8666 44.3756 25.9131 44.3071 25.9443 44.2309C25.9787 44.146 26.0065 44.0585 26.0336 43.9706C26.1779 43.5055 26.2204 43.0052 26.1556 42.5226C26.0311 41.5964 25.5217 40.7607 24.7497 40.2319C24.3326 39.9466 23.8499 39.7595 23.3497 39.6892C23.5921 38.6199 23.301 37.4604 22.5436 36.6603C21.9203 36.0018 21.0784 35.6323 20.1728 35.6199C20.1398 35.6195 20.1069 35.6195 20.0735 35.6199C20.0937 34.7556 19.7795 33.8968 19.1836 33.2673C18.56 32.6089 17.7181 32.2394 16.8128 32.2269C16.5436 32.2232 16.2719 32.2518 16.0097 32.3122C15.8976 31.5326 15.5047 30.8111 14.9096 30.2951C14.3182 29.7832 13.5744 29.499 12.7823 29.488C11.9484 29.4759 11.1292 29.7836 10.5099 30.3428L6.87164 25.4403L15.5757 14.8363L18.3498 15.5951L14.7269 21.988C14.2889 22.7611 14.1783 23.6583 14.4152 24.5145C14.6522 25.3711 15.2081 26.0837 15.9811 26.5217C16.0295 26.5492 16.0782 26.5752 16.1276 26.6001C16.1313 26.6019 16.1349 26.6037 16.139 26.6056C16.269 26.6704 16.4026 26.7261 16.5381 26.7729C17.1691 26.9916 17.8506 27.0154 18.508 26.8337C19.3642 26.5968 20.0768 26.0405 20.5148 25.2678L22.8692 21.1131L27.0729 21.4112L38.2669 32.6048C38.8294 33.1681 38.8294 34.084 38.2665 34.6468ZM38.6565 30.3325L28.1554 19.8318C28.1357 19.8116 28.1148 19.7926 28.0932 19.7746C27.9419 19.6487 27.7544 19.5725 27.5567 19.5586L22.4096 19.1935C22.0536 19.1689 21.6999 19.3583 21.5241 19.6684L18.8771 24.3398C18.6871 24.6753 18.3776 24.9166 18.0059 25.0195C17.6346 25.1224 17.2449 25.0741 16.9091 24.884C16.5737 24.694 16.3323 24.3845 16.2294 24.0128C16.1265 23.6411 16.1745 23.2514 16.3649 22.916L19.8985 16.6798L21.3304 16.2678C21.3399 16.2649 21.3491 16.2612 21.3586 16.2583L26.7027 14.7151H33.1597L41.2208 24.9624L38.6565 30.3325ZM42.4538 23.4851L34.9992 14.0035L38.8038 11.584L45.7695 20.6319L42.4538 23.4851Z" fill="url(#paint0_linear_941_294)"/>
<path d="M29.0798 11.0653C29.3208 11.0653 29.5618 10.9734 29.7456 10.7896L36.1748 4.36035C36.5425 3.99268 36.5425 3.39685 36.1748 3.02917C35.8071 2.6615 35.2113 2.6615 34.8436 3.02917L28.4144 9.45837C28.0468 9.82605 28.0468 10.4219 28.4144 10.7896C28.5983 10.9734 28.8392 11.0653 29.0798 11.0653Z" fill="url(#paint1_linear_941_294)"/>
<path d="M18.2548 10.7896C18.4386 10.9734 18.6796 11.0653 18.9205 11.0653C19.1611 11.0653 19.4021 10.9734 19.5859 10.7896C19.9536 10.4219 19.9536 9.82605 19.5859 9.45837L13.1567 3.02917C12.7891 2.6615 12.1932 2.6615 11.8256 3.02917C11.4579 3.39685 11.4579 3.99268 11.8256 4.36035L18.2548 10.7896Z" fill="url(#paint2_linear_941_294)"/>
<path d="M23.9998 11.0653C24.5194 11.0653 24.9409 10.6438 24.9409 10.1241V4.80347C24.9409 4.28381 24.5194 3.8623 23.9998 3.8623C23.4801 3.8623 23.0586 4.28381 23.0586 4.80347V10.1241C23.0586 10.6438 23.4801 11.0653 23.9998 11.0653Z" fill="url(#paint3_linear_941_294)"/>
<path d="M23.1317 1.39233C23.2811 1.75451 23.6535 1.99218 24.0464 1.97167C24.4346 1.95153 24.7756 1.68932 24.8957 1.31982C25.0162 0.947379 24.8851 0.522941 24.5731 0.285636C24.2548 0.0432047 23.811 0.0296549 23.4781 0.249748C23.1067 0.495109 22.9628 0.983634 23.1317 1.39233Z" fill="url(#paint4_linear_941_294)"/>
</g>
<defs>
<linearGradient id="paint0_linear_941_294" x1="24" y1="9.38672" x2="24" y2="47.4547" gradientUnits="userSpaceOnUse">
<stop stop-color="#F5E052"/>
<stop offset="1" stop-color="#43A047"/>
</linearGradient>
<linearGradient id="paint1_linear_941_294" x1="32.2946" y1="2.75342" x2="32.2946" y2="11.0653" gradientUnits="userSpaceOnUse">
<stop stop-color="#F5E052"/>
<stop offset="1" stop-color="#43A047"/>
</linearGradient>
<linearGradient id="paint2_linear_941_294" x1="15.7057" y1="2.75342" x2="15.7057" y2="11.0653" gradientUnits="userSpaceOnUse">
<stop stop-color="#F5E052"/>
<stop offset="1" stop-color="#43A047"/>
</linearGradient>
<linearGradient id="paint3_linear_941_294" x1="23.9998" y1="3.8623" x2="23.9998" y2="11.0653" gradientUnits="userSpaceOnUse">
<stop stop-color="#F5E052"/>
<stop offset="1" stop-color="#43A047"/>
</linearGradient>
<linearGradient id="paint4_linear_941_294" x1="24.0008" y1="0.09375" x2="24.0008" y2="1.9729" gradientUnits="userSpaceOnUse">
<stop stop-color="#F5E052"/>
<stop offset="1" stop-color="#43A047"/>
</linearGradient>
<clipPath id="clip0_941_294">
<rect width="48" height="48" fill="white"/>
</clipPath>
</defs>
</svg>
