<svg width="48" height="48" viewBox="0 0 48 48" fill="none" xmlns="http://www.w3.org/2000/svg">
<circle cx="24" cy="24" r="24" fill="#5AA2FF" fill-opacity="0.2"/>
<g clip-path="url(#clip0_921_24490)">
<path d="M24 19.0312C21.2861 19.0312 19.0781 21.2392 19.0781 23.9531C19.0781 26.667 21.2861 28.875 24 28.875C26.7139 28.875 28.9219 26.667 28.9219 23.9531C28.9219 21.2392 26.714 19.0312 24 19.0312ZM27.3097 23.0441L23.5597 26.7941C23.4224 26.9313 23.2425 27 23.0625 27C22.8825 27 22.7026 26.9313 22.5653 26.794L20.6903 24.919C20.4157 24.6445 20.4157 24.1993 20.6903 23.9247C20.9649 23.6501 21.4101 23.6501 21.6847 23.9247L23.0625 25.3025L26.3153 22.0497C26.5899 21.7751 27.0351 21.7751 27.3097 22.0497C27.5843 22.3243 27.5843 22.7695 27.3097 23.0441Z" fill="#5AA2FF"/>
<path d="M32.4375 15.75C29.6025 15.75 26.9372 14.646 24.9326 12.6414L24.4972 12.2059C24.2227 11.9313 23.7774 11.9314 23.5028 12.2059L23.0674 12.6414C21.0628 14.646 18.3975 15.75 15.5625 15.75C15.1742 15.75 14.8594 16.0648 14.8594 16.4531V23.4666C14.8594 29.1043 18.4407 34.1257 23.771 35.9617C23.8452 35.9872 23.9226 36 24 36C24.0774 36 24.1548 35.9872 24.229 35.9617C29.5593 34.1257 33.1406 29.1043 33.1406 23.4666V16.4531C33.1406 16.0648 32.8258 15.75 32.4375 15.75ZM24 30.2812C20.5107 30.2812 17.6719 27.4424 17.6719 23.9531C17.6719 20.4638 20.5107 17.625 24 17.625C27.4893 17.625 30.3281 20.4638 30.3281 23.9531C30.3281 27.4424 27.4894 30.2812 24 30.2812Z" fill="#5AA2FF"/>
</g>
<defs>
<clipPath id="clip0_921_24490">
<rect width="24" height="24" fill="white" transform="translate(12 12)"/>
</clipPath>
</defs>
</svg>
