<svg width="120" height="120" viewBox="0 0 120 120" fill="none" xmlns="http://www.w3.org/2000/svg">
<g opacity="0.7" filter="url(#filter0_f_1234_137)">
<circle cx="60" cy="60" r="24" fill="#F5E052"/>
</g>
<g clip-path="url(#clip0_1234_137)">
<path d="M72.3001 42.3549C71.9517 42.2109 71.552 42.3766 71.4078 42.7253L69.882 46.4161L68.3562 42.7253C68.2121 42.3767 67.8126 42.2107 67.4639 42.3549C67.1153 42.499 66.9494 42.8985 67.0936 43.2472L69.2161 48.3814C69.4547 48.9585 70.3179 48.9381 70.5479 48.3814L72.6704 43.2472C72.8146 42.8985 72.6488 42.499 72.3001 42.3549V42.3549ZM76.9711 46.2607C78.916 45.2386 78.1723 42.3031 75.9983 42.3031H74.271C73.8938 42.3031 73.5879 42.6089 73.5879 42.9862V48.1698C73.5879 48.5471 73.8937 48.8528 74.271 48.8528C74.6483 48.8528 74.9541 48.547 74.9541 48.1698V46.5006H75.4921L76.844 48.5464C77.0519 48.8611 77.4758 48.9478 77.7905 48.7397C78.1053 48.5318 78.1918 48.108 77.9838 47.7932L76.9711 46.2607ZM75.9983 45.1344H74.9541V43.6693H75.9983C76.4023 43.6693 76.7308 43.998 76.7308 44.4019C76.7308 44.8058 76.4023 45.1344 75.9983 45.1344ZM42.1177 48.2708C41.7404 48.2708 41.4346 48.5767 41.4346 48.954V50.0262C41.4346 50.4036 41.7404 50.7094 42.1177 50.7094C42.4949 50.7094 42.8008 50.4036 42.8008 50.0262V48.954C42.8008 48.5767 42.4949 48.2708 42.1177 48.2708V48.2708ZM45.4769 40.9346C43.1346 40.9346 41.4345 42.6347 41.4345 44.977V46.6309C41.4345 47.0082 41.7403 47.314 42.1176 47.314C42.4948 47.314 42.8008 47.0082 42.8008 46.6309V44.977C42.8008 43.6449 43.6282 42.3009 45.4769 42.3009C45.8542 42.3009 46.1601 41.9951 46.1601 41.6178C46.1601 41.2404 45.8542 40.9346 45.4769 40.9346ZM82.7705 44.573H82.0811C82.0379 41.1713 79.2589 38.4171 75.8472 38.4171H65.1569V37.7296C65.1569 36.7759 64.3811 36 63.4274 36H57.5726C56.6189 36 55.8431 36.7759 55.8431 37.7296V38.4171H45.1528C41.7412 38.4171 38.9622 41.1714 38.9189 44.573H38.2295C37.2759 44.573 36.5 45.3488 36.5 46.3026V52.1574C36.5 53.1111 37.2759 53.8869 38.2296 53.8869H38.919C38.9622 57.2886 41.7412 60.0429 45.1529 60.0429H55.5185C56.9439 60.0429 58.1035 58.8833 58.1035 57.4581C58.1035 56.7373 58.6897 56.1511 59.4103 56.1511H61.5897C62.3104 56.1511 62.8966 56.7374 62.8966 57.4581C62.8966 58.8833 64.0562 60.0429 65.4816 60.0429H75.8472C79.2589 60.0429 82.0379 57.2886 82.0811 53.8869H82.7705C83.7241 53.8869 84.5 53.1111 84.5 52.1574V46.3026C84.5 45.3488 83.7241 44.573 82.7705 44.573V44.573ZM38.917 52.5206H38.2296C38.0292 52.5206 37.8662 52.3577 37.8662 52.1573V46.3025C37.8662 46.1021 38.0292 45.9391 38.2296 45.9391H38.917V52.5206ZM57.2093 37.7296C57.2093 37.5292 57.3723 37.3662 57.5726 37.3662H63.4274C63.6278 37.3662 63.7907 37.5292 63.7907 37.7296V38.4171H57.2093V37.7296ZM80.7049 53.8071C80.7049 56.4856 78.5257 58.6648 75.8472 58.6648H65.4816C64.8162 58.6648 64.2748 58.1234 64.2748 57.458C64.2748 55.9774 63.0702 54.7729 61.5897 54.7729H59.4103C57.9298 54.7729 56.7252 55.9774 56.7252 57.458C56.7252 58.1234 56.1838 58.6648 55.5183 58.6648H45.1528C42.4743 58.6648 40.2951 56.4856 40.2951 53.8071V44.6528C40.2951 41.9743 42.4743 39.7951 45.1528 39.7951H75.8472C78.5257 39.7951 80.7049 41.9743 80.7049 44.6528V53.8071ZM83.1338 52.1574C83.1338 52.3578 82.9708 52.5207 82.7705 52.5207H82.0831V45.9393H82.7705C82.9708 45.9393 83.1338 46.1023 83.1338 46.3027V52.1574Z" fill="#F5E052"/>
</g>
<defs>
<filter id="filter0_f_1234_137" x="0" y="0" width="120" height="120" filterUnits="userSpaceOnUse" color-interpolation-filters="sRGB">
<feFlood flood-opacity="0" result="BackgroundImageFix"/>
<feBlend mode="normal" in="SourceGraphic" in2="BackgroundImageFix" result="shape"/>
<feGaussianBlur stdDeviation="18" result="effect1_foregroundBlur_1234_137"/>
</filter>
<clipPath id="clip0_1234_137">
<rect width="48" height="48" fill="white" transform="translate(36.5 24)"/>
</clipPath>
</defs>
</svg>
