<svg width="24" height="24" viewBox="0 0 24 24" fill="none" xmlns="http://www.w3.org/2000/svg">
<path d="M12 24C9.62663 24 7.30655 23.2962 5.33316 21.9776C3.35977 20.6591 1.8217 18.7849 0.913451 16.5922C0.00519953 14.3995 -0.232441 11.9867 0.230582 9.65892C0.693604 7.33115 1.83649 5.19295 3.51472 3.51472C5.19295 1.83649 7.33115 0.693604 9.65892 0.230582C11.9867 -0.232441 14.3995 0.00519953 16.5922 0.913451C18.7849 1.8217 20.6591 3.35977 21.9776 5.33316C23.2962 7.30655 24 9.62663 24 12C23.9964 15.1815 22.731 18.2317 20.4813 20.4813C18.2317 22.731 15.1815 23.9964 12 24ZM12 0.800005C9.78485 0.800005 7.61945 1.45687 5.77762 2.68755C3.93579 3.91822 2.50026 5.66742 1.65255 7.71395C0.804853 9.76048 0.583056 12.0124 1.01521 14.185C1.44736 16.3576 2.51406 18.3532 4.08041 19.9196C5.64676 21.4859 7.6424 22.5526 9.81499 22.9848C11.9876 23.4169 14.2395 23.1952 16.2861 22.3475C18.3326 21.4997 20.0818 20.0642 21.3125 18.2224C22.5431 16.3806 23.2 14.2152 23.2 12C23.1966 9.03062 22.0155 6.18382 19.9159 4.08415C17.8162 1.98448 14.9694 0.803393 12 0.800005Z" fill="#1E81CE"/>
<path d="M11.9996 22.3996C9.94269 22.3996 7.93195 21.7897 6.22168 20.6469C4.51141 19.5041 3.17842 17.8799 2.39127 15.9795C1.60412 14.0792 1.39816 11.9881 1.79945 9.97067C2.20073 7.95327 3.19124 6.10017 4.6457 4.6457C6.10017 3.19124 7.95327 2.20073 9.97067 1.79945C11.9881 1.39816 14.0792 1.60412 15.9795 2.39127C17.8799 3.17842 19.5041 4.51141 20.6469 6.22168C21.7897 7.93195 22.3996 9.94269 22.3996 11.9996C22.3964 14.7569 21.2997 17.4003 19.35 19.35C17.4003 21.2997 14.7569 22.3964 11.9996 22.3996ZM11.9996 2.39961C10.1009 2.39961 8.24485 2.96264 6.66614 4.01751C5.08743 5.07237 3.85697 6.57168 3.13037 8.32585C2.40377 10.08 2.21366 12.0103 2.58408 13.8725C2.95449 15.7347 3.8688 17.4453 5.21139 18.7878C6.55397 20.1304 8.26453 21.0447 10.1267 21.4151C11.989 21.7856 13.9192 21.5955 15.6734 20.8689C17.4275 20.1423 18.9269 18.9118 19.9817 17.3331C21.0366 15.7544 21.5996 13.8983 21.5996 11.9996C21.5966 9.45444 20.5843 7.01437 18.7846 5.21466C16.9849 3.41496 14.5448 2.40258 11.9996 2.39961Z" fill="#1E81CE"/>
<path d="M17.6004 12.8004C17.6004 11.966 16.4572 11.3044 14.4636 10.986C14.3604 10.9726 14.2561 10.9999 14.1727 11.0621C14.0893 11.1244 14.0335 11.2167 14.017 11.3194C14.0006 11.4222 14.0248 11.5273 14.0846 11.6124C14.1444 11.6976 14.235 11.7561 14.3372 11.7756C16.18 12.0704 16.8004 12.6028 16.8004 12.8004C16.8004 13.1028 15.7312 13.7048 13.6004 13.9204V9.60039H15.6004C16.0247 9.60039 16.4317 9.43182 16.7318 9.13176C17.0318 8.8317 17.2004 8.42474 17.2004 8.00039C17.2004 7.57604 17.0318 7.16908 16.7318 6.86902C16.4317 6.56896 16.0247 6.40039 15.6004 6.40039H8.40039C7.97604 6.40039 7.56908 6.56896 7.26902 6.86902C6.96896 7.16908 6.80039 7.57604 6.80039 8.00039C6.80039 8.42474 6.96896 8.8317 7.26902 9.13176C7.56908 9.43182 7.97604 9.60039 8.40039 9.60039H10.4004V13.9204C8.26959 13.7048 7.20039 13.1028 7.20039 12.8004C7.20039 12.6028 7.82079 12.0704 9.66359 11.7756C9.7658 11.7561 9.8564 11.6976 9.91617 11.6124C9.97594 11.5273 10.0002 11.4222 9.98373 11.3194C9.96728 11.2167 9.91145 11.1244 9.82808 11.0621C9.74471 10.9999 9.64037 10.9726 9.53719 10.986C7.54359 11.3044 6.40039 11.966 6.40039 12.8004C6.40039 13.9404 8.40279 14.5324 10.4004 14.724V17.6004C10.4004 18.0247 10.569 18.4317 10.869 18.7318C11.1691 19.0318 11.576 19.2004 12.0004 19.2004C12.4247 19.2004 12.8317 19.0318 13.1318 18.7318C13.4318 18.4317 13.6004 18.0247 13.6004 17.6004V14.724C15.6004 14.5324 17.6004 13.9404 17.6004 12.8004ZM8.40039 8.80039C8.18822 8.80039 7.98473 8.7161 7.8347 8.56608C7.68468 8.41605 7.60039 8.21256 7.60039 8.00039C7.60039 7.78822 7.68468 7.58473 7.8347 7.43471C7.98473 7.28468 8.18822 7.20039 8.40039 7.20039H15.6004C15.8126 7.20039 16.016 7.28468 16.1661 7.43471C16.3161 7.58473 16.4004 7.78822 16.4004 8.00039C16.4004 8.21256 16.3161 8.41605 16.1661 8.56608C16.016 8.7161 15.8126 8.80039 15.6004 8.80039H13.2004C13.0943 8.80039 12.9926 8.84253 12.9175 8.91755C12.8425 8.99256 12.8004 9.0943 12.8004 9.20039V13.9708C12.2674 13.9976 11.7334 13.9976 11.2004 13.9708V9.20039C11.2004 9.0943 11.1582 8.99256 11.0832 8.91755C11.0082 8.84253 10.9065 8.80039 10.8004 8.80039H8.40039ZM12.0004 18.4004C11.7882 18.4004 11.5847 18.3161 11.4347 18.1661C11.2847 18.016 11.2004 17.8126 11.2004 17.6004V14.7788C11.4684 14.7916 11.7364 14.8004 12.0004 14.8004C12.2644 14.8004 12.5324 14.7916 12.8004 14.7788V17.6004C12.8004 17.8126 12.7161 18.016 12.5661 18.1661C12.416 18.3161 12.2126 18.4004 12.0004 18.4004Z" fill="#1E81CE"/>
</svg>
