<?xml version="1.0" encoding="UTF-8"?>
<svg id="Layer_1" data-name="Layer 1" xmlns="http://www.w3.org/2000/svg" viewBox="0 0 202.33 203.9">
  <defs>
    <style>
      .cls-1 {
        fill: none;
      }

      .cls-2 {
        fill: #000;
      }
    </style>
  </defs>
  <rect class="cls-1" x="-31.48" y="-17.1" width="258" height="239"/>
  <g id="logo-black">
    <path id="Path_19957" data-name="Path 19957" class="cls-2" d="m178.33,26.08H25.7v152.63h152.63V26.08Zm-1.53,151.1H27.23V27.61h149.57v149.57Z"/>
    <path id="Path_19958" data-name="Path 19958" class="cls-2" d="m63.76,145.98l1.28-3.89c.21-.77.38-1.56.5-2.35.11.8.29,1.58.53,2.35l1.28,3.89h-3.59Zm-1.46-11.46l-6.83,18.24h6.1l.81-2.43h6.31l.78,2.43h6.1l-6.8-18.24h-6.47,0Zm20.6,0h-6.02v18.24h13.82v-5.27h-7.79v-12.98Zm17.2,13.19h-1.69v-8.13h1.69c2.13,0,3.44,1.09,3.44,4.07s-1.3,4.07-3.44,4.07m.16-13.19h-7.87v18.24h7.87c6.55,0,9.47-3.78,9.47-9.13s-2.92-9.13-9.47-9.13m17.38,11.48l1.28-3.89c.21-.77.38-1.56.5-2.35.11.8.29,1.58.53,2.35l1.28,3.89h-3.59Zm-1.46-11.46l-6.83,18.24h6.1l.81-2.43h6.31l.78,2.43h6.1l-6.8-18.24h-6.47,0Zm22.92,8.35h-2.32v-3.44h2.32c.95-.07,1.77.64,1.85,1.58.07.95-.64,1.77-1.58,1.85-.09,0-.17,0-.26,0m4.77,3.54c2.06-1.01,3.3-3.17,3.13-5.46,0-4.98-3.89-6.44-7.76-6.44h-8.47v18.24h6.02v-5.4h1.4l3.76,5.4h6.62l-4.69-6.36h-.01s0,.01,0,.01Zm-14.29-95.88h18.49v33.9h-18.49v-33.9Zm6.75,60.41c0,3-2.57,2.96-4.29,2.96h-8.59v15.02h24.62v-29.1c-2.88-5.12-6.94-9.48-11.84-12.71l-10.95,10.83s11.06,5.71,11.06,13.02m-55.42-35.77c.16-6.16,2.38-12.09,6.32-16.83l12.63,7.06c-6.01,7.56-4.74,15.42,2.24,15.42s6.78-6.39,6.78-7.14v-23.16h14.95v24.27c-.09,11.84-9.71,21.39-21.55,21.4-11.69.04-21.22-9.35-21.36-21.04m.51,14.56h-6.46v7.2c0,16.41-9.05,17.85-14.25,17.79h-4.86v14.21h24.11c8.33-5.9,12.75-15.91,13.38-30.11-4.79-1.77-8.94-4.93-11.93-9.08m20.85,10.68c-1.02,0-2.05-.06-3.07-.19v28.7h18.46v-33.64c-4.44,3.33-9.85,5.14-15.41,5.13"/>
  </g>
</svg>