<?xml version="1.0" encoding="utf-8"?>
<!-- Generator: Adobe Illustrator 27.7.0, SVG Export Plug-In . SVG Version: 6.00 Build 0)  -->
<svg version="1.1" id="layer" xmlns="http://www.w3.org/2000/svg" xmlns:xlink="http://www.w3.org/1999/xlink" x="0px" y="0px"
	 viewBox="0 0 652 143.2" style="enable-background:new 0 0 652 143.2;" xml:space="preserve">
<style type="text/css">
	.st0{fill-rule:evenodd;clip-rule:evenodd;fill:#FFFFFF;}
</style>
<path class="st0" d="M208.8,100.4h5.9v30.3h-4.9v-20.5l-9,20.5h-4l-9-20.5v20.5h-4.9v-30.4h6.1l10,22.8L208.8,100.4z M233.9,100.4
	l-12.7,30.3h5.6l9.7-23.7l4.1,10h-5.1l-1.6,4.6h8.6l3.7,9.1h5.8l-12.9-30.4h-5.2L233.9,100.4L233.9,100.4z M262.1,121.6
	c0,3-1.6,4.5-5.1,4.5h-0.8v4.6h0.8c8.6,0,10.4-5,10.4-9.1v-21.3h-5.3V121.6z M278.2,130.7h5.6v-30.4h-5.6
	C278.2,100.3,278.2,130.7,278.2,130.7z M305.2,100.4c10,0,15,4.8,15,14.4c0,10.6-5.1,16-15,16H294v-30.4H305.2 M305.2,126.1
	c6.5,0,9.7-3.7,9.7-11.3c0-6.6-3.1-9.8-9.7-9.8h-5.8v21.1L305.2,126.1 M353.6,100.4l-12.8,30.3h5.6l9.7-23.7l4.1,10h-5.1l-1.6,4.6
	h8.6l3.7,9.1h5.9l-12.9-30.4h-5.2L353.6,100.4L353.6,100.4z M383.6,100.4h-5.4v30.3h20.6v-4.6h-15.2V100.4L383.6,100.4z
	 M421.2,130.7h5.3v-13h14.1v-4.6h-14.1v-8h14.8v-4.6h-20.1L421.2,130.7L421.2,130.7z M469.1,118.7c0,5-2.3,7.4-7.3,7.4
	s-7.3-2.4-7.3-7.4v-18.3h-5.3v18.3c0,8,4.2,12,12.6,12s12.6-4,12.6-12v-18.3h-5.3L469.1,118.7L469.1,118.7z M481.9,105h9v25.7h5.4
	V105h9v-4.6h-23.4V105z M510.4,105h9v25.7h5.3V105h9v-4.6h-23.4L510.4,105L510.4,105z M548.5,100.4l-12.8,30.3h5.6L551,107l4.1,10
	H550l-1.6,4.6h8.6l3.7,9.1h5.9l-12.9-30.4h-5.2V100.4z M574,130.7h5.1v-30.4H574V130.7z M606,123.1l-10-22.8h-6.1v30.4h4.9v-20.5
	l9,20.5h4l8.9-20.5v20.5h4.9v-30.4h-5.9L606,123.1z M241.7,90.1h5.1V84h-5.1V90.1z M250.6,90.1h5.6V84h-5.6V90.1z M365.1,45.7h5.1
	v-6.1h-5.1V45.7z M427.7,69.3c0,8.3-4.6,10-8.5,10h-39.4c-3,0-5-0.1-6.2-0.3c-1.8-0.4-3.8-1.1-6-2.4c-2.1,1.2-4.2,2-6.1,2.4
	c-1.1,0.2-3.2,0.3-6.2,0.3H230.6c-5.4,0-9.2-1.8-11.3-5.2c-2.1,3.3-5.3,5.1-9.6,5.1c-7.1,0-11.8-5-11.8-12.6c0-3,0.7-5.6,2.2-7.8
	h-5.5c-4.2,0-6.7,4-6.7,10.7v18.2h-5.3V69.1c0-10.2,4-15.3,12-15.3h15.3c6.5,0,10.7,4.6,11.5,12.4c0.5,4.7,3.8,7.7,8.6,7.7h16.1
	c1.9,0,3.1-0.6,3.7-1.7c0.5-0.9,0.7-2.4,0.7-4.7V53.8h5.3v15.4c0,1.9-0.2,3.5-0.6,4.7h35V43.7h5.5L295,65
	c3.9-6.9,10.1-11.3,16.2-11.3c8.9,0,13.4,6.2,13.4,18.6c0,0.5,0,1,0,1.6h33.6c1.2,0,2.3-0.2,3.4-0.5c-1.8-1.1-3.2-2.6-4.3-4.4
	c-1.3-2.1-2-4.5-2-7c0-3.2,1-5.9,3.1-8.1c2.2-2.4,5.3-3.6,9-3.6c3.8,0,6.8,1.2,9,3.6c2,2.2,3,4.9,3,8.1c0,2.5-0.7,4.9-2,7
	c-1.1,1.8-2.6,3.3-4.4,4.4c1.1,0.4,2.2,0.5,3.4,0.5h41.3c1.9,0,3.1-0.6,3.7-1.7c0.5-0.8,0.7-2.4,0.7-4.7V43.7h5.3v25.6 M367.6,55.2
	c-3.9,0-6.4,2.5-6.5,6.3c0,1.8,0.5,3.5,1.6,5c1.1,1.7,2.7,3,4.9,3.9c2.1-0.9,3.6-2.2,4.7-3.9c1.1-1.6,1.7-3.3,1.7-5
	c0-1.8-0.5-3.3-1.7-4.5C371.3,55.8,369.6,55.2,367.6,55.2 M319.4,71.6c0-7.9-3.2-12.8-8.3-12.7c-5.9,0-13.1,7-15.8,15.2h23.9
	C319.4,73.2,319.4,72.4,319.4,71.6 M209.8,74.1c2.4,0,5.6-0.8,5.6-7.9c0-4.6-2-7.3-5.5-7.3c-3.7,0-5.9,2.9-5.9,7.9
	C204.1,71.4,206.3,74.1,209.8,74.1 M436.6,79.3h5.1V43.8h-5.1V79.3z M535.2,73.2c0-11.4-7-18.8-18-18.8c-5.9,0-10.4,2-13.6,5.9
	l-0.5,0.6l0.5,0.5c1.7,1.7,2.6,2.7,3.2,3.2l0.7,0.8l0.6-0.9c1.9-3.3,4.9-4.8,9.1-4.8c7.7,0,12,4.7,12,13.2c0,0.4,0,0.7,0,1.1h-48.5
	c-0.8-13.5-6.9-20.4-18.1-20.4h-0.8v5.1h2.2c4.1,0.2,7.1,1.9,9,5.1c1.5,2.5,2.3,5.9,2.4,10.1h-20.5v5.3h80.4L535.2,73.2L535.2,73.2z
	 M515.6,90.1h5.1V84h-5.1V90.1z M548.6,79c-2.1,0-3.9-0.8-5.3-2.2c-1.7-1.6-2.5-3.8-2.5-6.8V43.8h5.4v24c0,2.2,0.3,3.8,0.9,4.7
	c0.4,0.7,1.2,1,2.4,1.2c0.8,0,30.7,0,48.9,0c-0.2-0.9-0.3-1.8-0.3-2.8c0-3.6,1.1-6.6,3.2-9c2.1-2.4,5.1-3.6,8.7-3.6
	c3.7,0,6.5,1.2,8.6,3.6c1.9,2.2,2.9,5.3,2.9,8.9s-1,6.5-3,8.9c-2.1,2.5-5,3.7-8.6,3.7c-4.2,0-7.3-1.5-9.5-4.5L548.6,79 M610,78.6
	c3.9,0,5.8-2.6,5.8-8.1c0-2.1-0.4-3.9-1.2-5.2c-1-1.4-2.4-2.2-4.3-2.2c-2.1,0-3.7,0.8-4.7,2.4c-0.9,1.4-1.4,3.2-1.4,5.6
	c0,2.2,0.5,3.9,1.4,5.3C606.5,77.9,608,78.6,610,78.6"/>
<path class="st0" d="M85.7,15.7c-2.6,0.9-5.3,2-9.1,4.3c-15.8,9.8-22.8,27.8-23.5,45.2c0,1-0.1,2-0.1,2.9c0,0.1,0,0.6,0,0.8v61.8
	h20.5V68.9c0-3.9,1.8-7.4,4.5-9.7l8.1,9.7l8.1-9.7c2.8,2.3,4.5,5.8,4.5,9.7v61.8h20.5V68.9c0-18.3-14.8-33.1-33.1-33.1
	c-4.3,0-8.5,0.8-12.3,2.3c4.2-4.9,10.6-7.4,17.5-7.5l0,0c2.2,0,4.4,0.1,6.6,0.5c18.1,3,32,18.1,32.1,36.5c0,0.7,0,1.4,0,2.1v61h20.5
	c0,0,0-61,0-61.5c0-26.6-16-48-43.4-54.3c-1-0.2-2.6-0.5-4-0.7c-2-0.3-4.1-0.5-6.3-0.5C92.6,13.7,89.4,14.5,85.7,15.7 M81.8,13
	c-35.4,0-60.1,23.8-60.1,55.4v62.3h20.5c0,0,0-34.3,0-62.4C42.2,39,64.5,18,86.9,13.5c0.9-0.2,1.9-0.5,0.9-0.5H81.8z"/>
</svg>
