<?xml version="1.0" encoding="utf-8"?>
<!-- Generator: Adobe Illustrator 27.7.0, SVG Export Plug-In . SVG Version: 6.00 Build 0)  -->
<svg version="1.1" id="Layer_1" xmlns="http://www.w3.org/2000/svg" xmlns:xlink="http://www.w3.org/1999/xlink" x="0px" y="0px"
	 viewBox="0 0 3840 1095.2" style="enable-background:new 0 0 3840 1095.2;" xml:space="preserve">
<style type="text/css">
	.st0{fill:#FFFFFF;}
</style>
<g>
	<path class="st0" d="M1727.8,281.8c-17.1,28.4-34.3,56.8-51.3,85.3c-41.3,68.8-82.4,137.7-123.8,206.5c-11,18.3-50.9,18.4-61.9,0.2
		c-55.3-90.9-110.5-181.9-165.8-272.8c-3-5-4.9-11-11.1-14.1c-5.5,5.8-2.9,12.8-2.9,19c-0.2,108.3-0.4,216.7,0.2,325
		c0.1,14.7-3.5,20.8-19.2,19.8c-20.6-1.3-41.5-1.2-62.1,0c-14.6,0.8-18.7-4.4-18.6-18.6c0.5-113.8,0.3-227.6,0.3-341.5
		c0-63.3,0.4-126.6-0.3-189.9c-0.1-14.1,3.7-20.8,18.4-18.4c2.4,0.4,5,0.5,7.3,0c46.3-9.7,71,12.4,93.3,52
		c58.9,104.9,122.8,207,184.3,310.4c7.1,11.9,10.3,12.3,17.6-0.1c67.3-114.9,135.3-229.3,202.4-344.3c7.8-13.4,15.9-19.6,31.4-18.3
		c15.1,1.3,30.5,1.3,45.6,0c16.2-1.3,21.8,3.3,21.7,20.7c-0.9,88.9-0.4,177.7-0.4,266.6c0,87.7-0.3,175.3,0.3,262.9
		c0.1,14.7-4.5,19-18.7,18.3c-21.3-1.1-42.7-0.9-63.9,0c-13.1,0.6-16.8-4.5-16.4-16.9c0.7-26.8,0.4-53.6,0.2-80.3
		c-0.5-85.8-1.1-171.6-1.7-257.4c0-4.2-0.5-8.4-0.8-12.6C1730.4,282.8,1729.1,282.3,1727.8,281.8z"/>
	<path class="st0" d="M2702.4,272.4c-4.8,6.2-2.4,13.7-2.4,20.6c-0.2,112-0.4,224,0.2,336c0.1,16.3-3.6,23.1-21.1,21.7
		c-19.4-1.5-39-0.4-58.5-0.4c-23.9,0-23.9,0-23.9-23.1c0-155.8,0-311.6,0-467.5c0-21.3,0.4-42.6-0.1-63.9c-0.3-10,2.7-15,13.4-13.6
		c3.6,0.5,7.4,0.7,10.9,0c46.4-9.3,74.6,12.6,102.6,48.5c84.8,108.9,173.8,214.6,261.2,321.5c2.5,3,3.7,7.9,9.6,7.9
		c5.6-6,2.9-13.6,3-20.5c0.2-112,0.4-224-0.2-336c-0.1-15.8,3-23.1,20.8-21.7c21.8,1.7,43.9,1.1,65.7,0.1c13.4-0.6,18.3,3.2,18,17.2
		c-0.9,32.2-0.2,64.5-0.2,96.8c0,144.3-0.3,288.5,0.4,432.8c0.1,18-5.2,24.4-22.6,21.8c-4.8-0.7-9.7-0.1-14.6-0.1
		c-51.7,0-51.4-0.2-84.1-40.7c-89.6-110.5-179.4-220.8-269.2-331.2C2709,275.8,2707.7,271.7,2702.4,272.4z"/>
	<path class="st0" d="M1081,650.3c-53.2,0-53.2,0-74.6-49.8c-9.6-22.3-19.7-44.5-29-66.9c-4-9.6-9.3-13.9-20.4-13.8
		c-85.9,0.5-171.8,0.4-257.6,0.1c-11.1-0.1-15.9,4.3-19.9,14.1c-14,34.3-29.3,68.1-43.3,102.4c-4.3,10.7-10.2,14.6-21.7,14.3
		c-24.3-0.8-48.7-0.9-73.1,0c-16,0.6-18.8-3.5-12-18.3C566.3,551.8,602.5,470.8,639,390c43.7-96.9,87.6-193.6,130.6-290.7
		c5.9-13.3,12.8-18,27.1-17.2c23.7,1.3,47.5,0.8,71.2,0.1c9.1-0.2,14.5,2.5,18.3,10.9c80.4,178.2,161,356.3,241.3,534.6
		c10.1,22.5,9.6,22.7-15.5,22.7C1101.7,650.3,1091.3,650.3,1081,650.3z M830.1,191.7c-10.6,9.5-12,20.3-16,29.5
		c-28.6,65.7-56.9,131.6-84.9,197.5c-3.1,7.2-13.1,18.8,7.1,18.8c61.5-0.3,123-0.3,184.5,0c13.3,0.1,13.9-4.8,9.1-15.3
		c-10-22.1-19.1-44.6-28.8-66.9C877.8,301.3,854.3,247.4,830.1,191.7z"/>
	<path class="st0" d="M2465.4,650.3c-44.2,13.4-62.4-11.1-74.1-48.6c-7.2-23-19-44.6-28-67.2c-4.1-10.3-9.6-15-21.4-14.9
		c-85.2,0.5-170.5,0.5-255.7,0c-11.4-0.1-17.4,3.6-21.7,14.4c-13.5,33.8-28.5,67-42.1,100.8c-4.5,11-10.2,16.2-22.8,15.7
		c-24.9-1-49.9-0.9-74.9-0.1c-14.7,0.5-16.4-3.6-10.5-16.5c33.5-73.5,66.3-147.2,99.5-220.8c47.4-105.2,95.2-210.3,142.1-315.7
		c5.4-12.2,12.1-16,24.6-15.5c23.1,0.8,46.3,0.9,69.4,0c12.2-0.5,18.5,3.7,23.5,14.8c39.9,89.2,80.3,178.1,120.5,267.2
		c40.5,89.6,80.6,179.4,121.5,268.8c6.8,14.9,4.2,18.9-11.6,17.8C2491,649.6,2478.1,650.3,2465.4,650.3z M2213.6,187.7
		c-35.5,82.8-68.3,159.7-101.6,236.5c-6.6,15.2,3.7,13.1,12.1,13.2c59.6,0.1,119.2-0.2,178.8,0.2c13.9,0.1,18.8-1.9,11.9-17.1
		c-21.5-47.5-41.6-95.7-62.3-143.6C2240.4,248.8,2228,220.7,2213.6,187.7z"/>
	<path class="st0" d="M3733.5,650.3c-54.1,0-54.1,0-74.9-49.9c-9.4-22.4-19.3-44.6-28.3-67.1c-3.9-9.7-9.5-13.6-20.5-13.6
		c-85.9,0.4-171.8,0.4-257.6,0c-11.1-0.1-15.9,4.4-19.9,14.1c-14,34.3-29.2,68.1-43.1,102.5c-4.4,10.8-10.5,14.6-21.9,14.3
		c-25-0.7-50-0.7-74.9,0c-14,0.4-17-3-10.8-16.4c32.9-71.8,65-143.9,97.5-215.9c47.7-105.8,95.6-211.5,142.7-317.5
		c6-13.5,12.8-19.7,28.3-18.7c23.1,1.5,46.3,0.9,69.4,0.2c10.8-0.3,16.3,3.8,20.7,13.4c57.5,128,115.3,255.8,173.1,383.6
		c23.5,52,46.6,104.3,70.6,156.1c5.9,12.7,3.1,16-10.1,15.3C3760.3,649.8,3746.9,650.3,3733.5,650.3z M3482.9,191.4
		c-3.2,3.4-4.4,4.1-4.8,5.2c-33,76.3-65.9,152.7-99,229c-5.4,12.4,2.8,11.7,10.4,11.7c61.5,0.1,123,0,184.5,0.1
		c10.6,0,14.6-2.2,9.4-13.8c-12.8-28.2-24.4-56.9-36.7-85.3C3525.7,290.1,3504.7,241.8,3482.9,191.4z"/>
	<path class="st0" d="M274.8,657.9c-82.4,0.4-152-14.8-215.6-54.1c-13.3-8.2-17.3-15.9-9.2-30.7c9.1-16.4,15.9-34.1,23.1-51.5
		c4-9.6,7.5-10.8,16.9-4.5c65.3,43.2,137,61.1,215,52c24.4-2.8,47.8-8.9,66.8-26.1c29.1-26.3,28.3-65.2-2.1-89.9
		c-29-23.6-65.3-28.7-99.7-38c-41.1-11-83-19.4-122.2-36.2c-55.8-23.8-91.2-63-92.7-127.2c-1.3-64.6,25.9-112.7,81.8-144
		c63.5-35.6,132.6-37.2,202.5-29c41.3,4.8,80.9,16.4,117.9,36.2c12.9,6.9,15.8,13.9,9,27.4c-8.4,16.7-14.6,34.7-21.3,52.2
		c-3.4,9.1-8.1,10.7-16.7,5.9c-55.8-31.3-115.9-43-179.4-36.9c-29.2,2.8-56.5,11-75.5,35.1c-25.6,32.6-17.9,70.2,18.5,91.2
		s77.8,26.9,117.6,37.7c43.3,11.8,87,21.8,126,46.3c88.9,56,75.8,189.7-5.7,242.5C391.8,640.8,340.2,660.1,274.8,657.9z"/>
	<path class="st0" d="M557.6,913.1c0-40.7,0-81.4,0-122.1c0-8-1.2-16.9,11-16.5c52.1,1.8,104.9-6.4,156.4,5.4
		c72.9,16.6,107.2,69.9,105.9,135.6c-1.3,65.8-37.2,117.5-112.9,132c-49.3,9.4-99.5,2.5-149.3,4.2c-12.4,0.4-11.1-8.5-11.1-16.3
		C557.5,994.5,557.6,953.8,557.6,913.1z M654.1,816.8c-11.5,0-23.1,0.3-34.6-0.1c-9.4-0.3-13,3.6-13,12.9
		c0.2,55.3,0.1,110.5,0,165.8c0,7.8,2.3,13.1,11.2,13c28.5-0.4,57.2,2.8,85.5-2.3c42.3-7.7,70.4-38.9,75.4-82.4
		c4.8-41.6-15.9-79.2-53.1-97C702.7,815.7,678.4,816.2,654.1,816.8z"/>
	<path class="st0" d="M2061.6,769.8c70.2,0,122.1,34.5,144.7,94.3c31.4,83-24.1,176.7-112.1,189.2c-48.5,6.9-93.5-0.8-131.8-33.2
		c-45.5-38.5-55.7-89.9-43.5-144.1c11.6-51.6,47.2-85,98.8-99.9C2032.9,771.7,2048.4,768.6,2061.6,769.8z M2065.8,815.3
		c-57.7-0.6-100.1,40.6-100.2,97.3c0,55.5,40.9,97.5,96.1,98.3c57.4,0.9,100.4-40.5,100.9-97.1
		C2163.1,857.3,2122.5,815.9,2065.8,815.3z"/>
	<path class="st0" d="M2822.1,913.5c0-40.2,0.5-80.3-0.2-120.5c-0.2-13.6,2.7-19.6,18-19c40.1,1.4,80.5-0.6,120.5,1.8
		c70.4,4.3,110.7,63.7,89.5,129.7c-6.7,21-19.3,38-39.9,47.5c-11.1,5.1-12.8,10.5-5.3,20.6c15.9,21.5,30.6,43.9,46.3,65.6
		c6.8,9.4,4.6,12.9-6.5,12.3c-1.2-0.1-2.5-0.2-3.6,0c-26.4,4.8-46.1-3.3-56.9-29c-1.1-2.7-3.6-4.8-5.4-7.3
		c-34.4-48.9-34.4-48.6-92.7-44.4c-9.4,0.7-12.9,4-12.7,13.2c0.4,18.2-0.2,36.5,0.2,54.8c0.2,9.2-3.1,13-12.8,12.8
		c-47.4-1.1-37.6,6.8-38.5-36C2821.6,981.7,2822.1,947.6,2822.1,913.5z M2917.8,816.8c-9.7,0-19.5,0.5-29.2-0.1
		c-10.6-0.7-15.6,2.4-15.4,14c0.6,27.9,0.5,55.9,0,83.8c-0.2,10.2,3.5,14.1,13.7,13.9c23.7-0.3,47.4,0.5,71-2.3
		c23.8-2.8,43-22.1,45.3-45.4c2.8-28.6-10.2-50.2-34.9-59.1C2951.8,815.6,2934.8,816.8,2917.8,816.8z"/>
	<path class="st0" d="M2269.7,912.2c0-40.7,0-81.5,0-122.2c0-7-2.2-15.9,9.5-15.5c50.3,1.8,101.3-6.6,150.9,5.6
		c65.4,16.1,93.9,89.2,57.6,145.9c-22.4,35.1-58.8,42.8-96.6,45.5c-18.2,1.3-36.5,0.7-54.7,0.1c-11.6-0.4-16.5,3.3-15.9,15.6
		c0.9,17.6,0,35.3,0.3,52.9c0.2,8.4-2.8,11.3-11.6,11.8c-39.6,2.3-39.5,2.6-39.5-37.5C2269.7,980.3,2269.7,946.3,2269.7,912.2z
		 M2320.8,871c0,14,0.5,28-0.2,41.9c-0.5,10.4,3.4,13.9,13.7,13.6c22.5-0.6,45,0.4,67.5-0.5c28.3-1.2,48.5-22.8,49.2-51
		c0.8-33.3-20.7-55.8-56.7-57.9c-18.2-1.1-36.6,0.7-54.7-0.7c-15.9-1.2-20.2,5.4-18.9,19.9C2321.6,847.9,2320.8,859.5,2320.8,871z"
		/>
	<path class="st0" d="M2555.2,913c0-40.7,0.4-81.5-0.2-122.2c-0.2-12.7,3.9-16.8,16.7-16.7c56.6,0.6,113.2,1,169.8-0.1
		c20.6-0.4,15.9,12.3,16.8,23.8c1,13.1-1.7,19.8-17.5,19.3c-39.5-1.2-79.1,0.1-118.7-0.6c-12.2-0.2-15.4,4.1-15.7,15.7
		c-1.7,57.7-2,57.7,56,57.7c21.3,0,42.6,0.6,63.9-0.2c18.7-0.7,14.1,12.2,14.6,22.4c0.5,10.6,1.6,20.4-15,19.9
		c-33.4-1-67,0.5-100.4-0.6c-15.7-0.5-20.3,5-19.1,19.9c1.1,13.9,0.9,28,0,41.9c-0.8,13.1,4.7,16.7,17.1,16.5
		c40.8-0.6,81.6,0.8,122.3-0.6c19.9-0.7,17.3,10.9,17.5,23.2c0.2,11.7,0.9,20.2-16.4,19.8c-58.4-1.3-116.9-0.8-175.3-0.2
		c-12.9,0.1-16.8-4-16.6-16.6C2555.5,994.5,2555.2,953.8,2555.2,913z"/>
	<path class="st0" d="M886.3,912.4c0-40.8,0.4-81.5-0.2-122.3c-0.2-11.7,3.2-16,15.4-15.9c57.2,0.5,114.5,0.8,171.7-0.1
		c21.6-0.3,14.2,14.1,15.5,24.7c1.7,12.7-1.8,18.6-16.5,18.2c-38.3-1-76.7,0.6-115-0.7c-16.7-0.6-21.4,5.1-19.9,20.7
		c1.2,12.7,0.8,25.6,0.1,38.3c-0.6,11.3,4,14.9,14.9,14.7c34.1-0.4,68.2,0.7,102.3-0.5c17.5-0.6,17.9,8.3,17.9,21.3
		c0,12.7,0.3,22-17.5,21.3c-32.8-1.3-65.8,0.4-98.6-0.7c-15.6-0.5-20.3,5-19,19.8c1.2,13.9,1,28,0,41.9
		c-0.9,13.1,4.5,16.7,16.9,16.5c40.8-0.6,81.6,0.8,122.3-0.6c20.3-0.7,17,11.3,17.5,23.4c0.5,12.3-0.2,20-17,19.7
		c-58.4-1.2-116.9-0.8-175.3-0.2c-11.9,0.1-15.8-3.4-15.6-15.4C886.7,995.1,886.3,953.7,886.3,912.4z"/>
	<path class="st0" d="M1434.6,911.8c0-39.6,0.7-79.1-0.4-118.7c-0.4-15.7,4.9-19.3,19.7-19.1c54.2,0.8,108.4,1.1,162.6-0.1
		c17.9-0.4,20.4,6.5,20.8,22c0.5,17.2-5.1,21.6-21.6,21.1c-37.7-1.2-75.5,0.1-113.3-0.6c-12.2-0.2-18.1,2.5-16.9,15.9
		c1.6,18.1-7.2,41.3,3.3,53.1c10.9,12.3,34.5,3.4,52.5,4.1c20.1,0.8,40.3,1.3,60.3-0.2c19.4-1.4,17.6,10.3,18.1,23
		c0.5,12.8-1.1,20.1-17.2,19.5c-34.1-1.2-68.2,0-102.3-0.6c-11-0.2-15.2,3.2-14.7,14.5c0.8,16.4,0.7,32.9,0,49.3
		c-0.5,11.4,4.2,14.5,15,14.4c41.4-0.5,82.9,0.7,124.2-0.6c18.3-0.6,17.3,9.4,17.4,21.7c0.2,12.7,0.4,21.6-17.6,21.3
		c-57.8-1.2-115.7-0.9-173.6,0c-14.7,0.2-16.9-5.2-16.7-17.9C1435,993.3,1434.6,952.6,1434.6,911.8z"/>
	<path class="st0" d="M3204.9,769.9c31-1,57.1,6.1,82.8,16.7c11.1,4.6,12.9,10.9,8.2,20.9c-2.1,4.4-4.3,8.8-5.9,13.3
		c-3.6,10.5-8.4,11.6-18.9,6.5c-30.3-14.7-62.2-20.3-95.6-10.8c-16.1,4.6-27.3,14.5-28.7,31.5c-1.5,17.5,11.2,26.8,25.4,31.7
		c23.6,8,47.9,13.8,71.8,20.7c7,2,14.1,3.9,20.8,6.8c27.6,12,46.4,30.3,47,63c0.6,34.4-14.7,59.5-45.5,72.2
		c-55.7,23-110.8,16.8-163.6-10.9c-23.1-12.1-3.1-25.8,0.9-38.1c5.1-15.6,14.2-3.4,19.7-0.4c31.6,16.9,64.5,24.6,100.2,18.2
		c4.8-0.8,9.6-1.9,14-3.7c13.2-5.4,23.2-14.6,24-29.4c0.8-15.5-9.7-24.4-22.7-30c-23.6-10.2-48.9-14.5-73.5-21.2
		c-15.3-4.2-30.4-9.2-43-19.2c-45.2-35.9-31.7-104.9,25-127.3C3166.7,772.8,3186.9,768.2,3204.9,769.9z"/>
	<path class="st0" d="M1259.1,986.7c24.2-55.3,46.8-106.8,69.3-158.4c3.6-8.3,7.1-16.7,10.8-25c13.7-30.5,13.7-30.2,48-29.2
		c11.7,0.4,15.3,2.5,9.7,14.8c-20.3,44.8-39.6,90-59.2,135.1c-16.5,37.8-33.3,75.6-49.2,113.7c-4.4,10.5-10.3,13-21.4,14.4
		c-27.2,3.4-40.4-6.9-50.8-32.6c-31.1-76.4-65.2-151.5-98.7-226.9c-6.3-14.2-4.6-19.2,12-18.5c43.7,1.8,32.2-7.6,50.3,34
		c23.8,54.5,47.2,109.2,70.9,163.7C1252.4,975.6,1254.8,979.1,1259.1,986.7z"/>
	<path class="st0" d="M1701,912.2c0-40.8,0.4-81.6-0.2-122.3c-0.2-11.9,3.7-15.6,15.6-15.8c35.7-0.5,35.7-1,35.7,33.6
		c0,60.2,0.6,120.5-0.4,180.7c-0.3,16.4,5.1,20.8,20.9,20.4c36.5-1,73.1,0.5,109.6-0.6c21.4-0.6,15,13.8,15.9,24.7
		c1,11.2,0.6,19.4-15.5,19.1c-55.4-1-110.8-0.7-166.3-0.2c-11.9,0.1-15.8-3.4-15.6-15.4C1701.4,995,1701,953.6,1701,912.2z"/>
</g>
</svg>
