<svg width="218" height="205" viewBox="0 0 218 205" fill="none" xmlns="http://www.w3.org/2000/svg">
<path d="M4.15258 -2.54004e-07L12.6842 15.9005L21.2116 -1.09495e-06L58.8851 -2.95213e-06L67.4166 15.9005L75.9482 -3.79328e-06L113.618 -5.65025e-06L122.149 15.9005L130.681 -6.49141e-06L168.35 -8.34837e-06L176.882 15.9005L185.413 -9.18953e-06L217.93 -1.07925e-05L217.93 0.556237L205.12 0.556237L213.656 16.4658L217.93 16.4658L217.93 17.5738L214.273 17.5738L214.248 17.5738L217.926 24.4251L217.926 26.6501L213.05 17.5738L195.412 17.5738L186.876 33.4834L204.519 33.4834L213.677 50.5009L217.926 50.5009L217.926 51.6134L213.677 51.6134L205.141 67.5185L217.926 67.5185L217.926 68.631L204.523 68.631L195.693 85.0923L204.225 100.993L217.926 75.4778L217.926 77.6711L214.244 84.536L217.926 84.536L217.926 85.644L213.651 85.644L205.12 101.549L217.926 101.549L217.926 102.662L205.116 102.662L213.651 118.571L217.926 118.571L217.926 119.679L214.248 119.679L217.926 126.535L217.926 128.724L213.076 119.679L195.437 119.679L177.747 152.606L194.811 152.606L203.964 135.589L217.926 135.589L217.926 136.697L205.141 136.697L213.668 152.606L217.926 152.606L217.926 153.714L213.668 153.714L205.141 169.619L217.926 169.619L217.926 170.732L205.141 170.732L213.374 186.076L217.926 177.588L217.926 179.804L205.116 203.654L217.926 203.654L217.926 204.211L185.409 204.211L176.877 188.31L168.346 204.211L130.677 204.211L122.145 188.31L113.613 204.211L75.944 204.211L67.4124 188.31L58.8809 204.211L21.2116 204.211L12.6842 188.31L4.15258 204.211L-0.999992 204.211L-0.999992 203.659L3.24899 203.659L12.4026 186.641L30.0416 186.641L21.5058 170.732L3.8752 170.732L-0.999993 179.808L-0.999993 177.588L2.67742 170.732L-0.999993 170.732L-0.999993 169.619L3.27421 169.619L11.81 153.714L-0.999994 153.714L-0.999994 152.606L11.8058 152.606L3.27841 136.697L-0.999995 136.697L-0.999995 135.589L2.68162 135.589L-0.999995 128.728L-0.999995 126.539L3.55579 135.032L11.789 119.684L-0.999995 119.684L-0.999995 118.576L11.7848 118.576L3.25739 102.666L-0.999996 102.666L-0.999996 101.554L3.25739 101.554L11.7848 85.6485L-0.999997 85.6485L-0.999997 84.5406L12.9616 84.5405L22.1152 101.558L39.1783 101.558L21.4889 68.6355L3.84998 68.6355L-0.999997 77.6756L-0.999997 75.4823L2.67741 68.631L-0.999997 68.631L-0.999997 67.5185L3.2742 67.5185L11.81 51.6134L-0.999998 51.6134L-0.999998 50.5009L11.81 50.5009L-0.999999 26.6501L-0.999999 24.4251L12.701 49.9402L21.2326 34.0396L12.4026 17.5738L-0.999999 17.5738L-0.999999 16.4658L11.7848 16.4658L3.24898 0.556247L-1 0.556247L-1 0L4.15258 -2.54004e-07ZM194.247 119.684L177.777 119.684L186.014 135.032L194.247 119.684ZM66.5467 153.723L49.4835 153.723L40.9477 169.628L58.0109 169.628L66.5467 153.723ZM59.1624 169.628L75.6288 169.628L67.3956 154.284L59.1624 169.628ZM76.8224 169.628L93.8856 169.628L85.3498 153.723L68.2866 153.723L76.8224 169.628ZM94.785 169.068L103.317 153.167L94.785 137.266L86.2534 153.167L94.785 169.068ZM104.212 152.611L121.275 152.611L112.748 136.701L95.6844 136.701L104.212 152.611ZM140.986 153.167L149.517 169.068L158.049 153.167L149.517 137.266L140.986 153.167ZM148.618 136.701L131.555 136.701L123.027 152.611L140.091 152.611L148.618 136.701ZM150.413 169.628L167.476 169.628L176.012 153.723L158.948 153.723L150.413 169.628ZM212.782 153.167L204.25 137.266L195.718 153.167L204.25 169.068L212.782 153.167ZM203.355 169.628L194.819 153.723L177.756 153.723L186.292 169.628L203.351 169.628L203.355 169.628ZM185.098 169.628L176.865 154.284L168.632 169.628L185.102 169.628L185.098 169.628ZM140.091 153.723L123.019 153.723L131.555 169.628L148.618 169.628L140.091 153.723ZM122.17 154.284L113.937 169.628L130.403 169.628L122.17 154.284ZM112.743 169.628L121.279 153.723L104.208 153.723L95.6802 169.628L112.743 169.628ZM167.459 203.663L175.986 187.754L158.923 187.754L150.396 203.663L167.459 203.663ZM131.576 203.663L148.639 203.663L140.107 187.754L123.044 187.754L131.572 203.663L131.576 203.663ZM57.9899 203.668L66.5173 187.758L49.4541 187.758L40.9225 203.668L57.9857 203.668L57.9899 203.668ZM13.5794 187.758L22.1068 203.668L39.1699 203.668L30.6425 187.758L13.5794 187.758ZM22.6867 170.741L30.9199 186.085L39.1531 170.741L22.6867 170.741ZM40.3299 170.736L31.4957 187.202L40.0273 203.103L57.4099 170.741L57.3847 170.741L40.3257 170.741L40.3299 170.736ZM50.0509 186.646L67.694 186.646L76.8476 203.663L93.9108 203.663L76.2214 170.736L58.5825 170.736L50.0467 186.641L50.0509 186.646ZM77.4402 170.736L77.4192 170.736L94.8018 203.098L103.333 187.198L94.4992 170.732L77.4402 170.732L77.4402 170.736ZM103.913 186.085L112.147 170.741L95.6802 170.741L103.913 186.085ZM113.34 170.741L95.6508 203.663L112.714 203.663L121.868 186.646L139.511 186.646L130.975 170.736L113.336 170.736L113.34 170.741ZM140.389 186.085L148.622 170.741L132.156 170.741L140.389 186.085ZM149.799 170.736L140.969 187.202L149.501 203.103L166.883 170.736L149.799 170.736ZM159.52 186.646L177.163 186.646L186.317 203.663L203.38 203.663L185.691 170.741L168.052 170.741L159.516 186.646L159.52 186.646ZM186.914 170.736L186.888 170.736L204.271 203.098L212.803 187.198L203.968 170.732L186.909 170.732L186.914 170.736ZM4.46779 169.628L20.9384 169.628L12.7052 154.284L4.47199 169.628L4.46779 169.628ZM13.5541 153.723L22.0899 169.628L39.1531 169.628L30.6215 153.723L13.5499 153.723L13.5541 153.723ZM31.5167 153.167L40.0483 169.068L48.5799 153.167L40.0483 137.266L31.5167 153.167ZM30.6215 152.611L39.1531 136.701L22.0899 136.701L13.5626 152.611L30.6257 152.611L30.6215 152.611ZM12.9616 119.684L4.13157 136.145L12.6632 152.045L30.0458 119.679L12.9616 119.679L12.9616 119.684ZM22.6825 135.593L40.3299 135.593L49.4835 152.611L66.5467 152.611L48.8573 119.684L31.2183 119.684L22.6825 135.593ZM50.0761 119.684L50.0551 119.684L67.4377 152.05L75.965 136.149L67.1351 119.688L50.0719 119.688L50.0761 119.684ZM76.545 135.032L84.7782 119.684L68.3118 119.684L76.545 135.032ZM85.976 119.684L68.2866 152.611L85.3498 152.611L94.5034 135.593L112.147 135.593L103.611 119.684L85.9718 119.684L85.976 119.684ZM113.021 135.032L121.254 119.684L104.788 119.684L113.021 135.032ZM122.431 119.684L113.597 136.145L122.128 152.045L139.506 119.679L122.426 119.679L122.431 119.684ZM132.152 135.593L149.795 135.593L158.948 152.611L176.012 152.611L158.322 119.684L140.683 119.684L132.147 135.593L132.152 135.593ZM159.545 119.684L159.524 119.684L176.907 152.05L185.438 136.149L176.604 119.688L159.545 119.688L159.545 119.684ZM57.9899 0.556244L40.9183 0.556245L49.4541 16.4658L66.5173 16.4658L57.9899 0.556244ZM40.0693 1.11701L31.8361 16.4658L48.3067 16.4658L40.0693 1.11701ZM76.8476 0.556243L68.3118 16.4658L85.3708 16.4658L93.9108 0.556243L76.8476 0.556243ZM86.5266 16.4658L102.997 16.4658L94.764 1.11701L86.5308 16.4658L86.5266 16.4658ZM112.718 0.556242L95.6549 0.556243L104.195 16.4658L121.254 16.4658L112.718 0.556242ZM186.317 0.556238L177.781 16.4658L194.844 16.4658L203.38 0.556237L186.317 0.556238ZM212.466 16.4658L204.233 1.11701L196 16.4658L212.466 16.4658ZM167.459 0.556239L150.387 0.55624L158.923 16.4658L175.986 16.4658L167.459 0.556239ZM149.538 1.11701L141.305 16.4658L157.776 16.4658L149.543 1.11701L149.538 1.11701ZM140.112 16.4658L148.647 0.55624L131.576 0.556241L123.049 16.4658L140.112 16.4658ZM194.252 17.5738L194.226 17.5738L177.163 17.5738L168.333 34.0396L176.865 49.9401L194.247 17.5738L194.252 17.5738ZM123.023 50.5009L140.086 50.5009L149.24 33.4834L166.883 33.4834L158.347 17.5738L140.704 17.5738L123.019 50.5009L123.023 50.5009ZM139.511 17.5738L123.044 17.5738L131.277 32.9181L139.511 17.5738ZM86.2534 51.0572L94.785 66.9577L103.317 51.0572L94.785 35.1566L86.2534 51.0572ZM93.8856 34.5959L76.8224 34.5959L68.2908 50.5009L85.3582 50.5009L93.8856 34.5959ZM58.0109 34.5959L40.9477 34.5959L49.4751 50.5054L66.5383 50.5054L58.0109 34.5959ZM76.8224 67.5185L93.8856 67.5185L85.3582 51.6134L68.2866 51.6134L76.8224 67.5185ZM67.4377 52.1742L59.2045 67.5185L75.6708 67.5185L67.4377 52.1742ZM149.517 35.1566L140.986 51.0572L149.517 66.9577L158.049 51.0572L149.517 35.1566ZM158.944 50.5009L176.007 50.5009L167.48 34.5913L150.417 34.5913L158.944 50.5009ZM140.086 51.6134L123.023 51.6134L131.563 67.5185L148.622 67.5185L140.086 51.6134ZM122.132 52.1742L113.895 67.5185L130.365 67.5185L122.132 52.1742ZM121.279 51.6134L104.216 51.6134L95.6802 67.5185L112.739 67.5185L121.279 51.6134ZM167.757 32.9226L175.991 17.5783L159.524 17.5783L167.757 32.9226ZM186.292 34.5959L177.764 50.5054L194.827 50.5054L203.355 34.5959L186.292 34.5959ZM212.782 51.0572L204.25 35.1566L195.718 51.0572L204.25 66.9577L212.782 51.0572ZM194.827 51.6134L177.76 51.6134L186.296 67.5185L203.355 67.5185L194.827 51.6134ZM176.907 52.1742L168.674 67.5185L185.14 67.5185L176.907 52.1742ZM167.476 67.5185L176.012 51.6134L158.94 51.6134L150.413 67.5185L167.476 67.5185ZM203.359 68.631L186.893 68.631L195.126 83.9752L203.359 68.631ZM176.604 84.536L194.252 84.536L185.716 68.6264L168.077 68.6264L150.387 101.549L167.451 101.549L176.604 84.5315L176.604 84.536ZM166.883 68.631L150.413 68.631L158.646 83.9753L166.879 68.631L166.883 68.631ZM113.618 102.11L122.149 118.01L130.681 102.11L122.149 86.2093L113.618 102.11ZM121.254 85.6485L104.191 85.6485L95.6634 101.554L112.727 101.554L121.254 85.6485ZM85.375 85.6485L68.3118 85.6485L76.8392 101.554L93.9024 101.554L85.375 85.6485ZM104.191 118.571L121.254 118.571L112.727 102.666L95.6549 102.666L104.191 118.571ZM94.806 103.227L86.5728 118.576L103.039 118.576L94.806 103.227ZM149.496 103.227L141.263 118.576L157.734 118.576L149.501 103.227L149.496 103.227ZM158.927 118.576L175.986 118.576L167.451 102.666L150.387 102.666L158.927 118.576ZM148.647 102.666L131.584 102.666L123.049 118.571L140.107 118.571L148.647 102.666ZM203.376 101.554L194.844 85.6485L177.781 85.6485L186.308 101.554L203.372 101.554L203.376 101.554ZM176.886 86.2093L168.354 102.11L176.886 118.01L185.417 102.11L176.886 86.2093ZM212.508 118.576L204.275 103.227L196.042 118.576L212.508 118.576ZM194.844 118.576L203.38 102.666L186.308 102.666L177.781 118.576L194.844 118.576ZM85.375 118.576L93.9108 102.666L76.8392 102.666L68.3118 118.576L85.375 118.576ZM49.4583 118.576L66.5215 118.576L57.9857 102.666L40.9225 102.666L49.4583 118.576ZM40.0273 103.227L31.7941 118.576L48.2605 118.576L40.0273 103.227ZM30.6383 118.576L39.1741 102.666L22.111 102.666L13.5752 118.576L30.6341 118.576L30.6383 118.576ZM12.6842 86.2093L4.15258 102.11L12.6842 118.01L21.2116 102.11L12.6842 86.2093ZM58.8851 102.11L67.4166 118.01L75.9482 102.11L67.4166 86.2093L58.8851 102.11ZM22.7077 68.631L22.6825 68.631L40.0693 100.997L48.6009 85.0968L39.7709 68.6355L22.7077 68.6355L22.7077 68.631ZM49.1767 83.9753L57.4099 68.631L40.9435 68.631L49.1767 83.9753ZM58.6077 68.631L40.9183 101.554L57.9815 101.554L67.1351 84.536L84.7782 84.536L76.2424 68.6264L58.6035 68.6264L58.6077 68.631ZM85.6566 83.9753L93.8898 68.631L77.4234 68.631L85.6566 83.9753ZM95.0624 68.631L86.2324 85.0923L94.764 100.993L112.147 68.6264L112.126 68.6264L95.0666 68.6264L95.0624 68.631ZM104.783 84.536L122.426 84.536L131.58 101.554L148.643 101.554L130.958 68.631L113.319 68.631L104.783 84.536ZM132.177 68.631L132.156 68.631L149.538 100.997L158.07 85.0968L149.236 68.6355L132.173 68.6355L132.177 68.631ZM40.9477 67.5185L58.0109 67.5185L66.5467 51.6134L49.4751 51.6134L40.9477 67.5185ZM4.42576 67.5185L20.8922 67.5185L12.659 52.1742L4.42576 67.5185ZM13.5541 51.6134L22.0899 67.5185L39.1531 67.5185L30.6173 51.6134L13.5541 51.6134ZM31.5167 51.0572L40.0525 66.9577L48.5841 51.0572L40.0525 35.1566L31.5167 51.0572ZM13.5752 17.5738L21.8084 32.9181L30.0415 17.5738L13.5752 17.5738ZM31.2393 17.5738L13.5499 50.5009L30.6131 50.5009L39.7667 33.4834L57.4099 33.4834L48.8741 17.5738L31.2351 17.5738L31.2393 17.5738ZM58.2883 32.9226L66.5215 17.5783L50.0551 17.5783L58.2883 32.9226ZM67.694 17.5738L58.8598 34.0396L67.3914 49.9402L84.774 17.5738L84.7488 17.5738L67.6898 17.5738L67.694 17.5738ZM77.4192 33.4834L95.0582 33.4834L104.212 50.5009L121.275 50.5009L103.586 17.5783L85.9466 17.5783L77.4108 33.4879L77.4192 33.4834ZM104.813 17.5738L104.788 17.5738L122.17 49.9401L130.702 34.0396L121.868 17.5738L104.809 17.5738L104.813 17.5738ZM13.5794 16.4658L30.6425 16.4658L39.1783 0.556245L22.1109 0.556246L13.5836 16.4658L13.5794 16.4658Z" fill="url(#paint0_linear_33_709)" fill-opacity="0.4"/>
<defs>
<linearGradient id="paint0_linear_33_709" x1="-0.999996" y1="102.105" x2="217.93" y2="102.105" gradientUnits="userSpaceOnUse">
<stop stop-color="#272963"/>
<stop offset="1" stop-color="white"/>
</linearGradient>
</defs>
</svg>
