<svg width="242" height="207" viewBox="0 0 242 207" fill="none" xmlns="http://www.w3.org/2000/svg">
<path d="M114.969 185.003C139.613 185.003 159.591 182.148 159.591 178.626C159.591 175.104 139.613 172.249 114.969 172.249C90.3255 172.249 70.3477 175.104 70.3477 178.626C70.3477 182.148 90.3255 185.003 114.969 185.003Z" fill="#E35F27"/>
<path opacity="0.5" d="M114.969 185.003C139.613 185.003 159.591 182.148 159.591 178.626C159.591 175.104 139.613 172.249 114.969 172.249C90.3255 172.249 70.3477 175.104 70.3477 178.626C70.3477 182.148 90.3255 185.003 114.969 185.003Z" fill="white"/>
<path d="M213.023 199.99C226.866 199.99 238.088 197.134 238.088 193.612C238.088 190.09 226.866 187.235 213.023 187.235C199.179 187.235 187.957 190.09 187.957 193.612C187.957 197.134 199.179 199.99 213.023 199.99Z" fill="#E35F27"/>
<path opacity="0.5" d="M213.023 199.99C226.866 199.99 238.088 197.134 238.088 193.612C238.088 190.09 226.866 187.235 213.023 187.235C199.179 187.235 187.957 190.09 187.957 193.612C187.957 197.134 199.179 199.99 213.023 199.99Z" fill="white"/>
<path d="M0.25319 46.8032C0.127645 46.3492 0.0991125 45.874 0.169448 45.4083C0.239783 44.9426 0.407408 44.4969 0.661413 44.1003C0.915418 43.7037 1.25011 43.3651 1.64368 43.1064C2.03726 42.8477 2.48091 42.6749 2.94573 42.599C5.75637 42.2152 9.21063 45.9883 10.303 48.2735C10.3975 48.4683 11.5194 51.7277 11.4839 51.7277C11.4485 51.7277 6.50037 51.8399 4.46915 50.9542C2.71545 50.1925 0.74328 48.7458 0.25319 46.8032ZM72.45 38.141C72.0367 40.1013 70.0881 41.6011 68.3698 42.4042C66.6516 43.2072 62.6009 43.3489 61.6031 43.3666C61.0657 44.0102 60.493 44.6952 59.8789 45.4746C58.8042 46.8504 57.6115 48.427 56.4246 50.1984C56.1058 50.6767 55.7869 51.1963 55.4622 51.6982C56.1825 50.966 57.1804 49.974 57.2867 49.8854C59.2648 48.3089 64.0181 46.4253 66.38 47.99C66.7656 48.2609 67.0899 48.61 67.3316 49.0146C67.5733 49.4192 67.727 49.8702 67.7827 50.3382C67.8384 50.8061 67.7949 51.2806 67.6549 51.7306C67.515 52.1807 67.2817 52.5961 66.9704 52.95C65.7009 54.497 63.2682 54.9281 61.3787 54.8513C59.4892 54.7745 55.7102 52.9795 54.8835 52.578C54.1867 53.6999 53.5018 54.869 52.8523 56.1208C51.66 58.3904 50.672 60.7617 49.8999 63.2064L50.0416 63.2773C50.6321 62.5215 51.8721 60.9568 51.9902 60.8387C53.7616 59.0672 58.3023 56.6581 60.8472 57.9572C61.2601 58.1844 61.6204 58.496 61.9047 58.8718C62.1891 59.2476 62.391 59.6791 62.4974 60.1381C62.6038 60.5972 62.6123 61.0735 62.5223 61.536C62.4323 61.9986 62.2458 62.437 61.975 62.8226C60.8827 64.4996 58.5149 65.1845 56.6608 65.3262C54.4879 65.4797 49.9885 63.7792 49.8232 63.7142C49.1151 66.1736 48.5688 68.6766 48.1876 71.2073C47.8923 73.0732 47.6739 74.9804 47.4731 76.8994C47.8628 76.3562 49.5043 74.3014 49.6401 74.1656C51.4115 72.3942 55.9522 69.985 58.4972 71.2841C58.91 71.5113 59.2703 71.8229 59.5547 72.1987C59.839 72.5745 60.0409 73.006 60.1473 73.465C60.2537 73.9241 60.2622 74.4004 60.1722 74.8629C60.0822 75.3255 59.8957 75.7639 59.625 76.1495C58.5326 77.8265 56.1648 78.5114 54.3107 78.6531C52.1851 78.8008 47.8687 77.1947 47.5085 77.0589C47.42 77.9269 47.3196 78.7949 47.2369 79.6688C46.9594 82.5148 46.6937 85.3727 46.3453 88.1833C46.2272 89.1576 46.0678 90.1142 45.9202 91.0707C46.5106 90.2736 47.6916 88.8506 47.786 88.7384C49.5575 86.967 54.0982 84.5578 56.6431 85.8569C57.0559 86.0841 57.4163 86.3957 57.7006 86.7715C57.9849 87.1473 58.1869 87.5788 58.2933 88.0378C58.3997 88.4969 58.4081 88.9732 58.3181 89.4358C58.2281 89.8983 58.0417 90.3367 57.7709 90.7224C56.6785 92.3993 54.3107 93.0842 52.4271 93.22C50.5435 93.3559 46.8708 92.0804 45.8493 91.7084C45.5836 93.3027 45.2588 94.8734 44.9223 96.4322C44.751 97.0935 44.6211 97.7726 44.4204 98.3985C44.2196 99.0244 44.0425 99.6562 43.8299 100.276C43.3989 101.54 43.0091 102.721 42.5781 103.89C42.3655 104.48 42.153 105.035 41.9345 105.608C42.4364 104.711 43.2512 103.299 43.3457 103.181C44.8455 101.144 48.9493 98.0914 51.6123 98.9949C52.0545 99.1567 52.4577 99.4099 52.7957 99.738C53.1336 100.066 53.3986 100.462 53.5735 100.899C53.7484 101.336 53.8293 101.805 53.8108 102.276C53.7923 102.746 53.675 103.208 53.4664 103.63C52.6397 105.455 50.4018 106.494 48.5596 106.913C46.5283 107.374 42.1648 106.488 41.6274 106.376C41.096 107.775 40.5705 109.133 40.0509 110.397C38.4153 114.388 36.9037 117.66 35.8113 119.927C35.7523 120.057 35.6932 120.169 35.6342 120.293H43.5878L40.8421 173.831C40.7462 175.808 39.8905 177.671 38.4536 179.032C37.0167 180.393 35.1097 181.147 33.1306 181.135C31.1695 181.13 29.2845 180.375 27.8626 179.025C26.4407 177.674 25.5896 175.831 25.484 173.872L22.7442 120.317H31.2765C31.2352 119.945 31.1938 119.555 31.1407 119.136C30.8573 116.662 30.3967 113.125 29.6527 108.915C29.446 107.698 29.198 106.417 28.9382 105.1C28.3832 105.171 23.9783 105.726 21.9884 105.1C20.1757 104.545 18.0263 103.329 17.3414 101.463C17.1642 101.026 17.0809 100.558 17.0971 100.087C17.1132 99.6158 17.2284 99.1536 17.4351 98.7303C17.6417 98.3069 17.9353 97.9318 18.2966 97.6294C18.6579 97.3271 19.0789 97.1042 19.532 96.9754C22.2777 96.2728 26.1453 99.6207 27.4916 101.77C27.5743 101.906 28.4127 103.642 28.8201 104.539C28.6607 103.742 28.5013 102.951 28.3182 102.124C28.0643 100.943 27.7278 99.6857 27.468 98.4752C27.2908 97.8552 27.1196 97.2234 26.9424 96.5916C26.7653 95.9598 26.5409 95.3516 26.352 94.7198C26.039 93.8046 25.667 92.8717 25.3009 91.9446C24.12 92.2753 20.5772 93.1846 18.7703 92.9248C16.9635 92.665 14.5898 91.7852 13.6273 90.0315C13.3865 89.6264 13.2336 89.175 13.1786 88.7069C13.1235 88.2388 13.1676 87.7643 13.308 87.3144C13.4483 86.8644 13.6817 86.449 13.9931 86.0951C14.3045 85.7413 14.6869 85.4569 15.1153 85.2605C17.7252 84.1563 22.0474 86.8784 23.7067 88.8033C23.7598 88.8624 24.0669 89.3052 24.427 89.8307C24.0432 88.9332 23.6594 88.0593 23.2461 87.1441C22.0652 84.6051 20.7602 82.0543 19.473 79.468C19.2073 78.9366 18.9475 78.3992 18.6818 77.8619C17.6721 78.1453 13.8635 79.1669 11.9681 78.8893C10.0727 78.6118 7.78759 77.7497 6.82512 75.996C6.58341 75.5916 6.4298 75.1406 6.37433 74.6727C6.31886 74.2048 6.36279 73.7304 6.50324 73.2806C6.64369 72.8309 6.8775 72.4158 7.18938 72.0626C7.50126 71.7094 7.88418 71.426 8.31311 71.2309C10.9171 70.1208 15.2452 72.8488 16.9045 74.7738C16.9635 74.8446 17.3296 75.3642 17.737 75.9547C17.058 74.5494 16.3966 73.1441 15.7826 71.7328C14.7222 69.3088 13.8228 66.8175 13.09 64.2752C12.7357 64.3815 8.2954 65.6687 6.18742 65.3617C4.31563 65.09 2.00689 64.222 1.04442 62.4684C0.8062 62.0659 0.654948 61.618 0.600412 61.1535C0.545875 60.689 0.589266 60.2182 0.727784 59.7715C0.866302 59.3248 1.09688 58.912 1.40465 58.5599C1.71242 58.2077 2.09056 57.924 2.51469 57.7269C5.12457 56.6168 9.44681 59.3448 11.106 61.2697C11.2241 61.4055 12.535 63.3245 12.9837 64.0213C12.9812 63.9918 12.9812 63.9622 12.9837 63.9327C12.3259 61.4177 11.8951 58.8487 11.6965 56.2566C11.5033 53.9434 11.4481 51.6207 11.5312 49.3009C11.5784 47.1516 11.7555 45.1676 11.9327 43.4493C12.0331 42.5046 12.1394 41.6484 12.2515 40.8512L12.2043 40.8808C12.1571 40.8808 11.2064 37.6037 11.171 37.3852C10.7518 34.8875 11.419 29.8153 13.9344 28.5281C14.3583 28.3225 14.8207 28.2086 15.2916 28.194C15.7625 28.1794 16.2312 28.2643 16.667 28.4432C17.1028 28.6221 17.496 28.8909 17.8208 29.2322C18.1456 29.5734 18.3947 29.9794 18.5519 30.4235C19.29 32.2835 18.4869 34.6159 17.5008 36.2338C16.5147 37.8516 13.214 40.2017 12.3933 40.7627C12.2929 41.5952 12.1984 42.4868 12.1157 43.4788C11.9799 45.2148 11.8441 47.1752 11.8382 49.3186C11.8382 49.909 11.8382 50.4995 11.8677 51.09C12.0626 50.0862 12.346 48.7281 12.3874 48.5746C13.1668 46.1655 16.0896 41.9731 18.9298 41.9731C19.4005 41.9878 19.8628 42.1013 20.2869 42.3062C20.7109 42.5111 21.0871 42.8028 21.3911 43.1625C21.6951 43.5222 21.9201 43.9417 22.0515 44.394C22.1828 44.8462 22.2177 45.321 22.1537 45.7876C21.9471 47.7775 20.1579 49.478 18.5401 50.4582C16.9222 51.4384 12.7771 52.0229 11.8855 52.1292C11.9209 53.4519 11.9976 54.8041 12.1512 56.2153C12.4084 58.7764 12.8926 61.3096 13.5978 63.7851H13.7572C13.8222 62.8344 14.0052 60.8328 14.0348 60.6733C14.5485 58.1934 16.9871 53.7058 19.8155 53.3987C20.285 53.3613 20.7572 53.4231 21.2014 53.58C21.6456 53.7369 22.0518 53.9854 22.3936 54.3095C22.7355 54.6335 23.0054 55.0259 23.1859 55.461C23.3663 55.8962 23.4532 56.3644 23.441 56.8353C23.441 58.837 21.8585 60.7206 20.3587 61.872C18.605 63.1533 13.9167 64.222 13.7336 64.2575C14.4997 66.6989 15.4248 69.0875 16.5029 71.4081C17.2764 73.1263 18.1622 74.8505 19.0479 76.5511C19.0479 75.8779 19.3077 73.2622 19.349 73.0732C19.8627 70.5932 22.3013 66.1056 25.1238 65.7986C25.5931 65.7603 26.0651 65.8213 26.5093 65.9775C26.9535 66.1337 27.3598 66.3816 27.7017 66.7053C28.0437 67.0289 28.3138 67.4209 28.4942 67.8557C28.6747 68.2906 28.7616 68.7586 28.7493 69.2292C28.7493 71.2309 27.1727 73.1145 25.6729 74.2659C23.9842 75.565 19.4966 76.6278 19.1187 76.6928C19.5261 77.4663 19.9218 78.2457 20.3351 79.0192C21.6755 81.5464 23.0276 84.0737 24.2853 86.6127C24.7223 87.4925 25.1238 88.3841 25.5253 89.258C25.5962 88.2542 25.7674 86.4355 25.7969 86.2761C26.3106 83.8021 28.7493 79.3086 31.5717 79.0015C32.0413 78.9641 32.5135 79.0259 32.9577 79.1828C33.4018 79.3397 33.808 79.5882 34.1499 79.9123C34.4918 80.2363 34.7617 80.6287 34.9421 81.0638C35.1226 81.4989 35.2095 81.9672 35.1972 82.4381C35.1972 84.4398 33.6207 86.3234 32.1209 87.4748C30.6211 88.6262 26.8598 89.5887 25.7969 89.8367C26.4583 91.3069 27.0783 92.789 27.6215 94.2652C27.84 94.9088 28.1057 95.5524 28.2828 96.1842L28.8733 98.056C29.2158 99.3491 29.5405 100.548 29.8239 101.764C29.9775 102.355 30.1015 102.945 30.2373 103.536C30.1605 102.514 30.066 100.884 30.0719 100.737C30.2018 98.2095 31.9378 93.3972 34.6776 92.6709C35.1381 92.5562 35.6177 92.5406 36.0846 92.6253C36.5515 92.7099 36.9951 92.8929 37.3859 93.162C37.7768 93.4312 38.106 93.7803 38.3516 94.1863C38.5973 94.5923 38.7538 95.0459 38.8109 95.517C38.8503 95.7609 38.8662 96.0081 38.8581 96.2551C39.9785 98.1838 40.5882 100.367 40.6295 102.597C40.6295 102.756 40.3638 104.669 40.2103 105.638C40.5174 104.888 40.8008 104.138 41.1196 103.353C41.5625 102.219 41.9994 100.991 42.4246 99.8097C42.6194 99.2192 42.8202 98.5697 43.015 97.9438C43.2099 97.3179 43.3634 96.6861 43.5406 96.0543C43.7886 95.1155 43.9952 94.1353 44.2019 93.1551C43.021 92.7772 39.5785 91.5903 38.2145 90.374C36.8505 89.1576 35.3566 87.1146 35.5161 85.1188C35.5394 84.6484 35.6614 84.1882 35.8741 83.768C36.0868 83.3478 36.3854 82.977 36.7507 82.6797C37.1159 82.3824 37.5396 82.1652 37.9942 82.0422C38.4488 81.9191 38.9242 81.8931 39.3896 81.9657C42.1766 82.4794 44.2787 87.1382 44.6093 89.6418C44.6093 89.7186 44.6093 90.2323 44.6093 90.8995C44.7865 89.937 44.9636 88.9805 45.1053 88.0003C45.5127 85.2251 45.8375 82.379 46.18 79.5389C46.2449 78.9484 46.3276 78.3579 46.3984 77.7674C45.4065 77.4486 41.6747 76.1968 40.2339 74.9214C38.7932 73.646 37.3761 71.662 37.5414 69.6721C37.5631 69.2015 37.6838 68.7407 37.8955 68.3198C38.1072 67.8989 38.4052 67.5273 38.7701 67.2293C39.1349 66.9313 39.5585 66.7134 40.0132 66.59C40.4679 66.4666 40.9435 66.4404 41.409 66.5131C44.2019 67.0268 46.304 71.6915 46.6287 74.1892C46.6287 74.2778 46.6287 74.9214 46.6642 75.6417C46.8708 74.0947 47.1011 72.5595 47.3668 71.042C47.819 68.445 48.4423 65.8807 49.2327 63.3659C48.8843 63.2537 44.4676 61.8779 42.8792 60.4608C41.468 59.1972 40.0214 57.2014 40.1808 55.2056C40.2041 54.7352 40.3261 54.275 40.5388 53.8548C40.7515 53.4346 41.0501 53.0638 41.4154 52.7665C41.7806 52.4691 42.2043 52.2519 42.6589 52.1289C43.1135 52.0059 43.5889 51.9799 44.0543 52.0525C46.8413 52.5662 48.9434 57.225 49.274 59.7286C49.274 59.9057 49.3331 62.2263 49.3154 63.0588V62.9703C50.1565 60.5205 51.2117 58.1494 52.4685 55.8846C53.5867 53.8461 54.8229 51.8745 56.1707 49.9799C57.3989 48.2085 58.633 46.6733 59.7135 45.3211C60.304 44.5889 60.8945 43.9335 61.4141 43.3253H61.3491C61.3019 43.3253 62.3352 40.0364 62.4238 39.8356C63.4512 37.5269 66.7992 33.6593 69.6216 33.9663C70.0957 34.0248 70.5517 34.1839 70.9592 34.4331C71.3666 34.6824 71.716 35.0159 71.9839 35.4113C72.2518 35.8067 72.432 36.2549 72.5124 36.7257C72.5928 37.1965 72.5715 37.6791 72.45 38.141ZM39.9328 106.175C39.4545 105.939 35.7346 104.097 34.282 102.526C33.0288 103.219 31.7354 103.836 30.4085 104.374C30.7392 105.832 31.0462 107.261 31.306 108.602C32.1504 112.835 32.6877 116.39 33.0302 118.888C33.107 119.419 33.166 119.897 33.2251 120.329H33.414L34.0045 119.118C35.1323 116.898 36.697 113.698 38.4035 109.777C38.9231 108.625 39.4309 107.415 39.9328 106.175ZM54.789 52.0466C54.8363 52.0761 55.6924 48.7399 55.7279 48.5037C56.0762 45.9942 55.2732 40.9457 52.7224 39.7116C52.2896 39.5195 51.821 39.4212 51.3474 39.4232C50.8739 39.4252 50.4061 39.5274 49.9749 39.7232C49.5438 39.919 49.1589 40.2039 48.8458 40.5591C48.5326 40.9143 48.2982 41.3319 48.158 41.7842C47.4731 43.6619 48.3411 45.9706 49.339 47.559C50.5731 49.3953 54.789 52.0466 54.789 52.0466Z" fill="#E35F27"/>
<path opacity="0.3" d="M0.25319 46.8032C0.127645 46.3492 0.0991125 45.874 0.169448 45.4083C0.239783 44.9426 0.407408 44.4969 0.661413 44.1003C0.915418 43.7037 1.25011 43.3651 1.64368 43.1064C2.03726 42.8477 2.48091 42.6749 2.94573 42.599C5.75637 42.2152 9.21063 45.9883 10.303 48.2735C10.3975 48.4683 11.5194 51.7277 11.4839 51.7277C11.4485 51.7277 6.50037 51.8399 4.46915 50.9542C2.71545 50.1925 0.74328 48.7458 0.25319 46.8032ZM72.45 38.141C72.0367 40.1013 70.0881 41.6011 68.3698 42.4042C66.6516 43.2072 62.6009 43.3489 61.6031 43.3666C61.0657 44.0102 60.493 44.6952 59.8789 45.4746C58.8042 46.8504 57.6115 48.427 56.4246 50.1984C56.1058 50.6767 55.7869 51.1963 55.4622 51.6982C56.1825 50.966 57.1804 49.974 57.2867 49.8854C59.2648 48.3089 64.0181 46.4253 66.38 47.99C66.7656 48.2609 67.0899 48.61 67.3316 49.0146C67.5733 49.4192 67.727 49.8702 67.7827 50.3382C67.8384 50.8061 67.7949 51.2806 67.6549 51.7306C67.515 52.1807 67.2817 52.5961 66.9704 52.95C65.7009 54.497 63.2682 54.9281 61.3787 54.8513C59.4892 54.7745 55.7102 52.9795 54.8835 52.578C54.1867 53.6999 53.5018 54.869 52.8523 56.1208C51.66 58.3904 50.672 60.7617 49.8999 63.2064L50.0416 63.2773C50.6321 62.5215 51.8721 60.9568 51.9902 60.8387C53.7616 59.0672 58.3023 56.6581 60.8472 57.9572C61.2601 58.1844 61.6204 58.496 61.9047 58.8718C62.1891 59.2476 62.391 59.6791 62.4974 60.1381C62.6038 60.5972 62.6123 61.0735 62.5223 61.536C62.4323 61.9986 62.2458 62.437 61.975 62.8226C60.8827 64.4996 58.5149 65.1845 56.6608 65.3262C54.4879 65.4797 49.9885 63.7792 49.8232 63.7142C49.1151 66.1736 48.5688 68.6766 48.1876 71.2073C47.8923 73.0732 47.6739 74.9804 47.4731 76.8994C47.8628 76.3562 49.5043 74.3014 49.6401 74.1656C51.4115 72.3942 55.9522 69.985 58.4972 71.2841C58.91 71.5113 59.2703 71.8229 59.5547 72.1987C59.839 72.5745 60.0409 73.006 60.1473 73.465C60.2537 73.9241 60.2622 74.4004 60.1722 74.8629C60.0822 75.3255 59.8957 75.7639 59.625 76.1495C58.5326 77.8265 56.1648 78.5114 54.3107 78.6531C52.1851 78.8008 47.8687 77.1947 47.5085 77.0589C47.42 77.9269 47.3196 78.7949 47.2369 79.6688C46.9594 82.5148 46.6937 85.3727 46.3453 88.1833C46.2272 89.1576 46.0678 90.1142 45.9202 91.0707C46.5106 90.2736 47.6916 88.8506 47.786 88.7384C49.5575 86.967 54.0982 84.5578 56.6431 85.8569C57.0559 86.0841 57.4163 86.3957 57.7006 86.7715C57.9849 87.1473 58.1869 87.5788 58.2933 88.0378C58.3997 88.4969 58.4081 88.9732 58.3181 89.4358C58.2281 89.8983 58.0417 90.3367 57.7709 90.7224C56.6785 92.3993 54.3107 93.0842 52.4271 93.22C50.5435 93.3559 46.8708 92.0804 45.8493 91.7084C45.5836 93.3027 45.2588 94.8734 44.9223 96.4322C44.751 97.0935 44.6211 97.7726 44.4204 98.3985C44.2196 99.0244 44.0425 99.6562 43.8299 100.276C43.3989 101.54 43.0091 102.721 42.5781 103.89C42.3655 104.48 42.153 105.035 41.9345 105.608C42.4364 104.711 43.2512 103.299 43.3457 103.181C44.8455 101.144 48.9493 98.0914 51.6123 98.9949C52.0545 99.1567 52.4577 99.4099 52.7957 99.738C53.1336 100.066 53.3986 100.462 53.5735 100.899C53.7484 101.336 53.8293 101.805 53.8108 102.276C53.7923 102.746 53.675 103.208 53.4664 103.63C52.6397 105.455 50.4018 106.494 48.5596 106.913C46.5283 107.374 42.1648 106.488 41.6274 106.376C41.096 107.775 40.5705 109.133 40.0509 110.397C38.4153 114.388 36.9037 117.66 35.8113 119.927C35.7523 120.057 35.6932 120.169 35.6342 120.293H43.5878L40.8421 173.831C40.7462 175.808 39.8905 177.671 38.4536 179.032C37.0167 180.393 35.1097 181.147 33.1306 181.135C31.1695 181.13 29.2845 180.375 27.8626 179.025C26.4407 177.674 25.5896 175.831 25.484 173.872L22.7442 120.317H31.2765C31.2352 119.945 31.1938 119.555 31.1407 119.136C30.8573 116.662 30.3967 113.125 29.6527 108.915C29.446 107.698 29.198 106.417 28.9382 105.1C28.3832 105.171 23.9783 105.726 21.9884 105.1C20.1757 104.545 18.0263 103.329 17.3414 101.463C17.1642 101.026 17.0809 100.558 17.0971 100.087C17.1132 99.6158 17.2284 99.1536 17.4351 98.7303C17.6417 98.3069 17.9353 97.9318 18.2966 97.6294C18.6579 97.3271 19.0789 97.1042 19.532 96.9754C22.2777 96.2728 26.1453 99.6207 27.4916 101.77C27.5743 101.906 28.4127 103.642 28.8201 104.539C28.6607 103.742 28.5013 102.951 28.3182 102.124C28.0643 100.943 27.7278 99.6857 27.468 98.4752C27.2908 97.8552 27.1196 97.2234 26.9424 96.5916C26.7653 95.9598 26.5409 95.3516 26.352 94.7198C26.039 93.8046 25.667 92.8717 25.3009 91.9446C24.12 92.2753 20.5772 93.1846 18.7703 92.9248C16.9635 92.665 14.5898 91.7852 13.6273 90.0315C13.3865 89.6264 13.2336 89.175 13.1786 88.7069C13.1235 88.2388 13.1676 87.7643 13.308 87.3144C13.4483 86.8644 13.6817 86.449 13.9931 86.0951C14.3045 85.7413 14.6869 85.4569 15.1153 85.2605C17.7252 84.1563 22.0474 86.8784 23.7067 88.8033C23.7598 88.8624 24.0669 89.3052 24.427 89.8307C24.0432 88.9332 23.6594 88.0593 23.2461 87.1441C22.0652 84.6051 20.7602 82.0543 19.473 79.468C19.2073 78.9366 18.9475 78.3992 18.6818 77.8619C17.6721 78.1453 13.8635 79.1669 11.9681 78.8893C10.0727 78.6118 7.78759 77.7497 6.82512 75.996C6.58341 75.5916 6.4298 75.1406 6.37433 74.6727C6.31886 74.2048 6.36279 73.7304 6.50324 73.2806C6.64369 72.8309 6.8775 72.4158 7.18938 72.0626C7.50126 71.7094 7.88418 71.426 8.31311 71.2309C10.9171 70.1208 15.2452 72.8488 16.9045 74.7738C16.9635 74.8446 17.3296 75.3642 17.737 75.9547C17.058 74.5494 16.3966 73.1441 15.7826 71.7328C14.7222 69.3088 13.8228 66.8175 13.09 64.2752C12.7357 64.3815 8.2954 65.6687 6.18742 65.3617C4.31563 65.09 2.00689 64.222 1.04442 62.4684C0.8062 62.0659 0.654948 61.618 0.600412 61.1535C0.545875 60.689 0.589266 60.2182 0.727784 59.7715C0.866302 59.3248 1.09688 58.912 1.40465 58.5599C1.71242 58.2077 2.09056 57.924 2.51469 57.7269C5.12457 56.6168 9.44681 59.3448 11.106 61.2697C11.2241 61.4055 12.535 63.3245 12.9837 64.0213C12.9812 63.9918 12.9812 63.9622 12.9837 63.9327C12.3259 61.4177 11.8951 58.8487 11.6965 56.2566C11.5033 53.9434 11.4481 51.6207 11.5312 49.3009C11.5784 47.1516 11.7555 45.1676 11.9327 43.4493C12.0331 42.5046 12.1394 41.6484 12.2515 40.8512L12.2043 40.8808C12.1571 40.8808 11.2064 37.6037 11.171 37.3852C10.7518 34.8875 11.419 29.8153 13.9344 28.5281C14.3583 28.3225 14.8207 28.2086 15.2916 28.194C15.7625 28.1794 16.2312 28.2643 16.667 28.4432C17.1028 28.6221 17.496 28.8909 17.8208 29.2322C18.1456 29.5734 18.3947 29.9794 18.5519 30.4235C19.29 32.2835 18.4869 34.6159 17.5008 36.2338C16.5147 37.8516 13.214 40.2017 12.3933 40.7627C12.2929 41.5952 12.1984 42.4868 12.1157 43.4788C11.9799 45.2148 11.8441 47.1752 11.8382 49.3186C11.8382 49.909 11.8382 50.4995 11.8677 51.09C12.0626 50.0862 12.346 48.7281 12.3874 48.5746C13.1668 46.1655 16.0896 41.9731 18.9298 41.9731C19.4005 41.9878 19.8628 42.1013 20.2869 42.3062C20.7109 42.5111 21.0871 42.8028 21.3911 43.1625C21.6951 43.5222 21.9201 43.9417 22.0515 44.394C22.1828 44.8462 22.2177 45.321 22.1537 45.7876C21.9471 47.7775 20.1579 49.478 18.5401 50.4582C16.9222 51.4384 12.7771 52.0229 11.8855 52.1292C11.9209 53.4519 11.9976 54.8041 12.1512 56.2153C12.4084 58.7764 12.8926 61.3096 13.5978 63.7851H13.7572C13.8222 62.8344 14.0052 60.8328 14.0348 60.6733C14.5485 58.1934 16.9871 53.7058 19.8155 53.3987C20.285 53.3613 20.7572 53.4231 21.2014 53.58C21.6456 53.7369 22.0518 53.9854 22.3936 54.3095C22.7355 54.6335 23.0054 55.0259 23.1859 55.461C23.3663 55.8962 23.4532 56.3644 23.441 56.8353C23.441 58.837 21.8585 60.7206 20.3587 61.872C18.605 63.1533 13.9167 64.222 13.7336 64.2575C14.4997 66.6989 15.4248 69.0875 16.5029 71.4081C17.2764 73.1263 18.1622 74.8505 19.0479 76.5511C19.0479 75.8779 19.3077 73.2622 19.349 73.0732C19.8627 70.5932 22.3013 66.1056 25.1238 65.7986C25.5931 65.7603 26.0651 65.8213 26.5093 65.9775C26.9535 66.1337 27.3598 66.3816 27.7017 66.7053C28.0437 67.0289 28.3138 67.4209 28.4942 67.8557C28.6747 68.2906 28.7616 68.7586 28.7493 69.2292C28.7493 71.2309 27.1727 73.1145 25.6729 74.2659C23.9842 75.565 19.4966 76.6278 19.1187 76.6928C19.5261 77.4663 19.9218 78.2457 20.3351 79.0192C21.6755 81.5464 23.0276 84.0737 24.2853 86.6127C24.7223 87.4925 25.1238 88.3841 25.5253 89.258C25.5962 88.2542 25.7674 86.4355 25.7969 86.2761C26.3106 83.8021 28.7493 79.3086 31.5717 79.0015C32.0413 78.9641 32.5135 79.0259 32.9577 79.1828C33.4018 79.3397 33.808 79.5882 34.1499 79.9123C34.4918 80.2363 34.7617 80.6287 34.9421 81.0638C35.1226 81.4989 35.2095 81.9672 35.1972 82.4381C35.1972 84.4398 33.6207 86.3234 32.1209 87.4748C30.6211 88.6262 26.8598 89.5887 25.7969 89.8367C26.4583 91.3069 27.0783 92.789 27.6215 94.2652C27.84 94.9088 28.1057 95.5524 28.2828 96.1842L28.8733 98.056C29.2158 99.3491 29.5405 100.548 29.8239 101.764C29.9775 102.355 30.1015 102.945 30.2373 103.536C30.1605 102.514 30.066 100.884 30.0719 100.737C30.2018 98.2095 31.9378 93.3972 34.6776 92.6709C35.1381 92.5562 35.6177 92.5406 36.0846 92.6253C36.5515 92.7099 36.9951 92.8929 37.3859 93.162C37.7768 93.4312 38.106 93.7803 38.3516 94.1863C38.5973 94.5923 38.7538 95.0459 38.8109 95.517C38.8503 95.7609 38.8662 96.0081 38.8581 96.2551C39.9785 98.1838 40.5882 100.367 40.6295 102.597C40.6295 102.756 40.3638 104.669 40.2103 105.638C40.5174 104.888 40.8008 104.138 41.1196 103.353C41.5625 102.219 41.9994 100.991 42.4246 99.8097C42.6194 99.2192 42.8202 98.5697 43.015 97.9438C43.2099 97.3179 43.3634 96.6861 43.5406 96.0543C43.7886 95.1155 43.9952 94.1353 44.2019 93.1551C43.021 92.7772 39.5785 91.5903 38.2145 90.374C36.8505 89.1576 35.3566 87.1146 35.5161 85.1188C35.5394 84.6484 35.6614 84.1882 35.8741 83.768C36.0868 83.3478 36.3854 82.977 36.7507 82.6797C37.1159 82.3824 37.5396 82.1652 37.9942 82.0422C38.4488 81.9191 38.9242 81.8931 39.3896 81.9657C42.1766 82.4794 44.2787 87.1382 44.6093 89.6418C44.6093 89.7186 44.6093 90.2323 44.6093 90.8995C44.7865 89.937 44.9636 88.9805 45.1053 88.0003C45.5127 85.2251 45.8375 82.379 46.18 79.5389C46.2449 78.9484 46.3276 78.3579 46.3984 77.7674C45.4065 77.4486 41.6747 76.1968 40.2339 74.9214C38.7932 73.646 37.3761 71.662 37.5414 69.6721C37.5631 69.2015 37.6838 68.7407 37.8955 68.3198C38.1072 67.8989 38.4052 67.5273 38.7701 67.2293C39.1349 66.9313 39.5585 66.7134 40.0132 66.59C40.4679 66.4666 40.9435 66.4404 41.409 66.5131C44.2019 67.0268 46.304 71.6915 46.6287 74.1892C46.6287 74.2778 46.6287 74.9214 46.6642 75.6417C46.8708 74.0947 47.1011 72.5595 47.3668 71.042C47.819 68.445 48.4423 65.8807 49.2327 63.3659C48.8843 63.2537 44.4676 61.8779 42.8792 60.4608C41.468 59.1972 40.0214 57.2014 40.1808 55.2056C40.2041 54.7352 40.3261 54.275 40.5388 53.8548C40.7515 53.4346 41.0501 53.0638 41.4154 52.7665C41.7806 52.4691 42.2043 52.2519 42.6589 52.1289C43.1135 52.0059 43.5889 51.9799 44.0543 52.0525C46.8413 52.5662 48.9434 57.225 49.274 59.7286C49.274 59.9057 49.3331 62.2263 49.3154 63.0588V62.9703C50.1565 60.5205 51.2117 58.1494 52.4685 55.8846C53.5867 53.8461 54.8229 51.8745 56.1707 49.9799C57.3989 48.2085 58.633 46.6733 59.7135 45.3211C60.304 44.5889 60.8945 43.9335 61.4141 43.3253H61.3491C61.3019 43.3253 62.3352 40.0364 62.4238 39.8356C63.4512 37.5269 66.7992 33.6593 69.6216 33.9663C70.0957 34.0248 70.5517 34.1839 70.9592 34.4331C71.3666 34.6824 71.716 35.0159 71.9839 35.4113C72.2518 35.8067 72.432 36.2549 72.5124 36.7257C72.5928 37.1965 72.5715 37.6791 72.45 38.141ZM39.9328 106.175C39.4545 105.939 35.7346 104.097 34.282 102.526C33.0288 103.219 31.7354 103.836 30.4085 104.374C30.7392 105.832 31.0462 107.261 31.306 108.602C32.1504 112.835 32.6877 116.39 33.0302 118.888C33.107 119.419 33.166 119.897 33.2251 120.329H33.414L34.0045 119.118C35.1323 116.898 36.697 113.698 38.4035 109.777C38.9231 108.625 39.4309 107.415 39.9328 106.175ZM54.789 52.0466C54.8363 52.0761 55.6924 48.7399 55.7279 48.5037C56.0762 45.9942 55.2732 40.9457 52.7224 39.7116C52.2896 39.5195 51.821 39.4212 51.3474 39.4232C50.8739 39.4252 50.4061 39.5274 49.9749 39.7232C49.5438 39.919 49.1589 40.2039 48.8458 40.5591C48.5326 40.9143 48.2982 41.3319 48.158 41.7842C47.4731 43.6619 48.3411 45.9706 49.339 47.559C50.5731 49.3953 54.789 52.0466 54.789 52.0466Z" fill="white"/>
<path d="M205.684 183.65C203.545 185.211 201.291 186.607 198.94 187.825C196.159 189.106 195.622 189.106 195.728 189.856C195.834 190.606 199.047 191.781 204.934 190.394C210.821 189.006 213.602 189.319 214.458 186.538C215.314 183.757 213.927 184.507 212.214 184.507C210.024 184.336 207.844 184.05 205.684 183.65Z" fill="#2E353A" stroke="#2E353A" stroke-linecap="round" stroke-linejoin="round"/>
<path d="M214.139 187.276C211.63 187.938 207.107 189.048 203.328 189.638C200.846 190.088 198.296 189.975 195.864 189.308C195.798 189.38 195.751 189.467 195.728 189.562C195.704 189.657 195.704 189.756 195.728 189.851C195.834 190.601 199.047 191.776 204.934 190.388C210.236 189.142 213.011 189.266 214.139 187.276Z" fill="white" stroke="#2E353A" stroke-linecap="round" stroke-linejoin="round"/>
<path d="M234.569 132.546C234.569 132.546 234.788 136.295 232.207 141.432C229.627 146.569 222.057 146.994 220.026 146.994C217.995 146.994 218.633 144.857 218.633 144.857L218.951 142.926L215.527 142.07C215.527 142.07 206.433 154.169 206.433 155.131C206.433 156.094 215.834 178.189 216.371 180.757C216.908 183.326 217.227 183.97 216.046 184.932C215.171 185.549 214.166 185.957 213.109 186.124C212.051 186.291 210.969 186.212 209.947 185.895C208.357 185.397 206.817 184.753 205.347 183.97C205.287 183.008 205.287 182.044 205.347 181.082C205.453 180.12 207.059 180.87 206.309 179.264C205.56 177.658 205.129 177.226 204.703 176.158C204.278 175.089 194.152 158.213 194.583 154.251C195.014 150.289 204.509 136.537 204.509 136.218C204.909 135.216 205.372 134.239 205.896 133.295C205.896 133.295 206.321 131.902 207.396 131.689C208.471 131.477 224.838 131.689 229.013 131.158C233.188 130.627 235.219 130.833 234.569 132.546Z" fill="#E35F27" stroke="#2E353A" stroke-linecap="round" stroke-linejoin="round"/>
<path d="M207.887 162.931L208.495 164.224" stroke="#2E353A" stroke-width="0.75" stroke-linecap="round" stroke-linejoin="round"/>
<path d="M209.799 148.246L205.182 154.281C205.182 154.281 199.277 154.995 201.048 155.113C202.82 155.231 204.591 155.231 204.591 155.231C204.591 155.231 203.05 155.704 203.41 155.94C203.825 156.105 204.269 156.186 204.715 156.176L207.236 161.538" stroke="#2E353A" stroke-width="0.75" stroke-linecap="round" stroke-linejoin="round"/>
<path d="M200.777 87.4868C200.777 87.4868 199.283 88.3134 197.033 89.5948C194.784 90.8761 193.491 91.5197 193.183 92.5944C192.876 93.669 186.328 107.073 186.328 107.073C186.328 107.073 188.897 108.572 191.253 109.641C193.043 110.377 194.908 110.916 196.815 111.247L198.958 106.754C198.958 106.754 203.092 114.56 204.863 117.347C208.016 122.325 207 125.377 206.575 127.09C206.15 128.802 204.969 132.014 205.288 132.439C205.607 132.864 213.956 136.614 219.312 136.295C224.667 135.976 233.843 135.48 234.487 134.73C235.13 133.98 235.237 129.658 235.237 129.333C235.237 129.009 234.292 120.665 233.33 115.635C232.367 110.604 227.124 97.1174 225.411 93.4801C223.699 89.8428 222.093 88.6618 217.735 87.1679C213.378 85.674 206.924 85.3493 204.249 85.6681C201.574 85.987 200.777 87.4868 200.777 87.4868Z" fill="#2E353A" stroke="#2E353A" stroke-linecap="round" stroke-linejoin="round"/>
<path d="M218.792 101.841L225.423 103.972L219.861 104.563" stroke="white" stroke-width="0.75" stroke-linecap="round" stroke-linejoin="round"/>
<path d="M207.904 118.77C207.904 118.77 214.293 123.977 222.111 123.977" stroke="white" stroke-width="0.75" stroke-linecap="round" stroke-linejoin="round"/>
<path d="M210.035 123.506C210.035 123.506 215.349 125.992 220.805 125.165" stroke="white" stroke-width="0.75" stroke-linecap="round" stroke-linejoin="round"/>
<path d="M196.301 100.188L198.958 106.754L193.343 98.6465" stroke="white" stroke-width="0.75" stroke-linecap="round" stroke-linejoin="round"/>
<path d="M200.322 88.2362C200.178 89.443 200.142 90.6603 200.216 91.8735C200.322 94.1232 201.072 95.7293 200.429 97.3353C199.785 98.9414 200.541 99.6972 201.178 98.9414C201.816 98.1856 202.891 95.2982 203.109 94.7668C203.328 94.2354 207.833 93.267 208.459 93.267C209.085 93.267 211.134 96.4792 212.096 96.9043C213.059 97.3294 212.846 96.4792 212.203 94.7668C211.559 93.0544 210.815 87.0907 209.315 85.2366C207.815 83.3825 201.846 83.849 200.322 88.2362Z" fill="white" stroke="#2E353A" stroke-linecap="round" stroke-linejoin="round"/>
<path d="M201.421 90.1619C200.83 89.9552 204.521 95.6238 206.021 98.5112C207.52 101.399 208.908 100.655 209.126 98.4049C209.345 96.1552 208.377 88.6621 208.377 88.6621C208.377 88.6621 204.521 91.2366 201.421 90.1619Z" fill="white" stroke="#2E353A" stroke-linecap="round" stroke-linejoin="round"/>
<path d="M209.084 95.7119C207.704 96.3043 206.175 96.4608 204.703 96.1607C205.205 97.0228 205.671 97.8435 206.02 98.5225C207.52 101.41 208.907 100.666 209.126 98.4163C209.172 97.5149 209.158 96.6115 209.084 95.7119Z" fill="#E35F27" stroke="#2E353A" stroke-linecap="round" stroke-linejoin="round"/>
<path d="M212.227 135.58V148.813" stroke="#2E353A" stroke-width="4" stroke-linecap="round" stroke-linejoin="round"/>
<path d="M223.575 138.563C223.514 138.569 223.453 138.569 223.392 138.563L203.487 136.201C203.093 136.138 202.738 135.925 202.496 135.607C202.255 135.289 202.147 134.889 202.193 134.493C202.24 134.096 202.438 133.733 202.746 133.479C203.054 133.225 203.449 133.1 203.847 133.13L223.752 135.492C224.153 135.525 224.526 135.713 224.79 136.016C225.055 136.32 225.19 136.715 225.167 137.117C225.144 137.519 224.964 137.896 224.667 138.167C224.369 138.439 223.977 138.583 223.575 138.569V138.563Z" fill="white" stroke="#2E353A" stroke-linecap="round" stroke-linejoin="round"/>
<path d="M223.664 138.072C224.195 138.072 224.626 137.565 224.626 136.938C224.626 136.312 224.195 135.805 223.664 135.805C223.132 135.805 222.701 136.312 222.701 136.938C222.701 137.565 223.132 138.072 223.664 138.072Z" fill="white" stroke="#2E353A" stroke-width="0.75" stroke-linecap="round" stroke-linejoin="round"/>
<path d="M205.59 193.896L217.523 199.771C217.592 199.801 217.666 199.817 217.742 199.817C217.817 199.817 217.891 199.801 217.96 199.771L225.122 197.12C225.225 197.082 225.313 197.014 225.377 196.926C225.441 196.838 225.477 196.733 225.481 196.624C225.485 196.515 225.456 196.407 225.398 196.315C225.341 196.222 225.257 196.149 225.158 196.104L213.974 190.926C213.86 190.872 213.731 190.86 213.608 190.89L205.708 192.868C205.597 192.894 205.498 192.953 205.422 193.038C205.347 193.122 205.3 193.228 205.287 193.34C205.274 193.453 205.296 193.567 205.35 193.666C205.404 193.765 205.488 193.846 205.59 193.896Z" fill="white" stroke="#2E353A" stroke-linecap="round" stroke-linejoin="round"/>
<path d="M215.084 195.85H212.722C212.186 195.849 211.671 195.635 211.292 195.255C210.912 194.876 210.698 194.362 210.697 193.825L209.215 150.543C209.215 150.056 209.408 149.589 209.753 149.245C210.097 148.901 210.564 148.707 211.051 148.707H213.797C214.284 148.707 214.751 148.901 215.095 149.245C215.44 149.589 215.633 150.056 215.633 150.543L217.115 193.825C217.115 194.091 217.063 194.355 216.961 194.601C216.858 194.847 216.709 195.071 216.52 195.259C216.331 195.447 216.107 195.596 215.861 195.698C215.615 195.799 215.351 195.851 215.084 195.85Z" fill="white" stroke="#2E353A" stroke-linecap="round" stroke-linejoin="round"/>
<path d="M220.883 194.35C219.087 196.036 217.192 197.613 215.208 199.073C212.846 200.679 212.64 200.467 213.177 201.536C213.714 202.604 215.315 203.248 219.814 202.286C224.313 201.323 225.807 200.573 228.27 199.18C230.732 197.786 231.476 197.786 230.838 196.93C230.2 196.074 220.883 194.35 220.883 194.35Z" fill="#2E353A" stroke="#2E353A" stroke-linecap="round" stroke-linejoin="round"/>
<path d="M228.269 199.168C230.726 197.775 231.476 197.775 230.838 196.919C230.669 196.761 230.467 196.642 230.247 196.57C226.984 198.499 223.529 200.082 219.938 201.294C215.332 202.682 213.088 201.076 213.088 201.076L213.035 201.164C213.082 201.281 213.135 201.396 213.195 201.507C213.726 202.575 215.332 203.219 219.831 202.257C224.331 201.294 225.807 200.562 228.269 199.168Z" fill="white" stroke="#2E353A" stroke-linecap="round" stroke-linejoin="round"/>
<path d="M237.805 108.785C237.039 107.108 236.361 105.394 235.773 103.647C233.978 104.504 228.493 109.097 228.493 109.097L233.311 115.622C233.311 115.622 228.711 122.259 226.568 126.009C224.993 128.567 223.045 130.876 220.787 132.858L215.526 132.793C215.294 132.941 215.098 133.139 214.954 133.373C214.81 133.607 214.721 133.871 214.694 134.145C214.694 134.972 213.761 137.883 214.174 138.403C214.587 138.922 217.085 139.023 217.085 139.023C217.085 139.023 221.136 139.442 221.862 138.403C221.862 138.403 220.616 137.05 220.716 136.43C220.817 135.81 222.069 135.391 222.069 135.391L223.427 135.291C223.427 135.291 223.893 135.616 224.283 133.519C225.334 132.823 229.154 130.26 231.174 128.241C233.536 125.879 240.485 118.073 241.017 116.573C241.548 115.073 239.198 111.89 237.805 108.785Z" fill="white" stroke="#2E353A" stroke-linecap="round" stroke-linejoin="round"/>
<path d="M237.31 107.645C236.265 105.194 235.775 103.647 235.775 103.647C233.98 104.504 228.494 109.097 228.494 109.097L230.785 112.197C233.35 111.334 235.614 109.754 237.31 107.645Z" fill="#E35F27" stroke="#2E353A" stroke-linecap="round" stroke-linejoin="round"/>
<path d="M222.5 101.08L228.175 111.118L231.493 108.868C233.367 107.479 235.027 105.822 236.418 103.949C234.113 100.299 231.538 96.827 228.712 93.5631C224.213 88.426 222.075 88.1072 220.15 88.2134" fill="#2E353A"/>
<path d="M222.5 101.08L228.175 111.118L231.493 108.868C233.367 107.479 235.027 105.822 236.418 103.949C234.113 100.299 231.538 96.827 228.712 93.5631C224.213 88.426 222.075 88.1072 220.15 88.2134" stroke="#2E353A" stroke-linecap="round" stroke-linejoin="round"/>
<path d="M208.671 135.923C208.671 135.504 206.9 131.146 206.9 131.146L201.586 128.223C199.395 123.818 196.029 116.768 195.451 115.528C195.019 114.668 194.659 113.773 194.376 112.853L195.279 110.928C193.908 110.624 192.568 110.193 191.276 109.641C190.278 109.192 189.251 108.667 188.395 108.206C187.922 110.013 187.113 113.125 187.42 114.672C187.727 116.219 194.713 125.064 198.202 129.534C198.202 129.534 199.661 135.716 200.287 136.649L200.913 137.582C200.913 137.582 201.946 138.727 202.465 138.621C202.912 138.481 203.332 138.269 203.711 137.995C204.08 138.116 204.472 138.152 204.857 138.102C205.363 137.884 205.821 137.566 206.203 137.169C206.203 137.169 206.723 137.759 207.975 137.482C209.226 137.204 208.671 136.336 208.671 135.923Z" fill="white" stroke="#2E353A" stroke-linecap="round" stroke-linejoin="round"/>
<path d="M187.745 110.775C189.748 112.132 192.053 112.975 194.459 113.232C194.382 113.001 194.352 112.883 194.352 112.883L195.256 110.958C193.884 110.654 192.544 110.223 191.253 109.671C190.255 109.222 189.227 108.697 188.371 108.236C188.182 108.921 187.922 109.831 187.745 110.775Z" fill="#E35F27" stroke="#2E353A" stroke-linecap="round" stroke-linejoin="round"/>
<path d="M111.161 139.118V135.504" stroke="#2E353A" stroke-width="6" stroke-linecap="round" stroke-linejoin="round"/>
<path d="M212.385 187.258L207.916 188.002C207.916 188.002 205.188 188.746 204.692 191.226C203.499 197.196 197.323 199.44 192.056 200.621C184.603 202.344 177.041 203.557 169.423 204.252C157.802 205.285 145.999 205.09 134.491 203.071C127.883 201.89 117.81 200.615 112.885 195.584C112.47 195.203 112.157 194.724 111.976 194.19C111.58 192.738 112.927 191.415 114.226 190.648C116.611 189.37 119.154 188.412 121.79 187.796C128.55 185.941 136.994 185.587 143.295 182.647C145.137 181.79 146.247 180.421 144.369 178.767C138.524 173.589 111.161 172.674 111.161 162.937V139.117" stroke="#2E353A" stroke-width="3" stroke-linecap="round" stroke-linejoin="round"/>
<path d="M196.001 82.8397C195.79 81.7202 195.42 80.6366 194.902 79.6217C194.17 78.3758 192.157 76.3682 191.791 74.4669C191.424 72.5656 194.247 70.3336 194.247 70.3336C194.247 70.3336 192.706 70.3336 193.066 69.6722C193.426 69.0109 195.192 69.3062 195.192 69.3062C195.072 68.9619 195.043 68.5926 195.107 68.2338C195.171 67.875 195.326 67.5387 195.558 67.2572C196.361 66.3066 196.656 68.137 196.656 68.137C197.521 66.3646 198.865 64.8696 200.535 63.8207C203.169 62.2796 207.857 64.4111 208.371 65.722C208.885 67.0328 207.645 66.5841 207.645 66.5841C207.645 66.5841 213.939 69.4361 214.376 73.6697C214.813 77.9034 211.158 77.183 211.158 77.183C211.158 77.183 211.376 79.6748 210.863 80.5546C210.349 81.4344 210.131 81.7356 207.568 79.6748C205.005 77.6141 199.738 78.3581 199.443 79.97C199.148 81.582 198.262 83.9912 196.957 83.7018C195.652 83.4125 196.001 82.8397 196.001 82.8397Z" fill="#2E353A" stroke="#2E353A" stroke-linecap="round" stroke-linejoin="round"/>
<path d="M199.619 73.1972C199.619 73.1972 197.086 71.0125 199.849 70.5578C202.613 70.1032 203.64 75.0395 206.516 76.0728C208.292 76.6718 210.232 76.5488 211.919 75.7303" stroke="white" stroke-width="0.5" stroke-linecap="round" stroke-linejoin="round"/>
<path d="M199.188 72.8134C199.188 72.8134 196.289 70.9239 196.537 69.6603C196.785 68.3967 201.461 66.7552 203.982 68.2727C206.504 69.7902 206.634 72.9433 209.787 73.6991C212.94 74.4549 212.438 72.6894 212.06 72.1816" stroke="white" stroke-width="0.5" stroke-linecap="round" stroke-linejoin="round"/>
<path d="M193.637 74.9633C193.13 74.3315 193.006 71.9342 195.025 71.5563C197.044 71.1784 198.686 73.3277 198.686 73.3277C198.302 73.5757 196.035 74.2075 195.657 76.1029C195.279 77.9983 197.168 77.9924 196.289 79.6457" stroke="white" stroke-width="0.5" stroke-linecap="round" stroke-linejoin="round"/>
<path d="M196.366 82.887C196.366 82.887 196.26 82.7512 196.1 82.5858C195.711 82.1843 194.612 81.895 194.276 82.698C193.803 83.8376 195.091 85.9988 196.047 86.2822C196.309 86.3695 196.588 86.391 196.86 86.3446C197.132 86.2983 197.388 86.1856 197.606 86.0165C197.606 86.0165 200.239 91.3307 203.552 92.5766C206.865 93.8225 208.5 89.9018 209.545 87.2624C210.59 84.623 210.207 83.6664 210.207 83.6664C210.207 83.6664 211.978 84.0856 212.527 82.0013C213.076 79.9169 212.196 79.1198 211.63 79.2143C211.096 79.3639 210.585 79.5865 210.112 79.8756L209.262 77.6023C209.262 77.6023 207.65 78.5529 204.904 77.5078C202.158 76.4627 200.83 73.9118 200.18 74.1008C199.531 74.2897 199.59 75.9903 199.59 75.9903C199.59 75.9903 198.362 75.329 197.889 75.8958C197.417 76.4627 198.645 77.1299 198.078 79.2143C197.511 81.2986 196.838 81.9363 196.838 81.9363C196.838 81.9363 197.311 82.8811 196.933 82.8811L196.366 82.887Z" fill="white" stroke="#2E353A" stroke-linecap="round" stroke-linejoin="round"/>
<path d="M201.846 81.4992C201.935 81.9008 201.816 82.261 201.592 82.3082C201.368 82.3554 201.108 82.0779 201.002 81.6764C200.895 81.2749 201.031 80.9147 201.261 80.8674C201.492 80.8202 201.763 81.1036 201.846 81.4992Z" fill="#2E353A"/>
<path d="M206.386 80.9802C206.386 81.3876 206.221 81.7301 205.984 81.736C205.748 81.7419 205.553 81.4172 205.542 81.0097C205.53 80.6023 205.701 80.2658 205.937 80.2598C206.173 80.2539 206.368 80.5728 206.386 80.9802Z" fill="#2E353A"/>
<path d="M199.454 80.2184C199.619 79.8238 199.883 79.479 200.222 79.218C200.561 78.9571 200.961 78.789 201.385 78.7305" stroke="#2E353A" stroke-linecap="round" stroke-linejoin="round"/>
<path d="M205.135 78.458C205.559 78.3557 206.004 78.3794 206.415 78.5262C206.826 78.6731 207.186 78.9366 207.449 79.2847" stroke="#2E353A" stroke-linecap="round" stroke-linejoin="round"/>
<path d="M205.902 86.8899C205.902 86.8899 202.655 88.1004 201.055 85.8389" stroke="#2E353A" stroke-linecap="round" stroke-linejoin="round"/>
<path d="M202.094 86.8369C202.094 86.8369 202.206 89.0394 203.363 89.4822C204.521 89.9251 205.07 87.1203 205.07 87.1203C204.069 87.2681 203.048 87.1708 202.094 86.8369Z" fill="#2E353A" stroke="#2E353A" stroke-linecap="round" stroke-linejoin="round"/>
<path d="M202.359 88.1773C202.424 88.4546 202.548 88.7146 202.722 88.9397C202.896 89.1649 203.117 89.3499 203.369 89.4823C203.96 89.7126 204.414 89.0453 204.698 88.3604C203.952 88.0749 203.14 88.0113 202.359 88.1773Z" fill="white" stroke="#2E353A" stroke-linecap="round" stroke-linejoin="round"/>
<path d="M204.969 79.2256C204.622 80.4105 204.602 81.6673 204.91 82.8629C205.465 84.5752 206.292 84.6343 205.961 84.8469C205.631 85.0594 204.19 85.3429 203.865 85.0712" fill="white"/>
<path d="M204.969 79.2256C204.622 80.4105 204.602 81.6673 204.91 82.8629C205.465 84.5752 206.292 84.6343 205.961 84.8469C205.631 85.0594 204.19 85.3429 203.865 85.0712" stroke="#2E353A" stroke-linecap="round" stroke-linejoin="round"/>
<path d="M218.421 140.688C218.421 140.688 212.333 155.237 212.132 158.449C211.931 161.661 221.107 189.106 221.32 190.287C221.532 191.468 219.826 191.25 219.826 192.425C219.848 193.239 220.028 194.041 220.357 194.787C220.464 195.106 228.919 197.674 230.313 197.78C231.706 197.887 232.344 197.568 232.344 196.599C232.344 195.631 231.706 192.637 231.706 192.319C231.706 192 233.419 189.957 232.775 187.075C232.131 184.194 226.144 165.942 225.394 164.011C224.644 162.081 223.788 160.055 223.788 160.055C224.117 159.573 224.337 159.025 224.432 158.449C224.497 157.951 224.497 157.447 224.432 156.949C224.432 156.949 233.708 142.087 233.72 137.464" fill="#E35F27"/>
<path d="M218.421 140.688C218.421 140.688 212.333 155.237 212.132 158.449C211.931 161.661 221.107 189.106 221.32 190.287C221.532 191.468 219.826 191.25 219.826 192.425C219.848 193.239 220.028 194.041 220.357 194.787C220.464 195.106 228.919 197.674 230.313 197.78C231.706 197.887 232.344 197.568 232.344 196.599C232.344 195.631 231.706 192.637 231.706 192.319C231.706 192 233.419 189.957 232.775 187.075C232.131 184.194 226.144 165.942 225.394 164.011C224.644 162.081 223.788 160.055 223.788 160.055C224.117 159.573 224.337 159.025 224.432 158.449C224.497 157.951 224.497 157.447 224.432 156.949C224.432 156.949 233.708 142.087 233.72 137.464" stroke="#2E353A" stroke-linecap="round" stroke-linejoin="round"/>
<path d="M224.915 171.457C227.336 179.05 230.194 188.091 230.395 189.437C230.749 191.799 230.04 192.283 230.277 193.464C230.513 194.645 230.985 196.304 230.985 196.304" stroke="#2E353A" stroke-width="0.75" stroke-linecap="round" stroke-linejoin="round"/>
<path d="M230.27 139.212C228.428 143.705 225.039 151.996 224.366 153.702C223.415 156.064 221.756 157.965 222.116 158.201C222.476 158.438 223.415 158.438 222.706 159.264C221.998 160.091 221.525 160.333 221.525 160.687C221.525 160.811 222.612 164.201 224.017 168.611" stroke="#2E353A" stroke-width="0.75" stroke-linecap="round" stroke-linejoin="round"/>
<path d="M231.458 136.289L230.867 137.771" stroke="#2E353A" stroke-width="0.75" stroke-linecap="round" stroke-linejoin="round"/>
<path d="M215.545 138.722C215.545 138.722 215.887 134.925 216.236 134.465" stroke="#2E353A" stroke-width="0.75" stroke-linecap="round" stroke-linejoin="round"/>
<path d="M218.309 134.488C218.309 134.488 216.785 139.371 217.086 139.059" stroke="#2E353A" stroke-width="0.75" stroke-linecap="round" stroke-linejoin="round"/>
<path d="M219.459 134.807L218.768 138.491C218.768 138.491 218.65 138.84 219.689 138.952" stroke="#2E353A" stroke-width="0.75" stroke-linecap="round" stroke-linejoin="round"/>
<path d="M206.18 137.169L205.53 136.419" stroke="#2E353A" stroke-width="0.75" stroke-linecap="round" stroke-linejoin="round"/>
<path d="M203.688 137.995L203.109 137.57" stroke="#2E353A" stroke-width="0.75" stroke-linecap="round" stroke-linejoin="round"/>
<path d="M202.442 138.621L201.615 137.34" stroke="#2E353A" stroke-width="0.75" stroke-linecap="round" stroke-linejoin="round"/>
<path d="M166.665 123.665C170.368 119.652 173.614 115.24 176.343 110.51" stroke="#2E353A" stroke-linecap="round" stroke-linejoin="round"/>
<path d="M118.837 147.006C135.856 145.627 151.853 138.325 164.043 126.369" stroke="#2E353A" stroke-linecap="round" stroke-linejoin="round"/>
<path d="M101.973 146.457C104.341 146.813 106.725 147.049 109.117 147.166" stroke="#2E353A" stroke-linecap="round" stroke-linejoin="round"/>
<path d="M79.6357 138.031C81.1513 138.819 82.6885 139.553 84.2473 140.234" stroke="#2E353A" stroke-linecap="round" stroke-linejoin="round"/>
<path d="M40.6113 79.6455C41.6528 91.127 45.3829 102.202 51.4999 111.974C57.6169 121.746 65.9487 129.94 75.8211 135.894" stroke="#2E353A" stroke-linecap="round" stroke-linejoin="round"/>
<path d="M154.076 14.0323C143.651 6.82247 131.537 2.43483 118.913 1.2966C106.289 0.158367 93.5855 2.30833 82.0391 7.53717" stroke="#2E353A" stroke-linecap="round" stroke-linejoin="round"/>
<path d="M179.915 44.4709C179.186 42.8175 178.399 41.1996 177.553 39.6172" stroke="#2E353A" stroke-linecap="round" stroke-linejoin="round"/>
<path d="M151.655 124.923C155.606 121.988 159.217 118.621 162.42 114.885" stroke="#2E353A" stroke-linecap="round" stroke-linejoin="round"/>
<path d="M105.362 137.671C120.684 139.276 136.083 135.459 148.88 126.883" stroke="#2E353A" stroke-linecap="round" stroke-linejoin="round"/>
<path d="M90.4941 134.382C92.5175 135.079 94.59 135.683 96.7118 136.195" stroke="#2E353A" stroke-linecap="round" stroke-linejoin="round"/>
<path d="M48.8301 90.9053C49.2749 92.3814 49.7689 93.8379 50.3122 95.2748" stroke="#2E353A" stroke-linecap="round" stroke-linejoin="round"/>
<path d="M61.945 28.9238C55.1876 36.83 50.3867 46.2161 47.9308 56.3225C45.475 66.4289 45.4333 76.9715 47.8091 87.097" stroke="#2E353A" stroke-linecap="round" stroke-linejoin="round"/>
<path d="M140.029 11.966C129.652 7.15748 118.207 5.11958 106.808 6.05092C95.4095 6.98226 84.4467 10.8511 74.9883 17.2802" stroke="#2E353A" stroke-linecap="round" stroke-linejoin="round"/>
<path d="M173.698 47.7599C168.277 33.997 158.414 22.4398 145.674 14.9238" stroke="#2E353A" stroke-linecap="round" stroke-linejoin="round"/>
<path d="M176.549 56.9003C176.183 55.3119 175.752 53.7472 175.268 52.2061" stroke="#2E353A" stroke-linecap="round" stroke-linejoin="round"/>
<path d="M173.833 72.6125C173.833 71.8331 174.53 71.0418 174.5 70.2506C174.471 69.4594 173.715 68.7331 173.662 67.9655C173.609 67.1979 174.252 66.3476 174.158 65.6036C174.063 64.8596 173.26 64.151 173.148 63.3834C173.036 62.6158 173.609 61.7301 173.461 60.9684C173.313 60.2067 172.463 59.5867 172.28 58.8309C172.097 58.0751 172.611 57.1481 172.416 56.3982C172.221 55.6483 171.312 55.0991 171.081 54.3551C170.851 53.6111 171.288 52.6487 171.034 51.9224C170.78 51.1961 169.853 50.706 169.552 49.9856C169.251 49.2653 169.629 48.2674 169.322 47.5588C169.015 46.8503 168.035 46.4369 167.698 45.7402C167.361 45.0434 167.645 44.0219 167.285 43.337C166.925 42.652 165.921 42.3213 165.513 41.6482C165.106 40.9751 165.336 39.9418 164.923 39.2863C164.51 38.6309 163.482 38.3711 163.045 37.7334C162.608 37.0957 162.738 36.0446 162.278 35.4187C161.817 34.7928 160.778 34.6157 160.294 34.0075C159.809 33.3993 159.863 32.3483 159.355 31.7578C158.847 31.1674 157.796 31.067 157.27 30.5001C156.745 29.9333 156.715 28.8763 156.166 28.3272C155.617 27.7781 154.56 27.7367 153.993 27.223C153.426 26.7093 153.32 25.6465 152.736 25.1387C152.151 24.6308 151.088 24.684 150.486 24.1998C149.884 23.7156 149.695 22.6764 149.075 22.2158C148.455 21.7553 147.404 21.8852 146.76 21.4482C146.116 21.0113 145.862 19.9838 145.201 19.5705C144.54 19.1572 143.512 19.3698 142.839 18.98C142.166 18.5903 141.835 17.5924 141.151 17.2086C140.466 16.8248 139.444 17.1319 138.747 16.7953C138.051 16.4587 137.643 15.4845 136.929 15.1715C136.214 14.8586 135.228 15.2247 134.502 14.9412C133.776 14.6578 133.321 13.719 132.565 13.4592C131.809 13.1993 130.876 13.6422 130.132 13.4119C129.388 13.1816 128.839 12.2841 128.089 12.0834C127.339 11.8826 126.418 12.3904 125.657 12.2133C124.895 12.0361 124.287 11.1858 123.519 11.0323C122.751 10.8788 121.878 11.4634 121.104 11.3453C120.331 11.2272 119.663 10.4241 118.89 10.3356C118.116 10.247 117.278 10.8906 116.528 10.8316C115.778 10.7725 115.016 10.0226 114.237 9.99309C113.457 9.96357 112.678 10.6662 111.875 10.6662C111.072 10.6662 110.31 9.96357 109.513 9.99309C108.716 10.0226 107.996 10.7784 107.222 10.8316C106.449 10.8847 105.61 10.2411 104.86 10.3356C104.11 10.43 103.408 11.2331 102.646 11.3453C101.884 11.4575 100.993 10.8847 100.231 11.0323C99.4692 11.1799 98.8492 12.0302 98.0934 12.2133C97.3376 12.3963 96.4106 11.8826 95.6607 12.0834C94.9108 12.2841 94.3557 13.1816 93.6176 13.4119C92.8796 13.6422 91.9112 13.2052 91.179 13.4592C90.4468 13.7131 89.9981 14.6401 89.2482 14.9412C88.4983 15.2424 87.5299 14.8645 86.8213 15.1715C86.1128 15.4786 85.6994 16.4587 85.0027 16.7953C84.3059 17.1319 83.2844 16.8484 82.5995 17.2086C81.9145 17.5688 81.578 18.5726 80.9107 18.98C80.2435 19.3875 79.1984 19.1631 78.5489 19.5705C77.8993 19.9779 77.6336 21.0054 76.9959 21.4423C76.3582 21.8793 75.3072 21.7494 74.6813 22.2099C74.0554 22.6705 73.8782 23.7097 73.27 24.1998C72.6619 24.6899 71.6108 24.6249 71.0204 25.1328C70.4299 25.6406 70.3295 26.6916 69.7626 27.2171C69.1958 27.7426 68.1389 27.7722 67.5897 28.3213C67.0406 28.8704 66.9992 29.9274 66.4855 30.4942C65.9718 31.0611 64.9267 31.1555 64.4189 31.746C63.9111 32.3365 63.9642 33.3875 63.48 33.9957C62.9959 34.6039 61.9566 34.781 61.4961 35.4069C61.0355 36.0328 61.1654 37.078 60.7285 37.7157C60.2915 38.3534 59.2641 38.6132 58.8508 39.2745C58.4374 39.9358 58.65 40.9633 58.2603 41.6364C57.8706 42.3095 56.8668 42.6402 56.4889 43.331C56.111 44.0219 56.4121 45.0316 56.0756 45.7284C55.739 46.4251 54.7647 46.8384 54.4518 47.547C54.1388 48.2556 54.5049 49.2476 54.2215 49.9738C53.938 50.7001 52.9933 51.1548 52.7394 51.9106C52.4855 52.6664 52.9165 53.5993 52.6922 54.3433C52.4678 55.0873 51.5585 55.6364 51.3577 56.3863C51.1569 57.1362 51.6647 58.0633 51.4935 58.8191C51.3223 59.5749 50.4661 60.189 50.3126 60.9566C50.159 61.7242 50.7495 62.604 50.6314 63.3716C50.5133 64.1392 49.7103 64.8124 49.6217 65.5918C49.5331 66.3712 50.1767 67.1979 50.1177 67.9537C50.0587 68.7095 49.3029 69.4594 49.2792 70.2388C49.2556 71.0182 49.9465 71.8035 49.9465 72.6007C49.9465 73.3978 49.2497 74.1654 49.2792 74.9625C49.3088 75.7597 50.0646 76.4801 50.1177 77.2536C50.1708 78.0271 49.5272 78.8656 49.6217 79.6155C49.7162 80.3654 50.5192 81.068 50.6314 81.8297C50.7436 82.5914 50.1708 83.4889 50.3126 84.2506C50.4543 85.0124 51.3164 85.6264 51.4935 86.3822C51.6706 87.138 51.1569 88.071 51.3577 88.815C51.5585 89.559 52.4619 90.1199 52.6922 90.858C52.9224 91.5961 52.4855 92.5645 52.7394 93.2966C52.9933 94.0288 53.9203 94.5071 54.2215 95.2334C54.5226 95.9597 54.1447 96.9457 54.4518 97.6543C54.7588 98.3629 55.739 98.7762 56.0756 99.473C56.4121 100.17 56.1228 101.191 56.4889 101.876C56.855 102.561 57.8529 102.898 58.2603 103.571C58.6677 104.244 58.4374 105.277 58.8508 105.933C59.2641 106.588 60.2915 106.848 60.7285 107.486C61.1654 108.123 61.0355 109.174 61.4961 109.8C61.9566 110.426 62.9959 110.603 63.48 111.212C63.9642 111.82 63.9111 112.877 64.4189 113.461C64.9267 114.046 65.9777 114.152 66.5033 114.725C67.0288 115.298 67.0583 116.349 67.6074 116.898C68.1566 117.447 69.2135 117.488 69.7804 117.996C70.3472 118.504 70.4535 119.578 71.0381 120.08C71.6226 120.582 72.6796 120.535 73.2878 121.019C73.8959 121.503 74.079 122.543 74.699 123.003C75.319 123.464 76.37 123.334 77.0136 123.771C77.6572 124.208 77.9111 125.235 78.5725 125.649C79.2338 126.062 80.2612 125.849 80.9343 126.239C81.6075 126.629 81.9381 127.632 82.6231 128.01C83.308 128.388 84.3237 128.087 85.0263 128.424C85.729 128.76 86.1305 129.735 86.845 130.048C87.5594 130.36 88.5455 129.994 89.2718 130.278C89.9981 130.561 90.4527 131.506 91.2085 131.76C91.9643 132.014 92.8973 131.583 93.6413 131.807C94.3853 132.032 94.9344 132.941 95.6843 133.142C96.4342 133.342 97.3553 132.835 98.117 133.006C98.8787 133.177 99.4869 134.033 100.255 134.187C101.022 134.34 101.896 133.75 102.67 133.868C103.443 133.986 104.11 134.789 104.884 134.878C105.657 134.966 106.496 134.323 107.246 134.382C107.996 134.441 108.757 135.196 109.537 135.226C110.316 135.255 111.096 134.553 111.899 134.553C112.702 134.553 113.469 135.25 114.26 135.226C115.052 135.202 115.778 134.441 116.546 134.382C117.313 134.323 118.163 134.972 118.907 134.878C119.651 134.783 120.36 133.98 121.128 133.868C121.895 133.756 122.781 134.328 123.543 134.187C124.304 134.045 124.924 133.183 125.68 133.006C126.436 132.829 127.363 133.342 128.113 133.142C128.863 132.941 129.418 132.037 130.156 131.807C130.894 131.577 131.862 132.014 132.595 131.76C133.327 131.506 133.805 130.579 134.525 130.278C135.246 129.977 136.244 130.36 136.952 130.048C137.661 129.735 138.074 128.76 138.771 128.424C139.468 128.087 140.489 128.376 141.174 128.01C141.859 127.644 142.196 126.646 142.863 126.239C143.53 125.832 144.569 126.062 145.225 125.649C145.88 125.235 146.14 124.208 146.778 123.771C147.415 123.334 148.466 123.464 149.092 123.003C149.718 122.543 149.895 121.503 150.504 121.019C151.112 120.535 152.163 120.588 152.753 120.08C153.344 119.573 153.444 118.522 154.011 117.996C154.578 117.471 155.635 117.441 156.184 116.892C156.733 116.343 156.774 115.292 157.288 114.719C157.802 114.146 158.865 114.046 159.372 113.461C159.88 112.877 159.827 111.82 160.311 111.212C160.795 110.603 161.835 110.426 162.295 109.8C162.756 109.174 162.626 108.129 163.063 107.486C163.5 106.842 164.527 106.588 164.941 105.933C165.354 105.277 165.141 104.238 165.531 103.571C165.921 102.904 166.919 102.567 167.302 101.882C167.686 101.197 167.379 100.182 167.716 99.4789C168.052 98.7762 169.027 98.3747 169.34 97.6602C169.653 96.9458 169.286 95.9597 169.57 95.2334C169.853 94.5071 170.792 94.0525 171.052 93.3026C171.312 92.5527 170.869 91.6079 171.099 90.8639C171.329 90.1199 172.233 89.5767 172.434 88.8209C172.634 88.0651 172.127 87.1498 172.298 86.3881C172.469 85.6264 173.325 85.0182 173.479 84.2565C173.632 83.4948 173.048 82.6091 173.166 81.8356C173.284 81.0621 174.087 80.3949 174.176 79.6214C174.264 78.8478 173.62 78.0094 173.68 77.2595C173.739 76.5096 174.488 75.7479 174.518 74.9685C174.548 74.189 173.833 73.3919 173.833 72.6125Z" fill="#E35F27" stroke="#2E353A" stroke-width="2" stroke-linecap="round" stroke-linejoin="round"/>
<path d="M93.3516 13.6543L94.4439 16.7129" stroke="#2E353A" stroke-width="2" stroke-linecap="round" stroke-linejoin="round"/>
<path d="M89.1953 15.2959L90.1814 17.6991" stroke="#2E353A" stroke-width="2" stroke-linecap="round" stroke-linejoin="round"/>
<path d="M165.277 41.749C163.49 43.281 161.458 44.5007 159.266 45.3568" stroke="#2E353A" stroke-width="2" stroke-linecap="round" stroke-linejoin="round"/>
<path d="M167.463 45.7939C166.649 46.3089 165.809 46.7819 164.947 47.2111" stroke="#2E353A" stroke-width="2" stroke-linecap="round" stroke-linejoin="round"/>
<path d="M76.7363 123.86C76.7363 123.86 79.358 120.907 79.795 118.723" stroke="#2E353A" stroke-width="2" stroke-linecap="round" stroke-linejoin="round"/>
<path d="M69.4082 117.825C69.4082 117.825 71.5989 115.097 72.0358 114.66" stroke="#2E353A" stroke-width="2" stroke-linecap="round" stroke-linejoin="round"/>
<path d="M125.598 132.693L124.724 127.887" stroke="#2E353A" stroke-width="2" stroke-linecap="round" stroke-linejoin="round"/>
<path d="M130.403 131.713L129.748 128.979" stroke="#2E353A" stroke-width="2" stroke-linecap="round" stroke-linejoin="round"/>
<path d="M150.409 120.889L146.695 116.732" stroke="#2E353A" stroke-width="2" stroke-linecap="round" stroke-linejoin="round"/>
<path d="M167.899 99.4621L162.325 96.5156" stroke="#2E353A" stroke-width="2" stroke-linecap="round" stroke-linejoin="round"/>
<path d="M50.3896 72.6836L55.0898 72.7899" stroke="#2E353A" stroke-width="2" stroke-linecap="round" stroke-linejoin="round"/>
<path d="M57.0566 72.9023L59.3536 73.0086" stroke="#2E353A" stroke-width="2" stroke-linecap="round" stroke-linejoin="round"/>
<path d="M56.4004 99.7923C56.9495 99.5738 60.5337 98.6113 60.5337 98.6113" stroke="#2E353A" stroke-width="2" stroke-linecap="round" stroke-linejoin="round"/>
<path d="M125.633 12.3086C125.302 12.9699 124.641 16.7785 124.641 16.7785" stroke="#2E353A" stroke-width="2" stroke-linecap="round" stroke-linejoin="round"/>
<path d="M129.932 13.7959L129.436 16.2818" stroke="#2E353A" stroke-width="2" stroke-linecap="round" stroke-linejoin="round"/>
<path d="M146.973 21.9033L145.65 23.5566" stroke="#2E353A" stroke-width="2" stroke-linecap="round" stroke-linejoin="round"/>
<path d="M60.6172 37.7871L63.9238 39.6058" stroke="#2E353A" stroke-width="2" stroke-linecap="round" stroke-linejoin="round"/>
<path d="M65.9131 40.5977L68.5584 42.0856" stroke="#2E353A" stroke-width="2" stroke-linecap="round" stroke-linejoin="round"/>
<path d="M129.4 54.5619C129.4 54.5619 128.391 52.9971 123.289 49.7791C118.187 46.561 104.984 43.5024 99.7823 40.6917C94.5802 37.7925 88.7818 32.3248 86.7565 29.6972C84.7312 27.0696 85.0441 25.0856 83.4144 24.9262C81.7847 24.7667 80.155 25.5166 79.0213 28.9296C77.8876 32.3425 79.2752 40.8925 80.2023 43.5201C81.1293 46.1477 83.8514 47.8128 85.5814 48.5096C87.3115 49.2063 91.1791 51.0427 91.1732 52.6901C91.1673 54.3375 90.9606 54.6623 90.2462 54.7863C89.5317 54.9103 73.8252 57.2367 71.4043 57.9394C68.9833 58.642 67.9382 63.0528 68.629 66.5307C69.3199 70.0086 72.0597 71.1009 71.233 73.5691C70.4064 76.0373 68.9833 78.9306 70.3886 82.2077C71.794 85.4848 74.4334 84.977 73.406 87.5219C72.3785 90.0669 72.3667 93.0428 73.6776 94.956C74.9884 96.8691 76.7185 98.1091 76.7067 100.43C76.6949 102.75 80.7455 107.858 83.2904 108.584C84.5481 108.962 95.9678 110.214 107.086 110.326C118.199 110.609 129.011 109.735 128.993 109.735C129.127 91.3324 129.262 72.9412 129.4 54.5619Z" fill="white" stroke="#2E353A" stroke-width="3" stroke-linecap="round" stroke-linejoin="round"/>
<path d="M151.59 108.011C144.977 109.011 138.34 109.747 131.68 110.22C131.249 110.239 130.819 110.167 130.418 110.009C130.017 109.851 129.653 109.611 129.351 109.304C129.049 108.996 128.814 108.629 128.663 108.225C128.512 107.821 128.447 107.391 128.473 106.96C128.54 90.3444 128.607 73.7364 128.674 57.1363C128.658 56.7 128.729 56.2647 128.884 55.8564C129.038 55.4481 129.274 55.0751 129.576 54.7595C129.877 54.4439 130.24 54.1922 130.641 54.0193C131.042 53.8463 131.473 53.7558 131.91 53.7529C138.57 53.9419 145.207 54.2115 151.821 54.5619C152.682 54.6229 153.489 55.0073 154.079 55.638C154.669 56.2688 154.999 57.0992 155.003 57.963C154.932 73.39 154.863 88.8288 154.797 104.279C154.77 105.175 154.438 106.034 153.854 106.713C153.271 107.392 152.471 107.851 151.59 108.011Z" fill="#2E353A" stroke="#2E353A" stroke-width="3" stroke-linecap="round" stroke-linejoin="round"/>
<path d="M136.805 104.274C136.822 103.95 136.77 103.626 136.653 103.323C136.536 103.02 136.357 102.745 136.127 102.516C135.897 102.286 135.621 102.108 135.318 101.992C135.015 101.875 134.691 101.824 134.367 101.841C133.684 101.915 133.053 102.24 132.597 102.755C132.142 103.269 131.895 103.935 131.905 104.622C131.885 104.948 131.934 105.274 132.05 105.58C132.165 105.885 132.344 106.163 132.574 106.394C132.805 106.626 133.081 106.806 133.386 106.923C133.691 107.04 134.017 107.091 134.343 107.073C135.025 106.989 135.653 106.657 136.107 106.141C136.56 105.626 136.809 104.961 136.805 104.274Z" fill="white" stroke="#2E353A" stroke-width="3" stroke-linecap="round" stroke-linejoin="round"/>
<path d="M129.194 48.4809C135.742 48.4809 141.05 43.1725 141.05 36.6242C141.05 30.076 135.742 24.7676 129.194 24.7676C122.645 24.7676 117.337 30.076 117.337 36.6242C117.337 43.1725 122.645 48.4809 129.194 48.4809Z" fill="white"/>
<path d="M149.178 54.1763C150.898 52.456 150.898 49.667 149.178 47.9468C147.458 46.2266 144.669 46.2266 142.949 47.9468C141.228 49.667 141.229 52.456 142.949 54.1763C144.669 55.8965 147.458 55.8965 149.178 54.1763Z" fill="white"/>
<path opacity="0.2" d="M107.464 132.51C108.208 132.563 108.917 133.296 109.673 133.325C110.429 133.355 111.184 132.676 111.934 132.676C112.684 132.676 113.452 133.349 114.202 133.325C114.952 133.302 115.666 132.563 116.41 132.51C117.154 132.457 117.969 133.101 118.713 132.989C119.457 132.876 120.118 132.127 120.856 132.014C121.594 131.902 122.456 132.457 123.218 132.321C123.98 132.186 124.553 131.353 125.279 131.188C126.005 131.022 126.909 131.512 127.641 131.318C128.373 131.123 128.898 130.255 129.613 130.03C130.327 129.806 131.26 130.231 131.975 129.983C132.689 129.735 133.156 128.802 133.847 128.554C134.537 128.306 135.506 128.631 136.208 128.33C136.911 128.029 137.289 127.09 137.98 126.759C138.671 126.428 139.639 126.712 140.3 126.364C140.962 126.015 141.286 125.041 141.936 124.669C142.586 124.297 143.589 124.492 144.221 124.078C144.853 123.665 145.107 122.685 145.727 122.266C146.347 121.846 147.357 121.97 147.959 121.522C148.561 121.073 148.738 120.069 149.323 119.603C149.907 119.136 150.929 119.189 151.496 118.699C152.063 118.209 152.163 117.194 152.712 116.686C153.261 116.178 154.283 116.148 154.814 115.617C155.346 115.086 155.369 114.07 155.877 113.521C156.385 112.972 157.406 112.871 157.896 112.299C158.387 111.726 158.333 110.716 158.8 110.126C159.266 109.535 160.27 109.364 160.719 108.762C161.168 108.159 161.038 107.15 161.463 106.53C161.888 105.91 162.874 105.662 163.27 105.024C163.665 104.386 163.47 103.388 163.86 102.739C164.25 102.089 165.206 101.77 165.555 101.109C165.903 100.448 165.632 99.4617 165.956 98.7886C166.281 98.1154 167.226 97.7198 167.527 97.0172C167.828 96.3145 167.474 95.3756 167.751 94.6553C168.029 93.9349 168.932 93.4743 169.18 92.7835C169.428 92.0926 169.003 91.1479 169.228 90.4216C169.452 89.6953 170.32 89.1757 170.515 88.4494C170.71 87.7232 170.214 86.8315 170.385 86.0876C170.556 85.3436 171.377 84.7649 171.519 84.0268C171.66 83.2887 171.099 82.4384 171.212 81.6649C171.324 80.8914 172.103 80.2655 172.186 79.5215C172.268 78.7775 171.648 77.9686 171.708 77.2128C171.767 76.457 172.493 75.7602 172.516 75.0044C172.54 74.2486 171.867 73.4928 171.867 72.7429C171.867 71.993 172.546 71.2254 172.516 70.4755C172.487 69.7256 171.761 69.0112 171.708 68.2672C171.654 67.5232 172.268 66.7083 172.186 65.9643C172.103 65.2203 171.318 64.559 171.212 63.8209C171.105 63.0828 171.654 62.2207 171.519 61.459C171.383 60.6973 170.55 60.1246 170.385 59.3983C170.351 59.2372 170.341 59.0721 170.355 58.9082C128.786 94.3364 77.061 91.6026 53.5072 87.9357C53.4969 88.0885 53.5109 88.242 53.5485 88.3904C53.7434 89.1167 54.6114 89.6481 54.8357 90.3626C55.0601 91.077 54.635 92.01 54.883 92.7244C55.131 93.4389 56.0639 93.9054 56.3119 94.5903C56.5599 95.2753 56.2352 96.2495 56.5363 96.9522C56.8374 97.6549 57.7763 98.0387 58.1069 98.7236C58.4376 99.4086 58.1542 100.383 58.5026 101.044C58.8509 101.705 59.8252 102.03 60.1972 102.68C60.5692 103.329 60.3744 104.327 60.7877 104.959C61.201 105.591 62.1812 105.845 62.6004 106.465C63.0197 107.085 62.8957 108.094 63.3444 108.703C63.7932 109.311 64.797 109.476 65.2634 110.067C65.7299 110.657 65.6768 111.667 66.1669 112.239C66.657 112.812 67.6726 112.907 68.1804 113.456C68.6882 114.005 68.7177 115.027 69.2491 115.558C69.7805 116.089 70.7962 116.107 71.3453 116.621C71.8944 117.134 71.9948 118.144 72.5676 118.634C73.1403 119.124 74.15 119.071 74.7405 119.538C75.331 120.004 75.5022 121.014 76.1045 121.457C76.7068 121.9 77.7165 121.776 78.3365 122.201C78.9565 122.626 79.2045 123.612 79.8422 124.013C80.4799 124.415 81.4778 124.208 82.1273 124.604C82.7768 125 83.0956 125.944 83.757 126.299C84.4183 126.653 85.4044 126.369 86.0775 126.7C86.7507 127.031 87.1463 127.964 87.8489 128.265C88.5516 128.566 89.4904 128.212 90.2108 128.489C90.9312 128.767 91.3918 129.67 92.0826 129.918C92.7735 130.166 93.7182 129.747 94.4445 129.965C95.1708 130.184 95.6904 131.058 96.4167 131.253C97.1429 131.447 98.0345 130.957 98.7785 131.123C99.5225 131.288 100.107 132.115 100.845 132.256C101.583 132.398 102.434 131.837 103.178 131.949C103.922 132.062 104.577 132.841 105.321 132.924C106.065 133.006 106.709 132.457 107.464 132.51Z" fill="black"/>
</svg>
