<svg width="76" height="76" viewBox="0 0 76 76" fill="none" xmlns="http://www.w3.org/2000/svg">
<circle opacity="0.2" cx="38" cy="38" r="34.5" stroke="#EE5800" stroke-width="7"/>
<g opacity="0.5">
<mask id="path-2-inside-1_103_1752" fill="white">
<path d="M57.3332 66.6261C58.4017 68.2082 60.5624 68.6363 62.041 67.4284C67.4969 62.9715 71.6252 57.0687 73.9322 50.3643C76.6154 42.5665 76.6892 34.1075 74.1423 26.2641C71.5955 18.4207 66.5663 11.6187 59.8138 6.88477C54.0082 2.81464 47.1996 0.463262 40.1661 0.0617489C38.26 -0.0470634 36.763 1.56872 36.8278 3.47683C36.8926 5.38495 38.496 6.85923 40.3996 7.00659C45.9302 7.43475 51.2685 9.3376 55.8449 12.546C61.3688 16.4186 65.483 21.983 67.5665 28.3994C69.6499 34.8157 69.5896 41.7357 67.3946 48.1147C65.576 53.3996 62.374 58.0756 58.1499 61.6713C56.6961 62.9088 56.2646 65.0439 57.3332 66.6261Z"/>
</mask>
<path d="M57.3332 66.6261C58.4017 68.2082 60.5624 68.6363 62.041 67.4284C67.4969 62.9715 71.6252 57.0687 73.9322 50.3643C76.6154 42.5665 76.6892 34.1075 74.1423 26.2641C71.5955 18.4207 66.5663 11.6187 59.8138 6.88477C54.0082 2.81464 47.1996 0.463262 40.1661 0.0617489C38.26 -0.0470634 36.763 1.56872 36.8278 3.47683C36.8926 5.38495 38.496 6.85923 40.3996 7.00659C45.9302 7.43475 51.2685 9.3376 55.8449 12.546C61.3688 16.4186 65.483 21.983 67.5665 28.3994C69.6499 34.8157 69.5896 41.7357 67.3946 48.1147C65.576 53.3996 62.374 58.0756 58.1499 61.6713C56.6961 62.9088 56.2646 65.0439 57.3332 66.6261Z" stroke="#EE5800" stroke-width="20" mask="url(#path-2-inside-1_103_1752)"/>
</g>
<path d="M26.902 34.939C26.8113 34.5197 26.6527 34.208 26.426 34.004C26.1993 33.7887 25.8763 33.681 25.457 33.681C24.811 33.681 24.3463 33.9643 24.063 34.531C23.7797 35.0863 23.6323 35.9703 23.621 37.183C23.8703 36.7863 24.2273 36.4747 24.692 36.248C25.168 36.0213 25.6893 35.908 26.256 35.908C27.3667 35.908 28.2563 36.2593 28.925 36.962C29.605 37.6647 29.945 38.645 29.945 39.903C29.945 40.7303 29.775 41.4557 29.435 42.079C29.1063 42.7023 28.619 43.1897 27.973 43.541C27.3383 43.8923 26.5847 44.068 25.712 44.068C23.9667 44.068 22.754 43.524 22.074 42.436C21.394 41.3367 21.054 39.7613 21.054 37.71C21.054 35.5567 21.411 33.9587 22.125 32.916C22.8503 31.862 24.0063 31.335 25.593 31.335C26.443 31.335 27.157 31.505 27.735 31.845C28.3243 32.1737 28.7663 32.61 29.061 33.154C29.367 33.698 29.5483 34.293 29.605 34.939H26.902ZM25.559 38.203C25.0717 38.203 24.6637 38.3503 24.335 38.645C24.0177 38.9283 23.859 39.3363 23.859 39.869C23.859 40.413 24.0063 40.838 24.301 41.144C24.607 41.45 25.0377 41.603 25.593 41.603C26.0917 41.603 26.4827 41.4557 26.766 41.161C27.0607 40.855 27.208 40.4413 27.208 39.92C27.208 39.3873 27.0663 38.968 26.783 38.662C26.4997 38.356 26.0917 38.203 25.559 38.203ZM39.5112 33.766L35.2442 44H32.2692L36.5872 34.089H31.3002V31.607H39.5112V33.766ZM40.4489 34.718C40.4489 33.8 40.7095 33.0917 41.2309 32.593C41.7635 32.0943 42.4492 31.845 43.2879 31.845C44.1265 31.845 44.8065 32.0943 45.3279 32.593C45.8492 33.0917 46.1099 33.8 46.1099 34.718C46.1099 35.636 45.8492 36.3443 45.3279 36.843C44.8065 37.3417 44.1265 37.591 43.2879 37.591C42.4492 37.591 41.7635 37.3417 41.2309 36.843C40.7095 36.3443 40.4489 35.636 40.4489 34.718ZM51.9919 32.032L45.4469 44H42.6419L49.1869 32.032H51.9919ZM43.2709 33.545C42.7269 33.545 42.4549 33.936 42.4549 34.718C42.4549 35.4887 42.7269 35.874 43.2709 35.874C43.5315 35.874 43.7355 35.7777 43.8829 35.585C44.0302 35.3923 44.1039 35.1033 44.1039 34.718C44.1039 33.936 43.8262 33.545 43.2709 33.545ZM48.5409 41.314C48.5409 40.396 48.8015 39.6877 49.3229 39.189C49.8442 38.6903 50.5242 38.441 51.3629 38.441C52.2015 38.441 52.8815 38.6903 53.4029 39.189C53.9242 39.6877 54.1849 40.396 54.1849 41.314C54.1849 42.232 53.9242 42.9403 53.4029 43.439C52.8815 43.9377 52.2015 44.187 51.3629 44.187C50.5242 44.187 49.8442 43.9377 49.3229 43.439C48.8015 42.9403 48.5409 42.232 48.5409 41.314ZM51.3459 40.141C51.0852 40.141 50.8812 40.2373 50.7339 40.43C50.5979 40.6227 50.5299 40.9173 50.5299 41.314C50.5299 42.0847 50.8019 42.47 51.3459 42.47C51.6065 42.47 51.8105 42.3737 51.9579 42.181C52.1052 41.9883 52.1789 41.6993 52.1789 41.314C52.1789 40.9287 52.1052 40.6397 51.9579 40.447C51.8105 40.243 51.6065 40.141 51.3459 40.141Z" fill="#EE5800"/>
</svg>
