<svg width="76" height="76" viewBox="0 0 76 76" fill="none" xmlns="http://www.w3.org/2000/svg">
<circle opacity="0.2" cx="38" cy="38" r="34.5" stroke="#EE5800" stroke-width="7"/>
<g opacity="0.5">
<mask id="path-2-inside-1_98_6909" fill="white">
<path d="M57.3332 66.6261C58.4017 68.2082 60.5624 68.6363 62.041 67.4284C67.4969 62.9715 71.6252 57.0687 73.9322 50.3643C76.6154 42.5665 76.6892 34.1075 74.1423 26.2641C71.5955 18.4207 66.5663 11.6187 59.8138 6.88477C54.0082 2.81464 47.1996 0.463262 40.1661 0.0617489C38.26 -0.0470634 36.763 1.56872 36.8278 3.47683C36.8926 5.38495 38.496 6.85923 40.3996 7.00659C45.9302 7.43475 51.2685 9.3376 55.8449 12.546C61.3688 16.4186 65.483 21.983 67.5665 28.3994C69.6499 34.8157 69.5896 41.7357 67.3946 48.1147C65.576 53.3996 62.374 58.0756 58.1499 61.6713C56.6961 62.9088 56.2646 65.0439 57.3332 66.6261Z"/>
</mask>
<path d="M57.3332 66.6261C58.4017 68.2082 60.5624 68.6363 62.041 67.4284C67.4969 62.9715 71.6252 57.0687 73.9322 50.3643C76.6154 42.5665 76.6892 34.1075 74.1423 26.2641C71.5955 18.4207 66.5663 11.6187 59.8138 6.88477C54.0082 2.81464 47.1996 0.463262 40.1661 0.0617489C38.26 -0.0470634 36.763 1.56872 36.8278 3.47683C36.8926 5.38495 38.496 6.85923 40.3996 7.00659C45.9302 7.43475 51.2685 9.3376 55.8449 12.546C61.3688 16.4186 65.483 21.983 67.5665 28.3994C69.6499 34.8157 69.5896 41.7357 67.3946 48.1147C65.576 53.3996 62.374 58.0756 58.1499 61.6713C56.6961 62.9088 56.2646 65.0439 57.3332 66.6261Z" stroke="#EE5800" stroke-width="20" mask="url(#path-2-inside-1_98_6909)"/>
</g>
<path d="M23.867 35.092C23.9123 33.8793 24.309 32.9443 25.057 32.287C25.805 31.6297 26.8193 31.301 28.1 31.301C28.95 31.301 29.6753 31.4483 30.276 31.743C30.888 32.0377 31.347 32.44 31.653 32.95C31.9703 33.46 32.129 34.0323 32.129 34.667C32.129 35.415 31.942 36.027 31.568 36.503C31.194 36.9677 30.7577 37.285 30.259 37.455V37.523C30.905 37.7383 31.415 38.0953 31.789 38.594C32.163 39.0927 32.35 39.733 32.35 40.515C32.35 41.2177 32.1857 41.841 31.857 42.385C31.5397 42.9177 31.0693 43.337 30.446 43.643C29.834 43.949 29.103 44.102 28.253 44.102C26.893 44.102 25.805 43.7677 24.989 43.099C24.1843 42.4303 23.7593 41.4217 23.714 40.073H26.536C26.5473 40.5717 26.689 40.9683 26.961 41.263C27.233 41.5463 27.6297 41.688 28.151 41.688C28.593 41.688 28.933 41.5633 29.171 41.314C29.4203 41.0533 29.545 40.7133 29.545 40.294C29.545 39.75 29.3693 39.359 29.018 39.121C28.678 38.8717 28.1283 38.747 27.369 38.747H26.825V36.384H27.369C27.947 36.384 28.4117 36.2877 28.763 36.095C29.1257 35.891 29.307 35.534 29.307 35.024C29.307 34.616 29.1937 34.2987 28.967 34.072C28.7403 33.8453 28.4287 33.732 28.032 33.732C27.6013 33.732 27.2783 33.8623 27.063 34.123C26.859 34.3837 26.74 34.7067 26.706 35.092H23.867ZM34.126 41.79V39.444L39.498 31.76H42.745V39.274H44.139V41.79H42.745V44H39.838V41.79H34.126ZM40.042 34.956L37.186 39.274H40.042V34.956ZM45.3249 34.718C45.3249 33.8 45.5855 33.0917 46.1069 32.593C46.6395 32.0943 47.3252 31.845 48.1639 31.845C49.0025 31.845 49.6825 32.0943 50.2039 32.593C50.7252 33.0917 50.9859 33.8 50.9859 34.718C50.9859 35.636 50.7252 36.3443 50.2039 36.843C49.6825 37.3417 49.0025 37.591 48.1639 37.591C47.3252 37.591 46.6395 37.3417 46.1069 36.843C45.5855 36.3443 45.3249 35.636 45.3249 34.718ZM56.8679 32.032L50.3229 44H47.5179L54.0629 32.032H56.8679ZM48.1469 33.545C47.6029 33.545 47.3309 33.936 47.3309 34.718C47.3309 35.4887 47.6029 35.874 48.1469 35.874C48.4075 35.874 48.6115 35.7777 48.7589 35.585C48.9062 35.3923 48.9799 35.1033 48.9799 34.718C48.9799 33.936 48.7022 33.545 48.1469 33.545ZM53.4169 41.314C53.4169 40.396 53.6775 39.6877 54.1989 39.189C54.7202 38.6903 55.4002 38.441 56.2389 38.441C57.0775 38.441 57.7575 38.6903 58.2789 39.189C58.8002 39.6877 59.0609 40.396 59.0609 41.314C59.0609 42.232 58.8002 42.9403 58.2789 43.439C57.7575 43.9377 57.0775 44.187 56.2389 44.187C55.4002 44.187 54.7202 43.9377 54.1989 43.439C53.6775 42.9403 53.4169 42.232 53.4169 41.314ZM56.2219 40.141C55.9612 40.141 55.7572 40.2373 55.6099 40.43C55.4739 40.6227 55.4059 40.9173 55.4059 41.314C55.4059 42.0847 55.6779 42.47 56.2219 42.47C56.4825 42.47 56.6865 42.3737 56.8339 42.181C56.9812 41.9883 57.0549 41.6993 57.0549 41.314C57.0549 40.9287 56.9812 40.6397 56.8339 40.447C56.6865 40.243 56.4825 40.141 56.2219 40.141Z" fill="#EE5800"/>
</svg>
