<svg width="76" height="76" viewBox="0 0 76 76" fill="none" xmlns="http://www.w3.org/2000/svg">
<circle opacity="0.2" cx="38" cy="38" r="34.5" stroke="#EE5800" stroke-width="7"/>
<g opacity="0.5">
<mask id="path-2-inside-1_103_1330" fill="white">
<path d="M57.3332 66.6261C58.4017 68.2082 60.5624 68.6363 62.041 67.4284C67.4969 62.9715 71.6252 57.0687 73.9322 50.3643C76.6154 42.5665 76.6892 34.1075 74.1423 26.2641C71.5955 18.4207 66.5663 11.6187 59.8138 6.88477C54.0082 2.81464 47.1996 0.463262 40.1661 0.0617489C38.26 -0.0470634 36.763 1.56872 36.8278 3.47683C36.8926 5.38495 38.496 6.85923 40.3996 7.00659C45.9302 7.43475 51.2685 9.3376 55.8449 12.546C61.3688 16.4186 65.483 21.983 67.5665 28.3994C69.6499 34.8157 69.5896 41.7357 67.3946 48.1147C65.576 53.3996 62.374 58.0756 58.1499 61.6713C56.6961 62.9088 56.2646 65.0439 57.3332 66.6261Z"/>
</mask>
<path d="M57.3332 66.6261C58.4017 68.2082 60.5624 68.6363 62.041 67.4284C67.4969 62.9715 71.6252 57.0687 73.9322 50.3643C76.6154 42.5665 76.6892 34.1075 74.1423 26.2641C71.5955 18.4207 66.5663 11.6187 59.8138 6.88477C54.0082 2.81464 47.1996 0.463262 40.1661 0.0617489C38.26 -0.0470634 36.763 1.56872 36.8278 3.47683C36.8926 5.38495 38.496 6.85923 40.3996 7.00659C45.9302 7.43475 51.2685 9.3376 55.8449 12.546C61.3688 16.4186 65.483 21.983 67.5665 28.3994C69.6499 34.8157 69.5896 41.7357 67.3946 48.1147C65.576 53.3996 62.374 58.0756 58.1499 61.6713C56.6961 62.9088 56.2646 65.0439 57.3332 66.6261Z" stroke="#EE5800" stroke-width="20" mask="url(#path-2-inside-1_103_1330)"/>
</g>
<path d="M29.503 34.123H24.199V36.469C24.4257 36.2197 24.743 36.0157 25.151 35.857C25.559 35.6983 26.001 35.619 26.477 35.619C27.327 35.619 28.0297 35.8117 28.585 36.197C29.1517 36.5823 29.5653 37.081 29.826 37.693C30.0867 38.305 30.217 38.968 30.217 39.682C30.217 41.008 29.843 42.062 29.095 42.844C28.347 43.6147 27.293 44 25.933 44C25.0263 44 24.2387 43.847 23.57 43.541C22.9013 43.2237 22.3857 42.7873 22.023 42.232C21.6603 41.6767 21.462 41.0363 21.428 40.311H24.267C24.335 40.6623 24.4993 40.957 24.76 41.195C25.0207 41.4217 25.3777 41.535 25.831 41.535C26.3637 41.535 26.7603 41.365 27.021 41.025C27.2817 40.685 27.412 40.2317 27.412 39.665C27.412 39.1097 27.276 38.6847 27.004 38.39C26.732 38.0953 26.3353 37.948 25.814 37.948C25.4287 37.948 25.1113 38.0443 24.862 38.237C24.6127 38.4183 24.4483 38.662 24.369 38.968H21.564V31.573H29.503V34.123ZM31.8216 37.625C31.8216 35.6757 32.1956 34.14 32.9436 33.018C33.703 31.896 34.9213 31.335 36.5986 31.335C38.276 31.335 39.4886 31.896 40.2366 33.018C40.996 34.14 41.3756 35.6757 41.3756 37.625C41.3756 39.597 40.996 41.144 40.2366 42.266C39.4886 43.388 38.276 43.949 36.5986 43.949C34.9213 43.949 33.703 43.388 32.9436 42.266C32.1956 41.144 31.8216 39.597 31.8216 37.625ZM38.5196 37.625C38.5196 36.4803 38.395 35.602 38.1456 34.99C37.8963 34.3667 37.3806 34.055 36.5986 34.055C35.8166 34.055 35.301 34.3667 35.0516 34.99C34.8023 35.602 34.6776 36.4803 34.6776 37.625C34.6776 38.3957 34.723 39.036 34.8136 39.546C34.9043 40.0447 35.0856 40.4527 35.3576 40.77C35.641 41.076 36.0546 41.229 36.5986 41.229C37.1426 41.229 37.5506 41.076 37.8226 40.77C38.106 40.4527 38.293 40.0447 38.3836 39.546C38.4743 39.036 38.5196 38.3957 38.5196 37.625ZM42.6735 34.718C42.6735 33.8 42.9342 33.0917 43.4555 32.593C43.9882 32.0943 44.6738 31.845 45.5125 31.845C46.3512 31.845 47.0312 32.0943 47.5525 32.593C48.0738 33.0917 48.3345 33.8 48.3345 34.718C48.3345 35.636 48.0738 36.3443 47.5525 36.843C47.0312 37.3417 46.3512 37.591 45.5125 37.591C44.6738 37.591 43.9882 37.3417 43.4555 36.843C42.9342 36.3443 42.6735 35.636 42.6735 34.718ZM54.2165 32.032L47.6715 44H44.8665L51.4115 32.032H54.2165ZM45.4955 33.545C44.9515 33.545 44.6795 33.936 44.6795 34.718C44.6795 35.4887 44.9515 35.874 45.4955 35.874C45.7562 35.874 45.9602 35.7777 46.1075 35.585C46.2548 35.3923 46.3285 35.1033 46.3285 34.718C46.3285 33.936 46.0508 33.545 45.4955 33.545ZM50.7655 41.314C50.7655 40.396 51.0262 39.6877 51.5475 39.189C52.0688 38.6903 52.7488 38.441 53.5875 38.441C54.4262 38.441 55.1062 38.6903 55.6275 39.189C56.1488 39.6877 56.4095 40.396 56.4095 41.314C56.4095 42.232 56.1488 42.9403 55.6275 43.439C55.1062 43.9377 54.4262 44.187 53.5875 44.187C52.7488 44.187 52.0688 43.9377 51.5475 43.439C51.0262 42.9403 50.7655 42.232 50.7655 41.314ZM53.5705 40.141C53.3098 40.141 53.1058 40.2373 52.9585 40.43C52.8225 40.6227 52.7545 40.9173 52.7545 41.314C52.7545 42.0847 53.0265 42.47 53.5705 42.47C53.8312 42.47 54.0352 42.3737 54.1825 42.181C54.3298 41.9883 54.4035 41.6993 54.4035 41.314C54.4035 40.9287 54.3298 40.6397 54.1825 40.447C54.0352 40.243 53.8312 40.141 53.5705 40.141Z" fill="#EE5800"/>
</svg>
