<svg width="76" height="76" viewBox="0 0 76 76" fill="none" xmlns="http://www.w3.org/2000/svg">
<circle opacity="0.2" cx="38" cy="38" r="34.5" stroke="#EE5800" stroke-width="7"/>
<g opacity="0.5">
<mask id="path-2-inside-1_98_6722" fill="white">
<path d="M57.3332 66.6261C58.4017 68.2082 60.5624 68.6363 62.041 67.4284C67.4969 62.9715 71.6252 57.0687 73.9322 50.3643C76.6154 42.5665 76.6892 34.1075 74.1423 26.2641C71.5955 18.4207 66.5663 11.6187 59.8138 6.88477C54.0082 2.81464 47.1996 0.463262 40.1661 0.0617489C38.26 -0.0470634 36.763 1.56872 36.8278 3.47683C36.8926 5.38495 38.496 6.85923 40.3996 7.00659C45.9302 7.43475 51.2685 9.3376 55.8449 12.546C61.3688 16.4186 65.483 21.983 67.5665 28.3994C69.6499 34.8157 69.5896 41.7357 67.3946 48.1147C65.576 53.3996 62.374 58.0756 58.1499 61.6713C56.6961 62.9088 56.2646 65.0439 57.3332 66.6261Z"/>
</mask>
<path d="M57.3332 66.6261C58.4017 68.2082 60.5624 68.6363 62.041 67.4284C67.4969 62.9715 71.6252 57.0687 73.9322 50.3643C76.6154 42.5665 76.6892 34.1075 74.1423 26.2641C71.5955 18.4207 66.5663 11.6187 59.8138 6.88477C54.0082 2.81464 47.1996 0.463262 40.1661 0.0617489C38.26 -0.0470634 36.763 1.56872 36.8278 3.47683C36.8926 5.38495 38.496 6.85923 40.3996 7.00659C45.9302 7.43475 51.2685 9.3376 55.8449 12.546C61.3688 16.4186 65.483 21.983 67.5665 28.3994C69.6499 34.8157 69.5896 41.7357 67.3946 48.1147C65.576 53.3996 62.374 58.0756 58.1499 61.6713C56.6961 62.9088 56.2646 65.0439 57.3332 66.6261Z" stroke="#EE5800" stroke-width="20" mask="url(#path-2-inside-1_98_6722)"/>
</g>
<path d="M23.459 34.293V31.59H28.168V44H25.142V34.293H23.459ZM38.0786 33.766L33.8116 44H30.8366L35.1546 34.089H29.8676V31.607H38.0786V33.766ZM39.0163 34.718C39.0163 33.8 39.2769 33.0917 39.7983 32.593C40.3309 32.0943 41.0166 31.845 41.8553 31.845C42.6939 31.845 43.3739 32.0943 43.8953 32.593C44.4166 33.0917 44.6773 33.8 44.6773 34.718C44.6773 35.636 44.4166 36.3443 43.8953 36.843C43.3739 37.3417 42.6939 37.591 41.8553 37.591C41.0166 37.591 40.3309 37.3417 39.7983 36.843C39.2769 36.3443 39.0163 35.636 39.0163 34.718ZM50.5593 32.032L44.0143 44H41.2093L47.7543 32.032H50.5593ZM41.8383 33.545C41.2943 33.545 41.0223 33.936 41.0223 34.718C41.0223 35.4887 41.2943 35.874 41.8383 35.874C42.0989 35.874 42.3029 35.7777 42.4503 35.585C42.5976 35.3923 42.6713 35.1033 42.6713 34.718C42.6713 33.936 42.3936 33.545 41.8383 33.545ZM47.1083 41.314C47.1083 40.396 47.3689 39.6877 47.8903 39.189C48.4116 38.6903 49.0916 38.441 49.9303 38.441C50.7689 38.441 51.4489 38.6903 51.9703 39.189C52.4916 39.6877 52.7523 40.396 52.7523 41.314C52.7523 42.232 52.4916 42.9403 51.9703 43.439C51.4489 43.9377 50.7689 44.187 49.9303 44.187C49.0916 44.187 48.4116 43.9377 47.8903 43.439C47.3689 42.9403 47.1083 42.232 47.1083 41.314ZM49.9133 40.141C49.6526 40.141 49.4486 40.2373 49.3013 40.43C49.1653 40.6227 49.0973 40.9173 49.0973 41.314C49.0973 42.0847 49.3693 42.47 49.9133 42.47C50.1739 42.47 50.3779 42.3737 50.5253 42.181C50.6726 41.9883 50.7463 41.6993 50.7463 41.314C50.7463 40.9287 50.6726 40.6397 50.5253 40.447C50.3779 40.243 50.1739 40.141 49.9133 40.141Z" fill="#EE5800"/>
</svg>
