<svg width="76" height="76" viewBox="0 0 76 76" fill="none" xmlns="http://www.w3.org/2000/svg">
<circle cx="38" cy="38" r="34.5" stroke="#E35F27" stroke-width="7"/>
<g opacity="0.5">
<mask id="path-2-inside-1_85_5966" fill="white">
<path d="M57.3332 66.6261C58.4017 68.2082 60.5624 68.6363 62.041 67.4284C67.4969 62.9715 71.6252 57.0687 73.9322 50.3643C76.6154 42.5665 76.6892 34.1075 74.1423 26.2641C71.5955 18.4207 66.5663 11.6187 59.8138 6.88477C54.0082 2.81464 47.1996 0.463262 40.1661 0.0617489C38.26 -0.0470634 36.763 1.56872 36.8278 3.47683C36.8926 5.38495 38.496 6.85923 40.3996 7.00659C45.9302 7.43475 51.2685 9.3376 55.8449 12.546C61.3688 16.4186 65.483 21.983 67.5665 28.3994C69.6499 34.8157 69.5896 41.7357 67.3946 48.1147C65.576 53.3996 62.374 58.0756 58.1499 61.6713C56.6961 62.9088 56.2646 65.0439 57.3332 66.6261Z"/>
</mask>
<path d="M57.3332 66.6261C58.4017 68.2082 60.5624 68.6363 62.041 67.4284C67.4969 62.9715 71.6252 57.0687 73.9322 50.3643C76.6154 42.5665 76.6892 34.1075 74.1423 26.2641C71.5955 18.4207 66.5663 11.6187 59.8138 6.88477C54.0082 2.81464 47.1996 0.463262 40.1661 0.0617489C38.26 -0.0470634 36.763 1.56872 36.8278 3.47683C36.8926 5.38495 38.496 6.85923 40.3996 7.00659C45.9302 7.43475 51.2685 9.3376 55.8449 12.546C61.3688 16.4186 65.483 21.983 67.5665 28.3994C69.6499 34.8157 69.5896 41.7357 67.3946 48.1147C65.576 53.3996 62.374 58.0756 58.1499 61.6713C56.6961 62.9088 56.2646 65.0439 57.3332 66.6261Z" stroke="#E35F27" stroke-width="20" mask="url(#path-2-inside-1_85_5966)"/>
</g>
<path d="M19.306 34.701V31.573H24.542V44H21.057V34.701H19.306ZM26.2372 37.608C26.2372 35.6587 26.6339 34.123 27.4272 33.001C28.2206 31.879 29.4672 31.318 31.1672 31.318C32.8672 31.318 34.1139 31.879 34.9072 33.001C35.7119 34.123 36.1142 35.6587 36.1142 37.608C36.1142 39.58 35.7176 41.127 34.9242 42.249C34.1309 43.371 32.8786 43.932 31.1672 43.932C29.4559 43.932 28.2036 43.371 27.4102 42.249C26.6282 41.127 26.2372 39.58 26.2372 37.608ZM32.8162 37.608C32.8162 36.588 32.7086 35.8117 32.4932 35.279C32.2779 34.735 31.8359 34.463 31.1672 34.463C30.4986 34.463 30.0566 34.735 29.8412 35.279C29.6259 35.8117 29.5182 36.588 29.5182 37.608C29.5182 38.6507 29.6202 39.444 29.8242 39.988C30.0396 40.5207 30.4872 40.787 31.1672 40.787C31.8472 40.787 32.2892 40.5207 32.4932 39.988C32.7086 39.444 32.8162 38.6507 32.8162 37.608ZM37.4101 37.608C37.4101 35.6587 37.8067 34.123 38.6001 33.001C39.3934 31.879 40.6401 31.318 42.3401 31.318C44.0401 31.318 45.2867 31.879 46.0801 33.001C46.8847 34.123 47.2871 35.6587 47.2871 37.608C47.2871 39.58 46.8904 41.127 46.0971 42.249C45.3037 43.371 44.0514 43.932 42.3401 43.932C40.6287 43.932 39.3764 43.371 38.5831 42.249C37.8011 41.127 37.4101 39.58 37.4101 37.608ZM43.9891 37.608C43.9891 36.588 43.8814 35.8117 43.6661 35.279C43.4507 34.735 43.0087 34.463 42.3401 34.463C41.6714 34.463 41.2294 34.735 41.0141 35.279C40.7987 35.8117 40.6911 36.588 40.6911 37.608C40.6911 38.6507 40.7931 39.444 40.9971 39.988C41.2124 40.5207 41.6601 40.787 42.3401 40.787C43.0201 40.787 43.4621 40.5207 43.6661 39.988C43.8814 39.444 43.9891 38.6507 43.9891 37.608ZM48.3619 34.769C48.3619 33.8057 48.6339 33.069 49.1779 32.559C49.7219 32.049 50.4359 31.794 51.3199 31.794C52.1926 31.794 52.9009 32.049 53.4449 32.559C53.9889 33.069 54.2609 33.8057 54.2609 34.769C54.2609 35.721 53.9889 36.4577 53.4449 36.979C52.9009 37.489 52.1926 37.744 51.3199 37.744C50.4473 37.744 49.7333 37.489 49.1779 36.979C48.6339 36.4577 48.3619 35.721 48.3619 34.769ZM60.4319 31.981L53.9889 44H50.7929L57.2359 31.981H60.4319ZM51.3029 33.749C50.8383 33.749 50.6059 34.089 50.6059 34.769C50.6059 35.449 50.8383 35.789 51.3029 35.789C51.5296 35.789 51.7053 35.704 51.8299 35.534C51.9659 35.364 52.0339 35.109 52.0339 34.769C52.0339 34.429 51.9659 34.174 51.8299 34.004C51.7053 33.834 51.5296 33.749 51.3029 33.749ZM56.9639 41.195C56.9639 40.243 57.2359 39.512 57.7799 39.002C58.3353 38.4807 59.0493 38.22 59.9219 38.22C60.7946 38.22 61.4973 38.4807 62.0299 39.002C62.5739 39.512 62.8459 40.243 62.8459 41.195C62.8459 42.1583 62.5739 42.9007 62.0299 43.422C61.4973 43.932 60.7946 44.187 59.9219 44.187C59.0493 44.187 58.3353 43.932 57.7799 43.422C57.2359 42.9007 56.9639 42.1583 56.9639 41.195ZM59.9049 40.175C59.4289 40.175 59.1909 40.515 59.1909 41.195C59.1909 41.8863 59.4289 42.232 59.9049 42.232C60.1203 42.232 60.2903 42.147 60.4149 41.977C60.5509 41.7957 60.6189 41.535 60.6189 41.195C60.6189 40.8663 60.5509 40.617 60.4149 40.447C60.2903 40.2657 60.1203 40.175 59.9049 40.175Z" fill="#E35F27"/>
</svg>
