<svg width="156" height="272" viewBox="0 0 156 272" fill="none" xmlns="http://www.w3.org/2000/svg">
<g id="Group 1000001903" opacity="0.4">
<path id="Vector" fill-rule="evenodd" clip-rule="evenodd" d="M183.551 33.2674C216.885 41.3294 236.74 71.8353 251.896 99.8347C265.094 124.218 267.873 150.871 260.956 176.268C254.249 200.899 240.716 225.527 214.917 235.623C190.822 245.052 164.558 227.595 137.738 224.489C102.223 220.377 60.1362 238.65 35.0987 214.802C9.47057 190.391 17.6811 151.198 28.9273 120.848C39.0434 93.5483 65.0657 76.4409 92.0278 61.1692C120.104 45.2665 150.169 25.1936 183.551 33.2674Z" stroke="#E0592A"/>
<path id="Vector_2" fill-rule="evenodd" clip-rule="evenodd" d="M174.388 35.368C205.096 41.0065 229.033 65.0123 242.621 90.5859C254.8 113.508 244.492 137.582 241.74 162.13C238.376 192.139 252.103 230.533 225.029 247.528C197.795 264.622 160.229 242.156 126.704 234.338C92.8242 226.437 50.0496 229.463 31.644 202.43C13.2923 175.477 32.8615 143.209 45.6648 115.314C55.779 93.2777 73.6312 77.0629 95.3873 63.551C119.426 48.6213 144.62 29.902 174.388 35.368Z" stroke="#E0592A"/>
<path id="Vector_3" fill-rule="evenodd" clip-rule="evenodd" d="M168.34 46.3458C191.701 54.5692 218.812 54.6661 234.91 72.1369C252.799 91.5503 256.32 116.81 255.751 141.209C255.009 173.075 258.21 209.811 231.246 229.424C202.508 250.328 159.3 248.576 122.365 238.234C86.9495 228.318 56.2035 205.607 39.5254 175.743C24.2451 148.382 31.4449 118.159 39.3111 89.5158C46.8616 62.0224 53.1715 28.4307 82.6943 18.5531C111.196 9.01719 138.928 35.9921 168.34 46.3458Z" stroke="#E0592A"/>
<path id="Vector_4" fill-rule="evenodd" clip-rule="evenodd" d="M163.605 60.003C195.62 66.5449 239.786 56.205 255.192 82.4975C270.765 109.076 232.07 132.638 222.255 160.096C214.238 182.521 226.007 213.903 203.816 226.216C181.578 238.555 153.441 218.448 126.969 212.966C98.6869 207.108 62.6465 215.172 45.9117 193.511C29.1012 171.751 50.0385 145.239 55.3095 120.209C60.8229 94.028 52.0097 59.9472 76.9593 46.0767C101.976 32.1687 133.792 53.9109 163.605 60.003Z" stroke="#E0592A"/>
<path id="Vector_5" d="M223.52 89.6931C207.818 72.8339 190.313 57.9892 167.245 51.3551C142.798 44.3245 117.468 44.345 94.4684 52.5794C66.9233 62.441 37.4351 75.3569 28.8774 100.893C19.9295 127.593 31.2878 158.3 51.36 181.214C69.7223 202.176 100.44 205.832 128.29 214.381C159.833 224.062 192.45 245.439 221.611 233.47C251.809 221.076 265.918 188.078 266.321 157.728C266.671 131.353 242.95 110.554 223.52 89.6931Z" stroke="#E0592A"/>
<path id="Vector_6" fill-rule="evenodd" clip-rule="evenodd" d="M165.809 46.8391C192.92 53.754 210.653 75.785 226.031 97.2479C241.589 118.962 254.941 142.38 252.06 167.216C248.87 194.719 237.931 225.19 209.939 235.989C183.032 246.369 153.251 227.111 125.287 216.122C103.56 207.584 83.6312 197.481 68.9886 180.598C52.2639 161.313 35.0058 139.513 38.6227 116.195C42.4027 91.8245 64.3 74.4871 87.4013 61.8898C110.817 49.1211 138.364 39.8391 165.809 46.8391Z" stroke="#E0592A"/>
</g>
</svg>
