<svg width="231" height="493" viewBox="0 0 231 493" fill="none" xmlns="http://www.w3.org/2000/svg">
<g opacity="0.4">
<path fill-rule="evenodd" clip-rule="evenodd" d="M335.007 59.4376C395.73 74.1238 431.899 129.695 459.508 180.7C483.551 225.118 488.612 273.671 476.012 319.936C463.793 364.805 439.141 409.668 392.145 428.06C348.253 445.237 300.408 413.436 251.552 407.778C186.856 400.287 110.187 433.574 64.5776 390.131C17.892 345.663 32.8487 274.266 53.3355 218.98C71.7635 169.249 119.167 138.085 168.283 110.265C219.428 81.2958 274.196 44.7298 335.007 59.4376Z" stroke="white"/>
<path fill-rule="evenodd" clip-rule="evenodd" d="M318.315 63.2637C374.252 73.535 417.857 117.265 442.61 163.852C464.796 205.609 446.019 249.463 441.006 294.18C434.879 348.846 459.884 418.787 410.564 449.745C360.953 480.886 292.521 439.96 231.451 425.718C169.733 411.326 91.812 416.837 58.2833 367.593C24.8527 318.493 60.5011 259.712 83.8244 208.897C102.249 168.755 134.769 139.217 174.402 114.603C218.192 87.4066 264.087 53.3064 318.315 63.2637Z" stroke="white"/>
<path fill-rule="evenodd" clip-rule="evenodd" d="M307.298 83.2612C349.853 98.2414 399.24 98.4179 428.566 130.244C461.152 165.608 467.567 211.622 466.531 256.07C465.179 314.117 471.01 381.038 421.89 416.768C369.54 454.847 290.83 451.655 223.547 432.816C159.032 414.752 103.024 373.381 72.6418 318.979C44.8064 269.136 57.922 214.079 72.2514 161.902C86.0058 111.819 97.5004 50.626 151.281 32.6325C203.201 15.2613 253.72 64.4003 307.298 83.2612Z" stroke="white"/>
<path fill-rule="evenodd" clip-rule="evenodd" d="M298.672 108.14C356.991 120.057 437.446 101.221 465.51 149.117C493.88 197.534 423.391 240.457 405.511 290.475C390.908 331.326 412.346 388.494 371.921 410.923C331.412 433.4 280.156 396.773 231.933 386.785C180.413 376.114 114.76 390.805 84.2745 351.345C53.6517 311.707 91.7922 263.411 101.394 217.815C111.438 170.122 95.383 108.038 140.832 82.7712C186.405 57.4355 244.363 97.0423 298.672 108.14Z" stroke="white"/>
<path d="M407.817 162.225C379.212 131.513 347.324 104.471 305.302 92.3862C260.768 79.5789 214.626 79.6164 172.728 94.6165C122.551 112.581 68.8333 136.109 53.244 182.627C36.9441 231.266 57.6351 287.203 94.1996 328.944C127.649 367.13 183.606 373.791 234.339 389.363C291.8 407 351.217 445.94 404.338 424.138C459.348 401.559 485.05 341.449 485.784 286.161C486.422 238.116 443.211 200.226 407.817 162.225Z" stroke="white"/>
<path fill-rule="evenodd" clip-rule="evenodd" d="M302.687 84.1603C352.074 96.7568 384.376 136.89 412.39 175.988C440.732 215.543 465.054 258.203 459.807 303.446C453.996 353.547 434.068 409.055 383.075 428.726C334.061 447.635 279.811 412.554 228.869 392.535C189.291 376.981 152.987 358.578 126.313 327.822C95.8462 292.693 64.408 252.98 70.9967 210.502C77.8826 166.108 117.772 134.525 159.854 111.578C202.51 88.3173 252.691 71.4087 302.687 84.1603Z" stroke="white"/>
</g>
</svg>
