<svg width="128" height="271" viewBox="0 0 128 271" fill="none" xmlns="http://www.w3.org/2000/svg">
<g id="Group 236" opacity="0.4">
<path id="Vector" fill-rule="evenodd" clip-rule="evenodd" d="M17.231 32.8211C50.5647 40.8831 70.4198 71.3889 85.5756 99.3883C98.774 123.772 101.552 150.425 94.636 175.822C87.9283 200.453 74.3954 225.08 48.5967 235.177C24.5022 244.606 -1.76235 227.149 -28.582 224.043C-64.097 219.931 -106.184 238.203 -131.222 214.355C-156.85 189.945 -148.639 150.752 -137.393 120.402C-127.277 93.102 -101.255 75.9945 -74.2925 60.7229C-46.2162 44.8201 -16.1515 24.7472 17.231 32.8211Z" stroke="#E0592A"/>
<path id="Vector_2" fill-rule="evenodd" clip-rule="evenodd" d="M8.06818 34.9217C38.7753 40.5602 62.7123 64.566 76.3002 90.1396C88.4795 113.062 78.1714 137.136 75.4199 161.684C72.0562 191.692 85.7827 230.087 58.7086 247.081C31.4746 264.176 -6.09107 241.71 -39.6159 233.892C-73.4961 225.991 -116.271 229.016 -134.676 201.984C-153.028 175.03 -133.459 142.762 -120.655 114.867C-110.541 92.8315 -92.6891 76.6166 -70.933 63.1047C-46.8942 48.175 -21.7002 29.4557 8.06818 34.9217Z" stroke="#E0592A"/>
<path id="Vector_3" fill-rule="evenodd" clip-rule="evenodd" d="M2.02007 45.8994C25.3803 54.1228 52.4917 54.2197 68.59 71.6905C86.4783 91.1039 89.9996 116.363 89.4311 140.763C88.6887 172.628 91.8897 209.364 64.9253 228.978C36.1879 249.882 -7.02009 248.129 -43.9551 237.788C-79.3708 227.871 -110.117 205.161 -126.795 175.297C-142.075 147.936 -134.875 117.712 -127.009 89.0693C-119.459 61.576 -113.149 27.9843 -83.626 18.1067C-55.1245 8.57078 -27.3918 35.5457 2.02007 45.8994Z" stroke="#E0592A"/>
<path id="Vector_4" fill-rule="evenodd" clip-rule="evenodd" d="M-2.71491 59.5567C29.2992 66.0986 73.4652 55.7587 88.8713 82.0513C104.445 108.629 65.7497 132.192 55.9343 159.65C47.9179 182.075 59.6864 213.457 37.4954 225.77C15.258 238.108 -12.8793 218.002 -39.3511 212.519C-67.6334 206.661 -103.674 214.726 -120.409 193.064C-137.219 171.305 -116.282 144.793 -111.011 119.763C-105.497 93.5817 -114.311 59.5009 -89.3611 45.6304C-64.344 31.7224 -32.5281 53.4646 -2.71491 59.5567Z" stroke="#E0592A"/>
<path id="Vector_5" d="M57.2001 89.2469C41.4973 72.3876 23.9925 57.5429 0.924369 50.9088C-23.5224 43.8783 -48.8522 43.8988 -71.8519 52.1332C-99.397 61.9948 -128.885 74.9107 -137.443 100.447C-146.391 127.147 -135.032 157.854 -114.96 180.768C-96.598 201.73 -65.8806 205.386 -38.0305 213.934C-6.48748 223.616 26.1299 244.993 55.2906 233.024C85.4885 220.63 99.5973 187.632 100 157.281C100.351 130.907 76.6298 110.108 57.2001 89.2469Z" stroke="#E0592A"/>
<path id="Vector_6" fill-rule="evenodd" clip-rule="evenodd" d="M-0.511202 46.393C26.6 53.3078 44.3325 75.3389 59.7109 96.8018C75.269 118.516 88.6208 141.934 85.7401 166.77C82.55 194.273 71.6106 224.744 43.6183 235.543C16.7119 245.923 -13.069 226.665 -41.0333 215.676C-62.7601 207.137 -82.6891 197.035 -97.3317 180.152C-114.056 160.867 -131.315 139.067 -127.698 115.748C-123.918 91.3783 -102.02 74.0409 -78.9191 61.4436C-55.5033 48.6749 -27.9565 39.3929 -0.511202 46.393Z" stroke="#E0592A"/>
</g>
</svg>
