<svg width="60" height="60" viewBox="0 0 60 60" fill="none" xmlns="http://www.w3.org/2000/svg">
<g id="Group 1000001875">
<path id="Ellipse 54" d="M59.7887 29.6785C59.7887 45.9709 46.5812 59.1784 30.2889 59.1784C13.9966 59.1784 0.789062 45.9709 0.789062 29.6785C0.789062 13.3862 13.9966 0.178711 30.2889 0.178711C46.5812 0.178711 59.7887 13.3862 59.7887 29.6785Z" fill="#E26026"/>
<path id="Vector" d="M43.0971 34.8841C43.6275 36.5874 43.8174 38.2429 43.7795 39.9332C43.7527 41.114 43.0873 41.8145 41.9337 41.8174C39.9148 41.8217 37.896 41.8174 35.8772 41.8174C35.6859 41.8174 35.4945 41.8174 35.2413 41.8174C35.4368 43.0069 35.6225 44.153 35.8125 45.2992C35.8927 45.7796 36.0362 46.2572 36.0404 46.7376C36.0432 47.0603 35.9391 47.506 35.721 47.6739C35.5058 47.8389 35.0303 47.8447 34.7672 47.713C33.3969 47.0256 32.0548 46.2789 30.7112 45.535C30.42 45.3744 30.1879 45.3614 29.8854 45.5293C28.5756 46.2586 27.2476 46.9547 25.9322 47.6754C25.5678 47.8751 25.2133 47.9865 24.8489 47.7159C24.4634 47.4293 24.469 47.0314 24.5436 46.5958C24.8151 45.0343 25.0683 43.47 25.3441 41.8174H24.7743C22.7555 41.8174 20.7367 41.8188 18.7178 41.8174C17.4714 41.8159 16.8242 41.13 16.8017 39.8406C16.775 38.2588 16.9382 36.7075 17.3954 35.1924C17.4207 35.1099 17.4221 35.0187 17.4404 34.8841C17.2252 34.8841 17.0352 34.8841 16.8453 34.8841C13.8783 34.8841 10.9112 34.8841 7.94416 34.8841C6.41491 34.8841 5.67913 33.9797 5.99004 32.4356C6.57248 29.5398 8.16925 27.4458 10.755 26.1492C10.8634 26.0942 10.9731 26.0407 11.1265 25.9625C9.77869 24.7571 9.1034 23.268 9.23565 21.4561C9.33553 20.0871 9.90249 18.928 10.9014 18.0033C12.8963 16.1553 15.9618 16.258 17.8625 18.2073C19.5774 19.967 20.1824 23.4271 17.4981 25.9234C18.1677 26.359 18.874 26.7613 19.5169 27.2519C20.1486 27.7338 20.7155 28.3069 21.2994 28.8293C21.9634 28.3561 22.7513 27.715 23.6123 27.2027C24.4507 26.7035 25.3624 26.3344 26.2276 25.9148C21.7468 22.8874 21.8227 16.9165 24.9037 13.7733C27.9622 10.6518 32.9087 10.7242 35.8378 13.9498C38.8752 17.2956 38.6037 23.019 34.2677 25.9567C36.2008 26.6152 37.9016 27.6123 39.2536 28.8843C39.8783 28.3141 40.448 27.7251 41.0882 27.2302C41.7142 26.7454 42.4106 26.359 43.0985 25.9148C41.8099 24.7571 41.1318 23.268 41.2654 21.4561C41.3667 20.0871 41.9337 18.9265 42.9325 18.0033C44.9289 16.1553 47.9888 16.2566 49.8936 18.2102C51.6339 19.996 52.1882 23.4633 49.4744 25.9727C49.639 26.0551 49.7966 26.1333 49.9513 26.2129C52.4837 27.5269 54.0326 29.6209 54.5939 32.4732C54.8922 33.9869 54.1522 34.8827 52.6511 34.8827C49.684 34.8827 46.717 34.8827 43.7499 34.8827C43.5586 34.8827 43.3673 34.8827 43.0943 34.8827L43.0971 34.8841ZM42.049 40.0678C42.3796 35.777 40.3383 31.1013 36.0488 28.6267C31.9099 26.2389 26.7523 26.6253 23.0439 29.6556C19.7983 32.3082 18.3591 35.8204 18.4998 40.0417H23.6924C23.6193 39.8217 23.4702 39.7248 23.345 39.6018C22.8258 39.0895 22.3053 38.5772 21.8002 38.0519C21.1545 37.3819 21.3036 36.7712 22.1815 36.4861C22.4643 36.3949 22.7583 36.3313 23.0523 36.2907C24.303 36.1156 25.5537 35.9449 26.8072 35.7915C27.142 35.751 27.3207 35.599 27.467 35.285C28.1015 33.9189 28.7712 32.5701 29.4169 31.2113C29.5984 30.8307 29.8221 30.5369 30.2751 30.5282C30.752 30.5181 30.9912 30.8206 31.1811 31.2214C31.7467 32.4211 32.3755 33.5933 32.8792 34.819C33.1704 35.5281 33.5868 35.8059 34.3085 35.8783C35.5803 36.0056 36.8437 36.2343 38.1113 36.4195C38.5446 36.4832 38.954 36.5903 39.1059 37.0823C39.2522 37.5526 38.9835 37.8681 38.6824 38.1662C38.1774 38.6669 37.6765 39.1734 37.1771 39.6799C37.0744 39.7856 36.9844 39.9042 36.8479 40.0663H42.0504L42.049 40.0678ZM30.3089 13.2147C27.09 13.2002 24.4184 15.9006 24.3945 19.1943C24.3691 22.5907 27.0084 25.3403 30.3018 25.3475C33.5109 25.3547 36.1698 22.6413 36.1881 19.3375C36.2078 15.9643 33.5812 13.2292 30.3075 13.2147H30.3089ZM34.1285 45.4207C33.9217 44.153 33.7683 42.9924 33.532 41.8506C33.4096 41.2588 33.5657 40.8637 33.9639 40.4556C34.7686 39.6322 35.5325 38.7668 36.3203 37.9101C35.5381 37.7885 34.6982 37.6641 33.8583 37.528C31.9577 37.2198 32.3657 37.57 31.447 35.6916C31.0742 34.929 30.707 34.1634 30.292 33.3024C29.711 34.5079 29.1763 35.5976 28.66 36.6974C28.4659 37.1113 28.1803 37.3356 27.7329 37.3833C27.2096 37.4398 26.6904 37.5295 26.1713 37.6105C25.5129 37.7133 24.8559 37.8233 24.303 37.913C25.1204 38.8116 25.9279 39.7132 26.7552 40.5974C27.0478 40.91 27.1899 41.2385 27.0858 41.6697C27.0309 41.8969 27.0014 42.1299 26.9634 42.3615C26.8016 43.3499 26.6412 44.3397 26.4639 45.4265C27.5149 44.8592 28.4954 44.3788 29.4268 43.8115C30.0486 43.4324 30.5705 43.4541 31.1839 43.8216C32.1054 44.3744 33.0691 44.8491 34.1299 45.4178L34.1285 45.4207ZM19.9151 30.2475C18.3858 27.6557 15.0994 26.443 12.183 27.4241C9.71116 28.2562 7.49256 31.0478 7.68108 33.0882C7.69655 33.0969 7.71203 33.1128 7.7275 33.1128C11.1265 33.1258 14.5268 33.1389 17.9258 33.1418C18.0383 33.1418 18.1973 33.0549 18.2578 32.958C18.8163 32.0665 19.3579 31.165 19.9151 30.2475ZM52.9338 33.1504C52.8874 30.5774 50.5746 27.9465 47.8185 27.278C45.0372 26.6036 41.8563 27.9538 40.6731 30.2808C41.1852 31.0999 41.7086 31.8885 42.1742 32.7105C42.3557 33.0318 42.5344 33.1606 42.9002 33.1577C46.074 33.1418 49.2465 33.149 52.4203 33.149H52.9338V33.1504ZM14.3003 18.4157C12.4334 18.407 10.9098 19.9612 10.9098 21.8729C10.9098 23.7918 12.4208 25.3475 14.2848 25.3489C16.1208 25.3489 17.636 23.8048 17.65 21.9178C17.6641 19.9974 16.1602 18.4244 14.3017 18.4171L14.3003 18.4157ZM49.6742 21.8715C49.6685 19.9569 48.1449 18.4041 46.2808 18.4157C44.4407 18.4273 42.9382 19.9757 42.9339 21.8642C42.9297 23.7846 44.4379 25.3446 46.3005 25.3489C48.159 25.3533 49.6784 23.7875 49.6728 21.8715H49.6742Z" fill="white"/>
</g>
</svg>
